<svg width="585" height="370" viewBox="0 0 585 370" fill="none" xmlns="http://www.w3.org/2000/svg">
<path d="M30.1997 269.144L0.0556641 367.544H23.7757L29.2157 349.208H58.6237L63.9197 367.544H89.7117L59.5677 269.144H30.1997ZM35.1757 329.416L44.1357 298.816L52.9917 329.416H35.1757ZM146.376 322.656L145.288 321.576L147.464 320.672C150.259 319.406 152.793 317.629 154.936 315.432C157.016 313.272 158.712 310.632 159.872 307.648C161.032 304.664 161.6 301.296 161.6 297.568C161.6 292.416 160.672 287.968 158.84 284.32C157.021 280.673 154.28 277.564 150.888 275.304C147.568 273.08 143.528 271.464 138.872 270.52C134.392 269.616 129.368 269.16 123.912 269.16H93.1437V367.56H116.744V329.112H117.448C119.762 329.035 122.049 329.639 124.024 330.848C125.864 332.024 127.256 333.728 128.32 336.088L142.584 367.552H170.04L152.8 332.44C150.704 328.176 148.624 324.976 146.464 322.648L146.376 322.656ZM136.112 303.776C135.432 305.072 134.48 306.144 133.216 307.032C131.718 308.04 130.047 308.764 128.288 309.168C126.013 309.705 123.681 309.963 121.344 309.936H116.744V289.136H121.928C127.328 289.136 131.344 289.984 133.928 291.656C136.12 293.112 137.184 295.656 137.184 299.176C137.184 300.92 136.864 302.392 136.176 303.688L136.112 303.776ZM239.184 280.84C235.208 276.84 230.2 273.856 224.288 272.04C218.528 270.184 211.752 269.24 204.128 269.24H172.928V367.64H200.096C208.864 367.64 216.528 366.44 222.896 364.088C229.352 361.704 234.736 358.248 238.912 353.8C243.088 349.352 246.112 343.96 248.136 337.704C250.056 331.592 251.016 324.712 251.016 317.264C251.016 309.144 250.056 302.024 248.136 296.096C246.176 290.016 243.176 284.92 239.2 280.928L239.184 280.84ZM219.888 340.64C215.792 345.2 209.848 347.4 201.728 347.4H196.528V289.304H202.968C207.528 289.304 211.336 289.944 214.312 291.224C217.035 292.328 219.399 294.164 221.144 296.528C222.888 298.928 224.152 301.936 224.904 305.464C225.688 309.2 226.104 313.528 226.104 318.328C226.104 328.568 224.024 336.088 219.896 340.728L219.888 340.64ZM307.864 331.744C307.864 335.136 307.544 338.024 306.928 340.336C306.352 342.496 305.488 344.336 304.392 345.568C303.296 346.8 302.032 347.728 300.424 348.288C298.68 348.912 296.44 349.224 293.784 349.224C290.968 349.224 288.64 348.864 286.872 348.152C285.25 347.515 283.814 346.481 282.696 345.144C281.517 343.684 280.703 341.965 280.32 340.128C279.77 337.603 279.51 335.024 279.544 332.44V269.136H255.944V333.504C255.944 338.824 256.6 343.704 257.896 348.016C259.256 352.496 261.464 356.36 264.504 359.512C267.544 362.664 271.52 365.096 276.328 366.736C281 368.336 286.728 369.16 293.104 369.16C298.88 369.16 304.184 368.344 308.864 366.736C313.64 365.096 317.76 362.616 321.104 359.352C324.448 356.088 327.048 351.976 328.824 347.136C330.568 342.384 331.464 336.736 331.464 330.592V269.136H307.864V331.736V331.744ZM343.52 288.936H364.696V347.6H343.52V367.536H409.76V347.6H388.584V288.936H409.76V269.16H343.52V288.952V288.936ZM475.52 325.224L449.144 269.16H422.424V367.56H444.4V310.424L470.92 367.56H497.496V269.16H475.44V325.224H475.52ZM573.808 280.792C566.928 272.032 556.592 267.592 543.112 267.592C537.352 267.592 531.848 268.616 526.768 270.632C521.585 272.695 516.952 275.932 513.232 280.088C509.392 284.328 506.432 289.688 504.272 296.136C502.152 302.504 501.072 310.136 501.072 318.824C501.072 334.88 504.488 347.368 511.232 355.944C518.112 364.728 528.448 369.184 541.928 369.184C547.522 369.216 553.071 368.184 558.28 366.144C563.432 364.096 567.984 360.92 571.88 356.688C575.776 352.456 578.68 347.088 580.84 340.64C582.952 334.28 584.04 326.64 584.04 317.952C584.04 301.856 580.624 289.344 573.88 280.784L573.808 280.792ZM558.288 331.992C557.616 335.624 556.56 338.688 555.152 341.096C553.816 343.392 552.168 345.072 550.112 346.232C548.056 347.392 545.512 347.976 542.528 347.976C536.632 347.976 532.528 345.784 529.968 341.256C527.168 336.296 525.728 328.488 525.728 318.024C525.728 313.112 526.08 308.704 526.784 304.92C527.456 301.296 528.52 298.24 529.944 295.832C531.137 293.693 532.883 291.914 535 290.68C537.016 289.528 539.56 288.944 542.536 288.944C548.48 288.944 552.6 291.136 555.136 295.64C557.936 300.6 559.344 308.424 559.344 318.88C559.344 323.808 558.992 328.216 558.288 331.984V331.992ZM405.488 228.04C374.744 228.04 348.448 217.672 325.328 196.472C311.04 183.376 299.248 167.336 288.416 150.656C277.576 167.336 265.792 183.456 251.504 196.472C226.648 219.256 198.144 229.528 164.304 227.872C99.9357 227.592 47.6637 176.792 47.6637 114.392C47.6637 51.8161 100.224 0.912109 164.848 0.912109C200.208 0.912109 229.968 12.6161 255.848 36.6721C268.28 48.2321 278.768 61.6481 288.328 75.6801C297.896 61.6481 308.392 48.2401 320.808 36.6721C346.68 12.6721 376.448 0.912109 411.808 0.912109C476.424 0.912109 528.992 51.8161 528.992 114.392C528.992 176.792 476.712 227.592 412.352 227.872C410.016 227.984 407.696 228.032 405.408 228.032L405.488 228.04ZM311.944 112.784C324.768 133.584 337.224 152.96 352.376 166.848C369.496 182.528 387.528 188.984 410.776 187.752L411.816 187.72C454.344 187.72 488.936 154.784 488.936 114.296C488.936 73.8081 454.336 40.8721 411.816 40.8721C386.712 40.8721 366.456 48.8321 348.096 65.9121C334.376 78.6721 323.056 95.0321 311.856 112.792L311.944 112.784ZM164.904 40.7841C122.376 40.7841 87.7837 73.7281 87.7837 114.208C87.7837 154.688 122.384 187.632 164.904 187.632L165.944 187.664C189.264 188.896 207.304 182.448 224.408 166.76C239.568 152.864 252.008 133.504 264.84 112.696C253.656 94.9361 242.328 78.5841 228.616 65.8161C210.248 48.7281 190 40.7761 164.896 40.7761L164.904 40.7841Z" fill="#7B7B7B"/>
<path d="M417.2 99.7434V78.0234H394.592V99.7434H372.8V122.239H394.52V144.199H417.128V122.319H438.848V99.8234H417.2V99.7434ZM132.4 99.4794H203.784V122.679H132.4V99.4794Z" fill="#7B7B7B"/>
</svg>
