<svg width="228" height="256" viewBox="0 0 228 256" fill="none" xmlns="http://www.w3.org/2000/svg">
<path fill-rule="evenodd" clip-rule="evenodd" d="M227.616 75.0688C227.614 70.7754 226.694 66.9817 224.834 63.7257C223.006 60.5239 220.269 57.8403 216.598 55.7186C186.295 38.2794 155.962 20.8937 125.668 3.43678C117.501 -1.269 109.582 -1.09744 101.476 3.67589C89.4143 10.7754 29.0255 45.3061 11.0304 55.7088C3.6195 59.9906 0.0133594 66.5435 0.0115781 75.0608C0 110.132 0.0115781 145.202 0 180.274C0.00178125 184.473 0.882609 188.193 2.66119 191.4C4.48964 194.699 7.26483 197.456 11.0206 199.626C29.0166 210.029 89.4134 244.557 101.472 251.658C109.582 256.434 117.501 256.605 125.671 251.897C155.965 234.439 186.3 217.055 216.608 199.615C220.364 197.447 223.139 194.687 224.967 191.391C226.743 188.184 227.626 184.464 227.628 180.264C227.628 180.264 227.628 110.141 227.616 75.0688Z" fill="#8D8D8D"/>
<path fill-rule="evenodd" clip-rule="evenodd" d="M114.162 127.326L2.66113 191.4C4.48959 194.699 7.26477 197.456 11.0205 199.626C29.0165 210.029 89.4133 244.557 101.472 251.658C109.582 256.434 117.501 256.605 125.671 251.897C155.965 234.439 186.3 217.055 216.608 199.615C220.364 197.447 223.139 194.687 224.967 191.391L114.162 127.326Z" fill="#A09C9C"/>
<path fill-rule="evenodd" clip-rule="evenodd" d="M81.1368 146.305C87.625 157.61 99.8222 165.235 113.814 165.235C127.892 165.235 140.159 157.513 146.614 146.087L114.162 127.326L81.1368 146.305Z" fill="#A09C9C"/>
<path fill-rule="evenodd" clip-rule="evenodd" d="M227.616 75.0687C227.614 70.7754 226.694 66.9816 224.834 63.7256L114.162 127.326L224.967 191.391C226.743 188.184 227.626 184.464 227.628 180.264C227.628 180.264 227.628 110.141 227.616 75.0687Z" fill="#C6C6C6"/>
<path fill-rule="evenodd" clip-rule="evenodd" d="M146.614 146.087C140.159 157.513 127.892 165.235 113.814 165.235C99.8221 165.235 87.625 157.61 81.1368 146.305C77.9849 140.812 76.1725 134.452 76.1725 127.667C76.1725 106.919 93.0258 90.0998 113.814 90.0998C127.716 90.0998 139.849 97.6296 146.369 108.819L179.269 89.9105C166.192 67.3807 141.778 52.2234 113.814 52.2234C72.0649 52.2234 38.222 86.0012 38.222 127.667C38.222 141.336 41.8656 154.155 48.2336 165.212C61.2777 187.861 85.7618 203.111 113.814 203.111C141.918 203.111 166.44 187.799 179.465 165.084L146.614 146.087Z" fill="black"/>
</svg>
