<svg width="421" height="480" viewBox="0 0 421 480" fill="none" xmlns="http://www.w3.org/2000/svg">
<path d="M0.850006 0.149994H420.43L382.21 430.75L210.64 479.05L38.53 429.95L0.850006 0.149994Z" fill="#CCCCCC"/>
<path d="M210.64 87.88V141H284.02L279.99 195.73H210.64V248.05H275.16L269.53 314.05L210.64 332.56V388.1L318.63 356.71L341.97 87.88H210.64Z" fill="black"/>
<path opacity="0.51" d="M210.64 37.17L381.41 33.95L349.21 400.97L210.64 443.63V37.17Z" fill="#666666"/>
<path d="M210.64 87.88H78.78L83.61 141H210.64V87.88Z" fill="black"/>
<path d="M210.64 194.93H87.63L93.26 247.24H210.64V194.93Z" fill="black"/>
<path d="M94.87 273.8H149.13L152.82 314.85L210.64 330.15V388.1L102.92 356.71L94.87 273.8Z" fill="black"/>
<path d="M199.03 70.21C196.66 71.39 191.93 72.58 185.86 72.58C171.8 72.58 161.22 63.7 161.22 47.34C161.22 31.72 171.8 21.14 187.27 21.14C193.49 21.14 197.41 22.47 199.11 23.36L197.56 28.61C195.12 27.43 191.64 26.54 187.5 26.54C175.81 26.54 168.04 34.01 168.04 47.11C168.04 59.32 175.07 67.17 187.21 67.17C191.13 67.17 195.13 66.36 197.72 65.1L199.03 70.21Z" fill="black"/>
<path d="M206.2 64C209.09 65.78 213.3 67.26 217.74 67.26C224.33 67.26 228.17 63.78 228.17 58.75C228.17 54.09 225.51 51.42 218.77 48.83C210.63 45.94 205.6 41.73 205.6 34.7C205.6 26.93 212.04 21.16 221.73 21.16C226.84 21.16 230.54 22.34 232.76 23.6L230.98 28.85C229.35 27.96 226.02 26.48 221.51 26.48C214.7 26.48 212.11 30.55 212.11 33.95C212.11 38.61 215.14 40.91 222.03 43.57C230.47 46.83 234.76 50.9 234.76 58.22C234.76 65.92 229.06 72.58 217.29 72.58C212.48 72.58 207.23 71.17 204.56 69.4L206.2 64Z" fill="black"/>
<path d="M242.68 64C245.57 65.78 249.78 67.26 254.22 67.26C260.81 67.26 264.65 63.78 264.65 58.75C264.65 54.09 261.99 51.42 255.25 48.83C247.11 45.94 242.08 41.73 242.08 34.7C242.08 26.93 248.52 21.16 258.21 21.16C263.32 21.16 267.02 22.34 269.24 23.6L267.46 28.85C265.83 27.96 262.5 26.48 257.99 26.48C251.18 26.48 248.59 30.55 248.59 33.95C248.59 38.61 251.63 40.91 258.51 43.57C266.95 46.83 271.24 50.9 271.24 58.22C271.24 65.92 265.54 72.58 253.77 72.58C248.96 72.58 243.71 71.17 241.04 69.4L242.68 64Z" fill="black"/>
</svg>
