<svg width="960" height="480" viewBox="0 0 960 480" fill="none" xmlns="http://www.w3.org/2000/svg">
<path d="M95.3701 327.566L96.9021 325.42L169.356 187.942L169.509 186.486L137.571 126.492C134.893 121.467 127.36 122.737 126.482 128.363L95.3701 327.566Z" fill="#7D7D7D"/>
<path d="M192.793 231.867L216.574 207.512L192.786 162.1C190.528 157.802 184.223 157.789 181.989 162.1L169.279 186.347V188.411L192.793 231.867Z" fill="#F4BD62"/>
<path d="M192.369 230.853L215.488 207.175L192.369 163.15C190.174 158.965 184.84 158.534 182.668 162.718L169.892 187.325L169.509 188.583L192.369 230.853Z" fill="#FFA50E"/>
<path d="M192.369 230.853L215.488 207.175L192.369 163.15C190.174 158.965 184.84 158.534 182.668 162.718L169.892 187.325L169.509 188.583L192.369 230.853Z" fill="#7D7D7D"/>
<path d="M169.346 186.207L95.3701 327.568L96.0643 326.869L98.5871 325.844L191.3 233.476L192.473 230.28L169.346 186.207Z" fill="#242424"/>
<path d="M195.762 374.15L279.669 327.354L255.715 179.78C254.964 175.163 249.301 173.338 245.997 176.648L95.3701 327.567L178.796 374.147C181.389 375.594 184.309 376.355 187.279 376.355C190.249 376.356 193.169 375.597 195.763 374.15" fill="#FDE068"/>
<path d="M278.918 326.963L255.139 180.515C254.396 175.933 249.684 174.037 246.404 177.323L96.3081 327.28L178.817 373.392C184.049 376.313 190.421 376.315 195.656 373.396L278.918 326.963Z" fill="#C6C6C6"/>
<path d="M195.762 372.771C190.495 375.713 184.067 375.711 178.795 372.767L96.0412 326.858L95.3701 327.567L178.796 374.147C184.068 377.091 190.489 377.091 195.763 374.15L279.67 327.355L279.464 326.09L195.762 372.771Z" fill="#EEAB37"/>
<path d="M343.2 305.896H328.92V194.76H393.72V208.416H343.2V244.896H388.84V258.256H343.2V305.896ZM418.824 210.744C416.856 212.712 414.48 213.704 411.688 213.704C410.359 213.727 409.04 213.476 407.812 212.967C406.584 212.457 405.474 211.701 404.552 210.744C403.599 209.819 402.845 208.708 402.336 207.481C401.827 206.254 401.574 204.936 401.592 203.608C401.569 202.279 401.82 200.96 402.329 199.732C402.838 198.504 403.595 197.394 404.552 196.472C405.477 195.519 406.588 194.765 407.815 194.256C409.042 193.747 410.36 193.494 411.688 193.512C413.017 193.489 414.336 193.74 415.564 194.249C416.792 194.758 417.901 195.515 418.824 196.472C419.777 197.397 420.531 198.508 421.04 199.735C421.549 200.962 421.802 202.28 421.784 203.608C421.807 204.937 421.556 206.256 421.047 207.484C420.537 208.712 419.781 209.821 418.824 210.744V210.744ZM418.824 305.896H404.544V229.84H418.824V305.896ZM449.648 305.896H435.36V229.84H449.016V242.256H449.632C451.072 238.12 454.056 234.704 458.56 232.016C463.064 229.328 467.36 227.976 471.68 227.976C476 227.976 479.496 228.6 482.4 229.84L476.96 243.2C475.096 242.4 472.56 242.112 469.36 242.112C464.184 242.112 459.6 244.152 455.624 248.24C451.648 252.328 449.648 257.68 449.648 264.304V305.904V305.896ZM519.952 308.296C508.464 308.296 499.128 304.472 491.936 296.808C484.744 289.144 481.136 279.48 481.136 267.784C481.136 256.712 484.624 247.192 491.536 239.224C498.448 231.256 507.536 227.272 518.312 227.272C529.512 227.272 538.616 230.952 545.4 238.296C552.184 245.64 555.56 255.472 555.56 267.792L555.4 270.432H495.4C495.816 278.088 498.376 284.144 503.08 288.592C505.263 290.736 507.846 292.429 510.684 293.574C513.521 294.719 516.556 295.293 519.616 295.264C529.856 295.264 536.792 290.92 540.416 282.224L553.216 287.504C550.816 293.4 546.64 298.344 540.952 302.328C535.264 306.312 528.272 308.304 519.992 308.304L519.952 308.296ZM540.432 258.696C540.112 254.352 538.128 250.216 534.456 246.28C530.784 242.344 525.32 240.384 518.08 240.384C512.8 240.384 508.224 242.04 504.344 245.344C500.464 248.648 497.8 253.104 496.344 258.704H540.344L540.432 258.696ZM607.336 308.296C601.536 308.296 596.336 307.056 591.736 304.568C587.136 302.08 583.688 298.984 581.336 295.256H580.8V305.816H567.144V194.76H581.424V229.84L580.8 240.4H581.424C583.704 236.672 587.144 233.568 591.824 231.088C596.504 228.608 601.632 227.36 607.424 227.36C617.264 227.36 625.824 231.24 632.88 239C639.936 246.76 643.6 256.384 643.6 267.8C643.6 279.216 640.032 288.92 632.88 296.6C625.728 304.28 617.256 308.24 607.424 308.24L607.336 308.296ZM604.936 295.256C611.56 295.256 617.256 292.744 622.008 287.736C626.76 282.728 629.144 276.072 629.144 267.792C629.144 259.512 626.76 252.864 622.008 247.848C617.256 242.832 611.552 240.328 604.936 240.328C601.711 240.265 598.509 240.897 595.55 242.18C592.59 243.464 589.942 245.37 587.784 247.768C583.08 252.808 580.72 259.408 580.72 267.792C580.72 276.176 583.072 282.848 587.784 287.816C592.496 292.784 598.208 295.272 604.936 295.272V295.256ZM681.04 308.296C673.04 308.296 666.216 305.896 660.784 301.312C655.352 296.728 652.624 290.496 652.624 282.912C652.624 274.632 655.824 268.144 662.248 263.432C668.672 258.72 676.584 256.368 686.008 256.368C694.392 256.368 701.272 257.92 706.648 261.024V258.848C706.648 253.248 704.728 248.784 700.904 245.424C697.08 242.064 692.368 240.384 686.776 240.384C682.632 240.384 678.88 241.368 675.52 243.344C672.323 245.117 669.872 247.983 668.616 251.416L655.576 245.832C657.336 241.272 660.8 237.064 665.976 233.192C671.152 229.32 677.976 227.368 686.456 227.368C696.184 227.368 704.256 230.216 710.672 235.904C717.088 241.592 720.296 249.616 720.296 259.96V305.904H706.72V295.344H706.096C700.4 304.032 692.072 308.384 681.104 308.384L681.04 308.296ZM683.44 295.256C689.336 295.256 694.696 293.056 699.504 288.656C704.312 284.256 706.72 279.056 706.72 273.056C702.688 269.744 696.64 268.096 688.56 268.096C681.624 268.096 676.4 269.6 672.88 272.6C669.36 275.6 667.6 279.12 667.6 283.16C667.6 286.888 669.2 289.832 672.416 292.008C675.632 294.184 679.296 295.272 683.44 295.272V295.256ZM761.84 308.296C753.36 308.296 746.344 306.216 740.8 302.088C735.399 298.123 731.185 292.756 728.616 286.568L741.416 281.288C745.448 290.888 752.336 295.568 762.056 295.568C766.504 295.568 770.152 294.584 773 292.608C775.848 290.632 777.272 288.048 777.272 284.848C777.272 279.888 773.808 276.528 766.872 274.768L751.512 271.04C746.648 269.8 742.04 267.44 737.696 263.976C733.352 260.512 731.2 256 731.2 250.016C731.2 243.296 734.176 237.832 740.128 233.64C746.08 229.448 753.144 227.352 761.328 227.352C768.048 227.352 774.128 228.952 779.328 231.928C784.528 234.904 788.384 239.352 790.664 245.048L778.248 250.168C775.448 243.448 769.656 240.088 760.864 240.088C756.624 240.088 753.048 240.888 750.144 242.728C747.24 244.568 745.8 246.864 745.8 249.864C745.8 254.208 749.16 257.16 755.88 258.712L770.936 262.28C778.072 263.936 783.352 266.784 786.776 270.816C790.2 274.848 791.896 279.408 791.896 284.472C791.896 291.304 789.096 296.992 783.512 301.544C777.928 306.096 770.728 308.376 761.936 308.376L761.84 308.296ZM837.896 308.296C826.408 308.296 817.064 304.472 809.88 296.808C802.696 289.144 799.08 279.48 799.08 267.784C799.08 256.712 802.568 247.192 809.48 239.224C816.392 231.256 825.48 227.272 836.256 227.272C847.456 227.272 856.56 230.952 863.344 238.296C870.128 245.64 873.504 255.472 873.504 267.792V270.432H813.504C813.904 278.088 816.48 284.144 821.184 288.592C823.366 290.735 825.948 292.428 828.784 293.572C831.62 294.717 834.654 295.292 837.712 295.264C847.952 295.264 854.888 290.92 858.512 282.224L871.312 287.504C868.912 293.4 864.736 298.344 859.048 302.328C853.36 306.312 846.368 308.304 838.088 308.304L837.896 308.296ZM858.376 258.696C858.056 254.352 856.072 250.216 852.4 246.28C848.728 242.344 843.264 240.384 836.024 240.384C830.99 240.295 826.1 242.064 822.288 245.352C818.408 248.664 815.744 253.112 814.288 258.712H858.288L858.376 258.696Z" fill="#63666A"/>
</svg>
