<svg width="2199" height="2500" viewBox="0 0 2199 2500" fill="none" xmlns="http://www.w3.org/2000/svg">
<g clip-path="url(#clip0)">
<path d="M204.028 2247.13L-0.0883179 0.128662L2198.88 0.986282L1996.48 2245.41L1097.68 2499.27L204.028 2247.13ZM1830.96 2124.49L2001.63 199.957H1101.11L1107.97 2322.6L1830.96 2124.49V2124.49ZM1017.06 482.118H798.368L795.795 1633.92L371.267 1518.14L372.124 1781.43L1017.06 1955.53V482.118V482.118Z" fill="#BEBCBC"/>
<g filter="url(#filter0_d)">
<path d="M1101.11 199.099H2001.63L1830.96 2123.63L1101.11 2321.74V199.099ZM1784.65 1801.16L1843.82 1081.6L1406.43 1130.49V746.269L1872.98 744.554L1891.85 482.118L1187.73 485.549L1197.17 1440.95L1622.55 1368.05L1616.55 1580.75L1187.73 1694.81L1192.02 1955.53L1784.65 1801.16Z" fill="#7B7B7B"/>
<path d="M1784.77 1801.64L1785.11 1801.55L1785.14 1801.2L1844.32 1081.64L1844.37 1081.04L1843.77 1081.11L1406.93 1129.93V746.767L1872.98 745.054L1873.45 745.052L1873.48 744.59L1892.35 482.154L1892.39 481.616L1891.85 481.618L1187.73 485.049L1187.23 485.051L1187.23 485.554L1196.67 1440.96L1196.67 1441.54L1197.25 1441.44L1622.04 1368.65L1616.06 1580.36L1187.6 1694.33L1187.23 1694.43L1187.23 1694.82L1191.52 1955.54L1191.53 1956.18L1192.15 1956.02L1784.77 1801.64ZM1101.61 199.599H2001.08L1830.49 2123.24L1101.61 2321.09V199.599Z" stroke="black"/>
</g>
<path opacity="0.986" d="M372.124 1781.43L371.267 1518.14C371.267 1518.14 642.279 1594.47 795.795 1633.92L798.368 482.976H1017.06V1955.53L372.124 1781.43V1781.43Z" fill="black"/>
</g>
<defs>
<filter id="filter0_d" x="1097.11" y="199.099" width="908.515" height="2130.64" filterUnits="userSpaceOnUse" color-interpolation-filters="sRGB">
<feFlood flood-opacity="0" result="BackgroundImageFix"/>
<feColorMatrix in="SourceAlpha" type="matrix" values="0 0 0 0 0 0 0 0 0 0 0 0 0 0 0 0 0 0 127 0"/>
<feOffset dy="4"/>
<feGaussianBlur stdDeviation="2"/>
<feColorMatrix type="matrix" values="0 0 0 0 0 0 0 0 0 0 0 0 0 0 0 0 0 0 0.25 0"/>
<feBlend mode="normal" in2="BackgroundImageFix" result="effect1_dropShadow"/>
<feBlend mode="normal" in="SourceGraphic" in2="effect1_dropShadow" result="shape"/>
</filter>
<clipPath id="clip0">
<rect width="2199" height="2500" fill="white"/>
</clipPath>
</defs>
</svg>
