<svg width="1041" height="313" viewBox="0 0 1041 313" fill="none" xmlns="http://www.w3.org/2000/svg">
<path d="M326.103 0.980835H0.503113V312.941H326.103V0.980835Z" fill="#CCCCCC"/>
<path d="M94.4031 69.1407H120.143V150.901L204.963 69.1407H236.763L165.583 140.301L241.543 243.621H210.123L148.603 156.641L121.443 183.081L119.823 245.581H94.4031V69.1407Z" fill="white"/>
<path d="M384.923 46.101H411.723V146.201H412.643C418.183 138.201 423.723 130.801 428.963 124.021L492.423 46.101H525.683L450.523 134.201L531.523 253.701H499.803L431.423 151.741L411.703 174.541V253.701H384.903V46.101H384.923Z" fill="#666666"/>
<path d="M566.023 184.101C566.643 220.761 590.043 235.841 617.143 235.841C636.543 235.841 648.263 232.461 658.423 228.141L663.043 247.541C653.503 251.861 637.163 256.781 613.463 256.781C567.563 256.781 540.163 226.601 540.163 181.621C540.163 136.641 566.643 101.221 610.083 101.221C658.743 101.221 671.683 144.041 671.683 171.441C671.683 176.981 671.063 181.301 670.763 184.061H566.023V184.101ZM645.483 164.701C645.783 147.461 638.403 120.661 607.903 120.661C580.483 120.661 568.483 145.921 566.323 164.701H645.483Z" fill="#666666"/>
<path d="M705.223 151.141C705.223 133.581 704.923 118.501 703.983 104.621H727.703L728.623 133.881H729.863C736.643 113.861 752.963 101.241 771.143 101.241C774.223 101.241 776.383 101.541 778.843 102.161V127.721C776.063 127.101 773.303 126.801 769.603 126.801C750.503 126.801 736.963 141.281 733.263 161.601C732.643 165.301 732.023 169.601 732.023 174.221V253.681H705.223V151.141Z" fill="#666666"/>
<path d="M886.963 253.701L884.803 234.921H883.883C875.563 246.621 859.543 257.101 838.303 257.101C808.123 257.101 792.723 235.841 792.723 214.281C792.723 178.241 824.763 158.521 882.363 158.841V155.761C882.363 143.441 878.983 121.261 848.483 121.261C834.623 121.261 820.143 125.581 809.663 132.341L803.503 114.481C815.823 106.481 833.683 101.241 852.483 101.241C898.063 101.241 909.163 132.341 909.163 162.221V217.981C909.163 230.921 909.783 243.541 911.623 253.701H886.963ZM882.963 177.621C853.383 177.001 819.823 182.241 819.823 211.201C819.823 228.761 831.523 237.081 845.383 237.081C864.783 237.081 877.103 224.761 881.423 212.141C882.343 209.361 882.963 206.281 882.963 203.521V177.621V177.621Z" fill="#666666"/>
<path d="M949.163 225.981C957.163 231.221 971.343 236.761 984.883 236.761C1004.6 236.761 1013.84 226.901 1013.84 214.581C1013.84 201.641 1006.14 194.561 986.123 187.161C959.323 177.621 946.703 162.821 946.703 144.961C946.703 120.941 966.103 101.221 998.143 101.221C1013.24 101.221 1026.48 105.541 1034.8 110.461L1028.02 130.181C1022.16 126.481 1011.38 121.561 997.523 121.561C981.503 121.561 972.583 130.801 972.583 141.881C972.583 154.201 981.523 159.741 1000.92 167.141C1026.8 177.001 1040.04 189.941 1040.04 212.101C1040.04 238.281 1019.72 256.761 984.283 256.761C967.963 256.761 952.863 252.761 942.383 246.601L949.163 225.981Z" fill="#666666"/>
</svg>
