<svg width="960" height="480" viewBox="0 0 960 480" fill="none" xmlns="http://www.w3.org/2000/svg">
<path d="M129.176 41.2321L137.896 57.6321C139.794 60.5904 142.004 63.3367 144.488 65.8241C151.792 73.1281 158.744 80.7841 164.968 88.9841C179.752 108.4 189.728 129.96 196.856 153.304C201.128 167.56 203.448 182.168 203.624 196.952C204.344 241.136 189.192 279.08 158.552 310.616C153.587 315.615 148.226 320.203 142.52 324.336C139.48 324.336 138.064 321.936 136.816 319.88C134.416 315.88 133.072 311.504 132.36 307.056C131.288 301.712 130.576 296.368 130.936 290.84V288.344C130.76 287.808 128.088 42.4881 129.152 41.2401L129.176 41.2321Z" fill="#424242"/>
<path d="M129.176 40.7039C128.816 39.9839 128.456 40.5279 128.104 40.8799C128.28 44.4399 127.032 47.6479 125.064 50.6799C122.928 53.7199 120.072 56.0239 117.224 58.5199C101.368 72.2399 88.904 88.8079 78.92 107.336C65.736 132.28 58.792 159 56.84 187.152C55.96 197.312 60.04 233.12 63.256 243.448C71.976 270.888 87.656 293.864 108.056 313.816C113.048 318.616 118.392 323.08 123.912 327.352C125.512 327.352 125.696 325.928 126.048 324.856C126.75 322.581 127.285 320.257 127.648 317.904C129.248 309 130.144 300.088 131.208 291.184L129.248 40.7039H129.176Z" fill="#979797"/>
<path d="M137.92 335.2C138.28 331.104 140.32 327.72 142.376 324.336C140.24 323.456 138.632 321.664 137.384 319.696C136.312 317.912 135.424 315.696 134.712 313.816C132.216 306.336 131.672 298.496 130.968 290.832V286.192C130.088 286.912 129.896 292.96 129.896 293.856C129.36 302.048 128.296 310.072 126.696 317.904C126.16 321.104 125.816 324.32 123.848 327.168C123.848 327.528 123.848 327.888 124.024 328.416C127.224 337.856 128.12 347.48 128.664 357.28V360.84C128.664 365.112 128.488 364.224 132.048 365.64C133.472 366.176 135.088 366.36 136.504 367.424C137.576 367.424 137.752 366.544 137.752 365.824L137.216 359.944V343.544C137.04 340.696 137.576 337.84 137.936 335.168L137.92 335.2Z" fill="#C2BFBF"/>
<path d="M245.456 252.465V269.432C245.437 270.104 245.475 270.776 245.57 271.441C245.791 273.451 247.024 274.676 248.838 275.24C250.53 275.685 252.249 276.021 253.984 276.245C254.989 276.359 255.324 276.8 255.438 277.878C255.552 281.677 255.218 282.126 251.533 281.898C242.94 281.448 234.338 281.342 225.744 281.898H224.927C222.247 282.012 222.027 281.783 222.027 279.104C222.027 278.654 222.141 278.099 222.141 277.65C222.141 276.833 222.697 276.424 223.481 276.424C225.278 276.204 226.945 275.754 228.627 275.419C230.972 274.864 232.304 273.41 232.532 271.065C232.859 268.5 232.859 265.821 232.859 263.248L232.973 233.333C233.01 232.465 232.799 231.605 232.365 230.853C231.931 230.101 231.292 229.487 230.523 229.085C228.503 227.963 226.366 227.064 224.151 226.406C223.481 226.185 222.811 226.079 222.256 225.736C220.622 224.951 220.581 223.506 222.141 222.607C222.697 222.28 223.367 222.051 224.037 221.937C230.811 220.937 237.468 219.254 243.904 216.913C245.243 216.464 245.578 216.586 245.701 217.918C245.815 218.735 245.701 219.715 245.586 220.483C245.366 221.937 245.366 223.383 245.366 224.731C245.366 225.286 245.48 225.85 246.036 226.185C246.591 226.52 247.155 226.185 247.669 225.858C250.014 224.061 252.358 222.395 254.923 220.957C258.6 218.947 262.521 217.158 266.769 216.603C271.915 215.933 276.367 217.273 280.28 220.622C281.898 222.07 283.323 223.72 284.52 225.531C285.639 227.165 285.745 227.206 287.199 226.087C291.447 222.958 295.907 220.173 300.711 218.163C305.735 216.039 310.873 215.712 316.003 217.493C321.248 219.388 324.826 223.073 326.949 228.097C328.747 232.116 329.515 236.266 329.515 240.595V270.51C329.515 272.52 330.331 273.778 332.308 274.758C334.432 275.575 336.777 275.983 339.007 276.432C340.461 276.759 340.461 276.759 340.461 278.23C340.24 281.906 339.906 282.134 336.327 281.906C327.368 281.403 318.387 281.403 309.427 281.906C307.63 282.02 307.63 282.02 307.532 280.231V279.676C307.417 276.653 307.417 276.653 310.326 276L313.226 275.215C314.208 274.984 315.084 274.429 315.712 273.639C316.341 272.849 316.685 271.871 316.689 270.861L317.016 262.488L316.795 240.611C316.71 238.658 316.296 236.733 315.57 234.918C312.776 228.105 306.641 225.654 300.719 226.324C296.25 226.773 292.346 228.554 288.661 231.127C287.877 231.683 287.322 232.353 287.436 233.472C288.441 240.62 287.763 247.767 287.885 254.907V270.428C287.885 273.222 289.005 274.562 291.684 275.232L296.83 276.351C297.615 276.465 298.056 276.8 298.056 277.69V278.507C297.941 281.636 297.729 281.775 294.592 281.742C285.663 281.293 276.727 281.416 267.912 281.742C264.89 281.857 264.645 281.522 264.783 278.475C264.898 276.678 265.11 276.579 266.793 276.245L270.469 275.575C273.737 274.905 274.938 273.68 275.158 270.216L275.485 262.733L275.264 240.293C275.044 237.499 274.447 234.82 272.92 232.255C270.69 228.121 267.201 226.005 262.423 225.777C257.619 225.45 253.38 227.231 249.352 229.453C246.558 231.086 245.333 233.022 245.554 236.266V252.563L245.456 252.465ZM455.783 253.143V268.884C455.801 270.004 455.874 271.122 456.003 272.234C456.051 272.975 456.338 273.681 456.821 274.245C457.304 274.809 457.958 275.201 458.683 275.362C460.609 275.924 462.593 276.261 464.597 276.367C465.716 276.481 465.937 276.923 466.051 277.821V278.605C465.937 282.51 465.496 282.959 461.697 282.739C453.201 282.183 444.73 282.29 436.242 282.739L432.975 282.853C432.305 282.853 432.158 282.527 431.97 282.069C431.644 280.523 431.644 278.926 431.97 277.38C432.084 276.71 432.526 276.563 433.195 276.375C434.829 276.155 436.218 275.82 437.77 275.558C440.564 274.889 441.569 273.761 441.675 270.869L442.002 261.491V234.027C442.002 232.018 441.217 230.792 439.437 229.894C437.427 228.775 435.303 227.998 433.065 227.214C432.395 226.994 431.725 226.765 431.17 226.43C429.715 225.425 429.536 223.979 430.949 222.86C431.583 222.339 432.361 222.026 433.179 221.962C440.327 220.842 447.246 219.282 453.945 216.603C454.729 216.276 455.064 216.488 455.399 217.158C455.734 217.828 455.848 218.612 455.726 219.388L455.399 224.633C455.399 225.303 455.072 226.267 455.619 226.528C456.289 226.977 456.738 225.973 457.294 225.711C460.59 222.946 464.231 220.62 468.126 218.792C471.59 217.158 475.151 216.113 479.179 216.341C486.661 216.791 492.02 220.589 495.476 227.173C497.273 230.637 498.041 234.427 498.376 238.34L498.703 246.509L498.817 271.18C498.931 273.075 499.601 274.309 501.496 274.978C503.461 275.633 505.478 276.12 507.525 276.432C509.322 276.653 509.42 276.988 509.535 278.663V279.218C509.314 283.017 509.085 283.123 505.287 282.894C496.958 282.448 488.611 282.448 480.281 282.894C479.162 283.008 478.051 282.894 477.014 283.008C476.344 283.008 475.895 282.894 475.789 282.224C475.568 280.77 475.339 279.324 475.674 277.756C475.789 277.086 476.123 276.751 476.899 276.637L482.046 275.82C483.843 275.37 484.84 274.186 485.069 272.552L485.289 269.423L485.175 246.093C485.175 243.413 485.06 240.734 484.505 238.055C483.165 232.336 478.811 228.252 472.905 227.68C467.758 227.124 463.102 228.464 458.838 231.25C456.714 232.589 455.815 234.485 455.815 236.829V253.69C455.815 253.363 455.815 253.363 455.93 253.363L455.783 253.143Z" fill="#47474A"/>
<path d="M782.755 221.545C781.529 213.392 778.507 206.138 773.262 199.775C768.693 194.153 762.778 189.775 756.067 187.047C749.041 184.147 741.55 183.249 733.961 183.028C730.833 182.914 688.191 183.584 685.062 183.028C684.278 182.914 683.722 183.143 683.265 183.812C682.709 184.629 682.145 185.487 681.811 186.377C680.471 189.4 680.471 189.171 683.706 189.612C686.385 190.062 688.95 190.282 691.523 191.066C693.868 191.851 695.543 193.19 696.098 195.755C696.319 196.981 696.547 236.274 696.547 254.589L696.098 267.659C695.984 268.664 695.878 269.669 695.543 270.559C695.093 271.899 694.317 273.01 692.978 273.581C691.503 274.275 689.914 274.69 688.289 274.807C685.266 275.134 684.825 275.256 683.82 278.605L683.493 279.831C683.273 281.285 683.379 281.505 684.833 281.505L718.212 281.832L731.282 281.612L740.325 280.492C750.593 278.597 759.751 274.349 767.56 267.545C772.022 263.605 775.664 258.825 778.278 253.478C781.407 247.228 782.747 240.407 783.082 233.496C783.637 229.591 783.408 225.572 782.755 221.553V221.545ZM766.564 237.393C766.115 244.541 764.669 251.46 760.984 257.709C756.295 265.862 749.597 271.556 740.333 273.557C736.314 274.374 732.295 274.782 728.08 274.227C725.057 273.9 722.165 273.557 719.372 272.552C714.348 270.755 712.559 267.651 712.452 262.749L712.338 195.437C712.338 191.418 714.135 190.535 717.027 190.413C721.381 190.086 725.85 190.192 730.204 190.633C734.839 191.082 739.387 192.182 743.715 193.901C746.93 195.241 749.909 197.089 752.538 199.374C758.566 204.521 762.586 210.974 764.791 218.571C766.588 224.715 766.915 230.964 766.588 237.213L766.564 237.393ZM875.538 248.339C875.538 247.669 875.538 247.114 875.424 246.444C874.419 240.301 871.176 235.612 866.16 232.042C862.925 229.698 859.241 228.137 855.442 227.018C854.773 226.798 854.217 226.569 853.547 226.463C853.662 225.907 853.997 225.793 854.331 225.678C856.562 224.559 858.686 223.334 860.581 221.659C864.044 218.759 866.299 215.181 867.5 210.827C868.17 208.483 868.17 206.138 867.949 203.679C867.767 200.803 866.94 198.004 865.528 195.491C864.117 192.978 862.158 190.815 859.796 189.163C854.65 185.364 848.63 183.804 842.38 183.69C830.323 183.469 818.159 183.69 806.11 183.69C802.646 183.69 799.191 183.91 795.613 183.363C794.943 183.249 793.979 183.036 793.489 183.812C792.672 185.266 791.692 186.712 791.365 188.387C791.25 189.171 791.479 189.612 792.37 189.727L800.073 190.846C803.096 191.295 805.219 192.97 805.432 195.649C805.651 197.501 805.76 199.364 805.759 201.229L805.538 222.1L805.424 263.403C805.424 265.854 805.097 268.206 804.639 270.657C804.529 271.435 804.197 272.165 803.683 272.759C803.169 273.353 802.494 273.786 801.74 274.006C799.509 274.676 797.385 275.346 795.041 275.346C794.414 275.287 793.786 275.442 793.259 275.786C792.732 276.13 792.338 276.643 792.141 277.241C791.692 278.246 791.324 279.365 791.136 280.37C790.916 281.71 791.251 282.167 792.59 282.004C793.595 281.889 830.437 282.788 837.356 282.118C841.49 281.669 845.525 281.113 849.634 279.888C856.66 277.658 863.146 274.415 868.276 268.941C872.524 264.473 874.974 259.114 875.195 252.865C875.522 251.411 875.522 249.965 875.522 248.396L875.538 248.339ZM821.394 202.593L821.721 193.664C821.721 191.99 822.391 191.213 824.065 190.87C826.745 190.315 829.424 190.544 832.104 190.65C834.783 190.87 837.348 191.205 840.028 191.99C844.929 193.444 848.736 196.237 850.974 200.918C851.989 203.047 852.522 205.373 852.534 207.731C852.649 210.86 852.42 213.874 851.195 216.88C849.299 221.014 846.293 223.693 841.931 224.478C837.569 225.262 825.184 224.927 823.289 224.927C821.615 224.927 821.492 224.706 821.492 223.032V212.518C821.23 209.249 821.191 205.965 821.378 202.691L821.394 202.593ZM857.664 262.651C855.769 267.675 852.306 271.147 847.396 273.026C844.717 274.031 842.037 274.66 839.227 274.48C835.763 274.366 832.308 274.48 828.852 273.81C824.163 272.805 822.039 268.337 821.705 265.102C821.149 259.408 821.484 253.6 821.378 249.36V234.624C821.378 232.826 821.598 232.279 823.502 232.279L833.999 232.393L841.147 233.21C846.171 234.329 850.745 236.233 854.323 240.129C857.223 243.258 858.792 247.049 859.127 251.182C859.453 255.087 859.241 258.885 857.787 262.57L857.664 262.651Z" fill="#C2BFBF"/>
<path d="M574.013 229.02L576.913 229.469C580.041 229.583 583.726 228.464 584.837 224.11C585.449 222.03 585.449 219.818 584.837 217.738C584.167 217.738 583.832 218.294 583.497 218.522C581.822 219.862 579.927 220.646 577.917 220.867C573.898 221.316 569.879 221.088 565.974 219.642L560.501 217.746C556.684 216.496 552.667 215.97 548.656 216.194C542.962 216.644 537.603 218.539 532.579 221.218C527.221 224.118 523.43 228.472 521.633 234.395C520.628 237.858 520.514 241.42 520.963 244.998C522.082 253.151 526.322 258.845 533.911 261.859C534.36 261.973 534.695 262.186 535.136 262.308C536.141 262.864 536.256 263.427 535.357 264.203L532.563 266.099L525.865 270.232C524.19 271.237 523.969 272.029 524.525 273.802C525.189 275.887 526.426 277.744 528.095 279.161C529.627 280.475 531.362 281.532 533.233 282.29C534.458 282.845 534.458 283.106 533.347 284.087L526.976 288.661C524.852 290.295 522.728 291.929 520.947 294.02C519.708 295.346 518.816 296.956 518.348 298.709C517.881 300.461 517.853 302.302 518.267 304.068C519.098 307.943 521.127 311.459 524.067 314.116C526.971 316.804 530.501 318.722 534.336 319.695C540.585 321.493 547.063 321.591 553.427 320.365C562.576 318.691 570.582 314.647 576.872 307.752C581.226 303.178 583.791 297.819 584.02 291.414C584.263 287.71 583.185 284.04 580.978 281.056C578.77 278.072 575.575 275.968 571.962 275.117L565.933 273.998L547.512 272.364C545.503 272.25 543.493 271.915 541.819 270.91C539.695 269.57 539.139 267.005 540.479 265.331C541.484 264.105 542.709 263.321 544.277 263.207L547.847 262.88C554.907 262.162 561.535 259.142 566.71 254.286C569.473 251.729 571.448 248.436 572.403 244.794C573.743 239.991 573.743 234.991 572.624 230.09C572.297 228.864 572.403 228.75 573.964 228.971L574.013 229.02ZM546.646 284.626C547.316 284.74 547.986 284.626 548.656 284.626C553.345 284.847 558.148 285.181 562.723 286.423C564.217 286.864 565.673 287.424 567.077 288.098C571.546 290.548 573.22 294.796 572.657 299.371C571.987 304.395 569.193 307.965 564.839 310.317C561.939 311.951 558.696 312.662 555.346 312.997C554.121 313.111 553.002 312.997 551.777 312.997C547.872 313.111 544.073 312.67 540.389 311.102C537.824 310.097 535.7 308.651 533.805 306.633C529.9 302.728 528.087 295.581 533.919 289.772C537.489 286.505 541.516 284.193 546.646 284.626V284.626ZM559.374 249.793C557.029 255.708 551.891 257.497 546.761 256.713C542.072 256.043 538.608 253.478 536.386 249.23C533.486 243.536 532.71 237.63 534.377 231.478C535.602 226.904 538.396 223.44 543.305 222.656C549.555 221.537 555.559 223.775 558.712 230.024C560.346 233.047 561.057 236.723 561.057 241.967C560.942 244.091 560.501 246.991 559.382 249.785L559.374 249.793ZM418.72 242.196C417.715 236.167 415.485 230.694 411.352 226.12C405.209 219.307 397.399 216.317 388.576 216.292C380.873 216.178 373.627 218.416 367.141 222.435C360.765 226.251 356.091 232.363 354.079 239.517C352.184 245.995 352.282 252.587 353.752 259.163C357.657 276.808 371.283 284.389 387.572 283.278C392.375 282.951 396.95 281.383 401.296 279.259C407.774 276.236 412.463 271.441 415.698 265.078C418.263 259.833 419.374 254.245 419.267 247.882L418.712 242.188L418.72 242.196ZM402.872 266.981C402.074 269.493 400.561 271.717 398.518 273.383C396.475 275.049 393.991 276.083 391.37 276.359C386.469 277.029 381.878 275.803 377.753 272.895C374.774 270.704 372.363 267.834 370.719 264.522C366.144 255.144 365.36 245.325 367.697 235.277C368.449 232.167 370.076 229.338 372.386 227.124C376.519 223.326 381.314 222.435 386.681 223.555C391.828 224.674 395.724 227.459 398.935 231.707C402.145 235.955 403.624 240.856 404.514 246.003C404.963 248.568 404.963 251.247 405.07 252.922C405.07 258.281 404.62 262.725 402.946 266.989L402.872 266.981ZM662.646 243.095C661.829 236.617 659.411 230.702 654.828 225.793C648.8 219.209 640.982 216.415 632.282 216.3C624.799 216.186 617.88 218.31 611.516 221.994C604.369 226.242 599.459 232.263 597.564 240.415C595.301 249.31 596.249 258.718 600.243 266.981C603.919 274.799 610.177 279.823 618.444 282.053C627.593 284.503 636.309 283.392 644.789 279.259C652.157 275.689 657.402 270.11 660.416 262.512C662.213 258.044 662.867 253.249 662.981 247.661C663.095 246.656 662.867 244.867 662.654 243.087L662.646 243.095ZM647.239 265.535C645.442 271.564 641.66 275.468 635.296 276.367C630.607 277.037 626.147 275.918 622.12 273.238C618.656 270.894 616.205 267.765 614.416 264.089C612.407 260.184 611.288 256.051 610.847 251.811C610.177 246.567 610.177 241.436 611.402 236.184C611.636 235.148 611.972 234.138 612.407 233.169C615.536 225.352 622.455 221.782 630.607 223.571C636.081 224.796 640.206 227.819 643.335 232.393C646.357 236.862 647.803 241.771 648.481 247.098C648.808 249.222 648.93 251.452 648.808 253.347C648.808 257.701 648.481 261.72 647.174 265.625L647.239 265.535Z" fill="#47474A"/>
</svg>
