<svg width="683" height="355" viewBox="0 0 683 355" fill="none" xmlns="http://www.w3.org/2000/svg">
<path fill-rule="evenodd" clip-rule="evenodd" d="M1.00368 323.345H23.4972V234.236L58.6257 311.928C62.6048 321.266 68.3212 324.726 79.3895 324.726C90.4579 324.726 95.833 321.262 99.9439 311.928L134.898 234.236V323.345H157.566V234.236C157.566 225.588 154.103 221.426 146.835 219.177C129.705 213.988 118.284 218.487 113.095 230.075L78.6643 306.901L45.4399 230.075C40.4216 218.487 28.8258 213.988 11.5252 219.177C4.42812 221.426 0.968781 225.584 0.968781 234.236L0.964905 323.345H1.00368ZM176.29 250.846H198.958V299.816C198.787 302.581 199.823 308.813 212.144 308.98C218.543 309.155 260.939 308.98 261.28 308.98V250.497H283.948V330.613C283.948 350.337 259.516 354.657 248.129 354.836H176.848V339.788H248.312C262.847 338.229 261.117 330.966 261.117 328.542V322.655H213.183C190.86 322.48 176.495 312.618 176.329 301.371V250.838L176.29 250.846ZM662.513 194.089C648.676 193.74 637.941 195.128 628.944 198.937C626.353 199.984 622.196 199.984 621.854 203.265C623.239 204.641 623.406 206.895 624.62 208.803C626.694 212.266 630.332 216.931 633.617 219.351C637.255 222.124 640.889 224.89 644.689 227.313C651.437 231.463 659.05 233.887 665.624 238.04C669.432 240.464 673.236 243.578 677.045 246.177C678.984 247.561 680.159 249.815 682.583 250.676V250.152C681.373 248.601 681.024 246.351 679.818 244.614C678.084 242.888 676.355 241.325 674.621 239.599C669.607 232.851 663.374 226.964 656.626 222.124C651.088 218.316 638.98 213.127 636.731 206.728L636.39 206.379C640.191 206.03 644.689 204.645 648.327 203.606C654.214 202.055 659.574 202.396 665.624 200.841C668.397 200.143 671.162 199.282 673.935 198.417V196.866C670.82 193.752 668.571 189.598 665.286 186.658C656.463 179.045 646.768 171.603 636.731 165.375C631.368 161.916 624.445 159.662 618.736 156.727C616.654 155.687 613.198 155.168 611.988 153.438C608.866 149.637 607.141 144.615 604.891 140.112C599.877 130.595 595.029 120.043 590.705 110.006C587.591 103.258 585.683 96.51 581.882 90.2816C564.058 60.8656 544.675 43.0453 514.914 25.5663C508.515 21.9325 500.902 20.3696 492.808 18.4693L479.831 17.7712C477.059 16.5612 474.293 13.2725 471.87 11.7135C462.007 5.48511 436.57 -8.01098 429.299 9.81315C424.626 21.0599 436.221 32.1321 440.158 37.8447C443.105 41.8237 446.906 46.3224 448.988 50.8211C450.152 53.7607 450.54 56.8788 451.753 59.993C454.519 67.6059 457.117 76.0875 460.751 83.1845C462.69 86.8184 464.726 90.6306 467.15 93.9155C468.534 95.8158 470.958 96.6845 471.474 99.7987C469.05 103.262 468.883 108.447 467.499 112.779C461.267 132.333 463.69 156.556 472.513 170.913C475.286 175.237 481.821 184.758 490.687 181.12C498.474 178.006 496.736 168.144 498.986 159.492C499.509 157.417 499.16 156.032 500.196 154.644V154.993L507.293 169.354C512.656 177.832 522.003 186.658 529.786 192.545C533.936 195.66 537.225 201.027 542.414 202.927V202.404H542.072C541.033 200.853 539.474 200.154 538.09 198.944C534.975 195.83 531.516 192.022 529.092 188.563C521.828 178.875 515.429 168.144 509.717 157.072C506.944 151.708 504.52 145.825 502.278 140.461C501.231 138.383 501.231 135.265 499.506 134.233C496.907 138.034 493.106 141.33 491.195 145.999C487.906 153.438 487.565 162.61 486.355 172.127C485.656 172.301 485.967 172.127 485.657 172.476C480.126 171.095 478.218 165.379 476.143 160.539C470.954 148.253 470.086 128.528 474.584 114.338C475.794 110.704 480.991 99.2829 478.916 95.8235C477.869 92.5348 474.417 90.6345 472.509 88.0361C470.26 84.7474 467.844 80.5978 466.285 76.9639C462.135 67.2684 460.06 56.5453 455.558 46.8537C453.475 42.355 449.845 37.6818 446.902 33.5321C443.613 28.8589 439.987 25.5702 437.389 20.0361C436.524 18.1357 435.314 15.0177 436.698 12.939C437.04 11.5545 437.738 11.0387 439.114 10.6896C441.364 8.78932 447.77 11.2093 450.02 12.2409C456.419 14.8393 461.782 17.2593 467.146 20.8893C469.57 22.6189 472.168 25.9076 475.282 26.7763H478.92C484.458 27.9863 490.683 27.1254 495.868 28.6766C505.04 31.6241 513.343 35.9444 520.789 40.6214C543.453 54.9824 562.146 75.401 574.773 99.8025C576.848 103.782 577.713 107.415 579.621 111.569C583.259 120.051 587.757 128.699 591.384 137.01C595.021 145.142 598.481 153.453 603.67 160.201C606.268 163.835 616.646 165.736 621.315 167.64C624.779 169.191 630.138 170.587 633.26 172.487C639.14 176.121 645.023 180.275 650.557 184.254C653.322 186.325 661.978 190.653 662.494 194.104L662.513 194.089ZM486.056 43.724C483.665 43.7028 481.282 43.9936 478.967 44.5888V44.9379H479.308C480.692 47.7069 483.116 49.6111 484.846 52.035L488.829 60.342L489.17 59.993C491.594 58.2633 492.808 55.4943 492.808 51.3446C491.769 50.1346 491.598 48.9208 490.733 47.7108C489.694 45.9811 487.444 45.1124 486.056 43.7318V43.724Z" fill="white"/>
<path fill-rule="evenodd" clip-rule="evenodd" d="M301.222 323.345H366.282C373.895 323.345 381.167 321.794 387.046 319.021C396.908 314.522 401.581 308.472 401.581 300.51V283.9C401.581 277.501 396.218 271.439 385.495 267.29C379.957 265.215 373.034 264.001 366.286 264.001H338.945C329.773 264.001 325.449 261.228 324.235 255.178C324.064 254.488 324.064 253.794 324.064 253.103V242.892C324.064 242.369 324.064 241.682 324.235 240.992C325.445 236.319 327.869 235.105 335.869 234.244H402.485V219.185H339.154C329.982 219.185 325.138 219.708 320.81 221.093C307.485 225.243 301.602 231.82 301.602 243.408V256.567C301.602 266.766 313.023 275.426 332.402 277.501C334.477 277.676 336.726 277.676 338.976 277.676H362.338C363.203 277.676 364.064 277.676 364.754 277.85C371.851 278.54 374.965 279.75 377.04 282.341C378.425 283.726 378.774 284.939 378.774 286.498V299.645C378.774 301.197 377.734 303.283 375.66 305.009C373.585 306.735 370.288 307.949 365.964 308.123C365.099 308.123 364.587 308.298 363.715 308.298H301.222V323.345ZM542.425 297.222C542.425 312.618 554.06 321.266 577.213 323.004C579.462 323.178 581.537 323.345 583.786 323.345H642.618V308.298H583.27C570.112 308.298 565.097 305.009 565.097 297.051V219.185H542.383V297.226L542.425 297.222ZM415.938 297.908V244.273C415.938 230.602 425.626 222.291 444.493 219.701C446.568 219.526 448.643 219.352 450.543 219.352H493.452C495.701 219.352 497.609 219.526 499.858 219.701C518.718 222.291 528.231 230.598 528.231 244.273V297.908C528.231 308.98 524.256 314.867 514.906 318.85L537.05 338.916H510.927L492.932 322.655L474.759 323.694H450.536C446.097 323.672 441.679 323.092 437.385 321.968C423.035 317.982 415.938 310.373 415.938 297.908V297.908ZM440.332 296.706C440.332 297.396 440.72 298.083 440.856 298.955C442.066 305.18 447.945 308.643 456.942 308.643H477.365L458.68 291.684H484.803L501.239 306.568C504.361 304.834 506.261 302.411 506.952 299.296C507.126 298.606 507.126 297.745 507.126 297.047V245.653C507.126 244.963 507.126 244.277 506.952 243.579C505.742 237.699 499.862 234.414 491.036 234.414H456.946C446.91 234.414 440.336 238.739 440.336 245.653L440.332 296.706Z" fill="#7B7B7B"/>
</svg>
