<svg width="590" height="362" viewBox="0 0 590 362" fill="none" xmlns="http://www.w3.org/2000/svg">
<g clip-path="url(#clip0)">
<path d="M291.53 361.239C289.583 361.239 287.65 360.729 285.943 359.746L268.16 349.218C265.504 347.733 266.8 347.207 267.676 346.905C271.218 345.665 271.936 345.385 275.716 343.238C276.114 343.011 276.634 343.091 277.04 343.331L290.702 351.438C291.195 351.705 291.895 351.705 292.352 351.438L345.619 320.691C346.112 320.411 346.432 319.838 346.432 319.251V257.785C346.432 257.172 346.112 256.625 345.608 256.318L292.363 225.598C291.87 225.305 291.216 225.305 290.723 225.598L237.488 256.318C236.972 256.612 236.644 257.185 236.644 257.772V319.238C236.644 319.825 236.964 320.385 237.471 320.665L252.058 329.091C259.978 333.051 264.818 328.385 264.818 323.691V263.025C264.818 262.158 265.498 261.492 266.364 261.492H273.111C273.951 261.492 274.644 262.158 274.644 263.025V323.718C274.644 334.278 268.884 340.345 258.871 340.345C255.791 340.345 253.364 340.345 246.591 337.011L232.618 328.958C229.164 326.958 227.031 323.225 227.031 319.238V257.772C227.031 253.772 229.164 250.038 232.618 248.065L285.938 217.305C289.311 215.398 293.791 215.398 297.137 217.305L350.391 248.078C353.831 250.065 355.977 253.785 355.977 257.785V319.251C355.977 323.238 353.831 326.958 350.391 328.958L297.137 359.718C295.431 360.705 293.498 361.211 291.524 361.211" fill="#7B7B7B"/>
<path d="M307.983 318.885C284.676 318.885 279.79 308.186 279.79 299.213C279.79 298.359 280.478 297.679 281.332 297.679H288.212C288.972 297.679 289.612 298.233 289.732 298.983C290.772 305.994 293.866 309.53 307.959 309.53C319.185 309.53 323.959 306.994 323.959 301.041C323.959 297.614 322.599 295.067 305.159 293.361C290.572 291.921 281.559 288.707 281.559 277.041C281.559 266.294 290.626 259.894 305.812 259.894C322.865 259.894 331.319 265.814 332.385 278.534C332.425 278.974 332.265 279.401 331.972 279.721C331.679 280.028 331.265 280.214 330.839 280.214H323.919C323.199 280.214 322.572 279.708 322.425 279.014C320.759 271.641 316.732 269.281 305.786 269.281C293.532 269.281 292.106 273.548 292.106 276.748C292.106 280.628 293.786 281.761 310.319 283.947C326.692 286.121 334.465 289.187 334.465 300.694C334.465 312.294 324.785 318.947 307.906 318.947L307.983 318.885ZM372.785 253.761H374.572C376.039 253.761 376.319 252.734 376.319 252.134C376.319 250.561 375.239 250.561 374.639 250.561H372.799L372.785 253.761ZM370.612 248.721H374.572C375.932 248.721 378.599 248.721 378.599 251.761C378.599 253.881 377.239 254.321 376.425 254.588C378.012 254.694 378.119 255.734 378.332 257.201C378.439 258.121 378.612 259.708 378.932 260.241H376.492C376.425 259.708 376.052 256.774 376.052 256.614C375.892 255.961 375.665 255.641 374.852 255.641H372.839V260.254H370.612V248.721ZM365.852 254.454C365.852 259.228 369.705 263.094 374.439 263.094C379.212 263.094 383.065 259.148 383.065 254.454C383.065 249.668 379.159 245.868 374.425 245.868C369.759 245.868 365.839 249.614 365.839 254.441L365.852 254.454ZM384.719 254.481C384.719 260.134 380.092 264.748 374.452 264.748C368.852 264.748 364.185 260.188 364.185 254.481C364.185 248.668 368.959 244.214 374.452 244.214C379.985 244.214 384.705 248.681 384.705 254.481" fill="#7B7B7B"/>
<path fill-rule="evenodd" clip-rule="evenodd" d="M126.581 120.733C126.581 118.28 125.288 116.026 123.17 114.806L66.6959 82.3131C65.7425 81.7531 64.6745 81.4598 63.5919 81.4198H63.0079C61.9252 81.4598 60.8572 81.7531 59.8879 82.3131L3.41599 114.806C1.312 116.033 0 118.286 0 120.74L0.124 208.26C0.124 209.473 0.750665 210.606 1.81733 211.206C2.85733 211.846 4.16399 211.846 5.20399 211.206L38.7773 191.98C40.8973 190.718 42.1906 188.489 42.1906 186.06V145.173C42.1906 142.733 43.4839 140.48 45.5973 139.266L59.8906 131.034C60.9519 130.421 62.1172 130.117 63.3039 130.117C64.4719 130.117 65.6639 130.418 66.6959 131.033L80.9825 139.262C83.0972 140.476 84.3958 142.729 84.3958 145.169V186.053C84.3958 188.48 85.7065 190.72 87.8158 191.973L121.368 211.186C122.421 211.813 123.732 211.813 124.781 211.186C125.816 210.586 126.472 209.453 126.472 208.24L126.581 120.733ZM393.071 166.301C393.071 166.91 392.747 167.474 392.218 167.776L372.821 178.957C372.294 179.26 371.643 179.26 371.118 178.957L351.718 167.776C351.185 167.473 350.865 166.909 350.865 166.301V143.906C350.865 143.296 351.185 142.733 351.705 142.426L371.091 131.226C371.625 130.92 372.278 130.92 372.811 131.226L392.211 142.426C392.745 142.733 393.065 143.296 393.065 143.906L393.071 166.301ZM398.311 0.431924C397.253 -0.157408 395.965 -0.141408 394.919 0.467924C393.879 1.08126 393.237 2.20125 393.237 3.41459V90.0811C393.237 90.9344 392.783 91.7211 392.045 92.1478C391.311 92.5744 390.398 92.5744 389.658 92.1478L375.511 83.9998C373.405 82.7811 370.81 82.7811 368.695 83.9998L312.202 116.604C310.091 117.817 308.789 120.07 308.789 122.497V187.724C308.789 190.164 310.091 192.404 312.202 193.63L368.695 226.257C370.805 227.47 373.402 227.47 375.518 226.257L432.011 193.617C434.118 192.39 435.425 190.15 435.425 187.71V25.1505C435.425 22.6759 434.078 20.3999 431.918 19.1906L398.311 0.431924ZM586.435 143.317C588.534 142.098 589.826 139.848 589.826 137.421V121.613C589.826 119.181 588.532 116.937 586.43 115.713L530.296 83.1264C528.176 81.8998 525.576 81.8998 523.456 83.1264L466.976 115.726C464.856 116.953 463.563 119.193 463.563 121.633V186.833C463.563 189.286 464.883 191.553 467.003 192.766L523.123 224.753C525.19 225.94 527.723 225.953 529.816 224.793L563.763 205.926C564.83 205.326 565.51 204.193 565.51 202.966C565.51 201.74 564.856 200.593 563.79 199.993L506.963 167.38C505.896 166.78 505.243 165.646 505.243 164.433V143.98C505.243 142.758 505.883 141.633 506.95 141.025L524.63 130.825C525.683 130.212 526.976 130.212 528.03 130.825L545.723 141.025C546.776 141.625 547.43 142.758 547.43 143.972V160.052C547.43 161.265 548.083 162.398 549.136 163.012C550.19 163.612 551.496 163.612 552.55 162.998L586.435 143.317Z" fill="#333333"/>
<path fill-rule="evenodd" clip-rule="evenodd" d="M526.05 140.266C526.45 140.03 526.952 140.03 527.357 140.266L538.197 146.52C538.602 146.754 538.85 147.186 538.85 147.653V160.173C538.85 160.64 538.602 161.072 538.197 161.306L527.357 167.56C526.952 167.796 526.45 167.796 526.05 167.56L515.217 161.306C514.804 161.072 514.55 160.64 514.55 160.173V147.653C514.55 147.186 514.79 146.754 515.204 146.52L526.05 140.266Z" fill="#7B7B7B"/>
<path fill-rule="evenodd" clip-rule="evenodd" d="M213.63 79.9475C215.704 78.6842 218.303 78.6842 220.405 79.9475L276.612 113.422C278.714 114.679 280 116.991 280 119.489V186.511C280 189.009 278.714 191.321 276.612 192.578L220.405 226.052C218.303 227.316 215.704 227.316 213.63 226.052L157.457 192.578C155.314 191.321 154 189.009 154 186.511V119.489C154 116.991 155.245 114.679 157.388 113.422L213.63 79.9475Z" fill="#7B7B7B"/>
</g>
<defs>
<clipPath id="clip0">
<rect width="589.827" height="361.238" fill="white"/>
</clipPath>
</defs>
</svg>
