<svg width="916" height="328" viewBox="0 0 916 328" fill="none" xmlns="http://www.w3.org/2000/svg">
<path d="M150.132 140.887C135.782 132.603 124.567 119.815 118.227 104.507C111.886 89.1987 110.773 72.2262 115.062 56.2215C119.35 40.2168 128.8 26.0744 141.945 15.9877C155.091 5.90094 171.197 0.433594 187.766 0.433594C204.335 0.433594 220.442 5.90094 233.587 15.9877C246.732 26.0744 256.182 40.2168 260.47 56.2215C264.759 72.2262 263.646 89.1987 257.305 104.507C250.965 119.815 239.75 132.603 225.401 140.887L202.738 101.635C208.447 98.339 212.909 93.2516 215.431 87.1616C217.954 81.0716 218.396 74.3194 216.69 67.9523C214.984 61.5852 211.225 55.9589 205.995 51.9461C200.766 47.9333 194.358 45.7583 187.766 45.7583C181.175 45.7583 174.767 47.9333 169.537 51.9461C164.308 55.9589 160.549 61.5852 158.842 67.9523C157.136 74.3194 157.579 81.0716 160.102 87.1616C162.624 93.2516 167.086 98.339 172.794 101.635L150.132 140.887Z" fill="#AFAFAF"/>
<path d="M311.316 159.113C325.666 167.397 336.88 180.185 343.221 195.493C349.562 210.801 350.674 227.774 346.386 243.778C342.097 259.783 332.648 273.926 319.503 284.012C306.357 294.099 290.251 299.566 273.682 299.566C257.112 299.566 241.006 294.099 227.861 284.012C214.716 273.926 205.266 259.783 200.977 243.778C196.689 227.774 197.801 210.801 204.142 195.493C210.483 180.185 221.698 167.397 236.047 159.113L258.709 198.365C253.001 201.661 248.539 206.748 246.017 212.838C243.494 218.928 243.052 225.681 244.758 232.048C246.464 238.415 250.223 244.041 255.453 248.054C260.682 252.067 267.09 254.242 273.681 254.242C280.273 254.242 286.681 252.067 291.91 248.054C297.14 244.041 300.899 238.415 302.605 232.048C304.311 225.681 303.869 218.928 301.346 212.838C298.824 206.748 294.362 201.661 288.654 198.365L311.316 159.113Z" fill="#DBDBDB"/>
<path d="M178.745 224.294C178.745 240.864 173.277 256.97 163.191 270.116C153.104 283.261 138.961 292.711 122.956 297C106.951 301.288 89.9786 300.176 74.6704 293.835C59.3622 287.494 46.574 276.279 38.2892 261.93C30.0045 247.58 26.6861 230.898 28.8489 214.47C31.0116 198.042 38.5345 182.787 50.2509 171.071C61.9673 159.354 77.2223 151.831 93.65 149.669C110.078 147.506 126.76 150.824 141.11 159.109L118.447 198.362C112.738 195.066 106.101 193.746 99.566 194.606C93.0306 195.466 86.9617 198.459 82.3006 203.12C77.6395 207.782 74.6466 213.85 73.7862 220.386C72.9258 226.921 74.246 233.558 77.5419 239.267C80.8378 244.975 85.9253 249.437 92.0154 251.96C98.1054 254.482 104.858 254.925 111.225 253.219C117.592 251.512 123.218 247.753 127.231 242.523C131.244 237.294 133.419 230.886 133.419 224.294L178.745 224.294Z" fill="#535353"/>
<path fill-rule="evenodd" clip-rule="evenodd" d="M411.226 81.9504C421.885 80.9911 432.682 80.9993 443.3 82.5243C449.842 83.6721 456.787 85.3774 461.698 90.1491C466.846 95.8882 468.117 103.882 469.24 111.236C471.093 126.502 470.88 141.981 469.24 157.264C468.142 164.642 467.068 172.776 462.189 178.843C456.86 184.254 449.072 185.795 441.693 186.935C431.034 188.263 420.212 188.574 409.513 187.509C402.265 186.689 394.698 185.492 388.524 181.36C384.531 178.9 382.392 174.358 380.932 170.021C378.005 160.986 377.636 151.393 377.243 141.981C377.194 129.544 377.431 116.975 379.866 104.759C381.178 99.0447 382.769 92.7645 387.598 88.9603C394.403 84.0247 403.036 82.8358 411.177 81.9914L411.226 81.9504ZM412.989 99.0037C422.032 98.2822 431.272 98.0608 440.209 99.8235C443.677 100.52 447.768 102.283 448.407 106.153C451.113 117.254 450.49 128.822 450.597 140.178C450.269 148.253 450.449 156.591 447.743 164.323C445.382 169.406 438.946 169.816 434.093 170.554C424.361 171.103 414.252 171.595 404.823 168.709C400.478 167.561 399.084 162.97 398.428 158.969C396.625 147.36 397.198 135.545 397.444 123.846C397.936 117.287 397.854 110.482 400.207 104.169C402.913 100.07 408.504 99.6186 412.997 98.9381L412.989 99.0037ZM508.324 117.311C514.883 113.196 522.852 112.523 530.329 113.212C537.298 113.811 545.054 116.18 548.792 122.608C553.252 130.675 553.507 140.202 553.818 149.196C553.621 158.444 553.449 168.102 549.719 176.703C547.538 181.925 542.52 185.344 537.158 186.705C528.943 188.722 519.908 188.943 511.988 185.664C507.709 183.991 504.749 180.351 502.298 176.621V218.893H484.113V113.925H501.674L501.183 124.731C503.355 122.083 505.282 119.156 508.34 117.336L508.324 117.311ZM514.227 126.756C519.293 126.371 524.655 126.264 529.394 128.347C532.395 129.642 533.985 132.815 534.518 135.89C536.093 143.826 535.896 152.025 535.338 160.059C534.781 164.913 534.002 171.193 528.656 173.071C522.483 175.088 515.44 175.219 509.34 172.858C503.667 170.398 503.003 163.593 502.453 158.264C502.125 150.082 501.633 141.67 504.093 133.717C505.323 129.208 509.996 127.158 514.309 126.748L514.227 126.756ZM575.471 117.369C584.367 112.802 594.787 112.638 604.552 113.105C612.75 113.786 622.54 115.139 627.016 122.919C632.067 132.307 631.247 143.416 631.952 153.648H582.432C583.006 158.961 582.325 164.692 585.006 169.553C587.302 173.407 592.155 174.186 596.263 174.415C601.346 174.448 606.806 174.866 611.488 172.505C614.169 170.406 614.193 166.766 614.521 163.601H631.903C631.689 169.644 630.919 176.416 626.057 180.671C618.678 187.205 608.348 187.886 599.026 188.066C590.803 187.82 582.112 187.41 574.741 183.352C568.781 179.826 566.87 172.694 565.829 166.135C564.501 156.665 564.165 147.032 565.296 137.439C566.223 129.937 568.248 121.042 575.463 117.213L575.471 117.369ZM586.129 128.888C591.073 125.887 597.198 126.486 602.74 126.568C606.183 126.937 610.365 127.142 612.603 130.175C614.882 133.93 614.489 138.538 614.489 142.744C603.83 142.76 593.197 142.793 582.546 142.736C582.71 138.046 582.341 132.323 586.121 128.798L586.129 128.888ZM670.576 117.41C676.84 113.064 684.924 112.458 692.302 113.31C698.574 113.966 705.215 116.36 708.921 121.771C712.201 126.264 713.119 131.979 713.168 137.349L713.16 187.132H695.885L695.861 140.046C695.697 136.619 695.828 132.651 693.237 130.011C690.482 127.035 686.17 126.453 682.333 126.486C677.684 126.461 672.658 127.256 669.067 130.47C665.566 133.455 664.148 138.275 664.214 142.727L664.197 187.14H647.021V113.925H663.91L663.336 126.764C665.181 123.296 667.108 119.632 670.502 117.434L670.576 117.41ZM744.2 85.2135C753.686 81.934 763.877 81.5732 773.715 81.2207C783.324 81.2699 793.376 81.3601 802.354 85.3201C806.912 87.2222 810.077 91.3871 811.618 95.9784C814.127 102.849 814.201 110.285 814.242 117.516C807.625 117.516 801.009 117.533 794.401 117.508C794.294 112.425 794.68 106.719 791.531 102.398C788.252 99.1431 783.365 99.1513 779.233 98.6511C770.625 98.4872 761.688 97.9378 753.448 100.906C750.48 101.849 748.939 104.817 748.341 107.678C746.652 115.352 746.635 123.272 746.652 131.102C746.75 141.563 746.586 152.172 748.824 162.47C749.415 166.241 752.883 168.553 756.351 169.381C764.385 171.382 772.781 171.021 780.988 170.611C785.267 170.054 790.482 169.767 793.171 165.839C796.041 161.15 795.631 155.386 795.409 150.123H815.439C815.357 158.436 815.209 167.028 812.192 174.899C810.552 179.015 807.42 182.507 803.173 184.082C794.999 187.361 785.956 187.566 777.372 188.181C767.321 188.345 757.138 188.099 747.307 185.762C741.544 184.262 735.255 181.614 732.574 175.891C729.164 168.315 728.541 159.887 727.655 151.738L726.712 119.394C727.229 110.662 728.024 101.455 732.738 93.8467C735.247 89.608 739.642 86.9598 744.217 85.402L744.2 85.2135ZM818.603 82.1636L839.281 82.2619L860.122 145.851L867.336 170.546L875.33 143.851L895.351 82.2537L915.799 82.1308V84.3854L882.676 187C872.428 187.205 862.179 187.246 851.931 186.984L818.612 82.1717L818.603 82.1636Z" fill="white"/>
</svg>
