<svg width="1024" height="529" viewBox="0 0 1024 529" fill="none" xmlns="http://www.w3.org/2000/svg">
<path d="M0 264.206C0 410.007 229.235 528.206 512 528.206C794.765 528.206 1024 410.007 1024 264.206C1024 118.405 794.765 0.206267 512 0.206267C229.235 0.206267 0 118.407 0 264.206Z" fill="url(#paint0_radial)"/>
<path d="M512 508.602C783.723 508.602 1004 399.183 1004 264.206C1004 129.229 783.723 19.8101 512 19.8101C240.278 19.8101 20.0002 129.229 20.0002 264.206C20.0002 399.183 240.278 508.602 512 508.602Z" fill="#7B7B7B"/>
<path d="M278.174 294.507C300.516 294.507 317.196 290.469 327.748 282.509C338.189 274.631 345.4 260.977 349.179 241.934C352.704 224.135 351.361 211.706 345.191 204.999C338.881 198.148 325.241 194.674 304.648 194.674H268.944L249.148 294.509H278.172L278.174 294.507ZM161.389 417.486C159.731 417.486 158.157 416.76 157.104 415.504C156.582 414.884 156.208 414.159 156.006 413.381C155.804 412.603 155.781 411.79 155.937 411.002L208.396 146.439C208.642 145.199 209.321 144.081 210.316 143.277C211.311 142.473 212.56 142.034 213.85 142.034H326.913C362.446 142.034 388.894 151.473 405.518 170.146C422.231 188.896 427.392 215.111 420.857 248.053C418.198 261.475 413.624 273.938 407.265 285.101C400.894 296.273 392.479 306.611 382.246 315.832C369.994 327.072 356.128 335.222 341.068 340.018C326.248 344.75 307.217 347.151 284.498 347.151H238.716L225.642 413.082C225.397 414.323 224.718 415.441 223.724 416.245C222.729 417.049 221.48 417.489 220.191 417.489H161.389V417.486Z" fill="black"/>
<path d="M555.673 347.147C554.013 347.147 552.441 346.421 551.387 345.165C550.334 343.909 549.902 342.261 550.221 340.663L573.424 223.602C575.632 212.47 575.087 204.479 571.893 201.103C569.937 199.039 564.063 195.578 546.695 195.578H504.654L475.478 342.738C475.232 343.979 474.554 345.098 473.559 345.902C472.564 346.706 471.314 347.146 470.024 347.146H411.691C410.872 347.146 410.063 346.968 409.321 346.625C408.58 346.283 407.926 345.784 407.405 345.164C406.883 344.544 406.508 343.819 406.307 343.041C406.105 342.263 406.081 341.45 406.237 340.662L458.697 76.099C458.943 74.8584 459.622 73.7405 460.617 72.9367C461.612 72.1329 462.861 71.6934 464.15 71.6935H522.484C523.303 71.6935 524.112 71.8712 524.853 72.2137C525.594 72.5563 526.249 73.0553 526.77 73.6749C527.292 74.2946 527.666 75.0197 527.868 75.7981C528.07 76.5765 528.094 77.389 527.937 78.1774L515.278 142.032H560.504C594.958 142.032 618.319 147.986 631.93 160.234C645.819 172.73 650.128 192.708 644.795 219.627L620.387 342.742C620.142 343.983 619.463 345.101 618.468 345.905C617.473 346.709 616.223 347.149 614.934 347.149H555.675L555.673 347.147Z" fill="black"/>
<path d="M737.093 294.507C759.435 294.507 776.115 290.469 786.667 282.509C797.107 274.631 804.319 260.981 808.1 241.934C811.624 224.135 810.282 211.706 804.109 204.999C797.8 198.148 784.159 194.674 763.567 194.674H727.863L708.067 294.509H737.091L737.093 294.507ZM620.311 417.486C618.654 417.486 617.08 416.76 616.026 415.504C615.505 414.884 615.129 414.159 614.927 413.381C614.725 412.603 614.701 411.79 614.857 411.002L667.317 146.439C667.563 145.198 668.242 144.08 669.237 143.276C670.233 142.473 671.483 142.033 672.772 142.034H785.833C821.37 142.034 847.815 151.473 864.441 170.146C881.154 188.896 886.311 215.108 879.78 248.053C877.117 261.475 872.544 273.938 866.183 285.101C859.813 296.273 851.398 306.611 841.165 315.832C828.913 327.072 815.046 335.222 799.987 340.018C785.167 344.75 766.135 347.151 743.417 347.151H697.63L684.561 413.082C684.315 414.323 683.636 415.442 682.641 416.246C681.645 417.05 680.395 417.49 679.106 417.489H620.309L620.311 417.486Z" fill="black"/>
<defs>
<radialGradient id="paint0_radial" cx="0" cy="0" r="1" gradientUnits="userSpaceOnUse" gradientTransform="translate(307.407 93.0217) scale(672.329 659.016)">
<stop stop-color="white"/>
<stop offset="0.3" stop-color="#A7A7A7"/>
<stop offset="0.75" stop-color="#626262"/>
<stop offset="1"/>
</radialGradient>
</defs>
</svg>
