<svg width="898" height="261" viewBox="0 0 898 261" fill="none" xmlns="http://www.w3.org/2000/svg">
<path d="M339.003 111.46C339.003 83.9408 331.158 69.8201 315.465 69.0441C309.221 68.7509 303.126 69.7208 297.194 72.0442C292.461 73.736 289.299 75.4142 287.598 77.1083V142.788C297.636 149.086 306.55 152.036 314.324 151.556C330.79 150.468 339.001 137.119 339.001 111.458L339.003 111.46ZM358.362 112.602C358.362 126.58 355.084 138.181 348.488 147.412C341.139 157.856 330.955 163.233 317.933 163.529C308.116 163.845 298.004 160.766 287.598 154.319V214.011L270.764 208.007V75.5112C273.527 72.1232 277.08 69.2133 281.365 66.7433C291.385 60.9055 303.562 57.9009 317.908 57.7543L318.147 57.9934C331.241 57.8288 341.336 63.1816 348.425 74.1082C355.035 84.11 358.35 96.9291 358.35 112.602H358.362ZM461.222 151.777C461.222 170.526 459.343 183.514 455.583 190.733C451.806 197.951 444.624 203.716 434.018 208.011C425.417 211.399 416.114 213.244 406.133 213.556L403.352 202.947C413.502 201.567 420.646 200.184 424.79 198.803C432.949 196.04 438.55 191.804 441.624 186.131C444.092 181.507 445.308 172.687 445.308 159.626V155.244C433.95 160.435 421.603 163.105 409.115 163.071C400.828 163.071 393.515 160.477 387.217 155.244C380.145 149.552 376.608 142.332 376.608 133.584V63.5222L393.442 57.7566V128.279C393.442 135.813 395.874 141.615 400.735 145.684C405.596 149.753 411.896 151.707 419.615 151.56C427.33 151.395 435.602 148.411 444.387 142.571V60.2965H461.222V151.777ZM526.96 162.608L521.415 162.848C511.896 162.848 504.47 160.583 499.167 156.035C493.882 151.486 491.227 145.208 491.227 137.193V70.8645H479.723V60.2739H491.227V32.1701L508.043 26.1835V60.2943H526.96V70.8848H508.043V136.751C508.043 143.067 509.735 147.545 513.128 150.159C516.06 152.313 520.662 153.547 526.96 153.859V162.627V162.608ZM628.888 161.228H612.054V96.2479C612.054 89.6387 610.507 83.9453 607.43 79.1948C603.875 73.8172 598.939 71.1284 592.603 71.1284C584.889 71.1284 575.234 75.1977 563.649 83.3385V161.228H546.814V5.90698L563.649 0.601562V71.3449C574.404 63.5176 586.156 59.6153 598.919 59.6153C607.834 59.6153 615.054 62.6154 620.578 68.6043C626.123 74.5909 628.884 82.0483 628.884 90.9628V161.251L628.888 161.228ZM718.363 108.81C718.363 98.2374 716.333 89.5079 712.358 82.5987C707.606 74.1849 700.223 69.7411 690.239 69.2832C671.787 70.3524 662.575 83.5754 662.575 108.916C662.575 120.537 664.492 130.244 668.359 138.015C673.294 147.94 680.697 152.841 690.571 152.677C709.099 152.53 718.361 137.906 718.361 108.785L718.363 108.81ZM736.799 108.923C736.799 123.968 732.948 136.494 725.295 146.496C716.84 157.693 705.163 163.312 690.264 163.312C675.493 163.312 663.98 157.673 655.675 146.496C648.141 136.494 644.385 123.971 644.385 108.923C644.385 94.7794 648.457 82.8784 656.595 73.1924C665.196 62.9154 676.506 57.7588 690.485 57.7588C704.463 57.7588 715.846 62.9154 724.614 73.1924C732.734 82.8806 736.824 94.7794 736.824 108.923H736.799ZM833.309 161.228H816.475V92.5643C816.475 85.0303 814.21 79.1564 809.679 74.9202C805.167 70.7021 799.106 68.6584 791.574 68.8231C783.58 68.9697 775.974 71.5863 768.753 76.6504V161.228H751.919V74.5706C761.607 67.517 770.522 62.9086 778.663 60.7567C786.343 58.7265 793.099 57.7566 798.959 57.7566C802.956 57.7566 806.714 58.1401 810.249 58.916C816.858 60.4454 822.238 63.2808 826.384 67.4426C831.008 72.0442 833.309 77.5932 833.309 84.0378V161.228V161.228Z" fill="white"/>
<path d="M104.498 6.53136C95.8357 6.57197 87.564 7.30958 80.2871 8.59759C58.8466 12.3872 54.9555 20.3137 54.9555 34.9329V54.2418H105.619V60.6773H35.9174C21.1922 60.6773 8.29856 69.5287 4.26988 86.363C-0.381383 105.661 -0.588908 117.704 4.26988 137.854C7.87224 152.854 16.4732 163.54 31.1962 163.54H48.617V140.394C48.617 123.67 63.0851 108.92 80.2645 108.92H130.871C144.958 108.92 156.203 97.3212 156.203 83.1734V34.9307C156.203 21.2002 144.62 10.8849 130.871 8.59533C122.169 7.14717 113.137 6.48851 104.475 6.52911L104.498 6.53136ZM77.075 22.0574C82.3082 22.0574 86.5828 26.4019 86.5828 31.7411C86.5828 37.0646 82.3082 41.3662 77.075 41.3662C71.8237 41.3662 67.5672 37.0623 67.5672 31.7411C67.5672 26.3996 71.8214 22.0574 77.075 22.0574V22.0574Z" fill="url(#paint0_linear)"/>
<path d="M162.566 60.6777V83.1761C162.566 100.619 147.778 115.297 130.919 115.297H80.312C66.4507 115.297 54.9805 127.162 54.9805 141.044V189.289C54.9805 203.019 66.9199 211.095 80.312 215.036C96.3275 219.75 111.729 220.603 130.919 215.036C143.675 211.343 156.25 203.91 156.25 189.289V169.98H105.644V163.545H181.582C196.307 163.545 201.793 153.274 206.913 137.859C212.203 121.988 211.977 106.726 206.913 86.3679C203.275 71.7104 196.325 60.6822 181.582 60.6822H162.566V60.6777ZM134.104 182.853C139.355 182.853 143.612 187.157 143.612 192.479C143.612 197.82 139.357 202.162 134.104 202.162C128.871 202.162 124.596 197.818 124.596 192.479C124.596 187.155 128.871 182.853 134.104 182.853Z" fill="url(#paint1_linear)"/>
<path d="M866.09 45.2847H869.041V26.7767H876.034V24.5706H859.098V26.7767H866.09V45.2847V45.2847ZM878.65 45.2847H881.172V28.3805L886.647 45.2847H889.455L895.157 28.4346V45.2847H897.909V24.5684H894.271L888.038 42.3162L882.724 24.5684H878.655V45.2847" fill="white"/>
<path opacity="0.444" d="M174.089 247.832C174.089 255.103 143.691 260.998 106.194 260.998C68.6968 260.998 38.299 255.104 38.299 247.832C38.299 240.56 68.6968 234.666 106.194 234.666C143.691 234.666 174.089 240.56 174.089 247.832Z" fill="url(#paint2_radial)"/>
<defs>
<linearGradient id="paint0_linear" x1="0.721654" y1="6.52686" x2="116.604" y2="107.19" gradientUnits="userSpaceOnUse">
<stop stop-color="#D0D0D0"/>
<stop offset="1" stop-color="#9D9D9D"/>
</linearGradient>
<linearGradient id="paint1_linear" x1="132.863" y1="190.854" x2="91.4823" y2="131.741" gradientUnits="userSpaceOnUse">
<stop stop-color="#747474"/>
<stop offset="1" stop-color="#4B4B4B"/>
</linearGradient>
<radialGradient id="paint2_radial" cx="0" cy="0" r="1" gradientUnits="userSpaceOnUse" gradientTransform="translate(106.194 247.832) rotate(-90) scale(13.1655 57.8679)">
<stop stop-color="#B8B8B8" stop-opacity="0.498"/>
<stop offset="1" stop-color="#7F7F7F" stop-opacity="0"/>
</radialGradient>
</defs>
</svg>
