<svg width="412" height="212" viewBox="0 0 412 212" fill="none" xmlns="http://www.w3.org/2000/svg">
<path d="M88 119C95.1797 119 101 113.18 101 106C101 98.8203 95.1797 93 88 93C80.8203 93 75 98.8203 75 106C75 113.18 80.8203 119 88 119Z" fill="#7B7B7B"/>
<path fill-rule="evenodd" clip-rule="evenodd" d="M89.4055 80.9191C105.427 80.9191 120.31 83.285 131.532 87.2609C145.053 92.0514 153.367 99.3126 153.367 105.888C153.367 112.739 144.556 120.453 130.036 125.404C119.059 129.147 104.614 131.101 89.4055 131.101C73.8127 131.101 59.0473 129.267 47.9463 125.363C33.9015 120.423 25.4422 112.609 25.4422 105.888C25.4422 99.366 33.3796 92.1608 46.7106 87.3776C57.9745 83.3362 73.2255 80.9191 89.4034 80.9191H89.4055Z" stroke="#7B7B7B" stroke-width="5"/>
<path fill-rule="evenodd" clip-rule="evenodd" d="M68.2848 93.4753C76.2889 79.1924 85.7153 67.1056 94.6684 59.0873C105.455 49.4265 115.721 45.643 121.255 48.9273C127.023 52.3502 129.115 64.0588 126.028 79.4761C123.697 91.1325 118.123 104.986 110.525 118.544C102.735 132.446 93.8157 144.693 84.9846 152.637C73.8099 162.69 63.0062 166.328 57.3487 162.97C51.8589 159.714 49.7595 149.037 52.3931 134.762C54.6183 122.701 60.2026 107.898 68.2822 93.4751L68.2848 93.4753Z" stroke="#7B7B7B" stroke-width="5"/>
<path fill-rule="evenodd" clip-rule="evenodd" d="M68.3047 118.581C60.2781 104.314 54.8132 89.8703 52.5321 77.8835C49.7863 63.4409 51.7277 52.3984 57.257 49.1046C63.019 45.6716 73.9204 49.6539 85.358 60.1054C94.0057 68.0072 102.885 79.8934 110.505 93.4391C118.318 107.327 124.173 121.396 126.451 133.237C129.333 148.222 127 159.671 121.348 163.038C115.863 166.306 105.827 162.846 95.126 153.369C86.0842 145.362 76.4106 132.989 68.3047 118.581V118.581Z" stroke="#7B7B7B" stroke-width="5"/>
<path fill-rule="evenodd" clip-rule="evenodd" d="M208.319 133.798L193.693 111.058C201.085 110.387 207.745 104.875 207.745 94.8045C207.745 84.5579 200.679 78 190.767 78H169V133.756H175.743V111.602H186.548L200.357 133.756L208.319 133.798ZM189.961 105.542H175.747V84.2257H189.961C196.381 84.2257 200.765 88.5717 200.765 94.8434C200.765 101.115 196.377 105.549 189.961 105.549V105.542ZM233.42 134.798C239.84 134.798 245.117 132.625 249.017 128.615L246.092 124.516C243.002 127.778 238.456 129.615 233.99 129.615C225.544 129.615 220.342 123.262 219.855 115.658H251.613V114.068C251.613 101.949 244.626 92.416 232.764 92.416C221.554 92.416 213.434 101.864 213.434 113.567C213.434 126.191 221.801 134.767 233.416 134.767L233.42 134.798ZM245.608 111.054H219.858C220.184 104.871 224.321 97.5923 232.692 97.5923C241.629 97.5923 245.526 105.034 245.608 111.054ZM292.075 133.795V106.041C292.075 96.2603 285.174 92.4125 276.886 92.4125C270.465 92.4125 265.432 94.5855 261.209 99.1011L264.052 103.447C267.544 99.6028 271.365 97.8467 276.075 97.8467C281.761 97.8467 285.987 100.938 285.987 106.373V113.644C282.818 109.881 278.352 108.125 272.989 108.125C266.328 108.125 259.255 112.39 259.255 121.418C259.255 130.194 266.321 134.795 272.989 134.795C278.269 134.795 282.739 132.873 285.987 129.194V133.788L292.075 133.795ZM275.183 130.283C269.497 130.283 265.514 126.608 265.514 121.506C265.514 116.323 269.497 112.644 275.183 112.644C279.488 112.644 283.629 114.316 285.987 117.662V125.269C283.632 128.611 279.488 130.286 275.183 130.286V130.283ZM321.533 134.798C328.681 134.798 332.904 131.788 335.912 127.778L331.85 123.933C329.251 127.527 325.921 129.198 321.893 129.198C313.526 129.198 308.332 122.509 308.332 113.567C308.332 104.624 313.53 98.0199 321.893 98.0199C325.955 98.0199 329.285 99.6099 331.85 103.285L335.912 99.4403C332.907 95.4264 328.681 92.4195 321.533 92.4195C309.835 92.4195 301.956 101.617 301.956 113.57C301.956 125.608 309.835 134.77 321.533 134.77V134.798ZM354.355 134.798C357.926 134.798 360.123 133.71 361.668 132.208L359.883 127.527C359.069 128.445 357.48 129.198 355.739 129.198C353.061 129.198 351.756 127.025 351.756 124.015V98.935H359.722V93.4195H351.756V82.3849H345.662V93.4195H339.163V98.9385H345.662V125.357C345.662 131.378 348.587 134.805 354.355 134.805V134.798Z" fill="#7B7B7B"/>
</svg>
