<svg width="886" height="245" viewBox="0 0 886 245" fill="none" xmlns="http://www.w3.org/2000/svg">
<path d="M51.5646 0.707031C50.0685 0.796414 48.6439 1.37827 47.513 2.36191C45.8781 1.45746 44.0082 1.06798 42.1481 1.24448C40.2881 1.42098 38.5247 2.15523 37.0892 3.35103C35.7189 2.88868 34.2403 2.85491 32.8504 3.25422C31.4604 3.65353 30.2252 4.46695 29.3093 5.58608C27.2996 5.16356 25.216 5.25307 23.2499 5.84638C21.2839 6.43968 19.4985 7.51775 18.058 8.98144C9.78363 7.99232 7.3774 13.6988 10.2782 19.0819C9.64909 19.7615 9.16209 20.56 8.84582 21.4304C8.52954 22.3008 8.39036 23.2257 8.43643 24.1506C8.4825 25.0756 8.7129 25.982 9.11411 26.8167C9.51531 27.6514 10.0792 28.3975 10.7728 29.0112C10.218 30.6365 10.1828 32.3941 10.6719 34.0404C11.161 35.6866 12.1502 37.1399 13.5024 38.1986C13.1867 39.8027 13.3844 41.4653 14.0673 42.9507C14.7502 44.436 15.8836 45.6684 17.3067 46.473C17.4146 48.4645 18.0654 50.3885 19.1887 52.0365C20.3119 53.6845 21.8648 54.9937 23.6789 55.8222C23.9953 57.8318 24.9876 59.6735 26.492 61.043C27.9964 62.4125 29.9229 63.228 31.9533 63.3547C32.5055 65.1341 33.5998 66.6966 35.0833 67.8237C36.5668 68.9509 38.3654 69.5863 40.2277 69.6414C32.9935 73 26.9817 78.5234 23.0237 85.4478C19.0656 92.3722 17.357 100.355 18.1341 108.293L16.5648 111.108C12.151 114.114 8.43343 118.032 5.66333 122.597C2.89322 127.162 1.13506 132.268 0.507582 137.571C-0.119898 142.874 0.397921 148.25 2.02606 153.336C3.6542 158.421 6.35475 163.099 9.94531 167.051C11.197 172.7 12.9149 178.235 15.0811 183.6C16.0183 190.893 18.8817 197.804 23.3767 203.623C27.8717 209.442 33.8359 213.958 40.6557 216.707C48.106 222.685 56.4979 227.384 65.4884 230.612C69.2746 234.836 73.9049 238.219 79.0802 240.542C84.2554 242.865 89.8604 244.077 95.5331 244.098H96.0276C101.7 244.077 107.305 242.865 112.481 240.542C117.656 238.219 122.286 234.836 126.072 230.612C135.063 227.384 143.455 222.685 150.905 216.707C157.725 213.958 163.689 209.442 168.184 203.623C172.679 197.804 175.542 190.893 176.48 183.6C178.646 178.235 180.364 172.7 181.615 167.051C185.206 163.099 187.907 158.421 189.535 153.336C191.163 148.25 191.681 142.874 191.053 137.571C190.426 132.268 188.667 127.162 185.897 122.597C183.127 118.032 179.41 114.114 174.996 111.108L172.352 108.293C173.027 100.497 171.314 92.6791 167.441 85.879C163.568 79.0789 157.718 73.618 150.667 70.2215C152.53 70.1665 154.328 69.531 155.812 68.4039C157.295 67.2767 158.389 65.7143 158.942 63.9349C160.972 63.8081 162.899 62.9927 164.403 61.6231C165.907 60.2536 166.9 58.412 167.216 56.4023C169.03 55.5738 170.583 54.2646 171.706 52.6166C172.83 50.9686 173.48 49.0447 173.588 47.0532C175.011 46.2486 176.145 45.0161 176.828 43.5308C177.511 42.0455 177.708 40.3828 177.393 38.7788C178.745 37.72 179.734 36.2668 180.223 34.6205C180.712 32.9743 180.677 31.2167 180.122 29.5914C180.816 28.9776 181.38 28.2315 181.781 27.3968C182.182 26.5621 182.412 25.6557 182.459 24.7308C182.505 23.8058 182.365 22.881 182.049 22.0106C181.733 21.1402 181.246 20.3417 180.617 19.6621C183.518 14.3646 180.617 8.65806 172.837 9.56159C171.417 7.92653 169.589 6.69718 167.539 5.99881C165.489 5.30044 163.29 5.15803 161.167 5.58608C160.258 4.4838 159.037 3.68103 157.665 3.28237C156.292 2.88371 154.832 2.90763 153.473 3.35103C152.037 2.15523 150.274 1.42098 148.414 1.24448C146.554 1.06798 144.684 1.45746 143.049 2.36191C141.465 1.30349 139.587 0.773891 137.684 0.849071C135.78 0.924251 133.949 1.60035 132.454 2.78039C130.93 2.23986 129.292 2.10029 127.698 2.3751C126.104 2.64991 124.608 3.32987 123.352 4.34968C121.371 3.90198 119.297 4.11185 117.446 4.94756C115.594 5.78326 114.065 7.19931 113.09 8.98144H109.856C102.649 13.993 97.4789 21.4241 95.2858 29.9242C93.2011 21.2427 88.0202 13.6202 80.7152 8.48688H77.4816C76.434 6.79486 74.8739 5.48124 73.0282 4.73714C71.1825 3.99305 69.1476 3.85732 67.2194 4.34968C65.946 3.29995 64.4195 2.60259 62.7924 2.32723C61.1652 2.05186 59.4943 2.20811 57.9464 2.78039C55.9531 1.73785 53.7992 1.037 51.5741 0.707031H51.5646Z" fill="white"/>
<path d="M34.2741 23.2951C50.4809 30.6285 65.3156 40.677 78.1379 53.0069C74.4953 68.072 54.7128 68.8138 47.5131 68.4144C48.1929 68.1914 48.8214 67.8352 49.362 67.3665C49.9025 66.8978 50.3442 66.3261 50.6612 65.6848C46.3791 65.135 42.1465 64.2509 38.0023 63.0408C38.6871 63.0099 39.3541 62.8128 39.9456 62.4665C40.5372 62.1202 41.0356 61.6351 41.3977 61.053C37.3487 60.1444 33.4853 58.5489 29.9752 56.3357C31.5639 56.5847 33.1884 56.232 34.5309 55.3465C30.5765 53.6281 26.8949 51.3403 23.6029 48.5558C25.1861 48.7605 26.7947 48.5029 28.2347 47.814C25.0057 45.8469 22.0562 43.4541 19.4658 40.6999C20.9845 41.121 22.6048 40.9721 24.0214 40.2814C21.0842 37.9439 18.541 35.1502 16.4889 32.007C17.2911 32.4342 18.186 32.6576 19.0948 32.6576C20.0037 32.6576 20.8986 32.4342 21.7008 32.007C19.0872 29.5353 16.7816 26.7571 14.834 23.7326C16.4398 24.0977 18.1072 24.0977 19.713 23.7326C18.832 20.704 17.3398 17.888 15.3285 15.4582C19.0488 15.7258 22.7835 15.7258 26.5037 15.4582L23.7741 12.1484C27.9212 11.3916 32.1977 11.8236 36.1097 13.3944C37.6029 12.2341 36.1097 10.7504 34.2075 9.25716C37.7466 9.69868 41.2204 10.5607 44.5553 11.8251C46.1245 10.3319 43.3949 9.00989 42.0825 7.355C45.9656 7.93879 49.6697 9.38142 52.9248 11.5778C54.8269 9.83733 52.9248 8.43923 51.8501 6.94603C55.2566 8.25718 58.3553 10.2583 60.9519 12.8237C61.2965 12.5578 61.5837 12.2249 61.7961 11.8451C62.0086 11.4652 62.142 11.0462 62.1882 10.6134C62.2344 10.1807 62.1925 9.74298 62.065 9.32681C61.9376 8.91065 61.7271 8.52461 61.4465 8.19195C64.2894 9.75266 66.7717 11.8947 68.7317 14.4786C69.3574 13.9404 69.8038 13.2239 70.0111 12.4251C70.2185 11.6262 70.177 10.7831 69.8921 10.0085C72.8691 12.5386 75.6363 15.3058 78.1665 18.2829C78.9434 17.2185 79.4019 15.9552 79.4885 14.6403C87.2683 22.1728 98.2723 41.204 82.3037 48.7365C67.957 37.4088 51.6602 28.7995 34.217 23.3331L34.2741 23.2951ZM156.754 23.2951C140.547 30.6285 125.713 40.677 112.89 53.0069C116.695 68.072 136.316 68.8138 143.515 68.4144C142.252 67.8702 141.244 66.8629 140.7 65.5992C144.982 65.0494 149.215 64.1653 153.359 62.9552C152.689 62.9108 152.039 62.7074 151.464 62.3617C150.888 62.016 150.403 61.538 150.049 60.9674C154.098 60.0588 157.961 58.4633 161.472 56.2501C159.858 56.5188 158.203 56.1653 156.84 55.2609C160.794 53.5425 164.476 51.2547 167.768 48.4702C166.185 48.6749 164.576 48.4173 163.136 47.7284C166.365 45.7613 169.315 43.3685 171.905 40.6143C170.386 41.0354 168.766 40.8865 167.349 40.1958C170.287 37.8583 172.83 35.0647 174.882 31.9214C174.08 32.3486 173.185 32.572 172.276 32.572C171.367 32.572 170.472 32.3486 169.67 31.9214C172.284 29.4497 174.589 26.6715 176.537 23.647C174.931 24.0121 173.264 24.0121 171.658 23.647C172.539 20.6184 174.031 17.8024 176.042 15.3726C172.322 15.6402 168.587 15.6402 164.867 15.3726L167.682 12.4718C163.535 11.715 159.259 12.1469 155.347 13.7177C153.853 12.5574 155.347 11.0737 157.249 9.58053C153.71 10.0221 150.236 10.8841 146.901 12.1484C144.999 10.2463 147.643 9.00987 149.051 7.34548C145.167 7.92927 141.463 9.3719 138.208 11.5683C136.306 9.8278 138.208 8.42972 139.283 6.93652C135.876 8.24768 132.778 10.2488 130.181 12.8142C129.83 12.5547 129.536 12.2266 129.315 11.8499C129.095 11.4732 128.953 11.0557 128.899 10.6226C128.845 10.1895 128.879 9.74994 129 9.3305C129.12 8.91106 129.325 8.52049 129.601 8.18244C126.758 9.74315 124.276 11.8852 122.316 14.4691C121.69 13.9309 121.244 13.2144 121.036 12.4155C120.829 11.6167 120.87 10.7736 121.155 9.99901C118.178 12.5291 115.411 15.2963 112.881 18.2734C112.104 17.209 111.645 15.9457 111.559 14.6308C103.779 22.1633 92.7751 41.1944 108.744 48.727C122.988 37.4316 139.17 28.8235 156.497 23.3236L156.754 23.2951Z" fill="#565656"/>
<path d="M123.485 176.98C123.227 184.021 120.192 190.673 115.043 195.481C109.894 200.29 103.05 202.864 96.0087 202.64C88.9533 202.955 82.0614 200.457 76.847 195.694C71.6326 190.93 68.5222 184.292 68.1991 177.237C68.457 170.197 71.4924 163.545 76.6414 158.736C81.7904 153.927 88.6341 151.353 95.6758 151.577C102.731 151.262 109.623 153.761 114.837 158.524C120.052 163.287 123.162 169.925 123.485 176.98V176.98ZM79.7832 104.156C85.3963 108.606 89.0301 115.088 89.8971 122.198C90.764 129.309 88.7944 136.474 84.415 142.142C80.906 148.421 75.0748 153.074 68.1734 155.101C61.272 157.128 53.8509 156.368 47.5035 152.985C41.8904 148.535 38.2567 142.053 37.3897 134.942C36.5227 127.832 38.4924 120.666 42.8718 114.998C46.3807 108.719 52.212 104.067 59.1134 102.04C66.0148 100.012 73.4359 100.772 79.7832 104.156V104.156ZM110.741 102.748C105.128 107.198 101.494 113.68 100.627 120.791C99.7601 127.901 101.73 135.066 106.109 140.735C109.618 147.014 115.449 151.666 122.351 153.693C129.252 155.721 136.673 154.961 143.021 151.577C148.634 147.127 152.267 140.645 153.134 133.535C154.001 126.424 152.032 119.259 147.652 113.591C144.143 107.312 138.312 102.659 131.411 100.632C124.509 98.6047 117.088 99.3646 110.741 102.748V102.748ZM22.5282 116.568C34.9398 113.258 26.6654 167.793 16.6505 163.323C13.3658 160.143 10.866 156.243 9.34884 151.931C7.83163 147.619 7.33862 143.013 7.90881 138.477C8.479 133.941 10.0968 129.6 12.6341 125.798C15.1714 121.995 18.5588 118.835 22.5282 116.568V116.568ZM165.533 115.74C153.121 112.43 161.395 166.965 171.41 162.495C174.695 159.316 177.195 155.416 178.712 151.104C180.229 146.791 180.722 142.185 180.152 137.649C179.582 133.114 177.964 128.773 175.427 124.97C172.889 121.168 169.502 118.008 165.533 115.74V115.74ZM123.495 75.1956C144.847 71.553 162.641 84.2975 161.9 107.475C161.234 116.577 115.886 76.4415 123.495 75.1956ZM64.3757 74.5299C43.024 70.8872 25.2292 83.6317 25.9711 106.81C26.6368 115.655 72.2316 75.8614 64.3757 74.5299ZM95.0956 69.1562C82.3511 69.1562 70.3675 78.591 70.3675 84.2975C70.3675 90.004 80.468 98.2783 95.0956 98.4495C109.723 98.6207 119.824 92.8191 119.824 85.7051C119.824 78.591 105.843 69.1562 94.582 69.1562H95.0956ZM95.9231 210.582C107.013 210.087 121.907 214.139 121.983 219.522C122.059 224.905 108.496 236.575 95.1622 236.071C81.8281 235.567 67.9328 224.82 68.104 220.663C68.104 214.624 84.6527 209.916 95.9135 210.24L95.9231 210.582ZM54.8649 178.626C63.1393 188.136 66.2779 204.942 59.7439 209.821C53.21 214.7 38.3066 212.056 27.5499 196.582C20.3502 183.505 21.2727 170.351 26.3895 166.205C33.9982 161.573 45.8391 167.859 54.941 178.378L54.8649 178.626ZM135.402 175.582C127.128 185.597 122.087 203.886 128.288 209.764C134.252 214.329 150.306 213.74 162.147 197.267C165.6 192.239 167.517 186.316 167.664 180.218C167.81 174.12 166.181 168.112 162.974 162.923C155.689 157.293 145.189 164.493 135.412 175.573L135.402 175.582Z" fill="#9C9C9C"/>
<path d="M256.016 90.4404C257.92 90.7764 259.8 91.2164 261.656 91.7604C266.426 93.1635 270.684 95.9253 273.911 99.7086C277.137 103.492 279.192 108.133 279.824 113.064C281.392 121.864 278.224 130.856 271.472 136.744L270.776 137.368C273.282 139.376 275.306 141.922 276.696 144.816C278.205 147.972 279.012 151.416 279.064 154.912C279.064 157.184 279.203 159.504 279.48 161.872C279.584 162.368 279.88 162.792 280.312 163.056C281.597 163.677 282.659 164.678 283.356 165.923C284.053 167.168 284.35 168.597 284.208 170.016C283.926 171.65 283.07 173.13 281.794 174.189C280.518 175.248 278.906 175.817 277.248 175.792C275.134 175.859 273.053 175.264 271.293 174.091C269.534 172.918 268.184 171.225 267.432 169.248C266.17 166.123 265.464 162.801 265.344 159.432C265.344 157.352 265.344 155.256 264.992 153.24C264.63 151.375 263.802 149.631 262.585 148.171C261.368 146.71 259.802 145.581 258.032 144.888C255.68 143.631 253.042 143.008 250.376 143.08H238.4V169.672C238.406 171.427 237.749 173.118 236.561 174.409C235.372 175.699 233.741 176.493 231.992 176.632C230.403 176.679 228.845 176.179 227.579 175.217C226.312 174.255 225.414 172.888 225.032 171.344V95.8804C225.832 93.2404 227.832 91.1844 230.472 90.4404H256.648H256.016ZM238.2 117.04V128.592C238.2 129.712 238.2 130.056 239.592 130.056H253.032C254.157 130.066 255.278 129.948 256.376 129.704C262.808 128.344 267.152 122.312 266.4 115.784C265.6 109.256 260.032 104.344 253.44 104.368H239.52C238.4 104.368 238.264 104.784 238.264 105.688L238.184 117.104L238.2 117.04ZM506.488 90.4404C507.709 90.6986 508.839 91.2804 509.758 92.1249C510.677 92.9693 511.352 94.0454 511.712 95.2404C511.968 96.2804 512.08 97.3684 512.064 98.4404V120.504C525.264 111.56 543.264 114.632 552.648 127.464C556.747 132.953 558.961 139.619 558.961 146.468C558.961 153.318 556.747 159.984 552.648 165.472C549.648 169.568 545.688 172.832 541.096 175.008C536.424 177.169 531.257 178.033 526.136 177.512C521.163 176.929 516.396 175.189 512.216 172.432C511.891 173.728 511.2 174.903 510.225 175.816C509.251 176.73 508.034 177.344 506.72 177.584C505.784 177.71 504.831 177.644 503.921 177.39C503.011 177.136 502.163 176.699 501.427 176.106C500.691 175.513 500.084 174.777 499.642 173.942C499.2 173.107 498.933 172.19 498.856 171.248V98.8484C498.376 95.0884 500.696 91.5284 504.352 90.4964H506.928L506.488 90.4404ZM545.544 146.12C545.544 144.656 545.128 143.128 544.776 141.664C543.703 137.409 540.998 133.746 537.248 131.466C533.497 129.187 529 128.473 524.728 129.48C519.528 131.056 515.312 134.92 513.288 139.88C511.264 144.84 511.664 150.632 514.352 155.36C515.984 158.38 518.517 160.815 521.6 162.325C524.682 163.835 528.158 164.345 531.544 163.784C539.944 162.088 545.88 154.584 545.608 146.024L545.544 146.12ZM427.48 201.064C426.252 200.328 425.088 199.491 424 198.56C423.463 197.97 423.051 197.278 422.789 196.524C422.526 195.771 422.418 194.972 422.472 194.176C422.472 170.176 422.472 146.23 422.472 122.336C422.422 120.755 422.913 119.204 423.862 117.939C424.812 116.674 426.164 115.77 427.696 115.376C429.354 115.007 431.089 115.255 432.576 116.076C434.063 116.897 435.198 118.233 435.768 119.832V120.184C444.008 114.704 454.408 113.624 463.608 117.264C469.638 119.632 474.725 123.912 478.088 129.448C485.552 141.128 484.504 156.296 475.512 166.832C470.828 172.45 464.186 176.081 456.928 176.992C449.618 178.076 442.168 176.387 436.04 172.256V173.856C436.04 180.448 436.04 187.062 436.04 193.696C436.102 195.25 435.641 196.78 434.732 198.041C433.823 199.303 432.518 200.223 431.024 200.656H427.472L427.48 201.064ZM469.24 146.624C469.206 143.13 468.218 139.711 466.384 136.736C465.164 134.731 463.521 133.015 461.571 131.708C459.62 130.402 457.408 129.536 455.089 129.171C452.769 128.807 450.398 128.952 448.141 129.596C445.883 130.241 443.793 131.37 442.016 132.904C438.46 136.257 436.341 140.857 436.107 145.739C435.873 150.621 437.541 155.403 440.76 159.08C442.742 161.254 445.285 162.84 448.109 163.662C450.933 164.485 453.929 164.514 456.768 163.744C460.464 162.694 463.71 160.453 466.002 157.369C468.293 154.285 469.502 150.53 469.44 146.688L469.24 146.624ZM838.624 90.4404C840.528 90.7764 842.408 91.2164 844.264 91.7604C849.269 93.23 853.714 96.1756 857.019 100.212C860.323 104.248 862.332 109.188 862.784 114.384C863.532 121.09 861.684 127.828 857.619 133.214C853.555 138.6 847.582 142.225 840.928 143.344C839.318 143.626 837.69 143.79 836.056 143.832H820.808V170.912C820.729 172.444 820.146 173.907 819.149 175.073C818.153 176.24 816.799 177.044 815.298 177.362C813.797 177.679 812.234 177.492 810.85 176.829C809.467 176.166 808.341 175.065 807.648 173.696C807.282 172.839 807.091 171.917 807.088 170.984C807.088 146.435 807.088 121.886 807.088 97.3364C807.133 95.866 807.643 94.4475 808.544 93.2848C809.445 92.122 810.691 91.2746 812.104 90.8644H838.696L838.624 90.4404ZM820.8 116.96V128.864C820.8 129.56 820.8 130.048 821.704 129.984H837.992C841.105 129.667 843.982 128.184 846.047 125.834C848.112 123.484 849.213 120.44 849.128 117.312C849.088 113.892 847.697 110.626 845.259 108.227C842.821 105.827 839.533 104.489 836.112 104.504H822.192C821.152 104.504 821.008 104.856 821.008 105.76L820.8 116.96V116.96ZM885.76 171.36C885.76 171.92 885.76 172.4 885.344 172.96C884.713 174.302 883.669 175.406 882.366 176.113C881.063 176.82 879.569 177.092 878.1 176.891C876.631 176.689 875.266 176.023 874.202 174.991C873.137 173.959 872.431 172.614 872.184 171.152C872.184 154.907 872.184 138.64 872.184 122.352C872.544 120.905 873.36 119.612 874.51 118.663C875.66 117.714 877.085 117.16 878.575 117.082C880.064 117.004 881.539 117.407 882.782 118.23C884.025 119.054 884.971 120.255 885.48 121.656C885.464 121.792 885.464 121.936 885.48 122.072V171.288L885.76 171.36ZM885.76 100.144C885.56 101.04 885.304 101.928 884.992 102.784C884.332 104.159 883.238 105.278 881.879 105.97C880.521 106.663 878.972 106.89 877.472 106.616C876.031 106.247 874.746 105.425 873.806 104.272C872.865 103.119 872.32 101.695 872.248 100.208C872.088 98.7044 872.088 97.1844 872.248 95.6804C872.563 94.4028 873.234 93.2407 874.183 92.3288C875.131 91.4169 876.319 90.7927 877.608 90.5284H880.184C881.245 90.7791 882.231 91.2752 883.065 91.9769C883.899 92.6786 884.556 93.5663 884.984 94.5684C884.984 95.3364 885.4 96.1684 885.68 97.0084V100.144H885.76ZM771.16 175.16C768.464 176.014 765.721 176.711 762.944 177.248C759.161 177.787 755.305 177.439 751.68 176.231C748.054 175.023 744.76 172.989 742.056 170.288C739.337 167.791 737.185 164.741 735.744 161.342C734.304 157.943 733.608 154.275 733.704 150.584C733.704 140.984 733.704 131.4 733.704 121.832C733.752 120.391 734.247 119.001 735.12 117.853C735.993 116.705 737.2 115.856 738.576 115.424C739.979 115.014 741.48 115.102 742.825 115.674C744.17 116.245 745.275 117.266 745.952 118.56C746.512 119.856 746.795 121.253 746.784 122.664V151.272C746.608 156.872 750.16 161.888 755.488 163.592C758.11 164.354 760.905 164.273 763.478 163.362C766.051 162.45 768.274 160.754 769.832 158.512C771.242 156.466 771.996 154.038 771.992 151.552C771.992 141.76 771.992 131.968 771.992 122.176C771.913 120.72 772.322 119.279 773.153 118.081C773.985 116.883 775.192 115.996 776.584 115.56C778.02 115.189 779.538 115.285 780.915 115.837C782.292 116.388 783.457 117.364 784.24 118.624C784.78 119.68 785.064 120.847 785.072 122.032V169.576C785.013 174.554 783.695 179.435 781.243 183.767C778.79 188.099 775.282 191.74 771.045 194.352C766.807 196.964 761.978 198.462 757.006 198.707C752.035 198.952 747.082 197.935 742.608 195.752C741.242 195.191 740.112 194.175 739.409 192.876C738.707 191.577 738.475 190.074 738.754 188.624C739.033 187.174 739.805 185.864 740.939 184.918C742.073 183.972 743.499 183.447 744.976 183.432C746.135 183.424 747.281 183.687 748.32 184.2C756.512 188.072 766.288 184.584 770.176 176.4L771.16 175.16ZM335.936 120.728C336.485 119.707 337.114 118.731 337.816 117.808C338.622 116.79 339.726 116.048 340.974 115.687C342.221 115.325 343.551 115.362 344.776 115.792C346.045 116.263 347.149 117.093 347.953 118.182C348.757 119.27 349.227 120.569 349.304 121.92V122.544C349.304 138.544 349.304 154.603 349.304 170.72C349.418 172.4 348.883 174.059 347.807 175.355C346.732 176.651 345.2 177.483 343.528 177.68C342.22 177.845 340.893 177.608 339.724 176.999C338.555 176.39 337.599 175.439 336.984 174.272C336.984 173.712 336.424 173.152 336.152 172.464C332.453 175.075 328.193 176.782 323.714 177.448C319.236 178.113 314.663 177.72 310.364 176.299C306.065 174.877 302.16 172.468 298.961 169.264C295.762 166.059 293.359 162.15 291.944 157.848C289.902 152.792 289.207 147.292 289.926 141.887C290.645 136.481 292.755 131.355 296.048 127.008C299.011 122.815 303.075 119.523 307.792 117.495C312.509 115.468 317.695 114.785 322.776 115.52C327.018 116.047 331.073 117.574 334.608 119.976L335.936 120.728ZM303 147.88C303.165 149.498 303.443 151.102 303.832 152.68C304.545 155.451 306.018 157.968 308.084 159.947C310.151 161.926 312.729 163.288 315.528 163.88C318.252 164.575 321.112 164.521 323.807 163.724C326.503 162.927 328.933 161.417 330.84 159.352C333.92 155.837 335.618 151.322 335.618 146.648C335.618 141.975 333.92 137.46 330.84 133.944C325.616 128.144 316.944 127.048 310.44 131.368C305.264 135.208 302.44 141.448 303 147.864V147.88ZM584.392 151.08C584.815 153.433 585.76 155.661 587.157 157.6C588.553 159.54 590.367 161.142 592.464 162.288C595.324 163.941 598.545 164.868 601.846 164.989C605.146 165.111 608.427 164.422 611.4 162.984C612.329 162.543 613.195 161.981 613.976 161.312C614.81 160.542 615.837 160.011 616.947 159.775C618.057 159.538 619.211 159.605 620.286 159.969C621.362 160.332 622.32 160.979 623.059 161.84C623.798 162.702 624.292 163.746 624.488 164.864C624.66 165.72 624.595 166.607 624.301 167.429C624.006 168.251 623.493 168.977 622.816 169.528C618.69 173.389 613.594 176.059 608.072 177.256C602.549 178.453 596.805 178.131 591.451 176.325C586.096 174.519 581.331 171.297 577.661 167C573.991 162.703 571.554 157.492 570.608 151.92C569.306 144.74 570.556 137.329 574.141 130.973C577.726 124.616 583.421 119.713 590.24 117.112C594.38 115.532 598.82 114.899 603.236 115.259C607.652 115.619 611.931 116.963 615.76 119.192C623.52 123.704 628.84 131.48 630.2 140.36C630.44 141.508 630.603 142.671 630.688 143.84C630.944 145.76 630.288 147.68 628.928 149.04C627.568 150.4 625.728 151.056 623.728 150.8H584.4L584.392 151.08ZM619.192 140.44C617.796 136.419 615.153 132.948 611.648 130.532C608.144 128.116 603.959 126.882 599.704 127.008C592.088 127.312 585.624 132.672 583.904 140.096H618.704L619.192 140.44ZM387.176 115.368C392.368 115.415 397.449 116.884 401.864 119.616L405.904 122.192C407.306 123.272 408.244 124.844 408.528 126.59C408.811 128.336 408.42 130.125 407.432 131.592C406.36 132.938 404.827 133.839 403.13 134.122C401.432 134.404 399.69 134.047 398.24 133.12C395.672 131.228 392.799 129.791 389.744 128.872C386.144 127.952 382.328 128.664 379.304 130.824C378.917 131.106 378.565 131.434 378.256 131.8C377.943 132.041 377.699 132.36 377.548 132.725C377.398 133.09 377.347 133.489 377.4 133.88C377.504 134.68 378.008 135.36 378.744 135.688C381.133 137.14 383.783 138.11 386.544 138.544C391.981 139.426 397.244 141.165 402.136 143.696C404.506 144.906 406.549 146.671 408.088 148.842C409.628 151.012 410.619 153.524 410.976 156.16C411.329 158.695 411.079 161.277 410.244 163.696C409.41 166.115 408.016 168.302 406.176 170.08C402.427 173.867 397.535 176.314 392.256 177.04C387.287 177.821 382.205 177.476 377.386 176.031C372.568 174.585 368.135 172.076 364.416 168.688C363.31 167.565 362.618 166.099 362.454 164.531C362.29 162.962 362.663 161.385 363.512 160.056C363.972 159.317 364.576 158.679 365.288 158.178C366.001 157.678 366.806 157.326 367.658 157.144C368.509 156.961 369.388 156.953 370.243 157.118C371.097 157.283 371.91 157.618 372.632 158.104C373.194 158.432 373.729 158.804 374.232 159.216C377.727 162.133 382.021 163.929 386.552 164.368C389.706 164.593 392.854 163.868 395.592 162.288C396.115 161.969 396.585 161.57 396.984 161.104C397.455 160.78 397.827 160.332 398.06 159.81C398.293 159.288 398.379 158.712 398.307 158.145C398.235 157.578 398.009 157.041 397.653 156.594C397.297 156.147 396.825 155.806 396.288 155.608C392.906 153.711 389.2 152.46 385.36 151.92C380.595 151.155 376.029 149.45 371.928 146.904C367.728 144.232 365.048 139.728 364.688 134.76C364.328 129.792 366.344 124.952 370.128 121.704C373.971 118.203 378.866 116.073 384.048 115.648L387.176 115.368ZM655.32 122.472C658.479 119.33 662.499 117.197 666.872 116.344C669.16 115.861 671.494 115.628 673.832 115.648C675.445 115.751 676.955 116.476 678.044 117.67C679.133 118.863 679.717 120.433 679.672 122.048C679.678 123.662 679.082 125.219 678 126.416C676.919 127.613 675.43 128.363 673.824 128.52C671.272 128.538 668.763 129.182 666.517 130.396C664.271 131.609 662.358 133.355 660.944 135.48C658.68 138.416 656.944 141.68 655.584 145.08C654.995 146.59 654.688 148.196 654.68 149.816V171.048C654.424 172.506 653.71 173.844 652.642 174.868C651.574 175.893 650.207 176.55 648.739 176.744C647.272 176.939 645.781 176.66 644.483 175.95C643.185 175.239 642.147 174.133 641.52 172.792C641.436 172.123 641.436 171.446 641.52 170.776C641.52 154.627 641.52 138.36 641.52 121.976C641.427 120.477 641.864 118.993 642.754 117.783C643.645 116.574 644.933 115.716 646.392 115.36C647.794 115.006 649.271 115.097 650.618 115.62C651.966 116.143 653.117 117.073 653.912 118.28C654.513 119.576 654.98 120.93 655.304 122.32L655.32 122.472ZM703.56 122.6C707.08 118.936 711.704 116.496 716.72 115.64C719.025 115.264 721.375 115.264 723.68 115.64C725.095 115.991 726.338 116.838 727.18 118.027C728.023 119.217 728.411 120.669 728.272 122.12C728.166 123.746 727.458 125.274 726.287 126.407C725.116 127.54 723.565 128.196 721.936 128.248C716.912 128.392 712.28 131 709.536 135.208C707.065 138.362 705.157 141.918 703.896 145.72C703.577 146.661 703.415 147.647 703.416 148.64V170.24C703.522 171.989 702.964 173.712 701.855 175.067C700.746 176.423 699.167 177.31 697.432 177.552C696.566 177.678 695.683 177.626 694.837 177.401C693.991 177.175 693.199 176.781 692.51 176.241C691.82 175.701 691.247 175.027 690.826 174.26C690.404 173.493 690.142 172.648 690.056 171.776C690.056 154.886 690.056 138.016 690.056 121.168C690.104 118.832 691.608 116.768 693.816 116.016C694.899 115.543 696.085 115.352 697.262 115.463C698.438 115.575 699.567 115.984 700.542 116.652C701.517 117.32 702.306 118.226 702.834 119.283C703.362 120.341 703.612 121.516 703.56 122.696V122.6Z" fill="white"/>
</svg>
