<svg width="870" height="242" viewBox="0 0 870 242" fill="none" xmlns="http://www.w3.org/2000/svg">
<path d="M97.6562 130.224L130.136 111.376L162.136 130.224L130.136 148.672L97.6562 130.624V130.224ZM0.200195 74.4802L130.2 0.680176L226.84 55.6242L194.84 111.368L130.28 74.4722L32.8402 129.816L0.200195 74.4802Z" fill="#C4C4C4"/>
<path d="M97.6563 204.008V167.112L129.656 148.664L162.136 130.216V167.112L130.136 185.56V222.456L97.6563 241.304V204.008ZM97.6563 130.224L65.1763 111.776L32.6963 129.824V92.9202L130.136 37.5762V111.368L97.6563 130.224ZM194.296 92.9282V74.4802L226.776 55.6322L227.176 92.5282L194.696 111.376L194.296 92.9282Z" fill="#969494"/>
<path d="M65.1602 221.656V111.776L97.1602 93.728L97.5602 130.224L130.04 148.272V185.568L97.5602 168.32V241.304L65.1602 221.656ZM16.2482 120.2L0.200195 110.576V74.496L32.6802 92.944V129.84L16.2482 120.2ZM130.136 74.48V37.584L194.296 74.48L194.696 111.376L130.136 74.48Z" fill="#626262"/>
<path d="M289.6 87.2241V172.024H274.696V87.2241H245.736V72.6001H318.536V87.2161L289.6 87.2241ZM367.88 118.024C368.792 121.712 369.199 125.507 369.088 129.304L321 143.56C321.376 147.16 321.272 145.696 322.4 148.256C323.528 150.816 324.96 152.912 326.656 154.656C328.352 156.4 330.256 157.536 332.256 158.336C334.256 159.136 336.552 159.552 338.784 159.536C341.984 159.536 344.768 159.016 347.368 157.976C350.09 156.866 352.644 155.385 354.96 153.576L363.616 162.936C360.415 166.026 356.659 168.483 352.544 170.176C348.464 171.88 343.6 172.736 337.928 172.736C333.658 172.753 329.43 171.884 325.512 170.184C321.512 168.48 318.152 165.976 315.224 162.664C312.296 159.352 309.976 155.288 308.264 150.456C306.552 145.624 305.704 140.056 305.704 133.992C305.704 127.656 306.504 121.992 308.12 117.248C309.736 112.504 311.96 108.448 314.792 105.112C317.602 101.87 321.123 99.3209 325.08 97.6641C329.286 95.9254 333.801 95.0573 338.352 95.1121C343.648 95.1121 348.272 96.1041 352.192 98.0961C356.112 100.088 359.392 102.784 361.984 106.096C364.68 109.683 366.655 113.758 367.8 118.096L367.88 118.024ZM353.904 121.384C353.712 118.824 351.952 115.784 350.496 113.76C349.124 111.952 347.285 110.553 345.176 109.712C343 108.848 340.04 108.488 337.44 108.592C332.64 108.808 327.04 110.496 324.384 114.192C321.728 117.888 320.888 124.296 320.992 131.128L353.904 121.384ZM421.88 171.096V128.936C421.88 121.368 420.52 116.136 417.832 113.04C415.144 109.944 411.376 108.496 406.632 108.496C401.712 108.496 397.928 110.152 395.272 113.456C392.616 116.76 391.296 121.456 391.296 127.504V171.072H376.6V96.5921H391.216V103.688C393.112 100.944 395.736 98.8881 399.096 97.3041C402.456 95.7201 406.072 95.0321 409.952 95.0321C418.656 95.0321 425.256 97.8321 429.752 103.408C434.248 108.984 436.496 117.328 436.496 128.384V171.104H421.88V171.096ZM496.536 151.512C496.536 155.672 495.752 159.152 494.192 161.944C492.707 164.657 490.588 166.97 488.016 168.688C485.456 170.392 482.416 171.624 479.216 172.368C475.744 173.137 472.197 173.518 468.64 173.504C463.52 173.504 458.448 172.608 453.384 170.808C448.657 169.183 444.187 166.887 440.112 163.992L446.704 153C450.03 155.371 453.688 157.237 457.56 158.536C461.296 159.768 464.92 160.376 468.416 160.376C477.496 160.376 482.04 157.632 482.04 152.136C482.04 149.296 480.504 147.016 477.432 145.336C474.36 143.656 470.12 141.736 464.728 139.736C461.24 138.448 457.85 136.908 454.584 135.128C451.8 133.56 449.52 131.888 447.768 130.088C446.079 128.385 444.794 126.323 444.008 124.056C443.248 121.832 442.872 119.256 442.872 116.32C442.872 113.008 443.488 110.08 444.712 107.52C445.917 104.997 447.718 102.806 449.96 101.136C452.232 99.4321 454.92 98.1521 457.96 97.2961C461 96.4401 464.488 96.0161 468.176 96.0161C472.976 96.0161 477.472 96.7761 481.872 98.2881C486.272 99.8001 490.128 101.792 493.44 104.248L487.16 115.4C484.136 113.224 481.056 111.616 477.936 110.576C474.816 109.536 471.536 109.016 467.856 109.016C464.176 109.016 461.656 109.656 460.048 110.936C459.287 111.503 458.671 112.242 458.251 113.093C457.831 113.944 457.619 114.883 457.632 115.832C457.624 116.738 457.818 117.635 458.2 118.456C458.576 119.256 459.288 120.088 460.328 120.856C461.629 121.872 463.031 122.752 464.512 123.48C466.758 124.6 469.054 125.617 471.392 126.528L482.32 131.144C485.162 132.432 487.813 134.103 490.2 136.112C492.262 137.868 493.889 140.078 494.952 142.568C495.992 145.024 496.512 148.008 496.512 151.512H496.536ZM564.52 134.336C564.52 140.496 563.672 146 561.96 150.872C560.248 155.744 557.96 159.864 554.864 163.216C551.919 166.516 548.288 169.132 544.224 170.88C540.224 172.64 535.712 173.504 530.88 173.504C526.08 173.504 521.8 172.584 517.824 170.736C513.846 168.882 510.313 166.194 507.464 162.856C504.528 159.456 502.24 155.384 500.584 150.648C498.928 145.912 498.184 140.616 498.184 134.752C498.184 128.696 499.032 123.256 500.744 118.432C502.456 113.608 504.792 109.512 507.768 106.152C510.643 102.834 514.235 100.214 518.272 98.4881C522.376 96.7441 526.672 95.8641 531.392 95.8641C535.94 95.8261 540.443 96.7703 544.592 98.6321C548.618 100.446 552.221 103.081 555.168 106.368C558.152 109.68 560.464 113.728 562.128 118.504C563.792 123.28 564.528 128.56 564.528 134.328L564.52 134.336ZM549.76 134.76C549.76 127.096 548.16 121.016 544.72 116.52C541.28 112.024 536.704 109.776 530.744 109.776C528.164 109.686 525.603 110.259 523.306 111.439C521.009 112.62 519.053 114.369 517.624 116.52C514.464 121.024 512.872 126.952 512.872 134.336C512.872 142.576 514.576 148.832 517.992 153.136C519.563 155.208 521.605 156.875 523.95 157.998C526.295 159.121 528.874 159.667 531.472 159.592C534.216 159.592 536.72 158.928 538.992 157.608C541.284 156.264 543.266 154.451 544.808 152.288C546.494 149.9 547.743 147.232 548.496 144.408C549.344 141.384 549.776 138.168 549.776 134.76H549.76ZM611.64 112.904C610.061 112.065 608.395 111.4 606.672 110.92C604.968 110.44 602.888 110.12 600.432 110.12C595.792 110.12 592.192 111.72 589.648 114.944C587.104 118.168 585.808 122.944 585.808 129.28V171.856H571.192V97.3441H585.808V104.44C587.64 101.865 590.044 99.751 592.832 98.2641C595.898 96.5873 599.346 95.7329 602.84 95.7841C605.864 95.7841 608.44 96.0481 610.28 96.5681C612.126 97.0513 613.876 97.8439 615.456 98.9121L611.616 112.832L611.64 112.904Z" fill="white"/>
<path d="M636.184 87.2243V113.2H664.712V127.816H636.184V171.952H621.28V72.6003H685.28V87.2163L636.184 87.2243ZM687.704 171.944V76.1523L702.32 68.4883V171.96L687.704 171.944ZM776.984 134.344C776.984 140.504 776.128 146.008 774.424 150.88C772.72 155.752 770.344 159.872 767.328 163.224C764.381 166.525 760.746 169.141 756.68 170.888C752.6 172.648 748.168 173.512 743.336 173.512C738.616 173.512 734.256 172.592 730.28 170.744C726.304 168.896 722.856 166.264 719.92 162.864C716.984 159.464 714.696 155.392 713.04 150.656C711.384 145.92 710.64 140.624 710.64 134.76C710.64 128.704 711.488 123.264 713.2 118.44C714.912 113.616 717.248 109.52 720.224 106.16C723.2 102.8 726.624 100.24 730.728 98.4963C734.832 96.7523 739.128 95.8723 743.848 95.8723C748.568 95.8723 752.968 96.7923 757.048 98.6403C761.074 100.454 764.677 103.089 767.624 106.376C770.608 109.688 772.92 113.736 774.584 118.512C776.248 123.288 776.984 128.568 776.984 134.336V134.344ZM762.224 134.768C762.224 127.104 760.624 121.024 757.184 116.528C753.744 112.032 749.168 109.784 743.208 109.784C737.624 109.784 733.248 112.024 730.088 116.528C726.928 121.032 725.336 126.96 725.336 134.344C725.336 142.584 727.04 148.84 730.456 153.144C732.026 155.216 734.069 156.883 736.414 158.006C738.758 159.129 741.338 159.676 743.936 159.6C746.576 159.629 749.174 158.944 751.456 157.616C753.748 156.272 755.729 154.459 757.272 152.296C758.872 150.072 760.112 147.448 760.952 144.416C761.792 141.384 762.232 138.176 762.232 134.768H762.224ZM849.08 171.952H836.6L826.52 134.352L824.32 125.632L822.688 118.464L821.056 125.704L818.856 134.504L808.92 171.976H796.44L776 97.4643H790.4L799.2 133.656L801.328 142.6L802.888 149.984L804.728 142.6L807 133.656L816.936 97.4643H828.72L838.8 133.8L841 142.68L842.776 149.992L844.408 142.552L846.464 133.672L855.264 97.4803H869.664L849.08 171.952Z" fill="#A6A7A9"/>
</svg>
