<svg width="222" height="30" viewBox="0 0 222 30" fill="none" xmlns="http://www.w3.org/2000/svg">
<path d="M12.1916 15.4417H5.23753L4.02277 18.8582C3.72348 19.6956 3.57384 20.3237 3.57384 20.7424C3.57384 21.069 3.70588 21.3621 3.96116 21.6133C4.22524 21.8645 4.7886 22.0236 5.65125 22.099V22.6935H0V22.099C0.748219 21.9399 1.23236 21.7305 1.45242 21.4793C1.90135 20.9685 2.4031 19.9301 2.94885 18.3726L9.26911 0.577789H9.73565L15.9855 18.5651C16.4872 20.0138 16.945 20.9517 17.3587 21.3788C17.7724 21.8059 18.3446 22.0487 19.0752 22.1074V22.7019H11.9891V22.1074C12.7021 22.0655 13.1862 21.9231 13.4415 21.6803C13.6968 21.4374 13.82 21.136 13.82 20.7842C13.82 20.3153 13.644 19.5784 13.2919 18.5651L12.1916 15.4417ZM11.8219 14.2609L8.77617 5.51845L5.65125 14.2609H11.8219Z" fill="#CF3436"/>
<path d="M28.7844 21.0439C28.1947 21.7892 27.6137 22.3251 27.0503 22.6433C26.4869 22.9699 25.8796 23.129 25.2194 23.129C23.899 23.129 22.737 22.4591 21.7512 21.1276C20.7653 19.7961 20.2635 18.0795 20.2635 15.986C20.2635 13.8925 20.8093 11.9748 21.9096 10.233C23.0011 8.49124 24.4095 7.62871 26.1348 7.62871C27.2 7.62871 28.089 8.03903 28.7844 8.85969V6.16326C28.7844 4.49683 28.7492 3.46683 28.6876 3.08163C28.626 2.69642 28.5203 2.43684 28.3795 2.30285C28.2387 2.16049 28.0626 2.0935 27.8514 2.0935C27.6225 2.0935 27.3144 2.17723 26.9359 2.34471L26.7598 1.78367L30.3777 0H30.9763V16.8904C30.9763 18.5987 31.0115 19.6454 31.0731 20.0222C31.1435 20.3991 31.2491 20.667 31.39 20.8094C31.5396 20.9601 31.7069 21.0355 31.9005 21.0355C32.1382 21.0355 32.4551 20.9434 32.8512 20.7675L33.0009 21.3286L29.4006 23.129H28.7932V21.0439H28.7844ZM28.7844 19.9217V12.3935C28.7316 11.6734 28.5732 11.0118 28.3091 10.4173C28.045 9.82271 27.6929 9.3705 27.2528 9.06904C26.8126 8.76757 26.3901 8.61683 25.9764 8.61683C25.2018 8.61683 24.5064 9.03553 23.899 9.87293C23.098 10.9783 22.693 12.5945 22.693 14.7215C22.693 16.8652 23.0803 18.5149 23.855 19.6538C24.6296 20.7927 25.5011 21.3705 26.4517 21.3705C27.2616 21.3788 28.0362 20.8931 28.7844 19.9217Z" fill="#CF3436"/>
<path d="M33.1593 8.07254H38.8634V8.66709H38.4937C38.1504 8.66709 37.8863 8.76759 37.7014 8.96856C37.5166 9.16954 37.4286 9.44588 37.4286 9.78084C37.4286 10.1577 37.5254 10.5931 37.7102 11.1039L40.5271 19.1765L43.3615 10.8025C43.564 10.2079 43.6696 9.75573 43.6696 9.44589C43.6696 9.29516 43.6344 9.17792 43.564 9.07743C43.4671 8.91832 43.3439 8.80945 43.1942 8.75083C43.0446 8.69221 42.7365 8.66709 42.2788 8.66709V8.07254H46.2399V8.66709C45.7822 8.70896 45.4653 8.81784 45.2893 9.00207C44.9812 9.32028 44.6995 9.85621 44.453 10.5931L40.1486 23.129H39.6028L35.2719 10.8025C35.0783 10.2247 34.8934 9.81433 34.7174 9.56311C34.5413 9.31189 34.3124 9.10254 34.0396 8.93506C33.8899 8.84295 33.5906 8.75083 33.1505 8.66709V8.07254H33.1593Z" fill="#CF3436"/>
<path d="M49.3737 13.5743C49.3649 15.7431 49.805 17.443 50.6853 18.674C51.5655 19.905 52.6042 20.5247 53.8014 20.5247C54.5936 20.5247 55.289 20.2651 55.87 19.7375C56.4597 19.2099 56.9527 18.3139 57.3488 17.0327L57.7625 17.3509C57.5777 18.808 57.0407 20.1311 56.1428 21.3286C55.2538 22.5261 54.1359 23.1206 52.7891 23.1206C51.3278 23.1206 50.0867 22.434 49.048 21.069C48.0093 19.704 47.4899 17.8701 47.4899 15.5589C47.4899 13.0634 48.0181 11.1123 49.0832 9.71383C50.1483 8.31537 51.4863 7.62033 53.0883 7.62033C54.4439 7.62033 55.5619 8.15629 56.4421 9.23653C57.3136 10.3168 57.7537 11.7571 57.7537 13.5659H49.3737V13.5743ZM49.3737 12.6531H54.9897C54.9457 11.7152 54.8489 11.0621 54.708 10.6769C54.488 10.0823 54.1623 9.61334 53.7221 9.27001C53.282 8.92668 52.8243 8.75921 52.3489 8.75921C51.6183 8.75921 50.9581 9.10255 50.386 9.78922C49.8138 10.4759 49.4705 11.4305 49.3737 12.6531Z" fill="#CF3436"/>
<path d="M62.9208 7.64547V10.9281C63.9331 8.74245 64.9806 7.64547 66.0457 7.64547C66.5299 7.64547 66.9348 7.82131 67.2517 8.18139C67.5686 8.5331 67.727 8.95181 67.727 9.42075C67.727 9.83945 67.6126 10.1828 67.3837 10.4759C67.1549 10.769 66.882 10.9029 66.5651 10.9029C66.257 10.9029 65.9137 10.7187 65.5264 10.3503C65.1391 9.9818 64.8574 9.79757 64.6725 9.79757C64.5141 9.79757 64.338 9.90643 64.1532 10.1158C63.7571 10.5512 63.3434 11.2714 62.9208 12.2679V19.2686C62.9208 20.0725 63.0088 20.6838 63.1761 21.1025C63.2905 21.3872 63.493 21.6301 63.7835 21.8227C64.074 22.0153 64.4965 22.1074 65.0422 22.1074V22.6852H58.8276V22.1074C59.4438 22.1074 59.9016 21.9901 60.2008 21.7557C60.4209 21.5882 60.5793 21.3118 60.6674 20.9434C60.7114 20.7675 60.7378 20.2483 60.7378 19.3942V13.7334C60.7378 12.0334 60.7114 11.0202 60.6498 10.6936C60.5881 10.367 60.4825 10.1325 60.3329 9.9818C60.1744 9.83107 59.9896 9.75571 59.7607 9.75571C59.4878 9.75571 59.1797 9.83108 58.8364 9.99856L58.7044 9.42075L62.3751 7.63708H62.9208V7.64547Z" fill="#CF3436"/>
<path d="M71.9259 3.27422V8.07251H74.7603V9.18627H71.9259V18.6573C71.9259 19.6035 72.0403 20.2399 72.2604 20.5749C72.4804 20.9099 72.7709 21.069 73.1318 21.069C73.4223 21.069 73.704 20.9601 73.9769 20.7424C74.2497 20.5247 74.461 20.2065 74.6107 19.7794H75.13C74.8219 20.8178 74.3818 21.6049 73.8184 22.1325C73.2551 22.6601 72.6741 22.9196 72.0667 22.9196C71.6618 22.9196 71.2657 22.7857 70.8784 22.5093C70.491 22.2414 70.2006 21.8478 70.0157 21.3453C69.8309 20.8429 69.734 20.0641 69.734 19.009V9.18627H67.8151V8.6587C68.2992 8.42423 68.801 8.03064 69.3027 7.46958C69.8133 6.90852 70.2622 6.24698 70.6583 5.48495C70.8608 5.08299 71.1424 4.34609 71.5033 3.26584H71.9259V3.27422Z" fill="#CF3436"/>
<path d="M80.1299 7.64546V19.3858C80.1299 20.2986 80.1827 20.9099 80.2971 21.2114C80.4115 21.5128 80.57 21.7389 80.7901 21.8896C81.0101 22.0404 81.3974 22.1158 81.9784 22.1158V22.6935H76.0895V22.1158C76.6792 22.1158 77.0754 22.0488 77.2778 21.9064C77.4803 21.7724 77.6387 21.5379 77.762 21.2197C77.8852 20.9015 77.938 20.2902 77.938 19.3858V13.7585C77.938 12.1758 77.9028 11.1458 77.8148 10.6768C77.7532 10.3335 77.6563 10.099 77.5243 9.96505C77.3923 9.83107 77.2074 9.76408 76.9785 9.76408C76.7321 9.76408 76.4328 9.83943 76.0807 10.0069L75.8958 9.4291L79.5489 7.64546H80.1299V7.64546ZM79.0295 0.0083313C79.3992 0.0083313 79.7162 0.167436 79.9802 0.477274C80.2443 0.795487 80.3675 1.17233 80.3675 1.61615C80.3675 2.05998 80.2355 2.44518 79.9802 2.76339C79.725 3.0816 79.408 3.24072 79.0295 3.24072C78.6598 3.24072 78.3429 3.0816 78.0789 2.76339C77.8148 2.44518 77.6827 2.05998 77.6827 1.61615C77.6827 1.17233 77.8148 0.787113 78.0701 0.477274C78.3253 0.167436 78.651 0.0083313 79.0295 0.0083313Z" fill="#CF3436"/>
<path d="M91.318 7.64548V12.6196H90.8778C90.5433 11.0537 90.112 9.99018 89.5838 9.42912C89.0557 8.86806 88.3867 8.58336 87.5769 8.58336C86.9607 8.58336 86.4589 8.78433 86.0804 9.17791C85.7019 9.57149 85.5082 10.0069 85.5082 10.4843C85.5082 11.0788 85.6491 11.5896 85.9308 12.0167C86.2036 12.4521 86.7582 12.9127 87.6033 13.4068L89.5398 14.5373C91.3355 15.5924 92.2246 16.9741 92.2246 18.6992C92.2246 20.0306 91.8109 21.1025 90.9746 21.9148C90.1384 22.727 89.2053 23.1374 88.1754 23.1374C87.436 23.1374 86.5822 22.9783 85.6315 22.6601C85.341 22.5512 85.1033 22.501 84.9185 22.501C84.716 22.501 84.5576 22.6433 84.4431 22.9197H84.003V17.7026H84.4431C84.6896 19.1932 85.1649 20.3153 85.8603 21.069C86.5558 21.8227 87.3392 22.1995 88.2018 22.1995C88.8092 22.1995 89.311 21.9818 89.6895 21.5547C90.0768 21.1276 90.2616 20.6084 90.2616 19.9971C90.2616 19.2602 90.0504 18.6489 89.619 18.1465C89.1877 17.644 88.3339 17.016 87.0575 16.2456C85.7811 15.4752 84.9361 14.7885 84.54 14.1688C84.1438 13.5659 83.9414 12.7955 83.9414 11.8743C83.9414 10.6769 84.2847 9.67197 84.9713 8.85969C85.6579 8.05579 86.5382 7.64548 87.6297 7.64548C88.105 7.64548 88.686 7.77106 89.3638 8.01391C89.8127 8.17302 90.112 8.25676 90.2616 8.25676C90.4025 8.25676 90.5169 8.22326 90.5961 8.1479C90.6754 8.07253 90.7722 7.90505 90.8778 7.65383H91.318V7.64548Z" fill="#CF3436"/>
<path d="M98.2192 7.64546V19.3858C98.2192 20.2986 98.272 20.9099 98.3864 21.2114C98.5009 21.5128 98.6593 21.7389 98.8794 21.8896C99.0994 22.0404 99.4868 22.1158 100.068 22.1158V22.6935H94.1788V22.1158C94.7686 22.1158 95.1647 22.0488 95.3671 21.9064C95.5696 21.7724 95.728 21.5379 95.8513 21.2197C95.9745 20.9015 96.0273 20.2902 96.0273 19.3858V13.7585C96.0273 12.1758 95.9921 11.1458 95.9041 10.6768C95.8425 10.3335 95.7456 10.099 95.6136 9.96505C95.4816 9.83107 95.2967 9.76408 95.0678 9.76408C94.8214 9.76408 94.5221 9.83943 94.17 10.0069L93.9851 9.4291L97.6382 7.64546H98.2192V7.64546ZM97.1189 0.0083313C97.4886 0.0083313 97.8054 0.167436 98.0695 0.477274C98.3336 0.795487 98.4568 1.17233 98.4568 1.61615C98.4568 2.05998 98.3248 2.44518 98.0695 2.76339C97.8143 3.0816 97.4974 3.24072 97.1189 3.24072C96.7492 3.24072 96.4322 3.0816 96.1682 2.76339C95.9041 2.44518 95.7721 2.05998 95.7721 1.61615C95.7721 1.17233 95.9041 0.787113 96.1594 0.477274C96.4147 0.167436 96.7403 0.0083313 97.1189 0.0083313Z" fill="#CF3436"/>
<path d="M105.103 10.7355C106.52 8.67546 107.876 7.64548 109.17 7.64548C109.83 7.64548 110.402 7.84645 110.877 8.24002C111.353 8.64198 111.731 9.29515 112.013 10.2079C112.206 10.8443 112.303 11.8241 112.303 13.1388V19.3774C112.303 20.2986 112.365 20.9266 112.488 21.2616C112.585 21.5296 112.743 21.7389 112.955 21.8813C113.175 22.032 113.571 22.1074 114.152 22.1074V22.6852H108.157V22.1074H108.413C108.976 22.1074 109.372 22.0069 109.601 21.7975C109.83 21.5882 109.979 21.2867 110.067 20.8764C110.103 20.7173 110.12 20.2148 110.12 19.3774V13.3984C110.12 12.0669 109.979 11.1039 109.689 10.501C109.398 9.89806 108.914 9.59661 108.237 9.59661C107.189 9.59661 106.142 10.2917 105.094 11.6734V19.3774C105.094 20.3656 105.147 20.9769 105.244 21.2113C105.367 21.5212 105.534 21.7473 105.754 21.8896C105.974 22.032 106.406 22.1074 107.075 22.1074V22.6852H101.08V22.1074H101.344C101.96 22.1074 102.383 21.9148 102.594 21.5379C102.814 21.1611 102.92 20.4409 102.92 19.3774V13.9595C102.92 12.2009 102.885 11.1374 102.823 10.7522C102.761 10.367 102.656 10.1074 102.515 9.97345C102.374 9.83947 102.198 9.7641 101.969 9.7641C101.723 9.7641 101.423 9.83945 101.08 10.0069L100.878 9.42912L104.531 7.64548H105.103V10.7355V10.7355Z" fill="#CF3436"/>
<path d="M118.368 17.3593C117.629 16.9239 117.057 16.3126 116.661 15.5338C116.264 14.755 116.062 13.8925 116.062 12.9462C116.062 11.4975 116.511 10.2582 117.418 9.21141C118.324 8.17304 119.477 7.64548 120.895 7.64548C122.048 7.64548 123.051 7.98879 123.896 8.66708H126.467C126.845 8.66708 127.065 8.68385 127.127 8.70897C127.188 8.73409 127.232 8.78434 127.259 8.84296C127.312 8.93507 127.338 9.11091 127.338 9.35376C127.338 9.6301 127.312 9.82271 127.268 9.93157C127.241 9.98181 127.197 10.0237 127.127 10.0572C127.056 10.0907 126.836 10.1074 126.458 10.1074H124.882C125.375 10.8695 125.622 11.8492 125.622 13.0383C125.622 14.4033 125.19 15.5673 124.328 16.5303C123.465 17.5017 122.303 17.979 120.842 17.979C120.243 17.979 119.627 17.8701 119.002 17.6608C118.615 18.0627 118.351 18.4144 118.21 18.7243C118.069 19.0258 118.007 19.2854 118.007 19.4947C118.007 19.6789 118.078 19.8548 118.227 20.0223C118.377 20.1898 118.659 20.3153 119.081 20.3907C119.328 20.4326 119.944 20.4745 120.939 20.4996C122.761 20.5498 123.94 20.6252 124.477 20.7257C125.296 20.868 125.956 21.2281 126.44 21.8227C126.924 22.4172 127.171 23.1542 127.171 24.0251C127.171 25.2225 126.704 26.353 125.771 27.4081C124.398 28.9573 122.594 29.7361 120.384 29.7361C118.676 29.7361 117.242 29.2755 116.071 28.346C115.411 27.8185 115.076 27.2658 115.076 26.688C115.076 26.4368 115.12 26.1772 115.226 25.9259C115.375 25.5324 115.683 24.9881 116.15 24.2846C116.212 24.1925 116.661 23.6147 117.497 22.5596C117.039 22.233 116.713 21.9316 116.52 21.672C116.326 21.4124 116.238 21.1192 116.238 20.7843C116.238 20.4158 116.361 19.9804 116.617 19.4779C116.881 18.9755 117.462 18.2721 118.368 17.3593ZM118.236 22.6852C117.822 23.2295 117.506 23.732 117.294 24.2009C117.083 24.6698 116.977 25.0969 116.977 25.4905C116.977 26.0013 117.233 26.4451 117.743 26.8303C118.624 27.4919 119.9 27.8185 121.572 27.8185C123.166 27.8185 124.336 27.4835 125.085 26.8052C125.842 26.1269 126.22 25.4068 126.22 24.6447C126.22 24.092 125.991 23.6985 125.542 23.464C125.085 23.2295 124.178 23.0872 122.814 23.0453C120.833 22.9867 119.31 22.8611 118.236 22.6852ZM120.675 8.40749C120.023 8.40749 119.477 8.71735 119.028 9.3454C118.588 9.97345 118.368 10.9364 118.368 12.2344C118.368 13.9176 118.668 15.2156 119.266 16.1451C119.724 16.8485 120.305 17.2002 121.018 17.2002C121.687 17.2002 122.241 16.8987 122.673 16.2874C123.104 15.6845 123.324 14.7299 123.324 13.4319C123.324 11.7403 123.016 10.4173 122.409 9.46262C121.96 8.75921 121.379 8.40749 120.675 8.40749Z" fill="#CF3436"/>
<path d="M143.306 7.64548V12.6196H142.866C142.531 11.0537 142.1 9.99018 141.572 9.42912C141.044 8.86806 140.375 8.58336 139.565 8.58336C138.949 8.58336 138.447 8.78433 138.068 9.17791C137.69 9.57149 137.496 10.0069 137.496 10.4843C137.496 11.0788 137.637 11.5896 137.919 12.0167C138.192 12.4521 138.746 12.9127 139.591 13.4068L141.528 14.5373C143.324 15.5924 144.213 16.9741 144.213 18.6992C144.213 20.0306 143.799 21.1025 142.963 21.9148C142.126 22.727 141.193 23.1374 140.163 23.1374C139.424 23.1374 138.57 22.9783 137.62 22.6601C137.329 22.5512 137.091 22.501 136.907 22.501C136.704 22.501 136.546 22.6433 136.431 22.9197H135.991V17.7026H136.431C136.678 19.1932 137.153 20.3153 137.848 21.069C138.544 21.8227 139.327 22.1995 140.19 22.1995C140.797 22.1995 141.299 21.9818 141.678 21.5547C142.065 21.1276 142.25 20.6084 142.25 19.9971C142.25 19.2602 142.038 18.6489 141.607 18.1465C141.176 17.644 140.322 17.016 139.046 16.2456C137.76 15.4835 136.924 14.7885 136.528 14.1688C136.132 13.5659 135.929 12.7955 135.929 11.8743C135.929 10.6769 136.273 9.67197 136.959 8.85969C137.646 8.04741 138.526 7.64548 139.618 7.64548C140.093 7.64548 140.674 7.77106 141.352 8.01391C141.801 8.17302 142.1 8.25676 142.25 8.25676C142.391 8.25676 142.505 8.22326 142.584 8.1479C142.663 8.07253 142.76 7.90505 142.866 7.65383H143.306V7.64548Z" fill="#CF3436"/>
<path d="M151.95 7.64548C153.79 7.64548 155.26 8.48286 156.378 10.166C157.32 11.598 157.795 13.2477 157.795 15.1067C157.795 16.413 157.531 17.7361 157.012 19.076C156.492 20.4158 155.77 21.4291 154.864 22.1074C153.957 22.7857 152.936 23.129 151.809 23.129C149.978 23.129 148.526 22.2497 147.452 20.4995C146.545 19.0257 146.088 17.3677 146.088 15.5254C146.088 14.1855 146.36 12.8541 146.915 11.531C147.47 10.2079 148.191 9.22815 149.089 8.6001C149.996 7.96368 150.947 7.64548 151.95 7.64548ZM151.545 8.68385C151.079 8.68385 150.603 8.85133 150.137 9.18629C149.661 9.52125 149.283 10.1074 148.992 10.9448C148.702 11.7822 148.552 12.8625 148.552 14.1856C148.552 16.3126 148.904 18.1465 149.609 19.6873C150.313 21.2281 151.237 21.9985 152.381 21.9985C153.235 21.9985 153.948 21.5714 154.503 20.7257C155.057 19.8799 155.339 18.4144 155.339 16.3377C155.339 13.7417 154.873 11.6985 153.948 10.2163C153.315 9.19465 152.513 8.68385 151.545 8.68385Z" fill="#CF3436"/>
<path d="M163.754 0.0083313V19.3858C163.754 20.2986 163.807 20.9099 163.922 21.203C164.027 21.5044 164.203 21.7306 164.432 21.8813C164.661 22.032 165.092 22.1158 165.717 22.1158V22.6935H159.776V22.1158C160.33 22.1158 160.709 22.0488 160.911 21.9064C161.114 21.7724 161.272 21.5379 161.386 21.2197C161.501 20.9015 161.563 20.2902 161.563 19.3858V6.12138C161.563 4.4717 161.527 3.45844 161.466 3.08161C161.404 2.70478 161.307 2.44517 161.166 2.31119C161.026 2.16883 160.858 2.10184 160.647 2.10184C160.418 2.10184 160.128 2.18559 159.776 2.35307L159.547 1.792L163.165 0.0083313H163.754Z" fill="#CF3436"/>
<path d="M177.75 8.07254V16.9239C177.75 18.6154 177.786 19.6454 177.847 20.0223C177.918 20.3991 178.023 20.667 178.164 20.8094C178.314 20.9601 178.481 21.0355 178.675 21.0355C178.948 21.0355 179.256 20.9434 179.599 20.7675L179.784 21.3286L176.157 23.129H175.559V20.039C174.52 21.3956 173.719 22.2581 173.173 22.6098C172.627 22.9615 172.046 23.1374 171.439 23.1374C170.761 23.1374 170.171 22.9029 169.67 22.4256C169.168 21.9567 168.825 21.3453 168.631 20.6C168.437 19.8548 168.341 18.7996 168.341 17.4431V10.9197C168.341 10.2247 168.279 9.74734 168.156 9.48775C168.032 9.22815 167.848 9.0188 167.61 8.87644C167.363 8.73408 166.923 8.6671 166.29 8.67547V8.08092H170.541V17.8534C170.541 19.21 170.735 20.106 171.131 20.5331C171.527 20.9601 172.002 21.1695 172.557 21.1695C172.935 21.1695 173.367 21.0271 173.851 20.7424C174.335 20.4577 174.907 19.905 175.567 19.1011V10.8276C175.567 9.99857 175.444 9.4375 175.189 9.14441C174.934 8.85132 174.414 8.69222 173.622 8.67547V8.08092H177.75V8.07254Z" fill="#CF3436"/>
<path d="M184.203 3.27422V8.07251H187.037V9.18627H184.203V18.6573C184.203 19.6035 184.317 20.2399 184.537 20.5749C184.766 20.9015 185.048 21.069 185.409 21.069C185.699 21.069 185.981 20.9601 186.254 20.7424C186.527 20.5247 186.738 20.2065 186.888 19.7794H187.407C187.099 20.8178 186.659 21.6049 186.095 22.1325C185.532 22.6601 184.951 22.9196 184.344 22.9196C183.939 22.9196 183.543 22.7857 183.155 22.5093C182.768 22.2414 182.477 21.8478 182.293 21.3453C182.108 20.8429 182.011 20.0641 182.011 19.009V9.18627H180.092V8.6587C180.576 8.42423 181.078 8.03064 181.58 7.46958C182.09 6.90852 182.539 6.24698 182.935 5.48495C183.138 5.08299 183.419 4.34609 183.78 3.26584H184.203V3.27422Z" fill="#CF3436"/>
<path d="M192.398 7.64546V19.3858C192.398 20.2986 192.451 20.9099 192.565 21.2114C192.68 21.5128 192.838 21.7389 193.058 21.8896C193.278 22.0404 193.666 22.1158 194.247 22.1158V22.6935H188.358V22.1158C188.947 22.1158 189.343 22.0488 189.546 21.9064C189.748 21.7724 189.907 21.5379 190.03 21.2197C190.144 20.9015 190.206 20.2902 190.206 19.3858V13.7585C190.206 12.1758 190.162 11.1458 190.083 10.6768C190.021 10.3335 189.924 10.099 189.792 9.96505C189.66 9.83107 189.476 9.76408 189.247 9.76408C189 9.76408 188.701 9.83943 188.349 10.0069L188.164 9.4291L191.817 7.64546H192.398V7.64546ZM191.298 0.0083313C191.667 0.0083313 191.984 0.167436 192.248 0.477274C192.512 0.795487 192.636 1.17233 192.636 1.61615C192.636 2.05998 192.504 2.44518 192.248 2.76339C191.993 3.0816 191.676 3.24072 191.298 3.24072C190.928 3.24072 190.611 3.0816 190.347 2.76339C190.083 2.44518 189.951 2.05998 189.951 1.61615C189.951 1.17233 190.083 0.787113 190.338 0.477274C190.602 0.167436 190.919 0.0083313 191.298 0.0083313Z" fill="#CF3436"/>
<path d="M201.676 7.64548C203.516 7.64548 204.986 8.48286 206.104 10.166C207.045 11.598 207.521 13.2477 207.521 15.1067C207.521 16.413 207.257 17.7361 206.737 19.076C206.218 20.4158 205.496 21.4291 204.59 22.1074C203.683 22.7857 202.662 23.129 201.535 23.129C199.704 23.129 198.252 22.2497 197.178 20.4995C196.271 19.0257 195.813 17.3677 195.813 15.5254C195.813 14.1855 196.086 12.8541 196.641 11.531C197.195 10.2079 197.917 9.22815 198.815 8.6001C199.722 7.96368 200.672 7.64548 201.676 7.64548ZM201.271 8.68385C200.804 8.68385 200.329 8.85133 199.863 9.18629C199.387 9.52125 199.009 10.1074 198.718 10.9448C198.428 11.7822 198.278 12.8625 198.278 14.1856C198.278 16.3126 198.63 18.1465 199.334 19.6873C200.039 21.2281 200.963 21.9985 202.107 21.9985C202.961 21.9985 203.674 21.5714 204.229 20.7257C204.783 19.8799 205.065 18.4144 205.065 16.3377C205.065 13.7417 204.598 11.6985 203.674 10.2163C203.04 9.19465 202.239 8.68385 201.271 8.68385Z" fill="#CF3436"/>
<path d="M212.846 10.7355C214.264 8.67546 215.619 7.64548 216.913 7.64548C217.573 7.64548 218.146 7.84645 218.621 8.24002C219.096 8.64198 219.475 9.29515 219.756 10.2079C219.95 10.8443 220.047 11.8241 220.047 13.1388V19.3774C220.047 20.2986 220.108 20.9266 220.232 21.2616C220.329 21.5296 220.487 21.7389 220.698 21.8813C220.918 22.032 221.314 22.1074 221.895 22.1074V22.6852H215.901V22.1074H216.156C216.72 22.1074 217.116 22.0069 217.344 21.7975C217.573 21.5882 217.723 21.2867 217.811 20.8764C217.846 20.7173 217.864 20.2148 217.864 19.3774V13.3984C217.864 12.0669 217.723 11.1039 217.433 10.501C217.142 9.89806 216.658 9.59661 215.98 9.59661C214.933 9.59661 213.885 10.2917 212.838 11.6734V19.3774C212.838 20.3656 212.882 20.9769 212.987 21.2113C213.11 21.5212 213.278 21.7473 213.498 21.8896C213.718 22.032 214.149 22.1074 214.818 22.1074V22.6852H208.824V22.1074H209.088C209.704 22.1074 210.126 21.9148 210.338 21.5379C210.558 21.1611 210.663 20.4409 210.663 19.3774V13.9595C210.663 12.2009 210.628 11.1374 210.567 10.7522C210.505 10.367 210.399 10.1074 210.258 9.97345C210.118 9.83947 209.942 9.7641 209.713 9.7641C209.466 9.7641 209.167 9.83945 208.824 10.0069L208.621 9.42912L212.274 7.64548H212.846V10.7355V10.7355Z" fill="#CF3436"/>
</svg>
