<svg width="222" height="140" viewBox="0 0 222 140" fill="none" xmlns="http://www.w3.org/2000/svg">
<path d="M57.7424 44.4408L57.8833 57.8225L84.2118 36.6781L132.635 57.8225L156.939 39.5252L158.426 44.5245L164.5 28.4213L145.979 30.766L151.191 32.692L132.203 45.454L83.2347 25.6662L57.7424 44.4408Z" fill="#123D76"/>
<path d="M84.1854 23.6481L96.4826 29.3257V12.854H84.1854V23.6481Z" fill="#9BC455"/>
<path d="M118.216 37.2726L131.71 42.8413V0.242737H118.216V37.2726Z" fill="#9BC455"/>
<path d="M99.942 30.5734L113.436 35.4555V7.28528H99.942V30.5734Z" fill="#CF3436"/>
<path d="M44.2833 101.577L34.2308 79.1846V96.9626C34.2308 98.5956 34.4068 99.6172 34.7501 100.028C35.2254 100.58 35.9737 100.848 36.9948 100.848H37.919V101.577H28.8612V100.848H29.7854C30.8858 100.848 31.6692 100.505 32.1269 99.8265C32.4086 99.4078 32.5495 98.4532 32.5495 96.9626V79.5698C32.5495 78.3891 32.4174 77.5433 32.1621 77.0157C31.9861 76.6389 31.6516 76.3207 31.1763 76.0611C30.7009 75.8015 29.9263 75.6759 28.8612 75.6759V74.9473H36.2289L45.6653 95.7819L54.952 74.9557H62.3198V75.6842H61.4219C60.3128 75.6842 59.5205 76.0276 59.0628 76.7059C58.7811 77.1246 58.6403 78.0792 58.6403 79.5698V96.9626C58.6403 98.5956 58.8163 99.6172 59.1772 100.028C59.6526 100.58 60.4008 100.848 61.4219 100.848H62.3198V101.577H51.2637V100.848H52.188C53.2971 100.848 54.0806 100.505 54.5295 99.8265C54.8112 99.4078 54.952 98.4532 54.952 96.9626V79.1846L44.9171 101.577H44.2833Z" fill="#123D76"/>
<path d="M74.3265 98.9807C72.522 100.404 71.3952 101.233 70.9287 101.451C70.2421 101.778 69.5027 101.945 68.7192 101.945C67.5045 101.945 66.501 101.518 65.7176 100.672C64.9341 99.8265 64.538 98.7044 64.538 97.3143C64.538 96.435 64.7317 95.6814 65.1102 95.0366C65.6383 94.1489 66.545 93.3115 67.8478 92.5244C69.1418 91.7372 71.3072 90.7826 74.3265 89.6605V88.9571C74.3265 87.165 74.0448 85.934 73.4903 85.2641C72.9357 84.5942 72.1258 84.2592 71.0607 84.2592C70.2509 84.2592 69.6171 84.4853 69.1418 84.9292C68.6576 85.373 68.4111 85.8838 68.4111 86.4616L68.4464 87.6005C68.4464 88.2034 68.2967 88.664 67.9974 88.9906C67.6981 89.3171 67.302 89.4846 66.8179 89.4846C66.3425 89.4846 65.9552 89.3171 65.6559 88.9738C65.3567 88.6305 65.207 88.1699 65.207 87.5837C65.207 86.4616 65.7704 85.4232 66.8971 84.4853C68.0238 83.5474 69.5995 83.0701 71.6329 83.0701C73.191 83.0701 74.4761 83.3381 75.4708 83.874C76.2279 84.276 76.7824 84.9124 77.1433 85.7749C77.3722 86.336 77.4866 87.4916 77.4866 89.225V95.3297C77.4866 97.0463 77.5218 98.0931 77.5835 98.4783C77.6451 98.8635 77.7507 99.1231 77.9003 99.2571C78.05 99.3911 78.2172 99.4497 78.4109 99.4497C78.6134 99.4497 78.7982 99.4078 78.9478 99.3157C79.2207 99.1482 79.7313 98.6709 80.5059 97.8838V98.9807C79.0711 100.94 77.7067 101.928 76.4039 101.928C75.7789 101.928 75.2772 101.702 74.9075 101.258C74.5378 100.815 74.3441 100.053 74.3265 98.9807ZM74.3265 97.7079V90.8579C72.3987 91.6451 71.1488 92.1978 70.5854 92.5244C69.5731 93.1022 68.8513 93.7051 68.42 94.3332C67.9886 94.9612 67.7686 95.6479 67.7686 96.3932C67.7686 97.3311 68.0415 98.1182 68.596 98.7379C69.1418 99.3576 69.7755 99.6674 70.4974 99.6674C71.4656 99.6674 72.742 99.0142 74.3265 97.7079Z" fill="#123D76"/>
<path d="M86.9582 83.0617V87.1064C88.4282 84.41 89.9423 83.0617 91.4827 83.0617C92.1869 83.0617 92.7679 83.2795 93.2256 83.7233C93.6834 84.1587 93.9122 84.6696 93.9122 85.2474C93.9122 85.7582 93.745 86.1853 93.4105 86.5453C93.076 86.9054 92.6799 87.0729 92.2222 87.0729C91.7732 87.0729 91.2715 86.8468 90.7169 86.3946C90.1623 85.9424 89.7486 85.7163 89.4757 85.7163C89.2469 85.7163 89.0004 85.8503 88.7275 86.1099C88.1554 86.6458 87.5568 87.5335 86.9406 88.7561V97.3729C86.9406 98.3694 87.0638 99.1231 87.3015 99.6339C87.4688 99.9856 87.7592 100.279 88.1818 100.513C88.6043 100.748 89.2116 100.865 90.0039 100.865V101.568H81.0076V100.865C81.9055 100.865 82.5657 100.723 83.0058 100.429C83.3227 100.22 83.5516 99.8852 83.6748 99.4246C83.7364 99.1985 83.7717 98.5704 83.7717 97.5237V90.5565C83.7717 88.463 83.7276 87.2152 83.6484 86.8217C83.5692 86.4197 83.4108 86.135 83.1907 85.9508C82.9706 85.7666 82.6889 85.6744 82.3544 85.6744C81.9583 85.6744 81.5094 85.7749 81.0076 85.9675L80.814 85.2641L86.1307 83.0701H86.9582V83.0617Z" fill="#123D76"/>
<path d="M100.1 73.6661V91.5698L104.572 87.3911C105.523 86.5035 106.069 85.9424 106.218 85.6996C106.324 85.5405 106.368 85.3814 106.368 85.2306C106.368 84.971 106.262 84.7449 106.051 84.5523C105.84 84.3597 105.488 84.2509 105.003 84.2258V83.5977H112.635V84.2258C111.588 84.2509 110.716 84.4184 110.021 84.7198C109.326 85.0213 108.56 85.5572 107.732 86.3276L103.225 90.59L107.732 96.4183C108.982 98.0261 109.827 99.0478 110.267 99.4832C110.884 100.095 111.421 100.496 111.878 100.681C112.195 100.815 112.759 100.873 113.551 100.873V101.577H105.012V100.873C105.496 100.857 105.831 100.781 105.998 100.647C106.174 100.513 106.253 100.321 106.253 100.069C106.253 99.7679 105.998 99.2822 105.488 98.6207L100.1 91.5781V97.5404C100.1 98.7044 100.18 99.4665 100.338 99.8349C100.497 100.203 100.725 100.463 101.016 100.622C101.306 100.781 101.949 100.865 102.935 100.873V101.577H93.9914V100.873C94.8893 100.873 95.5583 100.764 96.0072 100.538C96.2801 100.396 96.4826 100.17 96.6234 99.8684C96.8171 99.433 96.9139 98.6877 96.9139 97.6325V81.2613C96.9139 79.1846 96.8699 77.9117 96.7819 77.4428C96.6938 76.9822 96.5442 76.6556 96.3417 76.4798C96.1393 76.3039 95.8664 76.2118 95.5319 76.2118C95.259 76.2118 94.8629 76.3207 94.3259 76.5468L94.0003 75.8601L99.2202 73.6661H100.1Z" fill="#123D76"/>
<path d="M117.503 90.3639C117.494 93.0352 118.119 95.1287 119.405 96.6444C120.69 98.1601 122.186 98.9221 123.911 98.9221C125.065 98.9221 126.059 98.5955 126.913 97.9507C127.767 97.3059 128.48 96.1922 129.052 94.6262L129.651 95.0198C129.387 96.8119 128.603 98.4448 127.309 99.9186C126.015 101.392 124.396 102.129 122.459 102.129C120.346 102.129 118.542 101.292 117.037 99.6088C115.531 97.9256 114.783 95.6646 114.783 92.8258C114.783 89.7526 115.558 87.3492 117.098 85.6326C118.639 83.9159 120.575 83.0533 122.899 83.0533C124.871 83.0533 126.491 83.7149 127.749 85.0464C129.008 86.3778 129.651 88.1531 129.651 90.3723H117.503V90.3639ZM117.503 89.225H125.637C125.575 88.0694 125.443 87.2655 125.232 86.7882C124.915 86.0513 124.431 85.4818 123.806 85.0631C123.172 84.6444 122.512 84.4351 121.816 84.4351C120.751 84.4351 119.801 84.8538 118.964 85.6995C118.128 86.5453 117.644 87.7261 117.503 89.225Z" fill="#123D76"/>
<path d="M137.089 77.6857V83.5893H141.191V84.9626H137.089V96.6193C137.089 97.7833 137.247 98.5704 137.582 98.9724C137.908 99.3743 138.33 99.5837 138.841 99.5837C139.263 99.5837 139.668 99.4497 140.064 99.1817C140.46 98.9138 140.768 98.5202 140.988 97.9926H141.737C141.288 99.2739 140.654 100.237 139.835 100.89C139.017 101.543 138.172 101.861 137.3 101.861C136.71 101.861 136.138 101.694 135.575 101.359C135.011 101.024 134.598 100.547 134.325 99.927C134.052 99.3073 133.92 98.3443 133.92 97.0547V84.9626H131.138V84.3179C131.843 84.0331 132.564 83.5391 133.295 82.8524C134.034 82.1657 134.686 81.3535 135.258 80.4072C135.548 79.9131 135.962 79.0004 136.49 77.6773H137.089V77.6857Z" fill="#123D76"/>
<path d="M148.964 83.0618V97.5069C148.964 98.629 149.043 99.3827 149.201 99.7512C149.36 100.128 149.597 100.404 149.914 100.589C150.231 100.773 150.803 100.865 151.631 100.865V101.568H143.092V100.865C143.946 100.865 144.527 100.781 144.818 100.614C145.108 100.446 145.346 100.162 145.522 99.7679C145.698 99.3743 145.777 98.6207 145.777 97.5069V90.5816C145.777 88.6305 145.724 87.366 145.601 86.7966C145.513 86.3779 145.372 86.0848 145.178 85.9257C144.985 85.7582 144.721 85.6828 144.395 85.6828C144.034 85.6828 143.603 85.7833 143.092 85.9759L142.819 85.2725L148.119 83.0785H148.964V83.0618ZM147.37 73.6661C147.907 73.6661 148.365 73.8587 148.744 74.2439C149.122 74.6291 149.307 75.0981 149.307 75.6507C149.307 76.2034 149.122 76.6724 148.744 77.066C148.365 77.4595 147.907 77.6521 147.37 77.6521C146.833 77.6521 146.376 77.4595 145.988 77.066C145.601 76.6724 145.416 76.2034 145.416 75.6507C145.416 75.0981 145.601 74.6375 145.979 74.2439C146.358 73.8503 146.825 73.6661 147.37 73.6661Z" fill="#123D76"/>
<path d="M158.946 86.8719C161.005 84.3346 162.968 83.0617 164.835 83.0617C165.794 83.0617 166.622 83.3046 167.308 83.7987C168.004 84.2927 168.549 85.0966 168.963 86.2187C169.245 87.0059 169.386 88.2118 169.386 89.828V97.4985C169.386 98.6374 169.474 99.4078 169.65 99.8182C169.79 100.145 170.019 100.404 170.327 100.58C170.644 100.764 171.216 100.857 172.062 100.857V101.56H163.373V100.857H163.734C164.553 100.857 165.125 100.731 165.451 100.471C165.776 100.22 166.005 99.8433 166.129 99.3408C166.181 99.1482 166.208 98.5286 166.208 97.4985V90.1378C166.208 88.5049 165.997 87.3158 165.583 86.5788C165.169 85.8419 164.465 85.4735 163.479 85.4735C161.956 85.4735 160.442 86.3276 158.928 88.0275V97.5069C158.928 98.7212 158.998 99.4748 159.139 99.7679C159.315 100.145 159.562 100.429 159.879 100.605C160.196 100.781 160.829 100.873 161.789 100.873V101.577H153.101V100.873H153.488C154.386 100.873 154.985 100.639 155.301 100.178C155.618 99.7177 155.768 98.83 155.768 97.5153V90.8412C155.768 88.6807 155.724 87.366 155.627 86.8971C155.53 86.4281 155.381 86.1015 155.187 85.934C154.993 85.7665 154.72 85.6828 154.395 85.6828C154.034 85.6828 153.611 85.7833 153.11 85.9759L152.819 85.2725L158.118 83.0785H158.946V86.8719Z" fill="#123D76"/>
<path d="M178.171 95.0198C177.097 94.4839 176.269 93.7302 175.697 92.7756C175.125 91.8126 174.834 90.7491 174.834 89.5851C174.834 87.8098 175.495 86.2774 176.797 84.9961C178.1 83.7149 179.79 83.0701 181.832 83.0701C183.505 83.0701 184.957 83.4888 186.19 84.3262H189.913C190.459 84.3262 190.785 84.343 190.873 84.3765C190.961 84.41 191.022 84.4686 191.066 84.5439C191.146 84.6612 191.181 84.8705 191.181 85.172C191.181 85.5153 191.146 85.7498 191.084 85.8754C191.049 85.9424 190.978 85.9926 190.881 86.0345C190.785 86.0764 190.459 86.0931 189.913 86.0931H187.633C188.346 87.031 188.707 88.2369 188.707 89.7023C188.707 91.3771 188.082 92.8091 186.823 93.9982C185.565 95.1873 183.883 95.7819 181.78 95.7819C180.908 95.7819 180.019 95.6479 179.112 95.3883C178.549 95.8824 178.171 96.3178 177.968 96.6946C177.766 97.0715 177.669 97.3813 177.669 97.6493C177.669 97.8754 177.774 98.0847 177.986 98.2941C178.197 98.5034 178.611 98.6542 179.227 98.7463C179.588 98.7965 180.477 98.8468 181.912 98.8803C184.544 98.9473 186.251 99.0394 187.035 99.1566C188.223 99.3241 189.174 99.7763 189.887 100.513C190.6 101.25 190.952 102.146 190.952 103.218C190.952 104.7 190.274 106.082 188.918 107.38C186.92 109.289 184.324 110.244 181.111 110.244C178.646 110.244 176.56 109.674 174.852 108.535C173.892 107.882 173.417 107.204 173.417 106.492C173.417 106.174 173.488 105.864 173.628 105.554C173.848 105.069 174.297 104.399 174.975 103.536C175.063 103.419 175.715 102.716 176.929 101.418C176.26 101.016 175.794 100.647 175.521 100.329C175.248 100.011 175.107 99.6423 175.107 99.2403C175.107 98.7798 175.292 98.2438 175.653 97.6325C176.014 97.0212 176.85 96.1419 178.171 95.0198ZM177.977 101.577C177.378 102.247 176.921 102.866 176.612 103.444C176.304 104.022 176.155 104.549 176.155 105.035C176.155 105.663 176.524 106.216 177.264 106.685C178.54 107.497 180.389 107.899 182.809 107.899C185.116 107.899 186.806 107.48 187.906 106.651C188.998 105.822 189.543 104.935 189.543 103.988C189.543 103.31 189.218 102.824 188.566 102.54C187.897 102.255 186.586 102.079 184.614 102.029C181.736 101.945 179.526 101.794 177.977 101.577ZM181.507 84.008C180.556 84.008 179.764 84.3932 179.13 85.1636C178.496 85.934 178.171 87.1231 178.171 88.7142C178.171 90.7826 178.602 92.382 179.473 93.5209C180.133 94.3834 180.979 94.8189 182.008 94.8189C182.977 94.8189 183.778 94.442 184.403 93.6967C185.028 92.9515 185.345 91.7791 185.345 90.1797C185.345 88.1029 184.904 86.47 184.024 85.2892C183.373 84.4435 182.528 84.008 181.507 84.008Z" fill="#123D76"/>
<path d="M12.1916 125.442H5.23753L4.02277 128.858C3.72348 129.696 3.57384 130.324 3.57384 130.742C3.57384 131.069 3.70588 131.362 3.96116 131.613C4.22524 131.865 4.7886 132.024 5.65125 132.099V132.694H0V132.099C0.748219 131.94 1.23236 131.731 1.45242 131.479C1.90135 130.968 2.4031 129.93 2.94885 128.373L9.26911 110.578H9.73565L15.9855 128.565C16.4872 130.014 16.945 130.952 17.3587 131.379C17.7724 131.806 18.3446 132.049 19.0752 132.107V132.702H11.9891V132.107C12.7021 132.065 13.1862 131.923 13.4415 131.68C13.6968 131.437 13.82 131.136 13.82 130.784C13.82 130.315 13.644 129.578 13.2919 128.565L12.1916 125.442ZM11.8219 124.261L8.77617 115.518L5.65125 124.261H11.8219Z" fill="#CF3436"/>
<path d="M28.7844 131.044C28.1947 131.789 27.6137 132.325 27.0503 132.643C26.4869 132.97 25.8796 133.129 25.2194 133.129C23.899 133.129 22.737 132.459 21.7512 131.128C20.7653 129.796 20.2635 128.079 20.2635 125.986C20.2635 123.892 20.8093 121.975 21.9096 120.233C23.0011 118.491 24.4095 117.629 26.1348 117.629C27.2 117.629 28.089 118.039 28.7844 118.86V116.163C28.7844 114.497 28.7492 113.467 28.6876 113.082C28.626 112.696 28.5203 112.437 28.3795 112.303C28.2387 112.16 28.0626 112.094 27.8514 112.094C27.6225 112.094 27.3144 112.177 26.9359 112.345L26.7598 111.784L30.3777 110H30.9763V126.89C30.9763 128.599 31.0115 129.645 31.0731 130.022C31.1435 130.399 31.2491 130.667 31.39 130.809C31.5396 130.96 31.7069 131.035 31.9005 131.035C32.1382 131.035 32.4551 130.943 32.8512 130.768L33.0009 131.329L29.4006 133.129H28.7932V131.044H28.7844ZM28.7844 129.922V122.394C28.7316 121.673 28.5732 121.012 28.3091 120.417C28.045 119.823 27.6929 119.371 27.2528 119.069C26.8126 118.768 26.3901 118.617 25.9764 118.617C25.2018 118.617 24.5064 119.036 23.899 119.873C23.098 120.978 22.693 122.594 22.693 124.721C22.693 126.865 23.0803 128.515 23.855 129.654C24.6296 130.793 25.5011 131.37 26.4517 131.37C27.2616 131.379 28.0362 130.893 28.7844 129.922Z" fill="#CF3436"/>
<path d="M33.1593 118.073H38.8634V118.667H38.4937C38.1504 118.667 37.8863 118.768 37.7014 118.969C37.5166 119.17 37.4286 119.446 37.4286 119.781C37.4286 120.158 37.5254 120.593 37.7102 121.104L40.5271 129.176L43.3615 120.802C43.564 120.208 43.6696 119.756 43.6696 119.446C43.6696 119.295 43.6344 119.178 43.564 119.077C43.4671 118.918 43.3439 118.809 43.1942 118.751C43.0446 118.692 42.7365 118.667 42.2788 118.667V118.073H46.2399V118.667C45.7822 118.709 45.4653 118.818 45.2893 119.002C44.9812 119.32 44.6995 119.856 44.453 120.593L40.1486 133.129H39.6028L35.2719 120.802C35.0783 120.225 34.8934 119.814 34.7174 119.563C34.5413 119.312 34.3124 119.103 34.0396 118.935C33.8899 118.843 33.5906 118.751 33.1505 118.667V118.073H33.1593Z" fill="#CF3436"/>
<path d="M49.3737 123.574C49.3649 125.743 49.805 127.443 50.6853 128.674C51.5655 129.905 52.6042 130.525 53.8014 130.525C54.5936 130.525 55.289 130.265 55.87 129.738C56.4597 129.21 56.9527 128.314 57.3488 127.033L57.7625 127.351C57.5777 128.808 57.0407 130.131 56.1428 131.329C55.2538 132.526 54.1359 133.121 52.7891 133.121C51.3278 133.121 50.0867 132.434 49.048 131.069C48.0093 129.704 47.4899 127.87 47.4899 125.559C47.4899 123.063 48.0181 121.112 49.0832 119.714C50.1483 118.315 51.4863 117.62 53.0883 117.62C54.4439 117.62 55.5619 118.156 56.4421 119.237C57.3136 120.317 57.7537 121.757 57.7537 123.566H49.3737V123.574ZM49.3737 122.653H54.9897C54.9457 121.715 54.8489 121.062 54.708 120.677C54.488 120.082 54.1623 119.613 53.7221 119.27C53.282 118.927 52.8243 118.759 52.3489 118.759C51.6183 118.759 50.9581 119.103 50.386 119.789C49.8138 120.476 49.4705 121.431 49.3737 122.653Z" fill="#CF3436"/>
<path d="M62.9208 117.645V120.928C63.9331 118.742 64.9806 117.645 66.0457 117.645C66.5299 117.645 66.9348 117.821 67.2517 118.181C67.5686 118.533 67.727 118.952 67.727 119.421C67.727 119.839 67.6126 120.183 67.3837 120.476C67.1549 120.769 66.882 120.903 66.5651 120.903C66.257 120.903 65.9137 120.719 65.5264 120.35C65.1391 119.982 64.8574 119.798 64.6725 119.798C64.5141 119.798 64.338 119.906 64.1532 120.116C63.7571 120.551 63.3434 121.271 62.9208 122.268V129.269C62.9208 130.072 63.0088 130.684 63.1761 131.102C63.2905 131.387 63.493 131.63 63.7835 131.823C64.074 132.015 64.4965 132.107 65.0422 132.107V132.685H58.8276V132.107C59.4438 132.107 59.9016 131.99 60.2008 131.756C60.4209 131.588 60.5793 131.312 60.6674 130.943C60.7114 130.768 60.7378 130.248 60.7378 129.394V123.733C60.7378 122.033 60.7114 121.02 60.6498 120.694C60.5881 120.367 60.4825 120.133 60.3329 119.982C60.1744 119.831 59.9896 119.756 59.7607 119.756C59.4878 119.756 59.1797 119.831 58.8364 119.999L58.7044 119.421L62.3751 117.637H62.9208V117.645Z" fill="#CF3436"/>
<path d="M71.9259 113.274V118.073H74.7603V119.186H71.9259V128.657C71.9259 129.604 72.0403 130.24 72.2604 130.575C72.4804 130.91 72.7709 131.069 73.1318 131.069C73.4223 131.069 73.704 130.96 73.9769 130.742C74.2497 130.525 74.461 130.206 74.6107 129.779H75.13C74.8219 130.818 74.3818 131.605 73.8184 132.132C73.2551 132.66 72.6741 132.92 72.0667 132.92C71.6618 132.92 71.2657 132.786 70.8784 132.509C70.491 132.241 70.2006 131.848 70.0157 131.345C69.8309 130.843 69.734 130.064 69.734 129.009V119.186H67.8151V118.659C68.2992 118.424 68.801 118.031 69.3027 117.47C69.8133 116.909 70.2622 116.247 70.6583 115.485C70.8608 115.083 71.1424 114.346 71.5033 113.266H71.9259V113.274Z" fill="#CF3436"/>
<path d="M80.1299 117.645V129.386C80.1299 130.299 80.1827 130.91 80.2971 131.211C80.4115 131.513 80.57 131.739 80.7901 131.89C81.0101 132.04 81.3974 132.116 81.9784 132.116V132.694H76.0895V132.116C76.6792 132.116 77.0754 132.049 77.2778 131.906C77.4803 131.772 77.6387 131.538 77.762 131.22C77.8852 130.902 77.938 130.29 77.938 129.386V123.758C77.938 122.176 77.9028 121.146 77.8148 120.677C77.7532 120.334 77.6563 120.099 77.5243 119.965C77.3923 119.831 77.2074 119.764 76.9785 119.764C76.7321 119.764 76.4328 119.839 76.0807 120.007L75.8958 119.429L79.5489 117.645H80.1299ZM79.0295 110.008C79.3992 110.008 79.7162 110.167 79.9802 110.477C80.2443 110.795 80.3675 111.172 80.3675 111.616C80.3675 112.06 80.2355 112.445 79.9802 112.763C79.725 113.082 79.408 113.241 79.0295 113.241C78.6598 113.241 78.3429 113.082 78.0789 112.763C77.8148 112.445 77.6827 112.06 77.6827 111.616C77.6827 111.172 77.8148 110.787 78.0701 110.477C78.3253 110.167 78.651 110.008 79.0295 110.008Z" fill="#CF3436"/>
<path d="M91.318 117.645V122.62H90.8778C90.5433 121.054 90.112 119.99 89.5838 119.429C89.0557 118.868 88.3867 118.583 87.5769 118.583C86.9607 118.583 86.4589 118.784 86.0804 119.178C85.7019 119.571 85.5082 120.007 85.5082 120.484C85.5082 121.079 85.6491 121.59 85.9308 122.017C86.2036 122.452 86.7582 122.913 87.6033 123.407L89.5398 124.537C91.3355 125.592 92.2246 126.974 92.2246 128.699C92.2246 130.031 91.8109 131.102 90.9746 131.915C90.1384 132.727 89.2053 133.137 88.1754 133.137C87.436 133.137 86.5822 132.978 85.6315 132.66C85.341 132.551 85.1033 132.501 84.9185 132.501C84.716 132.501 84.5576 132.643 84.4431 132.92H84.003V127.703H84.4431C84.6896 129.193 85.1649 130.315 85.8603 131.069C86.5558 131.823 87.3392 132.199 88.2018 132.199C88.8092 132.199 89.311 131.982 89.6895 131.555C90.0768 131.128 90.2616 130.608 90.2616 129.997C90.2616 129.26 90.0504 128.649 89.619 128.146C89.1877 127.644 88.3339 127.016 87.0575 126.246C85.7811 125.475 84.9361 124.788 84.54 124.169C84.1438 123.566 83.9414 122.795 83.9414 121.874C83.9414 120.677 84.2847 119.672 84.9713 118.86C85.6579 118.056 86.5382 117.645 87.6297 117.645C88.105 117.645 88.686 117.771 89.3638 118.014C89.8127 118.173 90.112 118.257 90.2616 118.257C90.4025 118.257 90.5169 118.223 90.5961 118.148C90.6754 118.073 90.7722 117.905 90.8778 117.654H91.318V117.645Z" fill="#CF3436"/>
<path d="M98.2192 117.645V129.386C98.2192 130.299 98.272 130.91 98.3864 131.211C98.5009 131.513 98.6593 131.739 98.8794 131.89C99.0994 132.04 99.4868 132.116 100.068 132.116V132.694H94.1788V132.116C94.7686 132.116 95.1647 132.049 95.3671 131.906C95.5696 131.772 95.728 131.538 95.8513 131.22C95.9745 130.902 96.0273 130.29 96.0273 129.386V123.758C96.0273 122.176 95.9921 121.146 95.9041 120.677C95.8425 120.334 95.7456 120.099 95.6136 119.965C95.4816 119.831 95.2967 119.764 95.0678 119.764C94.8214 119.764 94.5221 119.839 94.17 120.007L93.9851 119.429L97.6382 117.645H98.2192ZM97.1189 110.008C97.4886 110.008 97.8054 110.167 98.0695 110.477C98.3336 110.795 98.4568 111.172 98.4568 111.616C98.4568 112.06 98.3248 112.445 98.0695 112.763C97.8143 113.082 97.4974 113.241 97.1189 113.241C96.7492 113.241 96.4322 113.082 96.1682 112.763C95.9041 112.445 95.7721 112.06 95.7721 111.616C95.7721 111.172 95.9041 110.787 96.1594 110.477C96.4147 110.167 96.7403 110.008 97.1189 110.008Z" fill="#CF3436"/>
<path d="M105.103 120.735C106.52 118.675 107.876 117.645 109.17 117.645C109.83 117.645 110.402 117.846 110.877 118.24C111.353 118.642 111.731 119.295 112.013 120.208C112.206 120.844 112.303 121.824 112.303 123.139V129.377C112.303 130.299 112.365 130.927 112.488 131.262C112.585 131.53 112.743 131.739 112.955 131.881C113.175 132.032 113.571 132.107 114.152 132.107V132.685H108.157V132.107H108.413C108.976 132.107 109.372 132.007 109.601 131.798C109.83 131.588 109.979 131.287 110.067 130.876C110.103 130.717 110.12 130.215 110.12 129.377V123.398C110.12 122.067 109.979 121.104 109.689 120.501C109.398 119.898 108.914 119.597 108.237 119.597C107.189 119.597 106.142 120.292 105.094 121.673V129.377C105.094 130.366 105.147 130.977 105.244 131.211C105.367 131.521 105.534 131.747 105.754 131.89C105.974 132.032 106.406 132.107 107.075 132.107V132.685H101.08V132.107H101.344C101.96 132.107 102.383 131.915 102.594 131.538C102.814 131.161 102.92 130.441 102.92 129.377V123.959C102.92 122.201 102.885 121.137 102.823 120.752C102.761 120.367 102.656 120.107 102.515 119.973C102.374 119.839 102.198 119.764 101.969 119.764C101.723 119.764 101.423 119.839 101.08 120.007L100.878 119.429L104.531 117.645H105.103V120.735Z" fill="#CF3436"/>
<path d="M118.368 127.359C117.629 126.924 117.057 126.313 116.661 125.534C116.264 124.755 116.062 123.892 116.062 122.946C116.062 121.498 116.511 120.258 117.418 119.211C118.324 118.173 119.477 117.645 120.895 117.645C122.048 117.645 123.051 117.989 123.896 118.667H126.467C126.845 118.667 127.065 118.684 127.127 118.709C127.188 118.734 127.232 118.784 127.259 118.843C127.312 118.935 127.338 119.111 127.338 119.354C127.338 119.63 127.312 119.823 127.268 119.932C127.241 119.982 127.197 120.024 127.127 120.057C127.056 120.091 126.836 120.107 126.458 120.107H124.882C125.375 120.869 125.622 121.849 125.622 123.038C125.622 124.403 125.19 125.567 124.328 126.53C123.465 127.502 122.303 127.979 120.842 127.979C120.243 127.979 119.627 127.87 119.002 127.661C118.615 128.063 118.351 128.414 118.21 128.724C118.069 129.026 118.007 129.285 118.007 129.495C118.007 129.679 118.078 129.855 118.227 130.022C118.377 130.19 118.659 130.315 119.081 130.391C119.328 130.433 119.944 130.474 120.939 130.5C122.761 130.55 123.94 130.625 124.477 130.726C125.296 130.868 125.956 131.228 126.44 131.823C126.924 132.417 127.171 133.154 127.171 134.025C127.171 135.223 126.704 136.353 125.771 137.408C124.398 138.957 122.594 139.736 120.384 139.736C118.676 139.736 117.242 139.276 116.071 138.346C115.411 137.818 115.076 137.266 115.076 136.688C115.076 136.437 115.12 136.177 115.226 135.926C115.375 135.532 115.683 134.988 116.15 134.285C116.212 134.193 116.661 133.615 117.497 132.56C117.039 132.233 116.713 131.932 116.52 131.672C116.326 131.412 116.238 131.119 116.238 130.784C116.238 130.416 116.361 129.98 116.617 129.478C116.881 128.976 117.462 128.272 118.368 127.359ZM118.236 132.685C117.822 133.23 117.506 133.732 117.294 134.201C117.083 134.67 116.977 135.097 116.977 135.491C116.977 136.001 117.233 136.445 117.743 136.83C118.624 137.492 119.9 137.818 121.572 137.818C123.166 137.818 124.336 137.484 125.085 136.805C125.842 136.127 126.22 135.407 126.22 134.645C126.22 134.092 125.991 133.698 125.542 133.464C125.085 133.23 124.178 133.087 122.814 133.045C120.833 132.987 119.31 132.861 118.236 132.685ZM120.675 118.407C120.023 118.407 119.477 118.717 119.028 119.345C118.588 119.973 118.368 120.936 118.368 122.234C118.368 123.918 118.668 125.216 119.266 126.145C119.724 126.849 120.305 127.2 121.018 127.2C121.687 127.2 122.241 126.899 122.673 126.287C123.104 125.685 123.324 124.73 123.324 123.432C123.324 121.74 123.016 120.417 122.409 119.463C121.96 118.759 121.379 118.407 120.675 118.407Z" fill="#CF3436"/>
<path d="M143.306 117.645V122.62H142.866C142.531 121.054 142.1 119.99 141.572 119.429C141.044 118.868 140.375 118.583 139.565 118.583C138.949 118.583 138.447 118.784 138.068 119.178C137.69 119.571 137.496 120.007 137.496 120.484C137.496 121.079 137.637 121.59 137.919 122.017C138.192 122.452 138.746 122.913 139.591 123.407L141.528 124.537C143.324 125.592 144.213 126.974 144.213 128.699C144.213 130.031 143.799 131.102 142.963 131.915C142.126 132.727 141.193 133.137 140.163 133.137C139.424 133.137 138.57 132.978 137.62 132.66C137.329 132.551 137.091 132.501 136.907 132.501C136.704 132.501 136.546 132.643 136.431 132.92H135.991V127.703H136.431C136.678 129.193 137.153 130.315 137.848 131.069C138.544 131.823 139.327 132.199 140.19 132.199C140.797 132.199 141.299 131.982 141.678 131.555C142.065 131.128 142.25 130.608 142.25 129.997C142.25 129.26 142.038 128.649 141.607 128.146C141.176 127.644 140.322 127.016 139.046 126.246C137.76 125.484 136.924 124.788 136.528 124.169C136.132 123.566 135.929 122.795 135.929 121.874C135.929 120.677 136.273 119.672 136.959 118.86C137.646 118.047 138.526 117.645 139.618 117.645C140.093 117.645 140.674 117.771 141.352 118.014C141.801 118.173 142.1 118.257 142.25 118.257C142.391 118.257 142.505 118.223 142.584 118.148C142.663 118.073 142.76 117.905 142.866 117.654H143.306V117.645Z" fill="#CF3436"/>
<path d="M151.95 117.645C153.79 117.645 155.26 118.483 156.378 120.166C157.32 121.598 157.795 123.248 157.795 125.107C157.795 126.413 157.531 127.736 157.012 129.076C156.492 130.416 155.77 131.429 154.864 132.107C153.957 132.786 152.936 133.129 151.809 133.129C149.978 133.129 148.526 132.25 147.452 130.5C146.545 129.026 146.088 127.368 146.088 125.525C146.088 124.186 146.36 122.854 146.915 121.531C147.47 120.208 148.191 119.228 149.089 118.6C149.996 117.964 150.947 117.645 151.95 117.645ZM151.545 118.684C151.079 118.684 150.603 118.851 150.137 119.186C149.661 119.521 149.283 120.107 148.992 120.945C148.702 121.782 148.552 122.862 148.552 124.186C148.552 126.313 148.904 128.146 149.609 129.687C150.313 131.228 151.237 131.999 152.381 131.999C153.235 131.999 153.948 131.571 154.503 130.726C155.057 129.88 155.339 128.414 155.339 126.338C155.339 123.742 154.873 121.698 153.948 120.216C153.315 119.195 152.513 118.684 151.545 118.684Z" fill="#CF3436"/>
<path d="M163.754 110.008V129.386C163.754 130.299 163.807 130.91 163.922 131.203C164.027 131.504 164.203 131.731 164.432 131.881C164.661 132.032 165.092 132.116 165.717 132.116V132.694H159.776V132.116C160.33 132.116 160.709 132.049 160.911 131.906C161.114 131.772 161.272 131.538 161.386 131.22C161.501 130.902 161.563 130.29 161.563 129.386V116.121C161.563 114.472 161.527 113.458 161.466 113.082C161.404 112.705 161.307 112.445 161.166 112.311C161.026 112.169 160.858 112.102 160.647 112.102C160.418 112.102 160.128 112.186 159.776 112.353L159.547 111.792L163.165 110.008H163.754Z" fill="#CF3436"/>
<path d="M177.75 118.073V126.924C177.75 128.615 177.786 129.645 177.847 130.022C177.918 130.399 178.023 130.667 178.164 130.809C178.314 130.96 178.481 131.036 178.675 131.036C178.948 131.036 179.256 130.943 179.599 130.768L179.784 131.329L176.157 133.129H175.559V130.039C174.52 131.396 173.719 132.258 173.173 132.61C172.627 132.962 172.046 133.137 171.439 133.137C170.761 133.137 170.171 132.903 169.67 132.426C169.168 131.957 168.825 131.345 168.631 130.6C168.437 129.855 168.341 128.8 168.341 127.443V120.92C168.341 120.225 168.279 119.747 168.156 119.488C168.032 119.228 167.848 119.019 167.61 118.876C167.363 118.734 166.923 118.667 166.29 118.675V118.081H170.541V127.853C170.541 129.21 170.735 130.106 171.131 130.533C171.527 130.96 172.002 131.169 172.557 131.169C172.935 131.169 173.367 131.027 173.851 130.742C174.335 130.458 174.907 129.905 175.567 129.101V120.828C175.567 119.999 175.444 119.438 175.189 119.144C174.934 118.851 174.414 118.692 173.622 118.675V118.081H177.75V118.073Z" fill="#CF3436"/>
<path d="M184.203 113.274V118.073H187.037V119.186H184.203V128.657C184.203 129.604 184.317 130.24 184.537 130.575C184.766 130.901 185.048 131.069 185.409 131.069C185.699 131.069 185.981 130.96 186.254 130.742C186.527 130.525 186.738 130.206 186.888 129.779H187.407C187.099 130.818 186.659 131.605 186.095 132.132C185.532 132.66 184.951 132.92 184.344 132.92C183.939 132.92 183.543 132.786 183.155 132.509C182.768 132.241 182.477 131.848 182.293 131.345C182.108 130.843 182.011 130.064 182.011 129.009V119.186H180.092V118.659C180.576 118.424 181.078 118.031 181.58 117.47C182.09 116.909 182.539 116.247 182.935 115.485C183.138 115.083 183.419 114.346 183.78 113.266H184.203V113.274Z" fill="#CF3436"/>
<path d="M192.398 117.645V129.386C192.398 130.299 192.451 130.91 192.565 131.211C192.68 131.513 192.838 131.739 193.058 131.89C193.278 132.04 193.666 132.116 194.247 132.116V132.694H188.358V132.116C188.947 132.116 189.343 132.049 189.546 131.906C189.748 131.772 189.907 131.538 190.03 131.22C190.144 130.902 190.206 130.29 190.206 129.386V123.758C190.206 122.176 190.162 121.146 190.083 120.677C190.021 120.334 189.924 120.099 189.792 119.965C189.66 119.831 189.476 119.764 189.247 119.764C189 119.764 188.701 119.839 188.349 120.007L188.164 119.429L191.817 117.645H192.398ZM191.298 110.008C191.667 110.008 191.984 110.167 192.248 110.477C192.512 110.795 192.636 111.172 192.636 111.616C192.636 112.06 192.504 112.445 192.248 112.763C191.993 113.082 191.676 113.241 191.298 113.241C190.928 113.241 190.611 113.082 190.347 112.763C190.083 112.445 189.951 112.06 189.951 111.616C189.951 111.172 190.083 110.787 190.338 110.477C190.602 110.167 190.919 110.008 191.298 110.008Z" fill="#CF3436"/>
<path d="M201.676 117.645C203.516 117.645 204.986 118.483 206.104 120.166C207.045 121.598 207.521 123.248 207.521 125.107C207.521 126.413 207.257 127.736 206.737 129.076C206.218 130.416 205.496 131.429 204.59 132.107C203.683 132.786 202.662 133.129 201.535 133.129C199.704 133.129 198.252 132.25 197.178 130.5C196.271 129.026 195.813 127.368 195.813 125.525C195.813 124.186 196.086 122.854 196.641 121.531C197.195 120.208 197.917 119.228 198.815 118.6C199.722 117.964 200.672 117.645 201.676 117.645ZM201.271 118.684C200.804 118.684 200.329 118.851 199.863 119.186C199.387 119.521 199.009 120.107 198.718 120.945C198.428 121.782 198.278 122.862 198.278 124.186C198.278 126.313 198.63 128.146 199.334 129.687C200.039 131.228 200.963 131.999 202.107 131.999C202.961 131.999 203.674 131.571 204.229 130.726C204.783 129.88 205.065 128.414 205.065 126.338C205.065 123.742 204.598 121.698 203.674 120.216C203.04 119.195 202.239 118.684 201.271 118.684Z" fill="#CF3436"/>
<path d="M212.846 120.735C214.264 118.675 215.619 117.645 216.913 117.645C217.573 117.645 218.146 117.846 218.621 118.24C219.096 118.642 219.475 119.295 219.756 120.208C219.95 120.844 220.047 121.824 220.047 123.139V129.377C220.047 130.299 220.108 130.927 220.232 131.262C220.329 131.53 220.487 131.739 220.698 131.881C220.918 132.032 221.314 132.107 221.895 132.107V132.685H215.901V132.107H216.156C216.72 132.107 217.116 132.007 217.344 131.798C217.573 131.588 217.723 131.287 217.811 130.876C217.846 130.717 217.864 130.215 217.864 129.377V123.398C217.864 122.067 217.723 121.104 217.433 120.501C217.142 119.898 216.658 119.597 215.98 119.597C214.933 119.597 213.885 120.292 212.838 121.673V129.377C212.838 130.366 212.882 130.977 212.987 131.211C213.11 131.521 213.278 131.747 213.498 131.89C213.718 132.032 214.149 132.107 214.818 132.107V132.685H208.824V132.107H209.088C209.704 132.107 210.126 131.915 210.338 131.538C210.558 131.161 210.663 130.441 210.663 129.377V123.959C210.663 122.201 210.628 121.137 210.567 120.752C210.505 120.367 210.399 120.107 210.258 119.973C210.118 119.839 209.942 119.764 209.713 119.764C209.466 119.764 209.167 119.839 208.824 120.007L208.621 119.429L212.274 117.645H212.846V120.735Z" fill="#CF3436"/>
</svg>
