

<svg width="348" height="595" viewBox="0 0 348 595" fill="none" xmlns="http://www.w3.org/2000/svg" id="svg-hi">

    <defs>
    <style type= 'text/css'><![CDATA[
    
#R-wrist{
	animation: astronaut-wrist-hi 0.65s  alternate-reverse infinite;
    transform-origin: 50% 90%;

}
	@keyframes astronaut-wrist-hi {
		0% {transform: rotate(-2deg);}
  100% {transform: rotate(0deg);}
	  }
#R-Palm{

  animation: astronaut-palm-hi 0.65s  alternate-reverse infinite;
  transform-origin: 50% 90%;

}
	@keyframes astronaut-palm-hi {
		0% {transform: rotate(-3deg);}
  100% {transform: rotate(0deg);}
	}

#Group-1{
	animation: astronaut-hu ;
	animation-duration: 6s;
	animation-iteration-count:infinite;
}
@keyframes astronaut-hu {
	0% {
		transform: translate3D(0px, 0px, 0);
	  }
	25% {
		transform: translate3D(0px, -20px, 0);
	  }
	50% {
		transform: translate3D(30px, 10px, 0);
	  }
	  75% {
		transform: translate3D(20px, -20px, 0);
	  }
	  1000% {
		transform: translate3D(30px, -50px, 0);
	  }
}
]]>]</style></defs>

              <g id="Astronaut 1" clip-path="url(#clip0)">
              
              <g id="attachment">
                <g id="Layer 33">
                <path id="Vector_9" d="M136.49 379.73C185.7 460.88 255.41 493.62 294.61 474.62C323.46 460.62 340.55 416.33 333.51 378.73C319.51 303.86 220 309.73 160.93 214.14C128.47 161.62 104.35 72.25 145.54 29.62C182.37 -8.48999 267.82 -5.45 345.46 47.71" stroke="#575756" stroke-width="8" stroke-miterlimit="10"/>
                </g>
                </g>
              <g id="Group-1">
                <g id="L-palm">
                  <path id="Vector" d="M92.3746 410.751C93.3928 412.596 94.0495 414.619 94.3093 416.71C95.378 425.769 87.509 427.904 84.5484 440.397C84.0476 442.544 83.3484 446.404 80.8644 447.249C80.3834 447.408 79.8733 447.458 79.3707 447.396C78.868 447.334 78.3852 447.163 77.9566 446.893C76.3508 445.833 76.326 443.422 76.365 441.77C76.3745 437.699 78.0377 434.991 77.8202 434.88C77.6027 434.769 74.1937 439.391 71.1829 446.508C69.5272 450.402 66.939 453.862 65.894 458.031C65.6334 459.053 65.2407 460.87 63.7871 461.417C62.3335 461.963 59.7248 460.87 58.5898 459.141C57.4548 457.411 57.955 455.242 58.5765 452.918C59.0634 451.108 59.421 451.099 60.5912 447.996C61.5212 445.485 61.2941 445.527 62.0646 443.611C63.1513 440.926 63.7299 440.63 64.8124 437.958C65.5204 436.223 66.2796 433.86 66.0939 433.766C65.5319 433.476 55.4189 454.903 55.0491 456.742C55.029 456.821 54.9961 456.896 54.9518 456.964C54.3177 457.901 50.9318 457.392 49.7076 456.027C47.4752 453.533 50.8898 446.643 55.9654 436.423C56.7496 434.873 58.0704 432.245 57.8147 432.041C57.5591 431.838 56.4261 433.392 55.4768 434.78C53.3014 438.132 51.5542 441.744 50.2758 445.531C49.2814 448.325 49.078 449.668 47.9088 449.961C47.099 450.046 46.2825 449.882 45.5684 449.491C44.8543 449.099 44.2766 448.499 43.9126 447.771C43.4374 446.664 44.0348 445.871 45.4582 442.52C46.6233 439.749 46.2492 440.174 47.062 438.338C48.375 435.538 49.9463 432.867 51.7555 430.36C53.7478 427.397 54.8252 426.122 54.6971 426.009C54.569 425.896 51.8188 428.604 49.7936 430.973C48.7909 432.043 47.8929 433.207 47.1119 434.449C46.4548 435.815 45.6968 437.131 44.8443 438.384C44.0924 439.441 43.712 439.791 43.215 439.772C42.1268 439.728 41.0972 437.919 40.8861 437.352C39.5866 434.419 43.4922 430.688 51.424 422.687C54.1897 419.879 62.0591 411.889 68.7906 408.637C70.4002 407.83 72.1529 407.349 73.9488 407.219C76.1537 407.135 78.3545 407.471 80.4335 408.21C84.3406 409.371 88.3335 410.22 92.3746 410.751V410.751Z" fill="white" stroke="#1D1D1B" stroke-width="0.5" stroke-miterlimit="10"/>
                  <g id="Shdow">
                  <path id="Vector_2" opacity="0.2" d="M40.9522 437.668C41.0543 437.715 41.165 437.741 41.2774 437.743C41.3898 437.746 41.5016 437.725 41.6057 437.683C42.5778 437.381 42.9669 436.132 43.276 435.435C43.8086 434.201 44.7351 434.218 46.4901 431.959C48.2451 429.701 52.0804 424.773 56.6822 421.691C57.0649 421.431 59.2367 420.446 63.5666 418.472C72.8104 414.258 74.5176 413.656 75.9972 414.5C77.1411 415.16 76.7062 415.833 79.284 420.68C80.3109 422.564 81.4319 424.395 82.6429 426.165C84.6306 429.072 86.7111 432.111 88.0251 431.707C88.4023 431.586 88.3062 431.32 89.2322 429.717C89.8847 428.623 90.5805 427.652 91.5227 426.336C92.4648 425.019 92.7092 424.776 92.7203 424.328C92.844 423.198 91.9828 422.218 91.1192 421.318C89.4158 419.672 87.5667 418.183 85.5944 416.871C82.7634 414.764 83.1996 414.498 80.2451 412.286C78.6948 410.977 76.9357 409.937 75.0411 409.209C73.0015 408.462 70.8018 408.261 68.6606 408.627C66.8978 408.976 65.6776 409.727 61.2543 413.506C56.831 417.286 53.7905 420.194 53.3712 420.598C48.3426 425.39 49.4432 424.861 46.2686 427.773C44.9878 429.033 43.7844 430.369 42.665 431.773C41.8777 432.611 41.2803 433.609 40.9133 434.698C40.6499 435.609 40.3209 437.29 40.9522 437.668Z" fill="#5896D0"/>
                  <path id="Vector_3" opacity="0.2" d="M47.5123 450.025C47.2678 449.905 47.3089 449.408 47.3054 448.911C47.2648 447.878 47.1282 446.851 46.8972 445.844C46.6673 443.282 49.2338 438.78 49.7696 437.849C52.029 433.94 53.9436 430.555 56.0292 430.771C56.6168 430.832 57.4716 431.205 57.5604 431.712C57.6492 432.22 57.1319 432.461 56.4327 433.297C55.9654 433.93 55.5325 434.588 55.1356 435.267C53.367 438.054 52.4848 439.44 52.4082 439.594C51.5917 441.129 50.9584 442.755 50.5213 444.438C50.3463 445.131 50.1079 445.79 49.9559 446.505C49.5801 447.928 49.4341 448.527 48.9128 449.144C48.5399 449.614 47.8303 450.218 47.5123 450.025Z" fill="#5896D0"/>
                  <path id="Vector_4" opacity="0.2" d="M52.0514 457.26C52.1842 457.382 52.4754 457.397 53.0442 457.423C53.5542 457.514 54.0798 457.448 54.5515 457.233C54.9129 456.934 55.1521 456.513 55.224 456.049C55.5092 455.116 56.0473 454.275 56.3507 453.354C56.5462 452.763 56.7237 452.352 59.1787 447.15C61.9857 441.183 63.4045 438.186 63.8996 437.413C65.163 435.53 66.3518 434.059 66.0445 433.758C65.7372 433.457 63.9574 434.732 63.6937 434.918C62.3005 435.944 61.0969 437.205 60.1369 438.644C58.6059 440.998 57.2706 443.473 56.1447 446.045C53.5379 451.792 54.7186 450.711 53.0396 453.858C52.6392 454.66 51.4879 456.733 52.0514 457.26Z" fill="#5896D0"/>
                  </g>
                  </g>
                  <g id="L Wrist">
                  <path id="Vector_5" d="M85.4429 369.174C85.3046 369.247 85.1713 369.328 85.0439 369.418C83.1275 371.03 81.7907 373.224 81.2374 375.667C80.3228 379.313 75.5836 391.815 67.5991 398.821C64.0933 401.904 60.4466 403.498 60.689 406.182C60.8365 407.001 61.1803 407.773 61.6911 408.43C62.2019 409.087 62.8644 409.611 63.6218 409.956C64.8287 410.469 66.1677 410.583 67.4439 410.282C69.8082 409.841 70.2693 408.623 71.9248 408.339C73.5804 408.055 74.5752 408.913 77.5629 410.899C81.7106 413.67 84.5497 415.579 87.4174 417.268C90.5416 419.116 91.8429 419.622 93.0403 421.451C93.6459 422.654 94.3313 423.814 95.0921 424.925C96.2698 426.466 97.3586 427.879 99.0128 428.002C100.243 427.981 101.419 427.494 102.303 426.638C102.943 426.095 103.466 425.428 103.841 424.678C105.672 421.134 105.764 414.64 105.764 414.64C105.907 408.144 110.068 406.174 115.524 394.094C116.708 391.339 117.356 388.382 117.433 385.384C117.429 385.068 117.407 384.79 117.389 384.553C117.339 382.393 116.736 380.282 115.638 378.421C113.243 374.763 109.604 375.465 100.138 372.608C91.2107 369.868 88.6205 367.476 85.4429 369.174Z" fill="white" stroke="#1D1D1B" stroke-width="0.5" stroke-miterlimit="10"/>
                  <g id="shdow">
                  <path id="Vector_6" opacity="0.2" d="M93.4237 422.149C93.4667 422.705 93.9942 423.449 95.0625 424.92C96.1309 426.39 96.6099 427.065 97.4896 427.486C98.3739 427.891 99.3644 428.004 100.317 427.808C104.341 426.717 105.695 417.248 105.715 414.631C105.733 412.742 106.187 410.884 107.04 409.199C108.3 406.808 109.693 404.489 111.214 402.254C112.899 399.674 114.339 396.941 115.514 394.092C116.331 392.212 116.902 390.235 117.214 388.21C117.634 386.065 117.56 383.852 116.996 381.741C116.484 379.965 115.574 378.33 114.335 376.959C112.699 375.194 110.468 373.923 110.095 374.303C109.723 374.684 110.704 375.56 111.816 377.983C112.346 379.165 112.808 380.377 113.2 381.612C114.216 384.912 112.223 389.026 109.752 393.877C104.862 403.528 105.252 402.024 103.68 405.542C100.285 413.185 100.717 415.029 97.7874 417.503C95.86 419.14 93.2933 420.318 93.4237 422.149Z" fill="#5896D0"/>
                  </g>
                  </g>
                  <g id="L Shoulder">
                  <path id="Vector_7" d="M115.956 337.603C113.297 338.767 112.056 340.57 109.042 344.652C104.37 350.956 101.994 354.113 101.064 355.033C95.9317 360.014 92.1809 360.165 91.5976 363.794C91.3036 365.464 91.7541 366.952 93.0934 369.511C95.0391 373.031 97.3092 376.361 99.8742 379.459C104.065 384.877 105.297 386.855 108.775 390.524C112.536 394.479 113.503 394.703 114.063 394.764C117.068 395.096 119.371 392.053 125.758 384.395C131.675 377.294 134.216 376.874 134.998 373.286C135.681 370.134 134.677 367.97 133.082 363.376C126.908 345.67 128.094 338.544 122.973 336.803C120 335.836 116.845 337.214 115.956 337.603Z" fill="white" stroke="#1D1D1B" stroke-width="0.5" stroke-miterlimit="10"/>
                  <g id="shadow">
                  <path id="Vector_8" opacity="0.2" d="M115.956 337.603C115.782 338.508 118.181 338.991 120.222 341.479C121.793 343.39 121.767 344.784 122.762 348.003C124.98 355.134 127.373 355.436 128.5 361.501C128.882 363.424 129.015 365.388 128.897 367.345C128.616 370.155 127.872 372.9 126.693 375.467C125.314 378.505 123.585 381.372 121.541 384.008C118.915 387.637 116.077 391.106 113.041 394.4C113.64 394.658 114.291 394.772 114.942 394.733C116.204 394.639 117.207 393.937 118.894 392.261C119.993 391.2 121.018 390.066 121.962 388.867C124.488 385.157 124.777 386.118 130.913 378.782C132.233 377.307 133.478 375.766 134.642 374.165C137.531 368.491 133.241 364.28 128.407 347.619C126.753 341.91 126.054 338.265 122.877 336.83C120.038 335.52 116.174 336.51 115.956 337.603Z" fill="#5896D0"/>
                  </g>
                  </g>
              <g id="Helmet">
              <path id="helmet" d="M127.29 337.907C120.752 335.992 114.345 333.654 108.11 330.907C56.8805 307.587 37.7705 252.907 37.7705 252.907C32.1205 236.727 22.9405 200.457 39.0505 160.177C56.8205 115.747 93.4205 96.3272 104.27 91.1172C115.85 85.5572 146.61 72.8672 185.49 80.2472C187 80.5372 189.16 80.9572 191.81 81.5872C234.1 91.5872 259.01 122.097 262.86 126.927C268.96 134.557 290.54 162.407 291.23 203.637C291.75 234.577 280.23 256.987 275.49 265.947C275.49 265.947 253.17 308.147 200.83 333.477C193.23 337.167 184.83 340.477 184.83 340.477C177.83 342.337 172.4 342.357 161.83 342.397C154.983 342.564 148.134 342.136 141.36 341.117C136.607 340.346 131.908 339.274 127.29 337.907V337.907Z" fill="white" stroke="#1D1D1B" stroke-width="0.5" stroke-miterlimit="10"/>
              <path id="Vector_10" opacity="0.2" d="M52.5605 135.007C59.5605 125.927 67.0605 116.227 79.9505 106.217C97.9199 92.3326 119.074 83.158 141.49 79.5272C164.054 76.0704 187.13 78.5696 208.43 86.7772C208.43 86.7772 258.89 106.407 280.69 156.167C285.163 166.897 288.349 178.118 290.18 189.597C290.758 193.851 291.092 198.135 291.18 202.427C291.24 208.297 290.64 207.777 290.98 211.627C291.025 213.268 290.938 214.91 290.72 216.537C288.44 237.027 279.99 255.607 279.99 255.607C274.064 268.463 266.318 280.399 256.99 291.047C228.29 324.307 190.38 342.217 188.13 339.107C184.04 333.447 272.99 222.907 275.27 219.027C275.382 218.889 275.461 218.727 275.501 218.554C275.541 218.38 275.541 218.2 275.5 218.027C275.14 217.027 272.25 217.227 268.08 215.557C267.7 215.407 267.77 215.447 262.13 213.477L257.86 211.987C253.14 210.327 252.68 210.087 251.01 209.607C249.01 209.007 248.94 209.157 245.85 208.417C241.6 207.417 240.54 206.857 236.92 205.927C236.92 205.927 233.92 205.157 229.04 204.277C203.11 199.647 168.82 201.277 168.82 201.277C156.01 201.897 145.48 202.997 138.03 203.907C89.6405 209.797 65.2705 220.497 64.0905 217.587C63.0405 214.997 95.0905 198.537 135.69 184.957C182.91 169.157 221.98 163.847 221.88 163.277C221.67 162.087 47.0305 188.117 45.8005 181.557C45.0405 177.557 110.47 172.327 142.15 124.557C150.15 112.557 157.89 94.9172 152.99 90.4972C139.99 78.7772 46.1405 167.497 39.0405 160.077C36.6105 157.577 45.1205 144.637 52.5605 135.007Z" fill="#5896D0"/>
              <g id="face vizer">
              <g id="Vector_11">
              <path d="M50.0173 218.122C50.2673 235.796 52.9024 245.227 53.8064 248.215C54.018 248.934 54.1142 249.294 54.2585 249.703C55.701 253.869 60.0288 261.882 77.407 275.26C88.7842 284.002 99.1034 291.945 115.549 297.899C127.254 302.073 139.494 304.403 151.863 304.813C179.176 306.252 200.151 299.028 210.586 295.382C223.733 290.796 231.436 286.3 241.265 280.575C241.265 280.575 256.008 271.973 262.644 261.423C263.606 259.894 264.413 258.305 264.413 258.305C265.767 255.627 266.825 252.798 267.568 249.873C269.491 242.56 269.299 237.884 270.895 226.394C271.963 218.741 272.627 216.663 271.117 214.265C269.607 211.868 266.924 211.268 261.817 209.46C251.459 205.793 246.275 203.965 246.054 203.905C235.759 201.092 225.333 198.821 214.818 197.101C199.565 194.869 184.211 193.458 168.819 192.875C153.681 192.135 141.275 191.556 124.387 192.465C108.701 193.314 113.693 194.144 91.9194 195.802C91.9194 195.802 84.9277 196.342 60.1826 202.206C58.1342 202.686 53.9411 203.745 51.5272 207.402C50.2769 209.26 49.9115 211.188 50.0173 218.122Z" fill="black"/>
              <path d="M50.0173 218.122C50.2673 235.796 52.9024 245.227 53.8064 248.215C54.018 248.934 54.1142 249.294 54.2585 249.703C55.701 253.869 60.0288 261.882 77.407 275.26C88.7842 284.002 99.1034 291.945 115.549 297.899C127.254 302.073 139.494 304.403 151.863 304.813C179.176 306.252 200.151 299.028 210.586 295.382C223.733 290.796 231.436 286.3 241.265 280.575C241.265 280.575 256.008 271.973 262.644 261.423C263.606 259.894 264.413 258.305 264.413 258.305C265.767 255.627 266.825 252.798 267.568 249.873C269.491 242.56 269.299 237.884 270.895 226.394C271.963 218.741 272.627 216.663 271.117 214.265C269.607 211.868 266.924 211.268 261.817 209.46C251.459 205.793 246.275 203.965 246.054 203.905C235.759 201.092 225.333 198.821 214.818 197.101C199.565 194.869 184.211 193.458 168.819 192.875C153.681 192.135 141.275 191.556 124.387 192.465C108.701 193.314 113.693 194.144 91.9194 195.802C91.9194 195.802 84.9277 196.342 60.1826 202.206C58.1342 202.686 53.9411 203.745 51.5272 207.402C50.2769 209.26 49.9115 211.188 50.0173 218.122Z" fill="url(#paint0_linear)"/>
              <path d="M50.0173 218.122C50.2673 235.796 52.9024 245.227 53.8064 248.215C54.018 248.934 54.1142 249.294 54.2585 249.703C55.701 253.869 60.0288 261.882 77.407 275.26C88.7842 284.002 99.1034 291.945 115.549 297.899C127.254 302.073 139.494 304.403 151.863 304.813C179.176 306.252 200.151 299.028 210.586 295.382C223.733 290.796 231.436 286.3 241.265 280.575C241.265 280.575 256.008 271.973 262.644 261.423C263.606 259.894 264.413 258.305 264.413 258.305C265.767 255.627 266.825 252.798 267.568 249.873C269.491 242.56 269.299 237.884 270.895 226.394C271.963 218.741 272.627 216.663 271.117 214.265C269.607 211.868 266.924 211.268 261.817 209.46C251.459 205.793 246.275 203.965 246.054 203.905C235.759 201.092 225.333 198.821 214.818 197.101C199.565 194.869 184.211 193.458 168.819 192.875C153.681 192.135 141.275 191.556 124.387 192.465C108.701 193.314 113.693 194.144 91.9194 195.802C91.9194 195.802 84.9277 196.342 60.1826 202.206C58.1342 202.686 53.9411 203.745 51.5272 207.402C50.2769 209.26 49.9115 211.188 50.0173 218.122Z" stroke="#1D1D1B" stroke-width="0.352778" stroke-miterlimit="10"/>
              </g>
              </g>
              <g id="R-Palm">
              <path id="Vector_12" d="M251.15 353.01C266 337.93 269.41 340.06 275 332.47C275.91 331.25 278.48 327.55 281.28 327.88C281.782 327.945 282.263 328.119 282.69 328.39C283.117 328.661 283.479 329.023 283.75 329.45C284.75 331.1 283.75 333.29 283.02 334.76C281.26 338.43 278.6 340.16 278.74 340.35C278.88 340.54 283.96 337.84 289.74 332.71C292.91 329.91 296.74 327.91 299.47 324.59C300.15 323.77 301.29 322.31 302.83 322.47C304.37 322.63 306.27 324.71 306.55 326.76C306.83 328.81 305.44 330.55 303.88 332.38C302.66 333.81 302.34 333.66 299.94 335.96C298 337.82 298.25 337.88 296.73 339.28C294.59 341.28 293.94 341.28 291.81 343.2C290.43 344.47 288.72 346.27 288.81 346.43C289.19 346.94 307.54 331.95 308.67 330.43C308.719 330.365 308.78 330.311 308.85 330.27C309.85 329.69 312.66 331.62 313.18 333.38C314.12 336.58 308.08 341.38 299.1 348.38C297.72 349.46 295.4 351.24 295.55 351.51C295.7 351.78 297.37 350.88 298.83 350.03C302.237 347.943 305.368 345.437 308.15 342.57C310.25 340.43 310.99 339.35 312.15 339.57C312.918 339.84 313.584 340.339 314.061 340.998C314.539 341.657 314.803 342.446 314.82 343.26C314.77 344.47 313.82 344.93 311.17 347.33C308.92 349.33 309.44 349.11 307.91 350.42C305.521 352.386 302.953 354.124 300.24 355.61C297.17 357.42 295.65 358.1 295.72 358.26C295.79 358.42 299.44 357.15 302.28 355.89C303.66 355.356 304.983 354.686 306.23 353.89C307.413 352.937 308.667 352.075 309.98 351.31C311.11 350.68 311.61 350.53 312.04 350.76C313.04 351.27 313.12 353.35 313.11 353.95C312.97 358.73 298.62 362.34 297.29 362.67C293.75 363.55 243.02 376.13 240.02 366.67C239.5 364.84 243.38 360.9 251.15 353.01Z" fill="white" stroke="#1D1D1B" stroke-width="0.5" stroke-miterlimit="10"/>
              <path id="Vector_13" opacity="0.2" d="M275.4 331.62C275.49 331.73 275.76 331.62 275.86 331.62C276.94 331.35 279.45 331.92 279.86 332.85C280.38 334.04 277.3 335.33 276.24 339.12C275.97 340.12 275.68 341.81 276.24 342.12C276.8 342.43 278.41 340.74 279.32 339.7C280.933 337.946 282.151 335.866 282.89 333.6C283.38 331.91 283.73 330.66 283.03 329.6C282.744 329.183 282.368 328.834 281.931 328.58C281.493 328.326 281.004 328.172 280.5 328.13C279.809 328.079 279.118 328.217 278.5 328.53C277.905 328.861 277.348 329.256 276.84 329.71C276.59 329.901 276.356 330.112 276.14 330.34C275.81 330.62 275.23 331.35 275.4 331.62Z" fill="#5896D0"/>
              <path id="Vector_14" opacity="0.2" d="M295.87 326.89C295.98 327.04 296.96 326.28 298.79 325.66C300.87 324.95 301.72 325.19 301.96 325.27C302.618 325.454 303.178 325.888 303.52 326.48C304.01 327.57 303.16 328.99 302.37 330.07C298.52 335.28 292.88 336.5 289.14 342.12C287.68 344.33 286.57 347.12 286.97 347.37C287.37 347.62 288.69 346.17 289.15 345.69C289.891 344.869 290.585 344.008 291.23 343.11C292.63 341.47 293.23 341.6 295.52 339.45C295.69 339.28 295.52 339.45 297.52 337.33C299.79 334.97 300.94 333.78 301.66 333.1C302.271 332.562 302.852 331.992 303.4 331.39C304.283 330.553 304.967 329.527 305.4 328.39C305.734 327.443 305.8 326.422 305.59 325.44C305.22 323.9 303.94 321.95 302.17 321.83C301.17 321.856 300.212 322.239 299.47 322.91C298.887 323.443 298.355 324.029 297.88 324.66C296.61 326.13 295.77 326.75 295.87 326.89Z" fill="#5896D0"/>
              <path id="Vector_15" opacity="0.2" d="M302.94 334.24C303.03 334.37 304.03 333.64 305.87 333.01C307.95 332.3 308.8 332.55 309.04 332.63C309.695 332.81 310.252 333.241 310.59 333.83C311.09 334.92 310.24 336.34 309.44 337.42C305.86 342.27 300.27 345.42 296.22 349.48C295.87 349.83 294.85 350.86 294.96 350.99C295.07 351.12 297.25 349.57 297.47 349.4C298.68 348.503 299.839 347.538 300.94 346.51C302.54 345.07 300.54 346.91 305.94 342.06C307.251 340.936 308.503 339.744 309.69 338.49C310.515 337.57 311.239 336.564 311.85 335.49C312.377 334.686 312.646 333.741 312.62 332.78C312.607 332.599 312.583 332.419 312.55 332.24C312.368 331.452 311.951 330.738 311.355 330.192C310.759 329.645 310.011 329.293 309.21 329.18C308.951 329.149 308.689 329.173 308.44 329.25C307.75 329.47 307.44 330.04 307.02 330.57C306.6 331.1 306.67 330.85 305.18 332.1C304.32 332.84 302.83 334.08 302.94 334.24Z" fill="#5896D0"/>
              <path id="Vector_16" opacity="0.2" d="M304.24 345.41C305.116 345.049 305.937 344.568 306.68 343.98C308.45 342.71 310.12 341.03 311.37 341.22H311.45C312.125 341.3 312.752 341.607 313.23 342.09C313.74 342.86 311.89 344.76 311.76 344.89C309.303 347.242 306.545 349.259 303.56 350.89C299.56 353.36 295.75 356.45 296.02 356.89C296.14 357.09 297.02 356.79 297.6 356.58C298.999 356.043 300.295 355.268 301.43 354.29C303.25 352.93 302.82 353.43 304.91 351.9C309.97 348.17 309.35 347.56 312.28 345.6C313.151 345.066 313.859 344.306 314.33 343.4C314.67 342.791 314.82 342.095 314.76 341.4C314.679 340.651 314.342 339.953 313.807 339.423C313.271 338.893 312.57 338.564 311.82 338.49C311.207 338.561 310.631 338.819 310.17 339.23C309.5 339.783 308.917 340.434 308.44 341.16C307.84 341.93 307.37 342.53 306.85 343.08C306.046 343.928 305.173 344.707 304.24 345.41V345.41Z" fill="#5896D0"/>
              <path id="Vector_17" opacity="0.2" d="M303.3 354.99C304.225 354.781 305.117 354.444 305.95 353.99C307.95 353.05 309.86 351.69 311.06 352.11H311.13C311.37 352.2 312.44 352.61 312.73 353.29C313.09 354.14 310.93 355.68 310.79 355.78C307.881 357.698 304.674 359.121 301.3 359.99C299.23 360.63 292.09 362.82 292.23 363.47C292.29 363.74 293.63 363.71 294.57 363.58C296.167 363.307 297.689 362.704 299.04 361.81C301.067 360.748 303.182 359.861 305.36 359.16C307.383 358.522 309.328 357.66 311.16 356.59C311.936 356.135 312.576 355.478 313.01 354.69C313.327 354.147 313.512 353.538 313.55 352.91C313.62 351.65 313.11 349.86 311.97 349.55C311.351 349.475 310.725 349.628 310.21 349.98C309.468 350.412 308.794 350.951 308.21 351.58C307.49 352.22 306.92 352.73 306.31 353.18C305.358 353.864 304.351 354.47 303.3 354.99Z" fill="#5896D0"/>
              </g>
              <g id="R-wrist">
              <path id="Vector_18" d="M213.9 371.18C215.9 368.64 216.9 370 220.9 366.72C222.97 365.01 224.46 361.82 229.53 357.59C231.36 356.06 230.9 355.59 235.06 353.75C240.57 351.29 244.26 347.44 248.62 342.89C252.62 338.71 253.91 335.97 256.25 336.28C257.062 336.462 257.819 336.837 258.456 337.373C259.093 337.909 259.592 338.591 259.91 339.36C260.373 340.59 260.432 341.934 260.08 343.2C259.54 345.54 258.3 345.95 257.96 347.59C257.62 349.23 258.42 350.27 260.28 353.3C262.88 357.55 264.67 360.47 266.28 363.4C268 366.6 268.45 367.92 270.22 369.19C271.397 369.844 272.53 370.576 273.61 371.38C275.11 372.63 276.48 373.77 276.53 375.43C276.459 376.659 275.927 377.816 275.04 378.67C274.479 379.285 273.799 379.778 273.04 380.12C269.42 381.81 262.93 381.64 262.93 381.64C255.28 380.86 253.49 387.64 242.02 390.64C237.87 391.7 229.18 394.22 220.81 390.29C218.52 389.22 213.95 387.08 212.28 382.11C211.655 380.292 211.475 378.35 211.757 376.447C212.039 374.545 212.774 372.739 213.9 371.18V371.18Z" fill="white" stroke="#1D1D1B" stroke-width="0.5" stroke-miterlimit="10"/>
              <g id="Layer 29">
              <path id="Vector_19" opacity="0.2" d="M244.61 347.5C244.78 347.92 246.13 347.5 249 347.5C251.72 347.5 253.41 347.59 254.39 348.71C254.96 349.37 254.75 349.79 255.29 351.99C255.686 353.509 256.194 354.996 256.81 356.44C257.52 358.25 258.13 359.49 259.35 361.95C260.071 363.563 260.917 365.118 261.88 366.6C262.82 367.88 263.26 368.12 264.21 369.6C265.16 371.08 265.89 372.15 265.93 373.22C266 375.3 263.76 376.95 262.24 378.02C258.163 380.872 253.866 383.397 249.39 385.57C242.16 389.1 239.69 390.28 236.7 390.89C234.599 391.419 232.435 391.655 230.27 391.59C228.79 391.52 227.5 391.3 227.44 391.51C227.38 391.72 229.33 392.51 230.75 392.94C232.17 393.37 235.41 393.94 240.43 392.57C245.231 391.137 249.762 388.92 253.84 386.01C255.357 384.839 257.043 383.905 258.84 383.24C259.65 382.95 260.56 382.7 265.33 382.17C270.1 381.64 271.71 381.59 273.91 380.45C274.939 379.972 275.815 379.218 276.44 378.27C277.048 377.393 277.334 376.333 277.25 375.27C277.04 373.81 275.9 372.93 273.79 371.35C271.32 369.5 270.71 369.74 269.55 368.35C268.75 367.35 268.87 367.06 267.6 364.89C266.899 363.7 266.135 362.548 265.31 361.44C262.96 358.17 261.08 354.59 258.84 351.24C258.393 350.637 258.129 349.919 258.08 349.17C258.08 348.28 258.43 347.78 259.08 346.38C259.619 345.379 260.019 344.309 260.27 343.2C260.472 341.695 260.089 340.171 259.2 338.94C258.599 338.03 257.666 337.391 256.6 337.16C255.881 337.038 255.142 337.135 254.48 337.44C253.39 337.94 253.08 338.77 251.89 340.44C251.89 340.44 251.28 341.28 249.89 342.91C246.97 345.97 244.34 346.91 244.61 347.5Z" fill="#5896D0"/>
              </g>
              </g>
              <g id="R-Shoulder">
              <path id="Vector_20" d="M170.47 352.85C180.09 346.77 192.98 345.21 202.69 348.46C207.13 349.95 209.41 351.53 215.14 352.51C222.19 353.7 225.37 351.71 227.94 354.37C229.12 355.58 229.62 357.02 229.94 359.92C230.315 363.928 230.315 367.962 229.94 371.97C229.55 378.8 229.65 381.13 228.85 386.13C227.99 391.51 227.32 392.24 226.85 392.61C223.13 395.82 211.34 390.68 211.34 390.68C193.98 383.04 155.69 407.21 148.51 398.16C145.86 394.82 148.72 388.56 154.44 376.06C159.77 364.62 162.72 357.75 170.47 352.85Z" fill="white" stroke="#1D1D1B" stroke-width="0.5" stroke-miterlimit="10"/>
              <path id="Vector_21" opacity="0.2" d="M198.81 348.02C198.72 348.3 201.51 349.4 203.11 350.02C206.78 351.46 207.7 351.53 211.6 352.9C218.36 355.27 217.1 355.58 219.96 356.16C221.271 356.286 222.51 356.813 223.51 357.67C224.427 358.681 224.968 359.977 225.04 361.34C225.62 366.21 224.95 370.26 224.58 375.64C224.454 378.44 224.17 381.231 223.73 384C223.23 387 222.84 388 222.1 388.94C220.1 391.5 216.92 391.52 217.01 392.24C217.15 393.33 224.5 393.55 224.5 393.55C225.364 393.395 226.19 393.073 226.93 392.6C227.624 391.951 228.04 391.059 228.09 390.11C229.61 379.62 229.61 379.46 229.61 379.43C229.78 370.99 230.08 366.77 230.25 365.51C230.533 363.657 230.533 361.773 230.25 359.92C229.96 357.97 229.58 355.66 227.78 354.22C227.32 353.86 226.56 353.37 223.78 352.89C221.554 352.6 219.314 352.433 217.07 352.39C213.49 352.03 213.34 351.27 206.55 349.51C203.79 348.8 198.92 347.62 198.81 348.02Z" fill="#5896D0"/>
              </g>
              </g>
              <g id="L knee">
              <path id="Vector_22" d="M116.61 462.77C113.93 462.89 112.61 471.05 110.55 479.44C106.55 495.66 102.45 501.44 105.75 505.18C106.4 505.92 108.75 506.8 113.46 508.56C116.73 509.795 120.069 510.84 123.46 511.69C126.641 512.403 129.869 512.884 133.12 513.13C134.099 513.258 135.094 513.197 136.05 512.95C138.64 512.21 140.8 509.29 144.26 491.26C145.81 483.19 146.51 477.88 144.14 476.42C143.34 475.92 142.76 476.16 140.65 475.51C138.16 474.73 136.9 473.07 135.31 472.51C131.216 471.002 127.31 469.025 123.67 466.62C123.41 466.45 123.12 466.24 122.61 465.91C119.45 463.9 117.61 462.73 116.61 462.77Z" fill="white" stroke="#1D1D1B" stroke-width="0.5" stroke-miterlimit="10"/>
              <g id="Shadow">
              <path id="Vector_23" opacity="0.2" d="M140.26 507.52C140.99 505.23 141.81 502.46 142.59 499.27C143.16 496.96 142.89 497.76 144.27 491.27C144.99 487.89 145.07 484.4 145.68 481C145.81 480.26 146.1 478.72 145.25 477.87C144.63 477.24 143.74 477.36 142.85 477.3C138.94 477.04 136.62 473.48 136.1 473.97C135.77 474.27 136.61 475.71 138.1 478.16C139.59 480.61 139.94 480.94 140.33 481.82C141.57 484.64 140.33 487.82 139.72 489.32C135.87 499.1 121.04 507.03 122.28 509.92C122.68 510.83 124.77 510.92 128.96 511.1C129.53 511.1 130.18 511.1 136.47 511.02H138.63" fill="#5896D0"/>
              </g>
              </g>
              <g id="L Shin">
              <path id="Leftshin" d="M102.61 501.74C103.41 501.36 104.35 502.59 107.2 504.03C109.46 505.18 111.2 505.91 112.62 506.52C115.703 507.939 118.91 509.074 122.2 509.91C126.071 510.941 130.078 511.369 134.08 511.18C136.72 511.02 139.75 510.52 140.35 511.74C140.43 511.91 140.47 512.11 140.14 514.66C140.03 515.49 139.92 515.89 139.87 516.66C139.74 518.57 140.04 520.16 140.14 524.46C140.24 529.18 139.92 529.25 139.93 533.84C139.93 545.22 141.93 548.55 139.72 550.31C139.03 550.87 136.13 550.68 130.34 550.31C126.15 550.05 125.5 549.85 124.92 549.31C122.76 547.15 125.21 543.31 123.04 540.76C122.41 540.03 121.52 539.57 118.04 539.1C109.22 537.9 105.41 539.58 103.44 537.43C102.52 536.43 102.72 535.37 102.82 531.51C103.076 523.805 102.886 516.092 102.25 508.41C101.97 505.28 101.5 502.28 102.61 501.74Z" fill="white" stroke="#1D1D1B" stroke-width="0.5" stroke-miterlimit="10"/>
              <path id="Vector_24" opacity="0.2" d="M122.61 510.33C122.18 511.14 123.84 512.45 126.34 515.54C128.998 518.711 131.193 522.243 132.86 526.03C134.408 529.804 135.18 533.851 135.13 537.93C135.13 541.04 135.13 543.38 133.71 545.87C132.29 548.36 130.78 548.96 131.09 549.87C131.69 551.56 138.61 551.98 140.62 548.98C141.43 547.75 140.84 546.85 140.34 542.28C140.015 538.583 139.898 534.87 139.99 531.16C139.99 526.68 140.31 527.01 140.16 524.49C139.9 520.42 139.16 519.49 139.74 517.16C140.046 515.968 140.191 514.74 140.17 513.51C140.17 512.39 140.17 511.82 139.84 511.4C138.92 510.15 136.29 511.04 133.43 511.32C127.09 511.91 123.27 509.16 122.61 510.33Z" fill="#5896D0"/>
              </g>
              <g id="R knee">
              <path id="Vector_25" d="M168.77 482.12C167.77 483.89 167.83 485.63 168.03 488.7C168.48 495.82 168.72 499.38 168.75 499.9C169.5 512.09 168.15 512.9 169.62 514.44C172.2 517.22 185.95 514.18 190.71 513.13C203.64 510.29 205.9 510.56 207.6 507.89C209.17 505.43 208.09 503.89 207.28 494.63C206.51 485.92 207.2 484.34 206.13 473.17C205.19 463.35 204.43 462.3 203.48 461.84C200.48 460.41 197.69 465.78 185.48 472.13C181.81 474.03 178.38 476.4 174.62 478.13C172.02 479.27 170.01 480 168.77 482.12Z" fill="white" stroke="#1D1D1B" stroke-width="0.5" stroke-miterlimit="10"/>
              <path id="Vector_26" opacity="0.2" d="M170.83 481.05C171.04 481.89 174.71 481.77 177.21 481.41C182.52 480.66 189.29 477.76 194 474.62C195.752 473.478 197.78 472.832 199.87 472.75C200.76 472.75 201.09 472.93 201.2 473.15C201.46 473.67 200.56 474.57 200.4 474.75C197.69 477.75 205.5 495.94 200.13 504.2C198.87 506.2 196.86 507.56 194.8 509C190.29 512.16 186.71 512.76 186.8 513.17C187 513.92 199.22 511.06 203.21 509.33C205.13 508.49 205.64 507.69 207.81 507.03C208.218 506.942 208.589 506.729 208.87 506.42C209.65 505.36 208.61 503.42 208.17 502.42C207.73 501.42 207.5 498.42 207.11 492.59C207 490.95 206.93 489.59 206.77 483.26C206.77 483.26 206.57 475.56 205.32 466.5C205.1 464.94 204.67 462.02 203.47 461.81C203 461.73 202.6 462.09 201.99 462.59C200.65 463.71 199.11 464.59 197.86 465.79C196.61 466.99 194.66 468.12 190.79 470.32C180.94 475.97 170.45 479.62 170.83 481.05Z" fill="#5896D0"/>
              </g>
              <g id="R shin">
              <path id="Vector_27" d="M165.99 514.13C166.55 513.74 167.19 514.13 168.99 514.61C171.032 515.025 173.12 515.173 175.2 515.05C177.84 515.022 180.468 514.686 183.03 514.05C188.03 512.94 193.78 511.61 200.26 510.05C202.327 509.793 204.319 509.112 206.11 508.05C207.59 507.16 209.05 505.89 210.68 506.29C211.146 506.414 211.577 506.643 211.94 506.96C211.81 508.44 211.63 510.59 211.44 513.19C211.29 515.31 211.18 516.98 211.16 517.5C210.66 528.81 210.89 534.84 210.89 534.84C211.07 539.46 211.35 541.19 210.2 541.94C208.76 542.87 207.02 540.94 201.67 540.6C200.105 540.471 198.53 540.535 196.98 540.79C195.264 541.029 193.606 541.581 192.09 542.42C190.23 543.48 189.19 544.76 187.39 547.02C184.5 550.64 184.95 551.39 183.46 552.1C181.97 552.81 180.03 552.51 176.18 551.9C175.039 551.825 173.912 551.6 172.83 551.23C170.36 549.49 172.65 545.17 172.06 535.65C171.81 531.73 171.38 531.65 171.46 528.79C171.55 525.53 172.15 523.56 170.91 522.29C169.91 521.29 169.08 521.87 167.65 520.95C165.26 519.42 164.76 514.98 165.99 514.13Z" fill="white" stroke="#1D1D1B" stroke-width="0.5" stroke-miterlimit="10"/>
              <path id="Vector_28" opacity="0.2" d="M177.74 514.93C171.36 515.34 166.91 513.67 166.82 514.02C166.73 514.37 170.52 515.78 174.94 516.64C178.662 517.377 182.463 517.632 186.25 517.4C189.689 517.15 193.097 516.58 196.43 515.7C201.43 514.34 203.58 512.92 204.92 514C205.92 514.84 205.65 516.48 205.29 519.66C203.99 531.44 205.29 533.66 202.84 536.07C200.04 538.87 196.38 537.86 196.27 539.16C196.1 541.1 204.19 544.56 208.93 542.16C209.756 541.775 210.452 541.156 210.93 540.38C211.81 538.84 211.19 537.38 210.82 534.84C210.71 534.07 210.74 531.73 210.82 527.04C210.82 524.33 210.93 522.15 210.98 520.8C211.11 517.51 211.28 514.8 211.39 513.19C211.66 509.5 212.83 507.96 211.89 506.96C211.467 506.643 210.974 506.43 210.452 506.339C209.931 506.249 209.396 506.284 208.89 506.44C207.36 506.82 207.12 507.94 205.3 508.75C204.457 509.083 203.565 509.272 202.66 509.31C201.83 509.41 199.66 509.94 195.31 511.01C190.96 512.08 190.83 512.28 187.58 513.08C184.364 513.997 181.07 514.617 177.74 514.93V514.93Z" fill="#5896D0"/>
              </g>
              <g id="L shoe">
              <path id="Vector_29" d="M101.67 538.48C102.67 537.26 104.44 537.15 106.61 537.01C108.47 536.89 108.7 537.26 112.92 537.53C114.74 537.65 114.92 537.6 116.29 537.74C117.853 537.882 119.399 538.166 120.91 538.59C122.78 539.14 123.72 539.41 124.28 540.06C124.84 540.71 124.9 541.21 125.33 545.06C125.65 548.06 125.66 548.38 126.06 548.84C127.06 549.96 128.84 549.84 131.11 549.84C133.78 549.73 134.68 549.13 137.21 549.42C138.92 549.61 139.45 550 139.76 550.31C140.44 551.03 140.16 551.64 140.76 553.62C141.157 554.729 141.611 555.818 142.12 556.88C142.493 557.78 142.917 558.658 143.39 559.51C143.88 560.37 145.09 562.45 145.91 562.25C146.36 562.13 146.27 561.41 146.96 561.09C147.48 560.922 148.045 560.958 148.54 561.19C149.309 561.476 149.996 561.946 150.54 562.56C151.111 563.075 151.544 563.725 151.8 564.45C152.022 565.207 152.022 566.013 151.8 566.77C151.333 568.131 150.402 569.285 149.17 570.03C140.57 575.77 137.92 576.97 137.92 576.97C130.1 580.51 131.92 580.87 125.19 583.8C122.19 585.1 122.04 584.95 109 589.17C100.66 591.86 100 592.17 97.64 592.64C91.74 593.85 87.29 594.7 82.5 592.85C81.26 592.36 74.95 589.63 74.19 584.75C73.19 578.48 81.75 570.62 96.91 556.67C98.6143 555.218 99.9103 553.346 100.67 551.24C101.202 549.379 101.432 547.444 101.35 545.51C101.45 540.89 100.61 539.73 101.67 538.48Z" fill="white" stroke="#1D1D1B" stroke-width="0.5" stroke-miterlimit="10"/>
              <g id="shadow_2">
              <path id="Vector_30" opacity="0.2" d="M101.67 538.48C102.041 538.102 102.507 537.832 103.02 537.7C103.3 537.59 103.42 537.57 103.92 537.39L104.22 537.29C104.44 537.22 104.63 537.19 104.75 537.16C105.69 536.89 106.3 536.92 109.32 537.16C112.92 537.47 114.02 537.58 114.02 537.58C116.162 537.737 118.292 538.021 120.4 538.43C123.13 538.99 123.82 539.43 124.28 540.04C124.79 540.96 125.071 541.989 125.1 543.04C125.169 544.401 125.319 545.757 125.55 547.1C125.651 547.818 125.918 548.503 126.33 549.1C127.55 550.51 129.85 550.31 130.33 550.26C131.128 550.104 131.916 549.901 132.69 549.65C134.158 549.336 135.664 549.242 137.16 549.37C138.72 549.5 139.16 549.79 139.41 550.01C139.873 550.514 140.185 551.137 140.31 551.81C141.11 554.26 141.31 554.88 141.55 555.58C141.888 556.587 142.324 557.558 142.85 558.48C143.367 559.607 144.125 560.607 145.07 561.41C145.5 561.73 145.8 561.84 145.89 562.2C146.02 562.75 145.47 563.2 144.5 564.44C143.72 565.44 143.78 565.44 143.26 566.1C142.827 566.615 142.363 567.102 141.87 567.56C140.393 568.953 138.808 570.227 137.13 571.37C135.216 572.668 133.237 573.866 131.2 574.96C128.64 576.36 126.64 577.31 125.43 577.88C124.61 578.27 122.54 579.24 119.74 580.38C115.59 582.08 111.95 583.31 109.04 584.22C102.7 586.22 93.89 588.51 93.72 587.99C93.55 587.47 105.72 583.73 119.66 574.63C126.08 570.43 126.66 569.09 126.53 568.77C126.21 568.22 123.16 570.25 118.75 569.99C117.75 569.93 112.31 569.49 110.27 565.99C109.27 564.19 110.34 563.82 109.46 558.61C108.97 556.284 108.328 553.993 107.54 551.75C107.234 550.378 106.61 549.097 105.72 548.01C104.72 546.89 104.26 547.15 103.2 546.01C102.107 544.731 101.412 543.159 101.2 541.49C100.985 540.656 101.03 539.777 101.33 538.97C101.421 538.792 101.536 538.628 101.67 538.48V538.48Z" fill="#5896D0"/>
              </g>
              <path id="Vector_31" d="M74.24 582.68C75.48 581.51 79.76 585.32 84.24 587.17C90.07 589.61 96.14 587.91 108.24 584.52C108.24 584.52 123.11 580.37 135.81 572.32C142.4 568.16 144.49 564.74 144.81 564.05C145.107 563.399 145.494 562.793 145.96 562.25C146.36 561.778 146.817 561.359 147.32 561C147.7 560.941 148.089 560.993 148.44 561.15C148.861 561.271 149.26 561.46 149.62 561.71C149.759 561.806 149.892 561.909 150.02 562.02C150.386 562.319 150.721 562.654 151.02 563.02C151.486 563.548 151.813 564.184 151.97 564.87C152.068 565.352 152.068 565.848 151.97 566.33C151.743 567.435 151.173 568.439 150.34 569.2C149.393 570.15 148.286 570.925 147.07 571.49C143 573.55 143.64 574.06 138.89 576.49C136.69 577.64 136.56 577.49 134.38 578.71C132.69 579.626 131.048 580.628 129.46 581.71C128.46 582.35 126.65 583.46 115.91 586.96C111.41 588.42 112.91 587.83 104.06 590.6C98.66 592.28 96.41 593.02 92.76 593.54C88.83 594.1 86.38 593.97 84.04 593.31C82.356 592.836 80.7543 592.107 79.29 591.15C77.4428 590.114 75.9248 588.579 74.91 586.72C74.66 586.3 73.35 583.53 74.24 582.68Z" fill="#1D1D1B"/>
              </g>
              <g id="R Shoe">
              <path id="Vector_32" d="M171.66 548.92C170.21 549.92 170.83 551.29 168.77 557.59C167.5 561.48 166.77 562.37 166.05 563.03C163.99 564.92 162.05 564.19 161.52 565.45C160.99 566.71 162.21 568.16 167.26 573C170.53 576.13 172.17 577.7 174.26 579.34C179.19 583.34 182.16 585.69 186.05 587.5C190.14 589.41 193.53 589.67 200.21 590.36C204.94 590.887 209.71 590.94 214.45 590.52C221.71 589.84 225.34 589.52 226.54 587.52C229.39 582.76 221.29 571.71 216.26 564.86C212.74 560.05 208 554.41 209.61 551.57C210.51 549.98 212.88 550.06 213.54 547.94C213.818 546.698 213.603 545.396 212.94 544.31C210.63 539.89 202.79 537.31 196.32 539.18C195.59 539.38 192.82 541.25 187.26 544.92C182.57 548.01 181.53 548.83 179.4 549.15C175.27 549.75 173.61 547.62 171.66 548.92Z" fill="white" stroke="#1D1D1B" stroke-width="0.5" stroke-miterlimit="10"/>
              <g id="sole">
              <path id="Vector_33" d="M166.05 563.03C165.4 563.03 165.26 563.62 163.47 564.4C162.3 564.92 161.75 564.95 161.52 565.45C161.2 566.14 161.8 567.08 162.13 567.55C166.55 573.82 179.35 583.39 179.35 583.39C181.147 584.832 183.095 586.076 185.16 587.1C187.543 588.214 190.061 589.015 192.65 589.48C200.773 591.017 209.087 591.277 217.29 590.25C220.06 589.86 221.85 589.25 223.49 589.13C224.008 589.115 224.519 588.996 224.99 588.78C225.498 588.548 225.949 588.206 226.31 587.78C226.667 587.277 226.903 586.699 227 586.09C227.19 585.26 227.39 584.36 227 584.02C226.61 583.68 225.72 584.08 225.13 584.33C223.46 585.05 221.58 585.12 219.86 585.68C217 586.6 210.33 586.86 204.76 586.4C197.61 585.81 190.46 585.2 183.25 580.61C178.15 577.37 172.02 573.48 169.6 567.48C169.36 566.86 167.82 562.94 166.05 563.03Z" fill="#1D1D1B"/>
              </g>
              <g id="shodow">
              <path id="Vector_34" opacity="0.2" d="M190.42 542.78C190.5 542.95 191.09 542.68 193.59 542.23C193.59 542.23 195.15 541.95 197.02 541.72C201.02 541.23 203.02 540.95 204.02 541.91C205.45 543.28 204.89 546.02 204.75 546.7C203.89 550.9 200.41 551.44 200.15 554.98C200.06 556.25 200.52 557.42 201.44 559.77C202.44 562.36 203.11 562.7 204.02 564.93C204.93 567.16 205.68 569.03 205.31 571.2C205 572.95 203.26 574.7 199.78 578.2C197.4 580.59 196.21 581.79 194.44 582.81C192.97 583.66 191.89 584 191.94 584.46C192.02 585.21 194.89 585.46 198.28 585.74C206.68 586.42 209.22 586.61 210.28 586.61C212.059 586.646 213.839 586.572 215.61 586.39C219.82 585.9 219.95 585.11 224.05 584.7C225.88 584.51 226.58 584.59 227 584.01C227.42 583.43 227.23 582.2 224.7 577.72C222.17 573.24 220.07 570.22 219.7 569.67C218.3 567.67 217.03 565.93 216.23 564.85C214.91 563.07 213.61 561.36 211.87 558.85C210.13 556.34 208.87 554.41 209.28 552.6C209.369 552.019 209.614 551.473 209.99 551.02C210.59 550.32 211.17 550.33 211.99 549.72C212.637 549.257 213.156 548.638 213.5 547.92C214.44 545.68 211.77 542.73 211.5 542.39C210.144 541.048 208.473 540.068 206.64 539.54C204.17 538.61 201.94 537.78 199.06 538.08C193.92 538.62 190.18 542.3 190.42 542.78Z" fill="#5896D0"/>
              </g>
              </g>
              <g id="body">
              <path id="chest" d="M124.24 340.49C122.74 341.88 124.11 344.08 123.99 349.21C123.92 352.36 123.86 350.77 123.21 364.95C122.74 375.29 122.9 376.51 122 379.84C121.51 381.63 120.84 383.53 119.51 387.31C117.12 394.07 117.02 392.95 116.27 396.03C114.27 404.03 113.27 409.98 113.27 409.98C110.1 422.66 110.75 422.81 111.03 423.68C112.9 429.5 122.15 432.22 131.21 436.38C140.74 440.77 147.6 445.44 156.13 446.65C156.792 446.755 157.46 446.822 158.13 446.85C160.46 446.8 164.73 445.74 173.32 442.36C176.08 441.28 180.72 439.23 190.01 435.14C190.01 435.14 192.96 433.84 201.01 429.41C204.58 427.41 206.9 426.05 207.73 423.41C208.28 421.67 207.96 420.15 207.48 418.18C206.561 413.966 205.399 409.809 204 405.73C202.337 400.926 201 396.015 200 391.03C199.242 386.753 198.827 382.423 198.76 378.08C198.2 364.74 198.76 352.42 198.76 352.42C199 347.04 199.31 343.42 197.01 341.71C194.71 340 191.51 341.23 189.74 341.78C182.74 343.96 174.95 343.98 159.4 344.04C148.48 344.04 143.03 344.1 136.49 342.21C131.02 340.62 126.46 338.43 124.24 340.49Z" fill="white" stroke="#1D1D1B" stroke-width="0.5" stroke-miterlimit="10"/>
              <g id="Shest shadow">
              <path id="Vector_35" opacity="0.2" d="M124.24 340.49C124.05 341.02 124.71 341.84 126.07 342.92C137.43 351.92 149.14 351.58 149.14 351.58C153.8 351.44 152.83 350.52 161.24 349.25C171.5 347.7 180.15 347.98 180.24 348.62C180.24 349.01 174.94 349.27 168.24 352.12C162.9 354.38 157.95 356.29 157.47 359.62C157.04 362.62 160.7 363.8 166.96 371.77C169.737 375.091 172.089 378.746 173.96 382.65C176.37 387.85 175.31 388.23 178.14 395.05C180.55 400.87 181.96 402.15 182.19 405.68C182.29 407.36 182.58 411.59 179.91 414.79C175.48 420.08 166.39 418.37 164.85 418.08C162.73 417.636 160.655 417 158.65 416.18C151.87 413.64 150.08 411.44 148.29 412.27C145.54 413.56 148.71 419.27 145.67 422.61C140.75 428.06 120.09 426.73 119.42 427.26C119.255 427.407 119.081 427.544 118.9 427.67C118.61 427.89 118.53 427.91 118.51 427.99C118.43 428.34 119.71 428.89 119.71 428.89C121.35 429.6 121.84 430.55 125.45 432.89C127.35 434.11 128.18 434.47 132.81 436.89C138.35 439.79 137.88 439.65 140.19 440.81C147.94 444.7 151.82 446.65 156.79 446.81C159.467 446.793 162.127 446.375 164.68 445.57C169.57 444.32 171.74 442.84 178.76 439.82C185 437.14 183.76 438.1 187.57 436.32C196.47 432.14 203.25 426.83 205.45 425.83C205.883 425.635 206.284 425.375 206.64 425.06C207.113 424.626 207.491 424.098 207.75 423.51C208.078 422.685 208.168 421.784 208.01 420.91C206.28 410.06 204.01 405.83 204.01 405.83C198.74 395.99 198.61 382.62 198.61 374.62C198.51 359.44 198.46 351.84 198.83 350.33C199.08 349.33 200.01 345.79 198.18 343.25C197.329 342.099 196.095 341.291 194.7 340.97C193.506 340.774 192.282 340.88 191.14 341.28C189.087 341.731 187.061 342.296 185.07 342.97C182.61 343.97 180.63 343.88 172.44 343.97C162.21 344.06 162.44 344.16 153.03 344.14C145.68 344.14 143.69 344.05 140.92 343.27C134.8 341.55 133.92 341.27 133.92 341.27C132.243 340.617 130.488 340.183 128.7 339.98C127.78 339.81 124.61 339.5 124.24 340.49Z" fill="#5896D0"/>
              </g>
              <g id="bag">
              <path id="Vector_36" d="M158.22 351.38H162.61C167.915 351.378 173.039 353.304 177.03 356.799C181.02 360.295 183.604 365.121 184.3 370.38L187.61 395.62C188.015 401.306 186.52 406.966 183.36 411.71C176.5 421.71 164.63 422.4 162.03 422.55C159.43 422.7 147.1 423.17 138.93 413.98C133.63 407.98 132.93 401.21 132.31 394.41C131.14 382.41 134.81 373.34 137 368.12C139.19 362.9 140.94 358.88 145.28 355.66C149.058 352.951 153.572 351.458 158.22 351.38V351.38Z" fill="black" stroke="#1D1D1B" stroke-width="0.5" stroke-miterlimit="10"/>
              <path id="NG" d="M161.175 386.86C161.175 387.767 160.8 388.517 160.05 389.11C159.347 389.665 158.508 389.942 157.531 389.942C156.687 389.942 155.929 389.72 155.258 389.274C154.508 388.774 153.976 388.06 153.664 387.13C153.601 386.942 153.316 385.927 152.808 384.083C152.347 382.411 151.945 381.103 151.601 380.157C151.125 378.868 150.738 378.243 150.441 378.282C150.246 378.329 150.109 378.411 150.031 378.528C149.953 378.638 149.914 378.794 149.914 378.997V389.743H146.75V378.259C146.75 377.212 147.144 376.415 147.933 375.868C148.613 375.399 149.484 375.165 150.547 375.165C151.968 375.165 153.097 375.88 153.933 377.31C154.496 378.263 155.031 379.806 155.539 381.938C156.101 384.282 156.511 385.735 156.769 386.298C156.91 386.603 157.125 386.755 157.414 386.755C157.57 386.755 157.703 386.692 157.812 386.567C157.929 386.442 157.988 386.27 157.988 386.052V375.317H161.175V386.86ZM174.558 378.446H168.09C167.308 378.446 166.695 378.86 166.25 379.688C165.851 380.431 165.652 381.349 165.652 382.442C165.652 383.567 165.859 384.528 166.273 385.325C166.726 386.2 167.332 386.638 168.09 386.638L169.343 386.696H170.914C171.242 386.696 171.5 386.563 171.687 386.298C171.875 386.024 171.968 385.712 171.968 385.36C171.968 385.009 171.879 384.712 171.699 384.47C171.519 384.22 171.258 384.095 170.914 384.095H169.343V381.001H171.429C172.64 381.001 173.597 381.454 174.3 382.36C174.933 383.173 175.25 384.177 175.25 385.372C175.25 386.56 174.933 387.563 174.3 388.384C173.597 389.29 172.64 389.743 171.429 389.743H169.343H167.562C165.883 389.743 164.554 389.013 163.578 387.552C162.703 386.239 162.265 384.622 162.265 382.7C162.265 380.747 162.711 379.083 163.601 377.708C164.586 376.185 165.906 375.423 167.562 375.423H174.558V378.446Z" fill="#F6A220"/>
              </g>
              <path id="lower body" d="M111.38 424.54C106.59 426.21 105.72 437.87 107.47 446.12C108.642 451.42 111.063 456.364 114.53 460.54C117.97 464.74 121.08 466.54 138.69 475.24C155.69 483.63 157.24 484.16 160.11 484.24C164.92 484.32 170.94 481.24 182.78 475.02C201.15 465.4 204.38 461.39 206.19 458.58C208.883 454.364 210.592 449.596 211.19 444.63C212.05 438.34 211.91 427.33 207.45 425.7C204.98 424.8 203.28 427.56 195.89 432.2C190.97 435.29 185.45 437.51 174.4 441.96C162.4 446.78 159.87 446.96 158.14 446.88C153.91 446.79 150.64 445.45 144.14 442.76C138.202 440.292 132.479 437.335 127.03 433.92C115.97 426.98 114.25 423.54 111.38 424.54Z" fill="white" stroke="#1D1D1B" stroke-width="0.5" stroke-miterlimit="10"/>
              <g id="Lowerbody shadow">
              <path id="Vector_37" opacity="0.2" d="M118.78 428.42C118.06 428.95 119.29 431.71 119.43 432.01C121.16 435.84 124.3 437.81 126.97 439.55C134.97 444.79 131.97 443.55 137.84 447.09C144.39 451.04 148.48 453.47 154.52 455.5C159.72 457.26 161.52 457.08 162.69 459.05C164.14 461.57 162.21 463.86 160.58 472.33C159.58 477.42 158.7 482.33 160.79 483.72C161.95 484.49 163.61 483.88 164.61 483.5C170.143 481.421 175.518 478.941 180.69 476.08C185.52 473.41 189.76 471.19 196.43 467.19C199.036 465.773 201.413 463.969 203.48 461.84C205.536 459.585 207.224 457.021 208.48 454.24C209.959 450.926 210.888 447.393 211.23 443.78C211.638 440.639 211.682 437.461 211.36 434.31C210.89 428.74 209.82 427.42 208.91 426.74C208.41 426.346 207.837 426.055 207.225 425.884C206.612 425.712 205.972 425.663 205.34 425.74C204.142 426.09 203.119 426.874 202.47 427.94C201.88 428.8 200.86 429.87 189.71 435.05C180 439.56 181.19 438.54 173.47 442.15C166.3 445.5 163.39 447.26 158.68 446.94C156.662 446.7 154.672 446.261 152.74 445.63C148.571 444.439 144.513 442.889 140.61 441C137.285 439.53 134.041 437.884 130.89 436.07C127.79 434.28 125.21 432.56 123.21 431.14C121.78 429.84 119.49 427.9 118.78 428.42Z" fill="url(#paint1_linear)"/>
              </g>
              </g>
              </g>
              </g>
              <defs>
              <linearGradient id="paint0_linear" x1="161" y1="192" x2="161" y2="305" gradientUnits="userSpaceOnUse">
              <stop stop-color="#0083FF" stop-opacity="0.69"/>
              <stop offset="1" stop-color="white" stop-opacity="0"/>
              </linearGradient>
              <linearGradient id="paint1_linear" x1="118.56" y1="454.89" x2="211.61" y2="454.89" gradientUnits="userSpaceOnUse">
              <stop stop-color="white"/>
              <stop offset="0.05" stop-color="#ECF3FA" stop-opacity="0.91"/>
              <stop offset="0.14" stop-color="#CADDF0" stop-opacity="0.74"/>
              <stop offset="0.24" stop-color="#ABCAE7" stop-opacity="0.6"/>
              <stop offset="0.34" stop-color="#92BAE0" stop-opacity="0.48"/>
              <stop offset="0.45" stop-color="#7DADDA" stop-opacity="0.38"/>
              <stop offset="0.56" stop-color="#6CA3D6" stop-opacity="0.3"/>
              <stop offset="0.69" stop-color="#619CD3" stop-opacity="0.24"/>
              <stop offset="0.82" stop-color="#5A97D1" stop-opacity="0.21"/>
              <stop offset="1" stop-color="#5896D0" stop-opacity="0.2"/>
              </linearGradient>
              <clipPath id="clip0">
              <rect width="347.72" height="594.17" fill="white"/>
              </clipPath>
              </defs>
              </svg>