<svg width="185" height="45" viewBox="0 0 185 45" fill="none" xmlns="http://www.w3.org/2000/svg">
<path d="M17.8 33.92L6.38 7.17999V28.41C6.38 30.36 6.58 31.58 6.97 32.07C7.51 32.73 8.36 33.05 9.52 33.05H10.57V33.92H0.279999V33.05H1.33C2.58 33.05 3.47001 32.64 3.99001 31.83C4.31001 31.33 4.47 30.19 4.47 28.41V7.64001C4.47 6.23001 4.32 5.22 4.03 4.59C3.83 4.14 3.45 3.76001 2.91 3.45001C2.37 3.14001 1.49 2.98999 0.279999 2.98999V2.12H8.64999L19.37 27L29.92 2.13H38.29V3H37.27C36.01 3 35.11 3.41 34.59 4.22C34.27 4.72 34.11 5.86001 34.11 7.64001V28.41C34.11 30.36 34.31 31.58 34.72 32.07C35.26 32.73 36.11 33.05 37.27 33.05H38.29V33.92H25.73V33.05H26.78C28.04 33.05 28.93 32.64 29.44 31.83C29.76 31.33 29.92 30.19 29.92 28.41V7.17999L18.52 33.92H17.8Z" fill="#123D76"/>
<path d="M51.93 30.82C49.88 32.52 48.6 33.51 48.07 33.77C47.29 34.16 46.45 34.36 45.56 34.36C44.18 34.36 43.04 33.85 42.15 32.84C41.26 31.83 40.81 30.49 40.81 28.83C40.81 27.78 41.03 26.88 41.46 26.11C42.06 25.05 43.09 24.05 44.57 23.11C46.04 22.17 48.5 21.03 51.93 19.69V18.85C51.93 16.71 51.61 15.24 50.98 14.44C50.35 13.64 49.43 13.24 48.22 13.24C47.3 13.24 46.58 13.51 46.04 14.04C45.49 14.57 45.21 15.18 45.21 15.87L45.25 17.23C45.25 17.95 45.08 18.5 44.74 18.89C44.4 19.28 43.95 19.48 43.4 19.48C42.86 19.48 42.42 19.28 42.08 18.87C41.74 18.46 41.57 17.91 41.57 17.21C41.57 15.87 42.21 14.63 43.49 13.51C44.77 12.39 46.56 11.82 48.87 11.82C50.64 11.82 52.1 12.14 53.23 12.78C54.09 13.26 54.72 14.02 55.13 15.05C55.39 15.72 55.52 17.1 55.52 19.17V26.46C55.52 28.51 55.56 29.76 55.63 30.22C55.7 30.68 55.82 30.99 55.99 31.15C56.16 31.31 56.35 31.38 56.57 31.38C56.8 31.38 57.01 31.33 57.18 31.22C57.49 31.02 58.07 30.45 58.95 29.51V30.82C57.32 33.16 55.77 34.34 54.29 34.34C53.58 34.34 53.01 34.07 52.59 33.54C52.17 33.01 51.95 32.1 51.93 30.82ZM51.93 29.3V21.12C49.74 22.06 48.32 22.72 47.68 23.11C46.53 23.8 45.71 24.52 45.22 25.27C44.73 26.02 44.48 26.84 44.48 27.73C44.48 28.85 44.79 29.79 45.42 30.53C46.04 31.27 46.76 31.64 47.58 31.64C48.68 31.64 50.13 30.86 51.93 29.3Z" fill="#123D76"/>
<path d="M66.28 11.81V16.64C67.95 13.42 69.67 11.81 71.42 11.81C72.22 11.81 72.88 12.07 73.4 12.6C73.92 13.12 74.18 13.73 74.18 14.42C74.18 15.03 73.99 15.54 73.61 15.97C73.23 16.4 72.78 16.6 72.26 16.6C71.75 16.6 71.18 16.33 70.55 15.79C69.92 15.25 69.45 14.98 69.14 14.98C68.88 14.98 68.6 15.14 68.29 15.45C67.64 16.09 66.96 17.15 66.26 18.61V28.9C66.26 30.09 66.4 30.99 66.67 31.6C66.86 32.02 67.19 32.37 67.67 32.65C68.15 32.93 68.84 33.07 69.74 33.07V33.91H59.52V33.07C60.54 33.07 61.29 32.9 61.79 32.55C62.15 32.3 62.41 31.9 62.55 31.35C62.62 31.08 62.66 30.33 62.66 29.08V20.76C62.66 18.26 62.61 16.77 62.52 16.3C62.43 15.82 62.25 15.48 62 15.26C61.75 15.04 61.43 14.93 61.05 14.93C60.6 14.93 60.09 15.05 59.52 15.28L59.3 14.44L65.34 11.82H66.28V11.81Z" fill="#123D76"/>
<path d="M81.21 0.589996V21.97L86.29 16.98C87.37 15.92 87.99 15.25 88.16 14.96C88.28 14.77 88.33 14.58 88.33 14.4C88.33 14.09 88.21 13.82 87.97 13.59C87.73 13.36 87.33 13.23 86.78 13.2V12.45H95.45V13.2C94.26 13.23 93.27 13.43 92.48 13.79C91.69 14.15 90.82 14.79 89.88 15.71L84.76 20.8L89.88 27.76C91.3 29.68 92.26 30.9 92.76 31.42C93.46 32.15 94.07 32.63 94.59 32.85C94.95 33.01 95.59 33.08 96.49 33.08V33.92H86.79V33.08C87.34 33.06 87.72 32.97 87.91 32.81C88.11 32.65 88.2 32.42 88.2 32.12C88.2 31.76 87.91 31.18 87.33 30.39L81.21 21.98V29.1C81.21 30.49 81.3 31.4 81.48 31.84C81.66 32.28 81.92 32.59 82.25 32.78C82.58 32.97 83.31 33.07 84.43 33.08V33.92H74.27V33.08C75.29 33.08 76.05 32.95 76.56 32.68C76.87 32.51 77.1 32.24 77.26 31.88C77.48 31.36 77.59 30.47 77.59 29.21V9.66C77.59 7.18 77.54 5.66001 77.44 5.10001C77.34 4.55001 77.17 4.16001 76.94 3.95001C76.71 3.74001 76.4 3.63 76.02 3.63C75.71 3.63 75.26 3.76 74.65 4.03L74.28 3.20999L80.21 0.589996H81.21Z" fill="#123D76"/>
<path d="M100.98 20.53C100.97 23.72 101.68 26.22 103.14 28.03C104.6 29.84 106.3 30.75 108.26 30.75C109.57 30.75 110.7 30.36 111.67 29.59C112.64 28.82 113.45 27.49 114.1 25.62L114.78 26.09C114.48 28.23 113.59 30.18 112.12 31.94C110.65 33.7 108.81 34.58 106.61 34.58C104.21 34.58 102.16 33.58 100.45 31.57C98.74 29.56 97.89 26.86 97.89 23.47C97.89 19.8 98.77 16.93 100.52 14.88C102.27 12.83 104.47 11.8 107.11 11.8C109.35 11.8 111.19 12.59 112.62 14.18C114.05 15.77 114.78 17.89 114.78 20.54H100.98V20.53ZM100.98 19.17H110.22C110.15 17.79 110 16.83 109.76 16.26C109.4 15.38 108.85 14.7 108.14 14.2C107.42 13.7 106.67 13.45 105.88 13.45C104.67 13.45 103.59 13.95 102.64 14.96C101.69 15.97 101.14 17.38 100.98 19.17Z" fill="#123D76"/>
<path d="M123.23 5.39001V12.44H127.89V14.08H123.23V28C123.23 29.39 123.41 30.33 123.79 30.81C124.16 31.29 124.64 31.54 125.22 31.54C125.7 31.54 126.16 31.38 126.61 31.06C127.06 30.74 127.41 30.27 127.66 29.64H128.51C128 31.17 127.28 32.32 126.35 33.1C125.42 33.88 124.46 34.26 123.47 34.26C122.8 34.26 122.15 34.06 121.51 33.66C120.87 33.26 120.4 32.69 120.09 31.95C119.78 31.21 119.63 30.06 119.63 28.52V14.08H116.47V13.31C117.27 12.97 118.09 12.38 118.92 11.56C119.76 10.74 120.5 9.77001 121.15 8.64001C121.48 8.05001 121.95 6.96 122.55 5.38H123.23V5.39001Z" fill="#123D76"/>
<path d="M136.72 11.81V29.06C136.72 30.4 136.81 31.3 136.99 31.74C137.17 32.19 137.44 32.52 137.8 32.74C138.16 32.96 138.81 33.07 139.75 33.07V33.91H130.05V33.07C131.02 33.07 131.68 32.97 132.01 32.77C132.34 32.57 132.61 32.23 132.81 31.76C133.01 31.29 133.1 30.39 133.1 29.06V20.79C133.1 18.46 133.04 16.95 132.9 16.27C132.8 15.77 132.64 15.42 132.42 15.23C132.2 15.03 131.9 14.94 131.53 14.94C131.12 14.94 130.63 15.06 130.05 15.29L129.74 14.45L135.76 11.83H136.72V11.81ZM134.91 0.589996C135.52 0.589996 136.04 0.819999 136.47 1.28C136.9 1.74 137.11 2.29999 137.11 2.95999C137.11 3.61999 136.9 4.17999 136.47 4.64999C136.04 5.11999 135.52 5.35001 134.91 5.35001C134.3 5.35001 133.78 5.11999 133.34 4.64999C132.9 4.17999 132.69 3.61999 132.69 2.95999C132.69 2.29999 132.9 1.75 133.33 1.28C133.76 0.809999 134.29 0.589996 134.91 0.589996Z" fill="#123D76"/>
<path d="M148.06 16.36C150.4 13.33 152.63 11.81 154.75 11.81C155.84 11.81 156.78 12.1 157.56 12.69C158.35 13.28 158.97 14.24 159.44 15.58C159.76 16.52 159.92 17.96 159.92 19.89V29.05C159.92 30.41 160.02 31.33 160.22 31.82C160.38 32.21 160.64 32.52 160.99 32.73C161.35 32.95 162 33.06 162.96 33.06V33.9H153.09V33.06H153.5C154.43 33.06 155.08 32.91 155.45 32.6C155.82 32.3 156.08 31.85 156.22 31.25C156.28 31.02 156.31 30.28 156.31 29.05V20.26C156.31 18.31 156.07 16.89 155.6 16.01C155.13 15.13 154.33 14.69 153.21 14.69C151.48 14.69 149.76 15.71 148.04 17.74V29.06C148.04 30.51 148.12 31.41 148.28 31.76C148.48 32.21 148.76 32.55 149.12 32.76C149.48 32.97 150.2 33.08 151.29 33.08V33.92H141.42V33.08H141.86C142.88 33.08 143.56 32.8 143.92 32.25C144.28 31.7 144.45 30.64 144.45 29.07V21.1C144.45 18.52 144.4 16.95 144.29 16.39C144.18 15.83 144.01 15.44 143.79 15.24C143.57 15.04 143.26 14.94 142.89 14.94C142.48 14.94 142 15.06 141.43 15.29L141.1 14.45L147.12 11.83H148.06V16.36Z" fill="#123D76"/>
<path d="M169.9 26.09C168.68 25.45 167.74 24.55 167.09 23.41C166.44 22.26 166.11 20.99 166.11 19.6C166.11 17.48 166.86 15.65 168.34 14.12C169.82 12.59 171.74 11.82 174.06 11.82C175.96 11.82 177.61 12.32 179.01 13.32H183.24C183.86 13.32 184.23 13.34 184.33 13.38C184.43 13.42 184.5 13.49 184.55 13.58C184.64 13.72 184.68 13.97 184.68 14.33C184.68 14.74 184.64 15.02 184.57 15.17C184.53 15.25 184.45 15.31 184.34 15.36C184.23 15.41 183.86 15.43 183.24 15.43H180.65C181.46 16.55 181.87 17.99 181.87 19.74C181.87 21.74 181.16 23.45 179.73 24.87C178.3 26.29 176.39 27 174 27C173.01 27 172 26.84 170.97 26.53C170.33 27.12 169.9 27.64 169.67 28.09C169.44 28.54 169.33 28.91 169.33 29.23C169.33 29.5 169.45 29.75 169.69 30C169.93 30.25 170.4 30.43 171.1 30.54C171.51 30.6 172.52 30.66 174.15 30.7C177.14 30.78 179.08 30.89 179.97 31.03C181.32 31.23 182.4 31.77 183.21 32.65C184.02 33.53 184.42 34.6 184.42 35.88C184.42 37.65 183.65 39.3 182.11 40.85C179.84 43.13 176.89 44.27 173.24 44.27C170.44 44.27 168.07 43.59 166.13 42.23C165.04 41.45 164.5 40.64 164.5 39.79C164.5 39.41 164.58 39.04 164.74 38.67C164.99 38.09 165.5 37.29 166.27 36.26C166.37 36.12 167.11 35.28 168.49 33.73C167.73 33.25 167.2 32.81 166.89 32.43C166.58 32.05 166.42 31.61 166.42 31.13C166.42 30.58 166.63 29.94 167.04 29.21C167.45 28.48 168.4 27.43 169.9 26.09ZM169.68 33.92C169 34.72 168.48 35.46 168.13 36.15C167.78 36.84 167.61 37.47 167.61 38.05C167.61 38.8 168.03 39.46 168.87 40.02C170.32 40.99 172.42 41.47 175.17 41.47C177.79 41.47 179.71 40.97 180.96 39.98C182.2 38.99 182.82 37.93 182.82 36.8C182.82 35.99 182.45 35.41 181.71 35.07C180.95 34.73 179.46 34.52 177.22 34.46C173.95 34.36 171.44 34.18 169.68 33.92ZM173.69 12.94C172.61 12.94 171.71 13.4 170.99 14.32C170.27 15.24 169.9 16.66 169.9 18.56C169.9 21.03 170.39 22.94 171.38 24.3C172.13 25.33 173.09 25.85 174.26 25.85C175.36 25.85 176.27 25.4 176.98 24.51C177.69 23.62 178.05 22.22 178.05 20.31C178.05 17.83 177.55 15.88 176.55 14.47C175.81 13.46 174.85 12.94 173.69 12.94Z" fill="#123D76"/>
</svg>
