<svg width="296" height="287" viewBox="0 0 296 287" fill="none" xmlns="http://www.w3.org/2000/svg">
<g id="rocket 1" clip-path="url(#clip0)">
<g id="Flame out">
<path id="Vector" d="M80.29 178.51C60.24 185.78 49.5 196 43.44 203.79C31.82 218.73 31.99 231.13 19.44 256.38C14.0489 267.196 7.53652 277.415 0.0100098 286.87C10.2486 280.499 20.9444 274.893 32.01 270.1C60.18 257.92 72.28 257.45 86.13 246.1C93.58 239.98 103.2 229.21 109.52 209.29C101.514 205.598 94.4577 200.126 88.89 193.29C85.2904 188.828 82.3905 183.844 80.29 178.51Z" fill="#F28E39"/>
</g>
<g id="flame middle">
<path id="Vector_2" d="M99.85 178.51C70.85 185.63 58.96 199 53.85 206.51C50.6 211.31 47.62 217.46 42.03 229.01C36.31 240.83 32.03 250.82 29.18 257.78C40.9778 254.432 52.4613 250.062 63.5 244.72C64.31 244.33 72.89 240.16 78.77 236.53C86.77 231.62 103.06 219.46 116.96 190.86C112.988 188.485 109.149 185.895 105.46 183.1C103.5 181.57 101.61 180.02 99.85 178.51Z" fill="#EBC304"/>
</g>
<g id="flame in">
<path id="Vector_3" d="M96.19 181.51C85.3706 187.091 75.7654 194.762 67.93 204.08C61.43 211.93 56.87 220.3 53.99 225.61C51.215 230.714 48.705 235.958 46.47 241.32C52.2625 239.457 57.9025 237.151 63.34 234.42C71.5478 230.209 79.2846 225.137 86.42 219.29C97.5581 210.212 107.326 199.572 115.42 187.7L96.19 181.51Z" fill="#F3F0A6"/>
</g>
<g id="Group 1">
<g id="Left fin">
<path id="L fin big" d="M97.06 126.2C92.9248 125.438 88.6852 125.438 84.55 126.2C73.73 128.25 66.04 133.04 56.95 139.54C49.49 144.88 44.54 148.42 38.61 154.54C33.85 159.46 31.95 162.44 29.97 161.91C25.25 160.64 26.73 141.27 26.97 137.97C27.83 126.64 28.79 114.08 36.59 99.72C36.59 99.72 49.05 76.79 70.59 68.37C72.97 67.44 80.79 64.37 83.44 67.32C84.0611 68.102 84.4307 69.0538 84.5 70.05C84.77 73.86 80.56 75.96 81.11 77.17C81.79 78.68 89.11 76.8 97.11 74.77C104.35 72.94 110.02 71.52 112.11 71C126.48 67.45 125.06 68.29 132.84 66.12C135.822 65.1825 138.871 64.4705 141.96 63.99C148.26 63.08 152.42 62.49 153.96 63.99C161.33 71.21 111.1 130.67 100.13 127.08C99.88 127 98.73 126.57 97.06 126.2Z" fill="#E94A69"/>
<path id="Vector_4" d="M81.93 77.13C78.44 78.3 75.75 79.95 70.02 84.49C66.17 87.49 58.02 93.95 53.12 99.34C36.03 117.99 25.42 158.57 30.51 160.83C32.88 161.92 36.65 153.67 52.91 142.17C56.64 139.54 59.59 137.74 62.46 136.01C71.11 130.77 75.46 128.15 79 127.74C80.2301 127.646 81.4247 127.285 82.5 126.68C84.243 125.582 85.586 123.951 86.33 122.03C88.46 116.85 91.89 112.25 93.85 107.03C96.85 98.85 101.19 93.3 106.85 85.98C115.62 74.62 123.75 69.32 122.76 67.89C122.2 67.07 119.45 68.73 110.49 71.44C105.494 73.0316 100.4 74.2976 95.24 75.23C87.23 76.57 86.42 75.63 81.93 77.13Z" fill="#DF3444"/>
<path id="L fin lower" d="M81.98 126.57C82.42 126.92 82.93 126.33 86.22 125.89C87.7353 125.693 89.2619 125.596 90.79 125.6C92.9841 125.559 95.1755 125.774 97.32 126.24C99.69 126.75 99.93 127.11 101.02 127.24C102.585 127.299 104.127 126.854 105.42 125.97C114.14 120.86 120.83 110.48 120.83 110.48C127.11 100.71 121.97 110.41 138.64 86.12C148.54 71.68 152.85 64.62 151.28 63.12C150.96 62.81 149.15 63.04 145.56 63.51C141.97 63.98 139.56 64.42 139.56 64.42C135.95 65.07 134.73 65.31 130.1 66.35C123.1 67.92 120.98 67.79 118.1 70C117.222 70.6809 116.42 71.4554 115.71 72.31C107.17 82.26 102.89 87.24 100.05 91.31C96.41 96.56 93.82 101.17 88.65 110.4C84.74 117.3 80.42 125.41 81.98 126.57Z" fill="#C3282A"/>
</g>
<g id="R fin">
<path id="R fin big" d="M159.19 198.41C159.622 202.596 159.283 206.826 158.19 210.89C155.29 221.51 149.9 228.79 142.71 237.34C136.79 244.34 132.87 249.01 126.28 254.44C121 258.79 117.88 260.44 118.28 262.44C119.17 267.24 138.59 267.3 141.91 267.31C153.27 267.31 165.91 267.39 180.8 260.75C180.8 260.75 204.64 250.15 214.75 229.31C215.86 227.01 219.52 219.47 216.82 216.59C216.089 215.904 215.163 215.46 214.17 215.32C210.4 214.74 207.97 218.77 206.81 218.13C205.36 217.33 207.81 210.22 210.46 202.41C212.87 195.34 214.73 189.8 215.46 187.73C220.14 173.73 219.18 175.03 221.96 167.45C223.13 164.552 224.083 161.57 224.81 158.53C226.21 152.32 227.13 148.22 225.76 146.58C219.14 138.65 155.9 184.01 158.6 195.24C158.854 196.285 159.051 197.343 159.19 198.41Z" fill="#E94A69"/>
<path id="R fin middle" d="M206.91 217.38C205.47 220.77 203.61 223.38 198.63 228.68C195.29 232.27 188.25 239.84 182.48 244.35C162.54 259.91 121.3 267.25 119.39 262.02C118.5 259.56 127.03 256.46 139.77 241.16C142.7 237.65 144.72 234.85 146.68 232.16C152.58 223.95 155.53 219.85 156.22 216.32C156.421 215.108 156.878 213.952 157.56 212.93C158.788 211.274 160.522 210.063 162.5 209.48C167.83 207.76 172.69 204.71 178.09 203.17C186.49 200.78 192.36 196.94 200.09 191.88C212.09 184.03 218.03 176.35 219.37 177.45C220.15 178.07 218.28 180.69 214.86 189.4C212.874 194.254 211.204 199.231 209.86 204.3C207.89 212.15 208.76 213.06 206.91 217.38Z" fill="#DF3444"/>
<path id="R fin lower" d="M157.61 213.42C157.29 212.95 157.93 212.49 158.61 209.24C158.926 207.746 159.146 206.232 159.27 204.71C159.377 203.557 159.417 202.398 159.39 201.24C159.359 200.206 159.275 199.175 159.14 198.15C158.82 195.75 158.48 195.49 158.47 194.39C158.532 192.823 159.101 191.317 160.09 190.1C165.87 181.81 176.75 175.97 176.75 175.97C186.98 170.48 176.91 174.83 202.45 160.15C217.63 151.42 225 147.69 226.38 149.37C226.67 149.72 226.3 151.49 225.54 155.03C224.78 158.57 224.15 160.97 224.15 160.97C223.22 164.53 222.88 165.72 221.49 170.25C219.36 177.14 219.33 179.25 216.89 181.93C216.146 182.753 215.311 183.487 214.4 184.12C203.8 191.85 198.51 195.72 194.2 198.23C188.69 201.44 183.88 203.66 174.27 208.09C167.09 211.4 158.67 215.04 157.61 213.42Z" fill="#C3282A"/>
</g>
<g id="nose">
<path id="nose_2" d="M234.61 7.17001C254.286 1.90779 274.651 -0.317887 295 0.570006C296.03 22.3152 291.901 43.9957 282.95 63.84L231.03 55C232.223 39.0733 233.417 23.13 234.61 7.17001Z" fill="#B12832"/>
<g id="nose shadow">
<path id="Vector_5" d="M294.87 0.440011C289.299 -0.539755 283.563 0.120329 278.36 2.34001C275.13 3.74001 266.36 8.27003 263.79 17.52C262.02 23.87 263.97 29.21 265.87 34.17C270.68 46.76 279.79 54.77 285.94 59.17C293.108 40.478 296.154 20.4582 294.87 0.48002V0.440011Z" fill="#DE3445"/>
<path id="Vector_6" d="M290.07 4.64003C287.79 3.87003 283.07 10.59 280.82 16.41C276.53 27.59 279.49 40.54 282.23 40.79C283.91 40.95 285.57 36.3 287.23 31.54C291.24 20.45 293.18 5.69003 290.07 4.64003Z" fill="#EA4C6B"/>
</g>
</g>
<g id="booster">
<path id="Vector_7" d="M78.22 165.03C75.4267 170.91 72.6333 176.79 69.84 182.67C78.1236 198.245 89.9473 211.658 104.36 221.83L121.75 213.71C104.672 199.977 89.9658 183.531 78.22 165.03Z" fill="#142C45"/>
</g>
<g id="body">
<path id="body_2" d="M78.42 165.01C90.1768 183.503 104.885 199.944 121.96 213.68C159.018 201.814 192.929 181.756 221.176 154.995C249.423 128.233 271.282 95.4538 285.13 59.09C266.65 43.9225 250.48 26.1423 237.13 6.31C200.598 19.402 167.42 40.423 139.979 67.8626C112.537 95.3022 91.5143 128.479 78.42 165.01Z" fill="#E9E8E8"/>
<g id="shadow">
<path id="Vector_8" d="M127.98 146.36C114.321 157.247 101.876 169.575 90.86 183.13C88.86 180.59 86.86 177.923 84.86 175.13C82.56 171.93 80.43 168.78 78.43 165.72C83.4435 151.134 89.7555 137.028 97.29 123.57C107.49 105.38 137.67 56.81 197.38 23.85C210.03 16.8699 223.259 10.9947 236.92 6.29001L249.16 22.45C230.824 28.2431 213.166 35.9944 196.49 45.57C182.34 53.71 167.88 62.19 153.32 78.17C146.11 86.08 142.05 92.34 136.69 100.62C126.09 116.97 116.77 131.71 122.08 141.05C123.477 143.366 125.53 145.214 127.98 146.36Z" fill="#BABABB"/>
<path id="Vector_9" d="M114.01 207.11C180.756 175.906 236.795 125.677 275.09 62.73C260.997 97.1087 239.803 128.124 212.897 153.747C185.99 179.37 153.976 199.023 118.95 211.42L114.01 207.11Z" fill="#F3F5F9"/>
</g>
</g>
<g id="window">
<path id="frame" d="M218.09 106.83C234.327 106.83 247.49 92.9956 247.49 75.93C247.49 58.8644 234.327 45.03 218.09 45.03C201.853 45.03 188.69 58.8644 188.69 75.93C188.69 92.9956 201.853 106.83 218.09 106.83Z" fill="#143657"/>
<path id="window_2" d="M218.09 100.91C231.218 100.91 241.86 89.7261 241.86 75.93C241.86 62.1339 231.218 50.95 218.09 50.95C204.962 50.95 194.32 62.1339 194.32 75.93C194.32 89.7261 204.962 100.91 218.09 100.91Z" fill="#4ABCC2"/>
</g>
<g id="fins">
<path id="center L" d="M67.51 221.57C68.72 222.44 74.17 216.46 81.82 208.78C85.11 205.47 77.64 213.06 118.2 175.47C126.67 167.63 144.74 149.25 180.89 112.47C183.22 110.1 186.98 106.24 186.34 105.41C185.03 103.69 165.72 115.83 150.46 126.94C136.53 137.08 127.6 145.64 115.2 157.52C99.45 172.62 90.79 180.83 81.51 194.33C73.54 205.96 65.81 220.33 67.51 221.57Z" fill="#C3282A"/>
<path id="center R" d="M186.34 105.45C185.47 104.74 179.76 110.81 163.26 127.29C163.26 127.29 159.85 130.7 117.7 171.91C79.21 209.57 66.36 219.63 67.78 221.57C69.51 223.88 91.09 211.95 109.28 197.86C127.47 183.77 138.89 170.12 152.33 153.86C170.15 132.27 188.03 106.82 186.34 105.45Z" fill="#E03444"/>
</g>
</g>
</g>
<defs>
<clipPath id="clip0">
<rect width="295.16" height="286.86" fill="white"/>
</clipPath>
</defs>
</svg>

