<svg width="253" height="37" viewBox="0 0 253 37" fill="none" xmlns="http://www.w3.org/2000/svg">
<path d="M14.09 18.95H6.19L4.81 23.03C4.47 24.03 4.3 24.78 4.3 25.28C4.3 25.67 4.45001 26.02 4.74001 26.32C5.04001 26.62 5.68 26.81 6.66 26.9V27.61H0.240005V26.9C1.09001 26.71 1.64 26.46 1.89 26.16C2.4 25.55 2.97 24.31 3.59 22.45L10.77 1.20001H11.3L18.4 22.68C18.97 24.41 19.49 25.53 19.96 26.04C20.43 26.55 21.08 26.84 21.91 26.91V27.62H13.86V26.91C14.67 26.86 15.22 26.69 15.51 26.4C15.8 26.11 15.94 25.75 15.94 25.33C15.94 24.77 15.74 23.89 15.34 22.68L14.09 18.95ZM13.67 17.54L10.21 7.10001L6.66 17.54H13.67Z" fill="#CF3436"/>
<path d="M32.94 25.64C32.27 26.53 31.61 27.17 30.97 27.55C30.33 27.94 29.64 28.13 28.89 28.13C27.39 28.13 26.07 27.33 24.95 25.74C23.83 24.15 23.26 22.1 23.26 19.6C23.26 17.1 23.88 14.81 25.13 12.73C26.37 10.65 27.97 9.62 29.93 9.62C31.14 9.62 32.15 10.11 32.94 11.09V7.87C32.94 5.88 32.9 4.65 32.83 4.19C32.76 3.73 32.64 3.42001 32.48 3.26001C32.32 3.09001 32.12 3.01001 31.88 3.01001C31.62 3.01001 31.27 3.11 30.84 3.31L30.64 2.64001L34.75 0.51001H35.43V20.68C35.43 22.72 35.47 23.97 35.54 24.42C35.62 24.87 35.74 25.19 35.9 25.36C36.07 25.54 36.26 25.63 36.48 25.63C36.75 25.63 37.11 25.52 37.56 25.31L37.73 25.98L33.64 28.13H32.95V25.64H32.94ZM32.94 24.3V15.31C32.88 14.45 32.7 13.66 32.4 12.95C32.1 12.24 31.7 11.7 31.2 11.34C30.7 10.98 30.22 10.8 29.75 10.8C28.87 10.8 28.08 11.3 27.39 12.3C26.48 13.62 26.02 15.55 26.02 18.09C26.02 20.65 26.46 22.62 27.34 23.98C28.22 25.34 29.21 26.03 30.29 26.03C31.21 26.04 32.09 25.46 32.94 24.3Z" fill="#CF3436"/>
<path d="M37.91 10.15H44.39V10.86H43.97C43.58 10.86 43.28 10.98 43.07 11.22C42.86 11.46 42.76 11.79 42.76 12.19C42.76 12.64 42.87 13.16 43.08 13.77L46.28 23.41L49.5 13.41C49.73 12.7 49.85 12.16 49.85 11.79C49.85 11.61 49.81 11.47 49.73 11.35C49.62 11.16 49.48 11.03 49.31 10.96C49.14 10.89 48.79 10.86 48.27 10.86V10.15H52.77V10.86C52.25 10.91 51.89 11.04 51.69 11.26C51.34 11.64 51.02 12.28 50.74 13.16L45.85 28.13H45.23L40.31 13.41C40.09 12.72 39.88 12.23 39.68 11.93C39.48 11.63 39.22 11.38 38.91 11.18C38.74 11.07 38.4 10.96 37.9 10.86V10.15H37.91Z" fill="#CF3436"/>
<path d="M56.33 16.72C56.32 19.31 56.82 21.34 57.82 22.81C58.82 24.28 60 25.02 61.36 25.02C62.26 25.02 63.05 24.71 63.71 24.08C64.38 23.45 64.94 22.38 65.39 20.85L65.86 21.23C65.65 22.97 65.04 24.55 64.02 25.98C63.01 27.41 61.74 28.12 60.21 28.12C58.55 28.12 57.14 27.3 55.96 25.67C54.78 24.04 54.19 21.85 54.19 19.09C54.19 16.11 54.79 13.78 56 12.11C57.21 10.44 58.73 9.60999 60.55 9.60999C62.09 9.60999 63.36 10.25 64.36 11.54C65.35 12.83 65.85 14.55 65.85 16.71H56.33V16.72ZM56.33 15.62H62.71C62.66 14.5 62.55 13.72 62.39 13.26C62.14 12.55 61.77 11.99 61.27 11.58C60.77 11.17 60.25 10.97 59.71 10.97C58.88 10.97 58.13 11.38 57.48 12.2C56.83 13.02 56.44 14.16 56.33 15.62Z" fill="#CF3436"/>
<path d="M71.72 9.64001V13.56C72.87 10.95 74.06 9.64001 75.27 9.64001C75.82 9.64001 76.28 9.85 76.64 10.28C77 10.7 77.18 11.2 77.18 11.76C77.18 12.26 77.05 12.67 76.79 13.02C76.53 13.37 76.22 13.53 75.86 13.53C75.51 13.53 75.12 13.31 74.68 12.87C74.24 12.43 73.92 12.21 73.71 12.21C73.53 12.21 73.33 12.34 73.12 12.59C72.67 13.11 72.2 13.97 71.72 15.16V23.52C71.72 24.48 71.82 25.21 72.01 25.71C72.14 26.05 72.37 26.34 72.7 26.57C73.03 26.8 73.51 26.91 74.13 26.91V27.6H67.07V26.91C67.77 26.91 68.29 26.77 68.63 26.49C68.88 26.29 69.06 25.96 69.16 25.52C69.21 25.31 69.24 24.69 69.24 23.67V16.91C69.24 14.88 69.21 13.67 69.14 13.28C69.07 12.89 68.95 12.61 68.78 12.43C68.6 12.25 68.39 12.16 68.13 12.16C67.82 12.16 67.47 12.25 67.08 12.45L66.93 11.76L71.1 9.63H71.72V9.64001Z" fill="#CF3436"/>
<path d="M81.95 4.42001V10.15H85.17V11.48H81.95V22.79C81.95 23.92 82.08 24.68 82.33 25.08C82.58 25.48 82.91 25.67 83.32 25.67C83.65 25.67 83.97 25.54 84.28 25.28C84.59 25.02 84.83 24.64 85 24.13H85.59C85.24 25.37 84.74 26.31 84.1 26.94C83.46 27.57 82.8 27.88 82.11 27.88C81.65 27.88 81.2 27.72 80.76 27.39C80.32 27.07 79.99 26.6 79.78 26C79.57 25.4 79.46 24.47 79.46 23.21V11.48H77.28V10.85C77.83 10.57 78.4 10.1 78.97 9.42999C79.55 8.75999 80.06 7.97 80.51 7.06C80.74 6.58 81.06 5.7 81.47 4.41H81.95V4.42001Z" fill="#CF3436"/>
<path d="M91.27 9.64001V23.66C91.27 24.75 91.33 25.48 91.46 25.84C91.59 26.2 91.77 26.47 92.02 26.65C92.27 26.83 92.71 26.92 93.37 26.92V27.61H86.68V26.92C87.35 26.92 87.8 26.84 88.03 26.67C88.26 26.51 88.44 26.23 88.58 25.85C88.72 25.47 88.78 24.74 88.78 23.66V16.94C88.78 15.05 88.74 13.82 88.64 13.26C88.57 12.85 88.46 12.57 88.31 12.41C88.16 12.25 87.95 12.17 87.69 12.17C87.41 12.17 87.07 12.26 86.67 12.46L86.46 11.77L90.61 9.64001H91.27ZM90.02 0.519989C90.44 0.519989 90.8 0.709987 91.1 1.07999C91.4 1.45999 91.54 1.91 91.54 2.44C91.54 2.97 91.39 3.43 91.1 3.81C90.81 4.19 90.45 4.38 90.02 4.38C89.6 4.38 89.24 4.19 88.94 3.81C88.64 3.43 88.49 2.97 88.49 2.44C88.49 1.91 88.64 1.44999 88.93 1.07999C89.22 0.709987 89.59 0.519989 90.02 0.519989Z" fill="#CF3436"/>
<path d="M103.98 9.64001V15.58H103.48C103.1 13.71 102.61 12.44 102.01 11.77C101.41 11.1 100.65 10.76 99.73 10.76C99.03 10.76 98.46 11 98.03 11.47C97.6 11.94 97.38 12.46 97.38 13.03C97.38 13.74 97.54 14.35 97.86 14.86C98.17 15.38 98.8 15.93 99.76 16.52L101.96 17.87C104 19.13 105.01 20.78 105.01 22.84C105.01 24.43 104.54 25.71 103.59 26.68C102.64 27.65 101.58 28.14 100.41 28.14C99.57 28.14 98.6 27.95 97.52 27.57C97.19 27.44 96.92 27.38 96.71 27.38C96.48 27.38 96.3 27.55 96.17 27.88H95.67V21.65H96.17C96.45 23.43 96.99 24.77 97.78 25.67C98.57 26.57 99.46 27.02 100.44 27.02C101.13 27.02 101.7 26.76 102.13 26.25C102.57 25.74 102.78 25.12 102.78 24.39C102.78 23.51 102.54 22.78 102.05 22.18C101.56 21.58 100.59 20.83 99.14 19.91C97.69 18.99 96.73 18.17 96.28 17.43C95.83 16.71 95.6 15.79 95.6 14.69C95.6 13.26 95.99 12.06 96.77 11.09C97.55 10.13 98.55 9.64001 99.79 9.64001C100.33 9.64001 100.99 9.78999 101.76 10.08C102.27 10.27 102.61 10.37 102.78 10.37C102.94 10.37 103.07 10.33 103.16 10.24C103.25 10.15 103.36 9.94999 103.48 9.64999H103.98V9.64001Z" fill="#CF3436"/>
<path d="M111.82 9.64001V23.66C111.82 24.75 111.88 25.48 112.01 25.84C112.14 26.2 112.32 26.47 112.57 26.65C112.82 26.83 113.26 26.92 113.92 26.92V27.61H107.23V26.92C107.9 26.92 108.35 26.84 108.58 26.67C108.81 26.51 108.99 26.23 109.13 25.85C109.27 25.47 109.33 24.74 109.33 23.66V16.94C109.33 15.05 109.29 13.82 109.19 13.26C109.12 12.85 109.01 12.57 108.86 12.41C108.71 12.25 108.5 12.17 108.24 12.17C107.96 12.17 107.62 12.26 107.22 12.46L107.01 11.77L111.16 9.64001H111.82ZM110.57 0.519989C110.99 0.519989 111.35 0.709987 111.65 1.07999C111.95 1.45999 112.09 1.91 112.09 2.44C112.09 2.97 111.94 3.43 111.65 3.81C111.36 4.19 111 4.38 110.57 4.38C110.15 4.38 109.79 4.19 109.49 3.81C109.19 3.43 109.04 2.97 109.04 2.44C109.04 1.91 109.19 1.44999 109.48 1.07999C109.77 0.709987 110.14 0.519989 110.57 0.519989Z" fill="#CF3436"/>
<path d="M119.64 13.33C121.25 10.87 122.79 9.64001 124.26 9.64001C125.01 9.64001 125.66 9.88001 126.2 10.35C126.74 10.83 127.17 11.61 127.49 12.7C127.71 13.46 127.82 14.63 127.82 16.2V23.65C127.82 24.75 127.89 25.5 128.03 25.9C128.14 26.22 128.32 26.47 128.56 26.64C128.81 26.82 129.26 26.91 129.92 26.91V27.6H123.11V26.91H123.4C124.04 26.91 124.49 26.79 124.75 26.54C125.01 26.29 125.18 25.93 125.28 25.44C125.32 25.25 125.34 24.65 125.34 23.65V16.51C125.34 14.92 125.18 13.77 124.85 13.05C124.52 12.33 123.97 11.97 123.2 11.97C122.01 11.97 120.82 12.8 119.63 14.45V23.65C119.63 24.83 119.69 25.56 119.8 25.84C119.94 26.21 120.13 26.48 120.38 26.65C120.63 26.82 121.12 26.91 121.88 26.91V27.6H115.07V26.91H115.37C116.07 26.91 116.55 26.68 116.79 26.23C117.04 25.78 117.16 24.92 117.16 23.65V17.18C117.16 15.08 117.12 13.81 117.05 13.35C116.98 12.89 116.86 12.58 116.7 12.42C116.54 12.26 116.34 12.17 116.08 12.17C115.8 12.17 115.46 12.26 115.07 12.46L114.84 11.77L118.99 9.64001H119.64V13.33Z" fill="#CF3436"/>
<path d="M134.71 21.24C133.87 20.72 133.22 19.99 132.77 19.06C132.32 18.13 132.09 17.1 132.09 15.97C132.09 14.24 132.6 12.76 133.63 11.51C134.66 10.27 135.97 9.64001 137.58 9.64001C138.89 9.64001 140.03 10.05 140.99 10.86H143.91C144.34 10.86 144.59 10.88 144.66 10.91C144.73 10.94 144.78 11 144.81 11.07C144.87 11.18 144.9 11.39 144.9 11.68C144.9 12.01 144.87 12.24 144.82 12.37C144.79 12.43 144.74 12.48 144.66 12.52C144.58 12.56 144.33 12.58 143.9 12.58H142.11C142.67 13.49 142.95 14.66 142.95 16.08C142.95 17.71 142.46 19.1 141.48 20.25C140.5 21.41 139.18 21.98 137.52 21.98C136.84 21.98 136.14 21.85 135.43 21.6C134.99 22.08 134.69 22.5 134.53 22.87C134.37 23.23 134.3 23.54 134.3 23.79C134.3 24.01 134.38 24.22 134.55 24.42C134.72 24.62 135.04 24.77 135.52 24.86C135.8 24.91 136.5 24.96 137.63 24.99C139.7 25.05 141.04 25.14 141.65 25.26C142.58 25.43 143.33 25.86 143.88 26.57C144.43 27.28 144.71 28.16 144.71 29.2C144.71 30.63 144.18 31.98 143.12 33.24C141.56 35.09 139.51 36.02 137 36.02C135.06 36.02 133.43 35.47 132.1 34.36C131.35 33.73 130.97 33.07 130.97 32.38C130.97 32.08 131.02 31.77 131.14 31.47C131.31 31 131.66 30.35 132.19 29.51C132.26 29.4 132.77 28.71 133.72 27.45C133.2 27.06 132.83 26.7 132.61 26.39C132.39 26.08 132.29 25.73 132.29 25.33C132.29 24.89 132.43 24.37 132.72 23.77C133.02 23.17 133.68 22.33 134.71 21.24ZM134.56 27.6C134.09 28.25 133.73 28.85 133.49 29.41C133.25 29.97 133.13 30.48 133.13 30.95C133.13 31.56 133.42 32.09 134 32.55C135 33.34 136.45 33.73 138.35 33.73C140.16 33.73 141.49 33.33 142.34 32.52C143.2 31.71 143.63 30.85 143.63 29.94C143.63 29.28 143.37 28.81 142.86 28.53C142.34 28.25 141.31 28.08 139.76 28.03C137.51 27.96 135.78 27.81 134.56 27.6ZM137.33 10.55C136.59 10.55 135.97 10.92 135.46 11.67C134.96 12.42 134.71 13.57 134.71 15.12C134.71 17.13 135.05 18.68 135.73 19.79C136.25 20.63 136.91 21.05 137.72 21.05C138.48 21.05 139.11 20.69 139.6 19.96C140.09 19.24 140.34 18.1 140.34 16.55C140.34 14.53 139.99 12.95 139.3 11.81C138.79 10.97 138.13 10.55 137.33 10.55Z" fill="#CF3436"/>
<path d="M163.04 9.64001V15.58H162.54C162.16 13.71 161.67 12.44 161.07 11.77C160.47 11.1 159.71 10.76 158.79 10.76C158.09 10.76 157.52 11 157.09 11.47C156.66 11.94 156.44 12.46 156.44 13.03C156.44 13.74 156.6 14.35 156.92 14.86C157.23 15.38 157.86 15.93 158.82 16.52L161.02 17.87C163.06 19.13 164.07 20.78 164.07 22.84C164.07 24.43 163.6 25.71 162.65 26.68C161.7 27.65 160.64 28.14 159.47 28.14C158.63 28.14 157.66 27.95 156.58 27.57C156.25 27.44 155.98 27.38 155.77 27.38C155.54 27.38 155.36 27.55 155.23 27.88H154.73V21.65H155.23C155.51 23.43 156.05 24.77 156.84 25.67C157.63 26.57 158.52 27.02 159.5 27.02C160.19 27.02 160.76 26.76 161.19 26.25C161.63 25.74 161.84 25.12 161.84 24.39C161.84 23.51 161.6 22.78 161.11 22.18C160.62 21.58 159.65 20.83 158.2 19.91C156.74 19 155.79 18.17 155.34 17.43C154.89 16.71 154.66 15.79 154.66 14.69C154.66 13.26 155.05 12.06 155.83 11.09C156.61 10.12 157.61 9.64001 158.85 9.64001C159.39 9.64001 160.05 9.78999 160.82 10.08C161.33 10.27 161.67 10.37 161.84 10.37C162 10.37 162.13 10.33 162.22 10.24C162.31 10.15 162.42 9.94999 162.54 9.64999H163.04V9.64001Z" fill="#CF3436"/>
<path d="M172.86 9.64001C174.95 9.64001 176.62 10.64 177.89 12.65C178.96 14.36 179.5 16.33 179.5 18.55C179.5 20.11 179.2 21.69 178.61 23.29C178.02 24.89 177.2 26.1 176.17 26.91C175.14 27.72 173.98 28.13 172.7 28.13C170.62 28.13 168.97 27.08 167.75 24.99C166.72 23.23 166.2 21.25 166.2 19.05C166.2 17.45 166.51 15.86 167.14 14.28C167.77 12.7 168.59 11.53 169.61 10.78C170.64 10.02 171.72 9.64001 172.86 9.64001ZM172.4 10.88C171.87 10.88 171.33 11.08 170.8 11.48C170.26 11.88 169.83 12.58 169.5 13.58C169.17 14.58 169 15.87 169 17.45C169 19.99 169.4 22.18 170.2 24.02C171 25.86 172.05 26.78 173.35 26.78C174.32 26.78 175.13 26.27 175.76 25.26C176.39 24.25 176.71 22.5 176.71 20.02C176.71 16.92 176.18 14.48 175.13 12.71C174.41 11.49 173.5 10.88 172.4 10.88Z" fill="#CF3436"/>
<path d="M186.27 0.519989V23.66C186.27 24.75 186.33 25.48 186.46 25.83C186.58 26.19 186.78 26.46 187.04 26.64C187.3 26.82 187.79 26.92 188.5 26.92V27.61H181.75V26.92C182.38 26.92 182.81 26.84 183.04 26.67C183.27 26.51 183.45 26.23 183.58 25.85C183.71 25.47 183.78 24.74 183.78 23.66V7.82001C183.78 5.85001 183.74 4.64 183.67 4.19C183.6 3.74 183.49 3.42999 183.33 3.26999C183.17 3.09999 182.98 3.01999 182.74 3.01999C182.48 3.01999 182.15 3.12001 181.75 3.32001L181.49 2.64999L185.6 0.519989H186.27Z" fill="#CF3436"/>
<path d="M202.17 10.15V20.72C202.17 22.74 202.21 23.97 202.28 24.42C202.36 24.87 202.48 25.19 202.64 25.36C202.81 25.54 203 25.63 203.22 25.63C203.53 25.63 203.88 25.52 204.27 25.31L204.48 25.98L200.36 28.13H199.68V24.44C198.5 26.06 197.59 27.09 196.97 27.51C196.35 27.93 195.69 28.14 195 28.14C194.23 28.14 193.56 27.86 192.99 27.29C192.42 26.73 192.03 26 191.81 25.11C191.59 24.22 191.48 22.96 191.48 21.34V13.55C191.48 12.72 191.41 12.15 191.27 11.84C191.13 11.53 190.92 11.28 190.65 11.11C190.37 10.94 189.87 10.86 189.15 10.87V10.16H193.98V21.83C193.98 23.45 194.2 24.52 194.65 25.03C195.1 25.54 195.64 25.79 196.27 25.79C196.7 25.79 197.19 25.62 197.74 25.28C198.29 24.94 198.94 24.28 199.69 23.32V13.44C199.69 12.45 199.55 11.78 199.26 11.43C198.97 11.08 198.38 10.89 197.48 10.87V10.16H202.17V10.15Z" fill="#CF3436"/>
<path d="M209.5 4.42001V10.15H212.72V11.48H209.5V22.79C209.5 23.92 209.63 24.68 209.88 25.08C210.14 25.47 210.46 25.67 210.87 25.67C211.2 25.67 211.52 25.54 211.83 25.28C212.14 25.02 212.38 24.64 212.55 24.13H213.14C212.79 25.37 212.29 26.31 211.65 26.94C211.01 27.57 210.35 27.88 209.66 27.88C209.2 27.88 208.75 27.72 208.31 27.39C207.87 27.07 207.54 26.6 207.33 26C207.12 25.4 207.01 24.47 207.01 23.21V11.48H204.83V10.85C205.38 10.57 205.95 10.1 206.52 9.42999C207.1 8.75999 207.61 7.97 208.06 7.06C208.29 6.58 208.61 5.7 209.02 4.41H209.5V4.42001Z" fill="#CF3436"/>
<path d="M218.81 9.64001V23.66C218.81 24.75 218.87 25.48 219 25.84C219.13 26.2 219.31 26.47 219.56 26.65C219.81 26.83 220.25 26.92 220.91 26.92V27.61H214.22V26.92C214.89 26.92 215.34 26.84 215.57 26.67C215.8 26.51 215.98 26.23 216.12 25.85C216.25 25.47 216.32 24.74 216.32 23.66V16.94C216.32 15.05 216.27 13.82 216.18 13.26C216.11 12.85 216 12.57 215.85 12.41C215.7 12.25 215.49 12.17 215.23 12.17C214.95 12.17 214.61 12.26 214.21 12.46L214 11.77L218.15 9.64001H218.81ZM217.56 0.519989C217.98 0.519989 218.34 0.709987 218.64 1.07999C218.94 1.45999 219.08 1.91 219.08 2.44C219.08 2.97 218.93 3.43 218.64 3.81C218.35 4.19 217.99 4.38 217.56 4.38C217.14 4.38 216.78 4.19 216.48 3.81C216.18 3.43 216.03 2.97 216.03 2.44C216.03 1.91 216.18 1.44999 216.47 1.07999C216.77 0.709987 217.13 0.519989 217.56 0.519989Z" fill="#CF3436"/>
<path d="M229.35 9.64001C231.44 9.64001 233.11 10.64 234.38 12.65C235.45 14.36 235.99 16.33 235.99 18.55C235.99 20.11 235.69 21.69 235.1 23.29C234.51 24.89 233.69 26.1 232.66 26.91C231.63 27.72 230.47 28.13 229.19 28.13C227.11 28.13 225.46 27.08 224.24 24.99C223.21 23.23 222.69 21.25 222.69 19.05C222.69 17.45 223 15.86 223.63 14.28C224.26 12.7 225.08 11.53 226.1 10.78C227.13 10.02 228.21 9.64001 229.35 9.64001ZM228.89 10.88C228.36 10.88 227.82 11.08 227.29 11.48C226.75 11.88 226.32 12.58 225.99 13.58C225.66 14.58 225.49 15.87 225.49 17.45C225.49 19.99 225.89 22.18 226.69 24.02C227.49 25.86 228.54 26.78 229.84 26.78C230.81 26.78 231.62 26.27 232.25 25.26C232.88 24.25 233.2 22.5 233.2 20.02C233.2 16.92 232.67 14.48 231.62 12.71C230.9 11.49 229.99 10.88 228.89 10.88Z" fill="#CF3436"/>
<path d="M242.04 13.33C243.65 10.87 245.19 9.64001 246.66 9.64001C247.41 9.64001 248.06 9.88001 248.6 10.35C249.14 10.83 249.57 11.61 249.89 12.7C250.11 13.46 250.22 14.63 250.22 16.2V23.65C250.22 24.75 250.29 25.5 250.43 25.9C250.54 26.22 250.72 26.47 250.96 26.64C251.21 26.82 251.66 26.91 252.32 26.91V27.6H245.51V26.91H245.8C246.44 26.91 246.89 26.79 247.15 26.54C247.41 26.29 247.58 25.93 247.68 25.44C247.72 25.25 247.74 24.65 247.74 23.65V16.51C247.74 14.92 247.58 13.77 247.25 13.05C246.92 12.33 246.37 11.97 245.6 11.97C244.41 11.97 243.22 12.8 242.03 14.45V23.65C242.03 24.83 242.08 25.56 242.2 25.84C242.34 26.21 242.53 26.48 242.78 26.65C243.03 26.82 243.52 26.91 244.28 26.91V27.6H237.47V26.91H237.77C238.47 26.91 238.95 26.68 239.19 26.23C239.44 25.78 239.56 24.92 239.56 23.65V17.18C239.56 15.08 239.52 13.81 239.45 13.35C239.38 12.89 239.26 12.58 239.1 12.42C238.94 12.26 238.74 12.17 238.48 12.17C238.2 12.17 237.86 12.26 237.47 12.46L237.24 11.77L241.39 9.64001H242.04V13.33Z" fill="#CF3436"/>
</svg>
