<svg xmlns="http://www.w3.org/2000/svg" xmlns:xlink="http://www.w3.org/1999/xlink" width="122.67mm" height="209.61mm" viewBox="0 0 347.72 594.17">
  <defs>
    <clipPath id="clip-path" transform="translate(-147.39 -110.38)">
      <path d="M197.86,333.94c.26,17.69,3,27.13,3.94,30.12.22.72.32,1.08.47,1.49,1.5,4.17,6,12.19,24.07,25.58,11.83,8.75,22.56,16.7,39.66,22.66a129,129,0,0,0,37.76,6.92c28.4,1.44,50.21-5.79,61.06-9.44,13.67-4.59,21.68-9.09,31.9-14.82,0,0,15.33-8.61,22.23-19.17,1-1.53,1.84-3.12,1.84-3.12a40.3,40.3,0,0,0,3.28-8.44c2-7.32,1.8-12,3.46-23.5,1.11-7.66,1.8-9.74.23-12.14s-4.36-3-9.67-4.81c-10.77-3.67-16.16-5.5-16.39-5.56a328.7,328.7,0,0,0-32.48-6.81,464.21,464.21,0,0,0-47.83-4.23c-15.74-.74-28.64-1.32-46.2-.41-16.31.85-11.12,1.68-33.76,3.34,0,0-7.27.54-33,6.41-2.13.48-6.49,1.54-9,5.2C198.13,325.07,197.75,327,197.86,333.94Z" fill="none"/>
    </clipPath>
    <linearGradient id="linear-gradient" x1="265.95" y1="565.27" x2="359" y2="565.27" gradientUnits="userSpaceOnUse">
      <stop offset="0" stop-color="#fff"/>
      <stop offset="0.05" stop-color="#ecf3fa" stop-opacity="0.91"/>
      <stop offset="0.14" stop-color="#caddf0" stop-opacity="0.74"/>
      <stop offset="0.24" stop-color="#abcae7" stop-opacity="0.6"/>
      <stop offset="0.34" stop-color="#92bae0" stop-opacity="0.48"/>
      <stop offset="0.45" stop-color="#7dadda" stop-opacity="0.38"/>
      <stop offset="0.56" stop-color="#6ca3d6" stop-opacity="0.3"/>
      <stop offset="0.69" stop-color="#619cd3" stop-opacity="0.24"/>
      <stop offset="0.82" stop-color="#5a97d1" stop-opacity="0.21"/>
      <stop offset="1" stop-color="#5896d0" stop-opacity="0.2"/>
    </linearGradient>
  </defs>
  <g id="attachment">
    <g id="Layer_33" data-name="Layer 33">
      <path d="M283.88,490.11C333.09,571.26,402.8,604,442,585c28.85-14,45.94-58.29,38.9-95.89-14-74.87-113.51-69-172.58-164.59C275.86,272,251.74,182.63,292.93,140c36.83-38.11,122.28-35.07,199.92,18.09" transform="translate(-147.39 -110.38)" fill="none" stroke="#575756" stroke-miterlimit="10" stroke-width="8"/>
      <path d="M776.71,499.1" transform="translate(-147.39 -110.38)" fill="none" stroke="#1d1d1b" stroke-miterlimit="10" stroke-width="8"/>
    </g>
  </g>
  <g id="Helmet">
    <path id="helmet-2" data-name="helmet" d="M279.56,448.66a157.2,157.2,0,0,1-19.18-7c-51.23-23.32-70.34-78-70.34-78-5.65-16.18-14.83-52.45,1.28-92.73,17.77-44.43,54.37-63.85,65.22-69.06,11.58-5.56,42.34-18.25,81.22-10.87,1.51.29,3.67.71,6.32,1.34,42.29,10,67.2,40.51,71.05,45.34,6.1,7.63,27.68,35.48,28.37,76.71.52,30.94-11,53.35-15.74,62.31,0,0-22.32,42.2-74.66,67.53-7.6,3.69-16,7-16,7h0c-7,1.86-12.43,1.88-23,1.92a118.33,118.33,0,0,1-20.47-1.28A113.91,113.91,0,0,1,279.56,448.66Z" transform="translate(-147.39 -110.38)" fill="#fff" stroke="#1d1d1b" stroke-miterlimit="10" stroke-width="0.5"/>
    <path d="M204.83,245.76c7-9.08,14.5-18.78,27.39-28.79a136.29,136.29,0,0,1,61.54-26.69,131,131,0,0,1,66.94,7.25s50.46,19.63,72.26,69.39a147.16,147.16,0,0,1,9.49,33.43,112.8,112.8,0,0,1,1,12.83c.06,5.87-.54,5.35-.2,9.2a30.72,30.72,0,0,1-.26,4.91c-2.28,20.49-10.73,39.07-10.73,39.07a147.52,147.52,0,0,1-23,35.44c-28.7,33.26-66.61,51.17-68.86,48.06-4.09-5.66,84.86-116.2,87.14-120.08a1.17,1.17,0,0,0,.23-1c-.36-1-3.25-.8-7.42-2.47-.38-.15-.31-.11-5.95-2.08l-4.27-1.49c-4.72-1.66-5.18-1.9-6.85-2.38-2-.6-2.07-.45-5.16-1.19-4.25-1-5.31-1.56-8.93-2.49,0,0-3-.77-7.88-1.65-25.93-4.63-60.22-3-60.22-3-12.81.62-23.34,1.72-30.79,2.63-48.39,5.89-72.76,16.59-73.94,13.68-1.05-2.59,31-19.05,71.6-32.63,47.22-15.8,86.29-21.11,86.19-21.68-.21-1.19-174.85,24.84-176.08,18.28-.76-4,64.67-9.23,96.35-57,8-12,15.74-29.64,10.84-34.06-13-11.72-106.85,77-113.95,69.58C188.88,268.33,197.39,255.39,204.83,245.76Z" transform="translate(-147.39 -110.38)" fill="#5896d0" opacity="0.2"/>
    <g id="face-vizer">
      <path d="M197.86,333.94c.26,17.69,3,27.13,3.94,30.12.22.72.32,1.08.47,1.49,1.5,4.17,6,12.19,24.07,25.58,11.83,8.75,22.56,16.7,39.66,22.66a129,129,0,0,0,37.76,6.92c28.4,1.44,50.21-5.79,61.06-9.44,13.67-4.59,21.68-9.09,31.9-14.82,0,0,15.33-8.61,22.23-19.17,1-1.53,1.84-3.12,1.84-3.12a40.3,40.3,0,0,0,3.28-8.44c2-7.32,1.8-12,3.46-23.5,1.11-7.66,1.8-9.74.23-12.14s-4.36-3-9.67-4.81c-10.77-3.67-16.16-5.5-16.39-5.56a328.7,328.7,0,0,0-32.48-6.81,464.21,464.21,0,0,0-47.83-4.23c-15.74-.74-28.64-1.32-46.2-.41-16.31.85-11.12,1.68-33.76,3.34,0,0-7.27.54-33,6.41-2.13.48-6.49,1.54-9,5.2C198.13,325.07,197.75,327,197.86,333.94Z" transform="translate(-147.39 -110.38)" fill="none" stroke="#1d1d1b" stroke-miterlimit="10"/>
    </g>
  </g>
  <g id="L-knee">
    <path d="M264,573.15c-2.68.12-4,8.28-6.06,16.67-4,16.22-8.1,22-4.8,25.74.65.74,3,1.62,7.71,3.38a91,91,0,0,0,10,3.13,67.54,67.54,0,0,0,9.66,1.44,7.7,7.7,0,0,0,2.93-.18c2.59-.74,4.75-3.66,8.21-21.69,1.55-8.07,2.25-13.38-.12-14.84-.8-.5-1.38-.26-3.49-.91-2.49-.78-3.75-2.44-5.34-3A56.62,56.62,0,0,1,271.06,577c-.26-.17-.55-.38-1.06-.71C266.84,574.28,265,573.11,264,573.15Z" transform="translate(-147.39 -110.38)" fill="#fff" stroke="#1d1d1b" stroke-miterlimit="10" stroke-width="0.5"/>
    <g id="Shadow">
      <path d="M287.65,617.9c.73-2.29,1.55-5.06,2.33-8.25.57-2.31.3-1.51,1.68-8,.72-3.38.8-6.87,1.41-10.27.13-.74.42-2.28-.43-3.13-.62-.63-1.51-.51-2.4-.57-3.91-.26-6.23-3.82-6.75-3.33-.33.3.51,1.74,2,4.19s1.84,2.78,2.23,3.66c1.24,2.82,0,6-.61,7.5-3.85,9.78-18.68,17.71-17.44,20.6.4.91,2.49,1,6.68,1.18.57,0,1.22,0,7.51-.08l2.16,0" transform="translate(-147.39 -110.38)" fill="#5896d0" opacity="0.2"/>
    </g>
  </g>
  <g id="L-Shin">
    <path id="Leftshin" d="M250,612.12c.8-.38,1.74.85,4.59,2.29,2.26,1.15,4,1.88,5.42,2.49a55.74,55.74,0,0,0,9.58,3.39,39,39,0,0,0,11.88,1.27c2.64-.16,5.67-.66,6.27.56.08.17.12.37-.21,2.92-.11.83-.22,1.23-.27,2-.13,1.91.17,3.5.27,7.8.1,4.72-.22,4.79-.21,9.38,0,11.38,2,14.71-.21,16.47-.69.56-3.59.37-9.38,0-4.19-.26-4.84-.46-5.42-1-2.16-2.16.29-6-1.88-8.55-.63-.73-1.52-1.19-5-1.66-8.82-1.2-12.63.48-14.6-1.67-.92-1-.72-2.06-.62-5.92a199.51,199.51,0,0,0-.57-23.1C249.36,615.66,248.89,612.66,250,612.12Z" transform="translate(-147.39 -110.38)" fill="#fff" stroke="#1d1d1b" stroke-miterlimit="10" stroke-width="0.5"/>
    <path d="M270,620.71c-.43.81,1.23,2.12,3.73,5.21a43.83,43.83,0,0,1,6.52,10.49,30.38,30.38,0,0,1,2.27,11.9c0,3.11,0,5.45-1.42,7.94s-2.93,3.09-2.62,4c.6,1.69,7.52,2.11,9.53-.89.81-1.23.22-2.13-.28-6.7a98.9,98.9,0,0,1-.35-11.12c0-4.48.32-4.15.17-6.67-.26-4.07-1-5-.42-7.33a13.72,13.72,0,0,0,.43-3.65c0-1.12,0-1.69-.33-2.11-.92-1.25-3.55-.36-6.41-.08C274.48,622.29,270.66,619.54,270,620.71Z" transform="translate(-147.39 -110.38)" fill="#5896d0" opacity="0.2"/>
  </g>
  <g id="R-knee">
    <path d="M316.16,592.5c-1,1.77-.94,3.51-.74,6.58.45,7.12.69,10.68.72,11.2.75,12.19-.6,13,.87,14.54,2.58,2.78,16.33-.26,21.09-1.31,12.93-2.84,15.19-2.57,16.89-5.24,1.57-2.46.49-4-.32-13.26-.77-8.71-.08-10.29-1.15-21.46-.94-9.82-1.7-10.87-2.65-11.33-3-1.43-5.79,3.94-18,10.29-3.67,1.9-7.1,4.27-10.86,6C319.41,589.65,317.4,590.38,316.16,592.5Z" transform="translate(-147.39 -110.38)" fill="#fff" stroke="#1d1d1b" stroke-miterlimit="10" stroke-width="0.5"/>
    <path d="M318.22,591.43c.21.84,3.88.72,6.38.36,5.31-.75,12.08-3.65,16.79-6.79a11.59,11.59,0,0,1,5.87-1.87c.89,0,1.22.18,1.33.4.26.52-.64,1.42-.8,1.6-2.71,3,5.1,21.19-.27,29.45-1.26,2-3.27,3.36-5.33,4.8-4.51,3.16-8.09,3.76-8,4.17.2.75,12.42-2.11,16.41-3.84,1.92-.84,2.43-1.64,4.6-2.3a2,2,0,0,0,1.06-.61c.78-1.06-.26-3-.7-4s-.67-4-1.06-9.83c-.11-1.64-.18-3-.34-9.33,0,0-.2-7.7-1.45-16.76-.22-1.56-.65-4.48-1.85-4.69-.47-.08-.87.28-1.48.78-1.34,1.12-2.88,2-4.13,3.2s-3.2,2.33-7.07,4.53C328.33,586.35,317.84,590,318.22,591.43Z" transform="translate(-147.39 -110.38)" fill="#5896d0" opacity="0.2"/>
  </g>
  <g id="R-shin">
    <path d="M313.38,624.51c.56-.39,1.2,0,3,.48a24.09,24.09,0,0,0,6.21.44,34,34,0,0,0,7.83-1c5-1.11,10.75-2.44,17.23-4a15.12,15.12,0,0,0,5.85-2c1.48-.89,2.94-2.16,4.57-1.76a3.15,3.15,0,0,1,1.26.67c-.13,1.48-.31,3.63-.5,6.23-.15,2.12-.26,3.79-.28,4.31-.5,11.31-.27,17.34-.27,17.34.18,4.62.46,6.35-.69,7.1-1.44.93-3.18-1-8.53-1.34a19.21,19.21,0,0,0-4.69.19,14.12,14.12,0,0,0-4.89,1.63c-1.86,1.06-2.9,2.34-4.7,4.6-2.89,3.62-2.44,4.37-3.93,5.08s-3.43.41-7.28-.2a13,13,0,0,1-3.35-.67c-2.47-1.74-.18-6.06-.77-15.58-.25-3.92-.68-4-.6-6.86.09-3.26.69-5.23-.55-6.5-1-1-1.83-.42-3.26-1.34C312.65,629.8,312.15,625.36,313.38,624.51Z" transform="translate(-147.39 -110.38)" fill="#fff" stroke="#1d1d1b" stroke-miterlimit="10" stroke-width="0.5"/>
    <path d="M325.13,625.31c-6.38.41-10.83-1.26-10.92-.91s3.7,1.76,8.12,2.62a44.31,44.31,0,0,0,11.31.76,55.72,55.72,0,0,0,10.18-1.7c5-1.36,7.15-2.78,8.49-1.7,1,.84.73,2.48.37,5.66-1.3,11.78,0,14-2.45,16.41-2.8,2.8-6.46,1.79-6.57,3.09-.17,1.94,7.92,5.4,12.66,3a4.66,4.66,0,0,0,2-1.78c.88-1.54.26-3-.11-5.54-.11-.77-.08-3.11,0-7.8,0-2.71.11-4.89.16-6.24.13-3.29.3-6,.41-7.61.27-3.69,1.44-5.23.5-6.23a3.35,3.35,0,0,0-3-.52c-1.53.38-1.77,1.5-3.59,2.31a8.11,8.11,0,0,1-2.64.56c-.83.1-3,.63-7.35,1.7s-4.48,1.27-7.73,2.07A54.51,54.51,0,0,1,325.13,625.31Z" transform="translate(-147.39 -110.38)" fill="#5896d0" opacity="0.2"/>
  </g>
  <g id="L-shoe">
    <path d="M249.06,648.86c1-1.22,2.77-1.33,4.94-1.47,1.86-.12,2.09.25,6.31.52,1.82.12,2,.07,3.37.21a25.74,25.74,0,0,1,4.62.85c1.87.55,2.81.82,3.37,1.47s.62,1.15,1.05,5c.32,3,.33,3.32.73,3.78,1,1.12,2.78,1,5.05,1,2.67-.11,3.57-.71,6.1-.42,1.71.19,2.24.58,2.55.89.68.72.4,1.33,1,3.31a34.08,34.08,0,0,0,1.36,3.26,25.81,25.81,0,0,0,1.27,2.63c.49.86,1.7,2.94,2.52,2.74.45-.12.36-.84,1.05-1.16a2.16,2.16,0,0,1,1.58.1,5,5,0,0,1,2,1.37,4.62,4.62,0,0,1,1.26,1.89,4.12,4.12,0,0,1,0,2.32,6.14,6.14,0,0,1-2.63,3.26c-8.6,5.74-11.25,6.94-11.25,6.94-7.82,3.54-6,3.9-12.73,6.83-3,1.3-3.15,1.15-16.19,5.37-8.34,2.69-9,3-11.36,3.47-5.9,1.21-10.35,2.06-15.14.21-1.24-.49-7.55-3.22-8.31-8.1-1-6.27,7.56-14.13,22.72-28.08a12.87,12.87,0,0,0,3.76-5.43,18.07,18.07,0,0,0,.68-5.73C248.84,651.27,248,650.11,249.06,648.86Z" transform="translate(-147.39 -110.38)" fill="#fff" stroke="#1d1d1b" stroke-miterlimit="10" stroke-width="0.5"/>
    <g id="shadow-5" data-name="shadow">
      <path d="M249.06,648.86a2.91,2.91,0,0,1,1.35-.78c.28-.11.4-.13.9-.31l.3-.1c.22-.07.41-.1.53-.13.94-.27,1.55-.24,4.57,0,3.6.31,4.7.42,4.7.42a54.47,54.47,0,0,1,6.38.85c2.73.56,3.42,1,3.88,1.61a6.57,6.57,0,0,1,.82,3,34,34,0,0,0,.45,4.06,4.66,4.66,0,0,0,.78,2c1.22,1.41,3.52,1.21,4,1.16a20.17,20.17,0,0,0,2.36-.61,15.17,15.17,0,0,1,4.47-.28c1.56.13,2,.42,2.25.64a3.64,3.64,0,0,1,.9,1.8c.8,2.45,1,3.07,1.24,3.77a16.37,16.37,0,0,0,1.3,2.9,8.5,8.5,0,0,0,2.22,2.93c.43.32.73.43.82.79.13.55-.42,1-1.39,2.24-.78,1-.72,1-1.24,1.66a16.36,16.36,0,0,1-1.39,1.46,38.47,38.47,0,0,1-4.74,3.81,67.13,67.13,0,0,1-5.93,3.59c-2.56,1.4-4.56,2.35-5.77,2.92-.82.39-2.89,1.36-5.69,2.5-4.15,1.7-7.79,2.93-10.7,3.84-6.34,2-15.15,4.29-15.32,3.77s12-4.26,25.94-13.36c6.42-4.2,7-5.54,6.87-5.86-.32-.55-3.37,1.48-7.78,1.22-1-.06-6.44-.5-8.48-4-1-1.8.07-2.17-.81-7.38a54.78,54.78,0,0,0-1.92-6.86,9,9,0,0,0-1.82-3.74c-1-1.12-1.46-.86-2.52-2a8.63,8.63,0,0,1-2-4.52,4.21,4.21,0,0,1,.13-2.52A2.26,2.26,0,0,1,249.06,648.86Z" transform="translate(-147.39 -110.38)" fill="#5896d0" opacity="0.2"/>
    </g>
    <path d="M221.63,693.06c1.24-1.17,5.52,2.64,10,4.49,5.83,2.44,11.9.74,24-2.65,0,0,14.87-4.15,27.57-12.2,6.59-4.16,8.68-7.58,9-8.27a7.64,7.64,0,0,1,1.15-1.8,7.44,7.44,0,0,1,1.36-1.25,2,2,0,0,1,1.12.15,4,4,0,0,1,1.18.56,4.64,4.64,0,0,1,.4.31,7.13,7.13,0,0,1,1,1,4.21,4.21,0,0,1,.95,1.85,3.67,3.67,0,0,1,0,1.46,5.34,5.34,0,0,1-1.63,2.87,11.38,11.38,0,0,1-3.27,2.29c-4.07,2.06-3.43,2.57-8.18,5-2.2,1.15-2.33,1-4.51,2.22a57,57,0,0,0-4.92,3c-1,.64-2.81,1.75-13.55,5.25-4.5,1.46-3,.87-11.85,3.64-5.4,1.68-7.65,2.42-11.3,2.94-3.93.56-6.38.43-8.72-.23a17.2,17.2,0,0,1-4.75-2.16,11.27,11.27,0,0,1-4.38-4.43C222.05,696.68,220.74,693.91,221.63,693.06Z" transform="translate(-147.39 -110.38)" fill="#1d1d1b"/>
  </g>
  <g id="R-Shoe">
    <path d="M319.05,659.3c-1.45,1-.83,2.37-2.89,8.67-1.27,3.89-2,4.78-2.72,5.44-2.06,1.89-4,1.16-4.53,2.42s.69,2.71,5.74,7.55c3.27,3.13,4.91,4.7,7,6.34,4.93,4,7.9,6.35,11.79,8.16,4.09,1.91,7.48,2.17,14.16,2.86a71.58,71.58,0,0,0,14.24.16c7.26-.68,10.89-1,12.09-3,2.85-4.76-5.25-15.81-10.28-22.66-3.52-4.81-8.26-10.45-6.65-13.29.9-1.59,3.27-1.51,3.93-3.63a4.91,4.91,0,0,0-.6-3.63c-2.31-4.42-10.15-7-16.62-5.13-.73.2-3.5,2.07-9.06,5.74-4.69,3.09-5.73,3.91-7.86,4.23C322.66,660.13,321,658,319.05,659.3Z" transform="translate(-147.39 -110.38)" fill="#fff" stroke="#1d1d1b" stroke-miterlimit="10" stroke-width="0.5"/>
    <g id="sole">
      <path d="M313.44,673.41c-.65,0-.79.59-2.58,1.37-1.17.52-1.72.55-1.95,1.05-.32.69.28,1.63.61,2.1,4.42,6.27,17.22,15.84,17.22,15.84a32,32,0,0,0,5.81,3.71,30.36,30.36,0,0,0,7.49,2.38,79.47,79.47,0,0,0,24.64.77c2.77-.39,4.56-1,6.2-1.12a3.86,3.86,0,0,0,1.5-.35,3.8,3.8,0,0,0,1.32-1,4,4,0,0,0,.69-1.69c.19-.83.39-1.73,0-2.07s-1.28.06-1.87.31c-1.67.72-3.55.79-5.27,1.35-2.86.92-9.53,1.18-15.1.72-7.15-.59-14.3-1.2-21.51-5.79-5.1-3.24-11.23-7.13-13.65-13.13C316.75,677.24,315.21,673.32,313.44,673.41Z" transform="translate(-147.39 -110.38)" fill="#1d1d1b"/>
    </g>
    <g id="shodow">
      <path d="M337.81,653.16c.08.17.67-.1,3.17-.55,0,0,1.56-.28,3.43-.51,4-.49,6-.77,7,.19,1.43,1.37.87,4.11.73,4.79-.86,4.2-4.34,4.74-4.6,8.28-.09,1.27.37,2.44,1.29,4.79,1,2.59,1.67,2.93,2.58,5.16s1.66,4.1,1.29,6.27c-.31,1.75-2.05,3.5-5.53,7-2.38,2.39-3.57,3.59-5.34,4.61-1.47.85-2.55,1.19-2.5,1.65.08.75,2.95,1,6.34,1.28,8.4.68,10.94.87,12,.87a43.47,43.47,0,0,0,5.33-.22c4.21-.49,4.34-1.28,8.44-1.69,1.83-.19,2.53-.11,2.95-.69s.23-1.81-2.3-6.29-4.63-7.5-5-8.05c-1.4-2-2.67-3.74-3.47-4.82-1.32-1.78-2.62-3.49-4.36-6s-3-4.44-2.59-6.25a3.24,3.24,0,0,1,.71-1.58c.6-.7,1.18-.69,2-1.3a4.72,4.72,0,0,0,1.51-1.8c.94-2.24-1.73-5.19-2-5.53a11.39,11.39,0,0,0-4.86-2.85c-2.47-.93-4.7-1.76-7.58-1.46C341.31,649,337.57,652.68,337.81,653.16Z" transform="translate(-147.39 -110.38)" fill="#5896d0" opacity="0.2"/>
    </g>
  </g>
  <g id="L-palm">
    <path d="M207.86,478.22a16.56,16.56,0,0,0-1.09-6.17c-3.31-8.5-11.26-6.69-19.74-16.33-1.45-1.66-3.88-4.74-6.47-4.32a3.44,3.44,0,0,0-2.4,1.68c-.92,1.69.19,3.83,1,5.27,1.92,3.59,4.66,5.2,4.52,5.4s-5.32-2.28-11.32-7.15c-3.29-2.66-7.2-4.5-10.08-7.69-.71-.78-1.91-2.2-3.45-2s-3.33,2.39-3.52,4.45,1.27,3.74,2.91,5.5c1.28,1.37,1.6,1.21,4.09,3.4,2,1.78,1.78,1.85,3.36,3.18,2.22,1.86,2.87,1.85,5.08,3.7,1.44,1.2,3.22,2.93,3.1,3.1-.36.52-19.35-13.65-20.54-15.1a.74.74,0,0,0-.19-.15c-1-.53-3.75,1.51-4.19,3.29-.8,3.25,5.45,7.73,14.73,14.37,1.42,1,3.82,2.7,3.69,3s-1.86-.54-3.35-1.32a47.9,47.9,0,0,1-9.64-7.05c-2.19-2-3-3.09-4.17-2.8a4,4,0,0,0-2.5,3.81c.1,1.2,1,1.62,3.83,3.91,2.33,1.9,1.8,1.7,3.38,2.94a49.71,49.71,0,0,0,7.89,4.84c3.15,1.68,4.7,2.3,4.64,2.46s-3.76-.94-6.66-2.08a23,23,0,0,1-4-1.81,30.53,30.53,0,0,0-3.85-2.41c-1.16-.58-1.66-.71-2.09-.46-.94.55-1,2.63-.92,3.23.23,3.2,5.43,4.66,16.19,8,3.76,1.18,14.46,4.54,21.93,4.25a13.71,13.71,0,0,0,5.22-1.17,17.37,17.37,0,0,0,5.26-3.92A77.3,77.3,0,0,1,207.86,478.22Z" transform="translate(-147.39 -110.38)" fill="#fff" stroke="#1d1d1b" stroke-miterlimit="10" stroke-width="0.5"/>
    <g id="Shdow">
      <path d="M149.82,478.6a.82.82,0,0,1,.57-.32c1-.19,1.93.73,2.53,1.2,1.05.84,1.86.39,4.47,1.56s8.31,3.72,13.82,4.28c.46.05,2.84-.1,7.59-.39,10.14-.62,11.93-.89,12.84-2.33.7-1.12,0-1.51,0-7a63.93,63.93,0,0,1,.39-6.42c.39-3.5.8-7.16,2.15-7.42.39-.07.43.21,2,1.19,1.09.66,2.16,1.19,3.61,1.91s1.78.82,2,1.21c.64.94.34,2.21,0,3.41A39.17,39.17,0,0,1,199,476c-1.51,3.19-1,3.22-2.57,6.56a18.14,18.14,0,0,1-3.15,5.16,12.45,12.45,0,0,1-5.36,3.51c-1.72.52-3.15.43-8.83-.83s-9.73-2.4-10.29-2.56c-6.69-1.87-5.47-1.92-9.64-3A44.54,44.54,0,0,1,154.1,483a8,8,0,0,1-2.92-1.76C150.52,480.56,149.44,479.23,149.82,478.6Z" transform="translate(-147.39 -110.38)" fill="#5896d0" opacity="0.2"/>
      <path d="M145.54,478.15" transform="translate(-147.39 -110.38)" fill="#5896d0" opacity="0.2"/>
      <path d="M149.81,464.61c-.16.22.11.64.34,1.08a16.66,16.66,0,0,1,1.08,2.9c1,2.37,5.38,5.14,6.29,5.71,3.83,2.39,7.11,4.48,8.85,3.31.49-.33,1.07-1.06.91-1.55s-.73-.46-1.74-.87a22,22,0,0,1-2.07-1.13c-2.87-1.63-4.3-2.44-4.44-2.54a22.2,22.2,0,0,1-3.94-3.39c-.48-.53-1-1-1.47-1.56-1-1.08-1.41-1.54-2.16-1.84C150.91,464.49,150,464.29,149.81,464.61Z" transform="translate(-147.39 -110.38)" fill="#5896d0" opacity="0.2"/>
      <path d="M150.42,456.09c.06-.17.31-.32.8-.61a2.56,2.56,0,0,1,1.42-.54,1.92,1.92,0,0,1,1.15.73c.69.69,1.56,1.18,2.26,1.85.45.43.8.71,5.41,4.15,5.28,3.95,7.94,5.93,8.74,6.38,2,1.07,3.74,1.81,3.61,2.22s-2.3.12-2.62.08a14.88,14.88,0,0,1-4.89-1.62,51.3,51.3,0,0,1-7-4.66c-5-3.85-3.45-3.45-6.41-5.44C152.16,458.11,150.17,456.82,150.42,456.09Z" transform="translate(-147.39 -110.38)" fill="#5896d0" opacity="0.2"/>
    </g>
  </g>
  <g id="R-Palm">
    <path d="M402.7,465.75a16.39,16.39,0,0,1,1.08-6.17c3.31-8.49,11.27-6.68,19.74-16.33,1.45-1.66,3.88-4.74,6.47-4.32a3.44,3.44,0,0,1,2.4,1.68c.92,1.7-.19,3.83-1,5.27-1.92,3.59-4.66,5.21-4.52,5.4s5.32-2.28,11.32-7.15c3.29-2.66,7.2-4.49,10.08-7.68.71-.79,1.91-2.21,3.45-2s3.33,2.39,3.52,4.45-1.27,3.74-2.91,5.5c-1.28,1.37-1.6,1.21-4.09,3.4-2,1.78-1.78,1.85-3.36,3.18-2.22,1.86-2.87,1.85-5.08,3.7-1.44,1.21-3.22,2.93-3.1,3.1.36.53,19.35-13.65,20.54-15.1a.74.74,0,0,1,.19-.15c1-.53,3.75,1.51,4.19,3.29.8,3.25-5.45,7.73-14.73,14.37-1.42,1-3.82,2.7-3.68,3s1.85-.54,3.34-1.32a47.59,47.59,0,0,0,9.64-7.05c2.19-2.05,3-3.09,4.17-2.79a4,4,0,0,1,2.5,3.8c-.1,1.2-1,1.63-3.82,3.91-2.34,1.91-1.81,1.7-3.39,2.94a50.49,50.49,0,0,1-7.89,4.85c-3.15,1.67-4.7,2.29-4.64,2.45s3.77-.94,6.66-2.08a22.23,22.23,0,0,0,4-1.81,29.6,29.6,0,0,1,3.85-2.4c1.16-.59,1.66-.72,2.09-.47.94.55,1,2.64.92,3.23-.23,3.2-5.43,4.66-16.19,8-3.76,1.18-14.46,4.54-21.93,4.25a13.53,13.53,0,0,1-5.22-1.17,17.31,17.31,0,0,1-5.25-3.92A78.9,78.9,0,0,0,402.7,465.75Z" transform="translate(-147.39 -110.38)" fill="#fff" stroke="#1d1d1b" stroke-miterlimit="10" stroke-width="0.5"/>
    <path id="Shdown" d="M465,465.68" transform="translate(-147.39 -110.38)" fill="#5896d0" opacity="0.2"/>
    <path d="M424.61,442c.08.12.36.06.46.05,1.1-.18,3.55.6,3.88,1.57.41,1.22-2.76,2.25-4.13,5.93-.36,1-.8,2.63-.26,3s2.27-1.19,3.27-2.15a16.58,16.58,0,0,0,4.07-5.77c.64-1.64,1.09-2.86.49-4a3.43,3.43,0,0,0-2.4-1.68,3.74,3.74,0,0,0-2,.24,8.73,8.73,0,0,0-1.75,1,6.26,6.26,0,0,0-.75.57C425.1,441.1,424.46,441.78,424.61,442Z" transform="translate(-147.39 -110.38)" fill="#5896d0" opacity="0.2"/>
    <path d="M445.4,439.07c.1.17,1.14-.5,3-1,2.13-.53,3-.22,3.19-.12a2.63,2.63,0,0,1,1.45,1.34c.4,1.12-.57,2.47-1.45,3.47-4.28,4.88-10,5.62-14.2,10.9-1.65,2.07-3,4.74-2.61,5s1.82-1.05,2.32-1.48c1.21-1.05,1.34-1.47,2.29-2.4,1.54-1.52,2.12-1.34,4.58-3.29.19-.15,0,0,2.21-1.94,2.46-2.15,3.71-3.24,4.49-3.86,1.07-.87,1.29-1,1.88-1.55a8.35,8.35,0,0,0,2.21-2.85,5.45,5.45,0,0,0,.43-2.93c-.24-1.56-1.34-3.61-3.1-3.88a4.16,4.16,0,0,0-2.78.85A12.49,12.49,0,0,0,447.6,437C446.16,438.38,445.31,438.93,445.4,439.07Z" transform="translate(-147.39 -110.38)" fill="#5896d0" opacity="0.2"/>
    <path d="M451.83,447c.08.14,1.13-.5,3-1,2.13-.53,2.95-.22,3.19-.12a2.6,2.6,0,0,1,1.45,1.33c.39,1.13-.57,2.47-1.45,3.48-4,4.53-9.82,7.18-14.2,10.9-.38.31-1.48,1.25-1.39,1.39s2.4-1.21,2.65-1.36a44.13,44.13,0,0,0,3.69-2.59c1.72-1.3-.43.36,5.4-4a50.58,50.58,0,0,0,4-3.24,16.63,16.63,0,0,0,2.41-2.81,4.8,4.8,0,0,0,1-2.64,3.86,3.86,0,0,0,0-.54,4,4,0,0,0-3.07-3.34,2,2,0,0,0-.77,0c-.71.16-1.06.7-1.53,1.2a15.54,15.54,0,0,1-2,1.36C453.31,445.72,451.73,446.83,451.83,447Z" transform="translate(-147.39 -110.38)" fill="#5896d0" opacity="0.2"/>
    <path d="M452.18,458.24a10.12,10.12,0,0,0,2.55-1.21c1.87-1.13,3.68-2.66,4.9-2.35l.08,0c.25.07,1.36.37,1.7,1,.44.81-1.56,2.54-1.7,2.66a37.87,37.87,0,0,1-8.68,5.27c-4.18,2.13-8.25,4.88-8,5.37.1.21,1,0,1.6-.17a13.15,13.15,0,0,0,4-2c1.93-1.2,1.46-.74,3.67-2.09,5.35-3.28,4.79-3.94,7.88-5.65a5.6,5.6,0,0,0,2.23-2,3.54,3.54,0,0,0,.59-1.92,3.28,3.28,0,0,0-2.68-3.14,2.94,2.94,0,0,0-1.71.6,8.32,8.32,0,0,0-1.89,1.78c-.66.71-1.18,1.26-1.74,1.77A21.77,21.77,0,0,1,452.18,458.24Z" transform="translate(-147.39 -110.38)" fill="#5896d0" opacity="0.2"/>
    <path d="M440.15,462.58" transform="translate(-147.39 -110.38)" fill="#5896d0"/>
    <path d="M450.42,467.71a10.44,10.44,0,0,0,2.73-.74c2-.78,4.09-2,5.25-1.45l.07,0c.23.11,1.26.61,1.49,1.31.29.87-2,2.23-2.14,2.32a31.57,31.57,0,0,1-9.81,3.39c-2.12.46-9.42,2-9.34,2.7,0,.27,1.38.36,2.33.31a11.67,11.67,0,0,0,4.6-1.39,41.21,41.21,0,0,1,6.52-2.1,29.43,29.43,0,0,0,6-2.07,5.26,5.26,0,0,0,2-1.73,4.33,4.33,0,0,0,.68-1.74c.18-1.24-.18-3.07-1.29-3.48a2.57,2.57,0,0,0-1.79.29,8.71,8.71,0,0,0-2.17,1.41c-.77.58-1.38,1-2,1.44A21.62,21.62,0,0,1,450.42,467.71Z" transform="translate(-147.39 -110.38)" fill="#5896d0" opacity="0.2"/>
  </g>
  <g id="R-wrist">
    <path d="M365.81,470.45a3.18,3.18,0,0,1,.23-.4,11.47,11.47,0,0,1,6-4.12c3.59-1.1,15.85-6.46,22.44-14.78,2.9-3.65,4.31-7.38,7-7.27a5.14,5.14,0,0,1,3.92,2.74,6.19,6.19,0,0,1,.52,3.8c-.32,2.39-1.52,2.9-1.72,4.57s.71,2.62,2.83,5.47c3,4,5,6.75,6.86,9.52,2,3,2.58,4.31,4.46,5.41a30.54,30.54,0,0,1,3.57,1.88c1.6,1.1,3.07,2.12,3.27,3.76a4.84,4.84,0,0,1-1.19,3.36,6.28,6.28,0,0,1-1.88,1.64c-3.46,2-9.93,2.43-9.93,2.43-6.49.43-8.25,4.71-20,10.81a23.74,23.74,0,0,1-8.61,2.34h-.83a12.53,12.53,0,0,1-6.21-1.44c-3.78-2.23-3.26-5.88-6.6-15.18C366.8,476.18,364.27,473.71,365.81,470.45Z" transform="translate(-147.39 -110.38)" fill="#fff" stroke="#1d1d1b" stroke-miterlimit="10" stroke-width="0.5"/>
    <g id="Layer_29" data-name="Layer 29">
      <path d="M390.76,455.12c.19.41,1.51-.11,4.38-.26,2.71-.14,4.41-.21,5.45.84.62.62.44,1.06,1.12,3.22a31.35,31.35,0,0,0,1.82,4.33c.83,1.76,1.52,2.95,2.9,5.33a32.9,32.9,0,0,0,2.84,4.47c1,1.21,1.47,1.42,2.52,2.79s1.85,2.44,1.95,3.5c.21,2.07-1.9,3.87-3.35,5a93.29,93.29,0,0,1-12.32,8.39c-7,4-9.37,5.35-12.31,6.16a23.77,23.77,0,0,1-6.37,1.13c-1.48,0-2.78-.11-2.82.11s1.95.91,3.39,1.2c1.6.33,4.72.68,9.64-1a45.48,45.48,0,0,0,12.94-7.45,19.1,19.1,0,0,1,4.77-3.1c.79-.34,1.68-.65,6.41-1.5s6.33-1,8.45-2.28a6.2,6.2,0,0,0,2.37-2.35,4.65,4.65,0,0,0,.61-3.09c-.31-1.44-1.51-2.24-3.72-3.68-2.58-1.68-3.18-1.39-4.43-2.71-.86-.92-.76-1.25-2.17-3.33a39.78,39.78,0,0,0-2.53-3.29c-2.56-3.1-4.67-6.55-7.13-9.74a3.89,3.89,0,0,1-.89-2c-.09-.89.25-1.42.79-2.86a12.6,12.6,0,0,0,1-3.25,5.88,5.88,0,0,0-1.35-4.17,4.18,4.18,0,0,0-2.72-1.61,3.76,3.76,0,0,0-2.1.42c-1.05.57-1.3,1.42-2.38,3.13,0,0-.55.88-1.87,2.6C393.05,453.44,390.49,454.55,390.76,455.12Z" transform="translate(-147.39 -110.38)" fill="#5896d0" opacity="0.2"/>
    </g>
  </g>
  <g id="L-Wrist">
    <path d="M244.06,470.51a3.52,3.52,0,0,0-.31-.35,11.48,11.48,0,0,0-6.82-2.65c-3.75-.26-16.89-2.73-25.19-9.36-3.65-2.91-5.86-6.22-8.46-5.51a5.15,5.15,0,0,0-3.2,3.55,6.16,6.16,0,0,0,.35,3.82c.85,2.25,2.13,2.49,2.7,4.07s-.1,2.71-1.53,6c-2,4.57-3.38,7.7-4.54,10.82-1.27,3.4-1.54,4.77-3.13,6.27a30.14,30.14,0,0,0-3.06,2.63c-1.31,1.43-2.51,2.75-2.34,4.4a4.85,4.85,0,0,0,1.92,3,6.23,6.23,0,0,0,2.2,1.17c3.81,1.18,10.22.13,10.22.13,6.42-1,9.09,2.75,21.94,6a23.6,23.6,0,0,0,8.91.35c.31-.06.58-.13.81-.19a12.64,12.64,0,0,0,5.73-2.8c3.18-3,1.85-6.46,3-16.28C244.39,476.31,246.29,473.34,244.06,470.51Z" transform="translate(-147.39 -110.38)" fill="#fff" stroke="#1d1d1b" stroke-miterlimit="10" stroke-width="0.5"/>
    <g id="shdow-2" data-name="shdow">
      <path d="M193.31,487.67c-.54.14-1.18.79-2.44,2.1s-1.84,1.9-2.1,2.84a4.57,4.57,0,0,0,.18,2.84c1.78,3.77,11.34,3.44,13.92,3a12.29,12.29,0,0,1,5.58.35,72.08,72.08,0,0,1,7.57,2.89,49.4,49.4,0,0,0,8.79,2.8,23.91,23.91,0,0,0,6.09.64,14.37,14.37,0,0,0,6.33-1.35,12.15,12.15,0,0,0,4.24-3.46c1.45-1.92,2.31-4.34,1.87-4.64s-1.13.82-3.32,2.34a34,34,0,0,1-3.33,2c-3.07,1.58-7.47.34-12.68-1.24-10.36-3.12-8.81-3-12.55-3.93-8.12-2-9.86-1.25-12.81-3.7C196.7,489.54,195.09,487.22,193.31,487.67Z" transform="translate(-147.39 -110.38)" fill="#5896d0" opacity="0.2"/>
    </g>
  </g>
  <g id="L-Shoulder">
    <path d="M265.73,451.59c-2.9.12-4.71,1.35-9,4.06-6.64,4.18-10,6.26-11.2,6.78-6.59,2.78-10.14,1.56-12,4.73-.88,1.45-1,3-.68,5.87a64.6,64.6,0,0,0,2.71,11.73c1.94,6.57,2.37,8.86,4.28,13.54,2.07,5.05,2.89,5.61,3.39,5.87,2.68,1.4,5.93-.6,14.66-5.42,8.09-4.47,10.61-3.94,12.64-7,1.78-2.69,1.63-5.07,1.81-9.93.67-18.74,4.36-24.95.22-28.43C270.14,451.41,266.7,451.55,265.73,451.59Z" transform="translate(-147.39 -110.38)" fill="#fff" stroke="#1d1d1b" stroke-miterlimit="10" stroke-width="0.5"/>
    <g id="shadow-6" data-name="shadow">
      <path d="M265.73,451.59c-.49.78,1.57,2.1,2.57,5.16.77,2.35.24,3.64,0,7-.52,7.45,1.6,8.6.45,14.66A22.89,22.89,0,0,1,267,484a25.55,25.55,0,0,1-5,6.77,42.82,42.82,0,0,1-7.9,6.09,113.73,113.73,0,0,1-11.69,6.6,4.16,4.16,0,0,0,1.65,1c1.21.37,2.4.08,4.58-.87a33.57,33.57,0,0,0,4.09-2.05c3.7-2.54,3.62-1.54,12-6.15a58.92,58.92,0,0,0,5.15-2.95c4.75-4.24,2.28-9.72,3.82-27,.53-5.92,1.2-9.57-1.24-12.06C270.29,451.13,266.33,450.65,265.73,451.59Z" transform="translate(-147.39 -110.38)" fill="#5896d0" opacity="0.2"/>
    </g>
  </g>
  <g id="R-Shoulder">
    <path d="M340.45,456.89c2.85-.53,4.89.26,9.7,1.93,7.41,2.57,11.12,3.86,12.44,4.09,7,1.22,10.23-.76,12.8,1.9,1.17,1.22,1.66,2.66,2,5.57a65.2,65.2,0,0,1,0,12c-.41,6.83-.32,9.16-1.13,14.15-.88,5.39-1.56,6.12-2,6.48-2.3,2-5.92.76-15.51-2-8.89-2.53-11.22-1.45-13.89-4-2.33-2.21-2.72-4.57-4-9.26-4.86-18.11-9.85-23.33-6.6-27.66C336.11,457.71,339.49,457.07,340.45,456.89Z" transform="translate(-147.39 -110.38)" fill="#fff" stroke="#1d1d1b" stroke-miterlimit="10" stroke-width="0.5"/>
    <path d="M346.27,458.37c-.09.28,2.69,1.39,4.29,2,3.67,1.45,4.59,1.53,8.48,2.91,6.75,2.4,5.5,2.7,8.36,3.29a6.34,6.34,0,0,1,3.54,1.52,6,6,0,0,1,1.52,3.67c.56,4.88-.12,8.93-.5,14.31a74.15,74.15,0,0,1-.89,8.35c-.51,3-.9,4-1.65,4.94-2,2.55-5.18,2.56-5.09,3.28.13,1.09,7.48,1.33,7.48,1.33a6.64,6.64,0,0,0,2.44-.94,3.76,3.76,0,0,0,1.17-2.49C377,490.07,377,489.91,377,489.88c.19-8.44.52-12.65.69-13.92a19.06,19.06,0,0,0,0-5.58c-.28-1.95-.66-4.26-2.45-5.71-.45-.37-1.22-.86-4-1.34a57.5,57.5,0,0,0-6.7-.53c-3.58-.37-3.73-1.13-10.51-2.92C351.25,459.17,346.38,458,346.27,458.37Z" transform="translate(-147.39 -110.38)" fill="#5896d0" opacity="0.2"/>
  </g>
  <g id="body">
    <path id="chest" d="M271.63,450.87c-1.5,1.39-.13,3.59-.25,8.72-.07,3.15-.13,1.56-.78,15.74-.47,10.34-.31,11.56-1.21,14.89-.49,1.79-1.16,3.69-2.49,7.47-2.39,6.76-2.49,5.64-3.24,8.72-2,8-3,13.95-3,13.95-3.17,12.68-2.52,12.83-2.24,13.7,1.87,5.82,11.12,8.54,20.18,12.7,9.53,4.39,16.39,9.06,24.92,10.27a17.46,17.46,0,0,0,2,.2c2.33-.05,6.6-1.11,15.19-4.49,2.76-1.08,7.4-3.13,16.69-7.22,0,0,2.95-1.3,11-5.73,3.57-2,5.89-3.36,6.72-6,.55-1.74.23-3.26-.25-5.23a111.79,111.79,0,0,0-3.48-12.45,112.74,112.74,0,0,1-4-14.7,81.41,81.41,0,0,1-1.24-12.95c-.56-13.34,0-25.66,0-25.66.24-5.38.55-9-1.75-10.71s-5.5-.48-7.27.07c-7,2.18-14.79,2.2-30.34,2.26-10.92,0-16.37.06-22.91-1.83C278.41,451,273.85,448.81,271.63,450.87Z" transform="translate(-147.39 -110.38)" fill="#fff" stroke="#1d1d1b" stroke-miterlimit="10" stroke-width="0.5"/>
    <g id="Shest-shadow">
      <path d="M271.63,450.87c-.19.53.47,1.35,1.83,2.43,11.36,9,23.07,8.66,23.07,8.66,4.66-.14,3.69-1.06,12.1-2.33,10.26-1.55,18.91-1.27,19-.63,0,.39-5.3.65-12,3.5-5.34,2.26-10.29,4.17-10.77,7.5-.43,3,3.23,4.18,9.49,12.15a52,52,0,0,1,7,10.88c2.41,5.2,1.35,5.58,4.18,12.4,2.41,5.82,3.82,7.1,4.05,10.63.1,1.68.39,5.91-2.28,9.11-4.43,5.29-13.52,3.58-15.06,3.29a35.74,35.74,0,0,1-6.2-1.9c-6.78-2.54-8.57-4.74-10.36-3.91-2.75,1.29.42,7-2.62,10.34-4.92,5.45-25.58,4.12-26.25,4.65a5.47,5.47,0,0,1-.52.41c-.29.22-.37.24-.39.32-.08.35,1.2.9,1.2.9,1.64.71,2.13,1.66,5.74,4,1.9,1.22,2.73,1.58,7.36,4,5.54,2.9,5.07,2.76,7.38,3.92,7.75,3.89,11.63,5.84,16.6,6a26.82,26.82,0,0,0,7.89-1.24c4.89-1.25,7.06-2.73,14.08-5.75,6.24-2.68,5-1.72,8.81-3.5,8.9-4.18,15.68-9.49,17.88-10.49a4.71,4.71,0,0,0,1.19-.77,4.64,4.64,0,0,0,1.11-1.55,4.75,4.75,0,0,0,.26-2.6c-1.73-10.85-4-15.08-4-15.08C346.13,506.37,346,493,346,485c-.1-15.18-.15-22.78.22-24.29.25-1,1.18-4.54-.65-7.08a6,6,0,0,0-3.48-2.28,7.23,7.23,0,0,0-3.56.31,57.24,57.24,0,0,0-6.07,1.69c-2.46,1-4.44.91-12.63,1-10.23.09-10,.19-19.41.17-7.35,0-9.34-.09-12.11-.87-6.12-1.72-7-2-7-2a20.89,20.89,0,0,0-5.22-1.29C275.17,450.19,272,449.88,271.63,450.87Z" transform="translate(-147.39 -110.38)" fill="#5896d0" opacity="0.2"/>
      <path d="M330.27,487.08" transform="translate(-147.39 -110.38)" stroke="#1d1d1b" stroke-miterlimit="10" stroke-width="0.5"/>
      <path d="M314,470.82" transform="translate(-147.39 -110.38)" stroke="#1d1d1b" stroke-miterlimit="10" stroke-width="0.5"/>
    </g>
    <g id="bag">
      <path d="M305.61,461.76H310a21.87,21.87,0,0,1,21.69,19L335,506a25.73,25.73,0,0,1-4.25,16.09c-6.86,10-18.73,10.69-21.33,10.84s-14.93.62-23.1-8.57c-5.3-6-6-12.77-6.62-19.57-1.17-12,2.5-21.07,4.69-26.29s3.94-9.24,8.28-12.46A22.87,22.87,0,0,1,305.61,461.76Z" transform="translate(-147.39 -110.38)" stroke="#1d1d1b" stroke-miterlimit="10" stroke-width="0.5"/>
      <text transform="translate(146.07 395.79)" font-size="24" fill="#f6a220" font-family="Nasa">NG</text>
    </g>
    <path id="lower-body" d="M258.77,534.92c-4.79,1.67-5.66,13.33-3.91,21.58a34.11,34.11,0,0,0,7.06,14.42c3.44,4.2,6.55,6,24.16,14.7,17,8.39,18.55,8.92,21.42,9,4.81.08,10.83-3,22.67-9.22,18.37-9.62,21.6-13.63,23.41-16.44a33.32,33.32,0,0,0,5-13.95c.86-6.29.72-17.3-3.74-18.93-2.47-.9-4.17,1.86-11.56,6.5-4.92,3.09-10.44,5.31-21.49,9.76-12,4.82-14.53,5-16.26,4.92-4.23-.09-7.5-1.43-14-4.12a116.28,116.28,0,0,1-17.11-8.84C263.36,537.36,261.64,533.92,258.77,534.92Z" transform="translate(-147.39 -110.38)" fill="#fff" stroke="#1d1d1b" stroke-miterlimit="10" stroke-width="0.5"/>
    <g id="Lowerbody-shadow">
      <path d="M266.17,538.8c-.72.53.51,3.29.65,3.59,1.73,3.83,4.87,5.8,7.54,7.54,8,5.24,5,4,10.87,7.54,6.55,3.95,10.64,6.38,16.68,8.41,5.2,1.76,7,1.58,8.17,3.55,1.45,2.52-.48,4.81-2.11,13.28-1,5.09-1.88,10,.21,11.39,1.16.77,2.82.16,3.82-.22a121.55,121.55,0,0,0,16.08-7.42c4.83-2.67,9.07-4.89,15.74-8.89a29.41,29.41,0,0,0,7.05-5.35,29,29,0,0,0,5-7.6,33.38,33.38,0,0,0,2.75-10.46,41.08,41.08,0,0,0,.13-9.47c-.47-5.57-1.54-6.89-2.45-7.57a4.83,4.83,0,0,0-3.57-1,5,5,0,0,0-2.87,2.2c-.59.86-1.61,1.93-12.76,7.11-9.71,4.51-8.52,3.49-16.24,7.1-7.17,3.35-10.08,5.11-14.79,4.79a30.9,30.9,0,0,1-5.94-1.31A75.36,75.36,0,0,1,288,551.38a102.75,102.75,0,0,1-9.72-4.93c-3.1-1.79-5.68-3.51-7.68-4.93C269.17,540.22,266.88,538.28,266.17,538.8Z" transform="translate(-147.39 -110.38)" opacity="0.2" fill="url(#linear-gradient)"/>
    </g>
  </g>
</svg>
