<svg width="977" height="324" viewBox="0 0 977 324" fill="none" xmlns="http://www.w3.org/2000/svg">
<path d="M75.8 53H99.8L122.8 193H96.2L90.8 159.2H47.2L30 193H3.4L75.8 53ZM86.4 134.4L80.6 93.4L60.4 134.4H86.4ZM170.536 195C157.069 195 147.069 191.133 140.536 183.4C134.136 175.533 130.936 165.333 130.936 152.8C130.936 142 133.203 131.933 137.736 122.6C142.403 113.267 149.136 105.733 157.936 100C166.736 94.2667 177.203 91.4 189.336 91.4C200.136 91.4 208.803 93.8667 215.336 98.8L209.536 120C202.736 114.533 195.936 111.8 189.136 111.8C182.603 111.8 176.869 113.533 171.936 117C167.136 120.333 163.403 124.933 160.736 130.8C158.069 136.667 156.736 143.133 156.736 150.2C156.736 157.8 158.469 163.8 161.936 168.2C165.403 172.467 170.803 174.6 178.136 174.6C185.336 174.6 193.069 171.867 201.336 166.4L199.736 187.6C192.003 192.533 182.269 195 170.536 195ZM249.841 195C239.174 195 231.107 192 225.641 186C220.307 179.867 217.641 171.467 217.641 160.8C217.641 157.333 218.107 152.933 219.041 147.6L228.441 93H253.241L244.241 145.8C243.307 150.867 242.841 154.733 242.841 157.4C242.841 163.133 244.041 167.4 246.441 170.2C248.974 172.867 252.707 174.2 257.641 174.2C264.841 174.2 271.107 171.4 276.441 165.8L289.441 93H314.241L296.641 193H273.241L274.241 185.6C270.241 188.667 266.307 191 262.441 192.6C258.707 194.2 254.507 195 249.841 195ZM333.844 93H354.244V100.8C357.31 98.1333 361.177 95.9333 365.844 94.2C370.51 92.3333 375.31 91.4 380.244 91.4C385.844 91.4 390.977 92.6667 395.644 95.2C400.444 97.7333 403.977 101.533 406.244 106.6C408.644 102.867 412.977 99.4 419.244 96.2C425.51 93 432.577 91.4 440.444 91.4C450.844 91.4 458.644 94.4 463.844 100.4C469.177 106.4 471.844 114.533 471.844 124.8C471.844 127.333 471.044 133.533 469.444 143.4C467.844 153.267 465.044 169.8 461.044 193H436.244C440.244 170.067 442.977 154 444.444 144.8C446.044 135.6 446.844 130.067 446.844 128.2C446.844 121.933 445.71 117.667 443.444 115.4C441.177 113 437.844 111.8 433.444 111.8C426.777 111.8 421.71 113.667 418.244 117.4C414.91 121.133 412.777 125.733 411.844 131.2L401.044 193H376.444L380.444 170C382.844 156.267 384.577 146.067 385.644 139.4C386.844 132.6 387.444 128.2 387.444 126.2C387.444 116.6 382.31 111.8 372.044 111.8C368.444 111.8 365.177 112.533 362.244 114C359.444 115.333 356.71 117.333 354.044 120L341.044 193H316.244L333.844 93ZM525.831 195C511.298 195 500.298 191 492.831 183C485.365 175 481.631 164.667 481.631 152C481.631 141.733 483.965 131.933 488.631 122.6C493.431 113.267 500.098 105.733 508.631 100C517.298 94.2667 527.098 91.4 538.031 91.4C548.431 91.4 556.431 94 562.031 99.2C567.765 104.4 570.631 111.467 570.631 120.4C570.631 131.733 566.098 140.067 557.031 145.4C548.098 150.6 536.698 153.2 522.831 153.2C516.165 153.2 511.098 152.8 507.631 152C508.031 159.733 510.431 165.467 514.831 169.2C519.231 172.8 524.498 174.6 530.631 174.6C541.298 174.6 551.765 171.867 562.031 166.4L559.231 187.4C549.765 192.467 538.631 195 525.831 195ZM518.831 137C530.031 137 537.965 135.533 542.631 132.6C547.431 129.667 549.831 126 549.831 121.6C549.831 117.733 548.431 115.133 545.631 113.8C542.965 112.467 540.098 111.8 537.031 111.8C530.098 111.8 524.165 114.4 519.231 119.6C514.431 124.8 511.231 130.333 509.631 136.2C511.765 136.733 514.831 137 518.831 137ZM590.688 93H612.488L613.488 99C617.354 96.6 621.221 94.7333 625.088 93.4C629.088 92.0667 633.554 91.4 638.488 91.4C648.488 91.4 656.021 94.4667 661.088 100.6C666.154 106.733 668.688 114.933 668.688 125.2C668.688 127.6 668.088 132.8 666.888 140.8C665.688 148.667 662.688 166.067 657.888 193H632.888C639.821 153.533 643.288 132.067 643.288 128.6C643.288 122.733 642.154 118.467 639.888 115.8C637.621 113.133 634.021 111.8 629.088 111.8C625.488 111.8 622.221 112.533 619.288 114C616.488 115.333 613.621 117.467 610.688 120.4L597.888 193H573.088L590.688 93ZM705.514 195C694.181 195 683.114 192.533 672.314 187.6L678.114 166.4C688.914 173.067 698.647 176.4 707.314 176.4C712.247 176.4 715.914 175.333 718.314 173.2C720.847 171.067 722.114 168.333 722.114 165C722.114 161.4 720.981 158.667 718.714 156.8C716.447 154.933 712.514 153.067 706.914 151.2C699.047 148.533 693.114 145.333 689.114 141.6C685.114 137.867 683.114 132.4 683.114 125.2C683.114 115.333 686.781 107.267 694.114 101C701.581 94.6 711.847 91.4 724.914 91.4C736.114 91.4 746.047 93.8667 754.714 98.8L749.314 118.8C740.381 112.4 731.314 109.2 722.114 109.2C717.314 109.2 713.447 110.133 710.514 112C707.714 113.733 706.314 116.467 706.314 120.2C706.314 122.867 707.047 125.067 708.514 126.8C710.114 128.4 711.847 129.667 713.714 130.6C715.714 131.4 719.714 132.867 725.714 135C733.181 137.667 738.647 141.067 742.114 145.2C745.581 149.333 747.314 154.933 747.314 162C747.314 168.133 745.714 173.733 742.514 178.8C739.314 183.733 734.514 187.667 728.114 190.6C721.847 193.533 714.314 195 705.514 195ZM794.717 195C783.384 195 774.384 191.133 767.717 183.4C761.051 175.667 757.717 165.667 757.717 153.4C757.717 142.867 759.984 132.867 764.517 123.4C769.184 113.8 775.784 106.067 784.317 100.2C792.851 94.3333 802.717 91.4 813.917 91.4C818.984 91.4 823.317 92.1333 826.917 93.6C830.651 95.0667 834.051 97.2 837.117 100L839.917 93H861.517L849.917 161.4C849.384 164.467 849.117 167 849.117 169C849.117 171.667 849.717 173.267 850.917 173.8C852.117 174.333 854.784 174.6 858.917 174.6L853.317 195C846.384 195 841.117 194.667 837.517 194C834.051 193.467 831.384 192.467 829.517 191C827.651 189.4 825.851 186.867 824.117 183.4C819.984 187 815.584 189.867 810.917 192C806.384 194 800.984 195 794.717 195ZM803.117 174.6C812.984 174.6 819.917 170.467 823.917 162.2C828.051 153.933 830.117 144.733 830.117 134.6C830.117 119.4 824.117 111.8 812.117 111.8C806.651 111.8 801.717 113.533 797.317 117C792.917 120.467 789.517 125.133 787.117 131C784.717 136.867 783.517 143.267 783.517 150.2C783.517 157.8 785.117 163.8 788.317 168.2C791.517 172.467 796.451 174.6 803.117 174.6Z" fill="#5A2363"/>
<line y1="211" x2="863" y2="211" stroke="#5A2363" stroke-width="10"/>
<path d="M179.736 245.592H160.44V235.8H209.592V245.592H190.2V303H179.736V245.592ZM209.501 255.576H218.333L219.005 262.2C223.229 257.144 227.645 254.616 232.253 254.616C232.957 254.616 233.693 254.68 234.461 254.808L233.597 265.272C232.573 265.016 231.421 264.888 230.141 264.888C227.965 264.888 225.917 265.4 223.997 266.424C222.077 267.448 220.701 268.632 219.869 269.976V303H209.501V255.576ZM281.335 255.576V303H272.215L271.639 298.872C268.567 302.264 264.535 303.96 259.543 303.96C253.271 303.96 248.599 302.104 245.527 298.392C242.455 294.68 240.919 289.304 240.919 282.264V255.576H250.903V280.92C250.903 285.784 251.703 289.4 253.303 291.768C254.967 294.136 257.623 295.32 261.271 295.32C263.383 295.32 265.303 294.936 267.031 294.168C268.759 293.336 270.199 292.152 271.351 290.616V255.576H281.335ZM307.268 303.96C301.252 303.96 295.876 302.68 291.14 300.12L292.196 290.904C294.052 292.248 296.228 293.4 298.724 294.36C301.22 295.256 303.94 295.704 306.884 295.704C309.636 295.704 311.748 295.256 313.22 294.36C314.692 293.464 315.428 292.12 315.428 290.328C315.428 288.344 314.628 286.84 313.028 285.816C311.492 284.728 309.22 283.704 306.212 282.744C303.14 281.72 300.612 280.728 298.628 279.768C296.644 278.744 295.012 277.336 293.732 275.544C292.452 273.752 291.812 271.448 291.812 268.632C291.812 264.6 293.316 261.272 296.324 258.648C299.396 255.96 303.812 254.616 309.572 254.616C314.564 254.616 319.108 255.736 323.204 257.976L322.148 266.808C320.164 265.336 318.18 264.216 316.196 263.448C314.276 262.616 312.132 262.2 309.764 262.2C307.268 262.2 305.316 262.68 303.908 263.64C302.5 264.6 301.796 266.008 301.796 267.864C301.796 269.208 302.148 270.296 302.852 271.128C303.556 271.96 304.58 272.664 305.924 273.24C307.268 273.816 309.38 274.616 312.26 275.64C316.356 277.048 319.588 278.776 321.956 280.824C324.388 282.872 325.604 285.88 325.604 289.848C325.604 293.944 324.1 297.336 321.092 300.024C318.148 302.648 313.54 303.96 307.268 303.96ZM350.848 303.96C346.688 303.96 343.552 302.84 341.44 300.6C339.392 298.296 338.368 295.48 338.368 292.152V263.544H330.784L331.648 255.576H338.368V244.344L348.352 243.384V255.576H359.968V263.544H348.352V287.064C348.352 290.008 348.512 292.056 348.832 293.208C349.216 294.296 349.952 295 351.04 295.32C352.128 295.64 354.176 295.8 357.184 295.8H359.776L359.008 303.96H350.848ZM367.346 291.576H378.674V303H367.346V291.576ZM414.335 235.8H439.295C445.759 235.8 451.519 237.144 456.575 239.832C461.631 242.52 465.567 246.392 468.383 251.448C471.199 256.504 472.607 262.488 472.607 269.4C472.607 276.312 471.199 282.296 468.383 287.352C465.567 292.408 461.631 296.28 456.575 298.968C451.519 301.656 445.759 303 439.295 303H414.335V235.8ZM439.295 293.592C446.335 293.592 451.711 291.448 455.423 287.16C459.199 282.808 461.087 276.888 461.087 269.4C461.087 261.912 459.199 256.024 455.423 251.736C451.711 247.384 446.335 245.208 439.295 245.208H424.799V293.592H439.295ZM505.129 303.96C499.689 303.96 495.017 302.84 491.113 300.6C487.273 298.36 484.361 295.352 482.377 291.576C480.457 287.8 479.497 283.576 479.497 278.904C479.497 274.488 480.393 270.456 482.185 266.808C484.041 263.096 486.697 260.152 490.153 257.976C493.673 255.8 497.833 254.712 502.633 254.712C508.905 254.712 513.897 256.568 517.609 260.28C521.321 263.928 523.177 268.824 523.177 274.968C523.177 276.632 522.985 278.424 522.601 280.344H489.769C490.409 285.656 492.169 289.496 495.049 291.864C497.993 294.232 501.705 295.416 506.185 295.416C511.241 295.416 515.881 294.328 520.105 292.152L521.065 300.312C515.945 302.744 510.633 303.96 505.129 303.96ZM512.905 273.528C512.905 270.52 512.041 268.056 510.313 266.136C508.585 264.216 505.993 263.256 502.537 263.256C496.073 263.256 492.009 266.68 490.345 273.528H512.905ZM544.748 303.96C540.588 303.96 537.484 302.84 535.436 300.6C533.452 298.36 532.46 295.512 532.46 292.056V231H542.54V287.16C542.54 289.848 542.7 291.8 543.02 293.016C543.34 294.168 543.948 294.936 544.844 295.32C545.74 295.64 547.244 295.8 549.356 295.8L548.108 303.96H544.748ZM557.235 235.8H567.219V246.36H557.235V235.8ZM557.235 255.576H567.219V303H557.235V255.576ZM574.48 255.576H585.04L597.616 291.288L610.096 255.576H620.656L602.608 303H592.72L574.48 255.576ZM649.969 303.96C644.529 303.96 639.857 302.84 635.953 300.6C632.113 298.36 629.201 295.352 627.217 291.576C625.297 287.8 624.337 283.576 624.337 278.904C624.337 274.488 625.233 270.456 627.025 266.808C628.881 263.096 631.537 260.152 634.993 257.976C638.513 255.8 642.673 254.712 647.473 254.712C653.745 254.712 658.737 256.568 662.449 260.28C666.161 263.928 668.017 268.824 668.017 274.968C668.017 276.632 667.825 278.424 667.441 280.344H634.609C635.249 285.656 637.009 289.496 639.889 291.864C642.833 294.232 646.545 295.416 651.025 295.416C656.081 295.416 660.721 294.328 664.945 292.152L665.905 300.312C660.785 302.744 655.473 303.96 649.969 303.96ZM657.745 273.528C657.745 270.52 656.881 268.056 655.153 266.136C653.425 264.216 650.833 263.256 647.377 263.256C640.913 263.256 636.849 266.68 635.185 273.528H657.745ZM677.396 255.576H686.228L686.9 262.2C691.124 257.144 695.54 254.616 700.148 254.616C700.852 254.616 701.588 254.68 702.356 254.808L701.492 265.272C700.468 265.016 699.316 264.888 698.036 264.888C695.86 264.888 693.812 265.4 691.892 266.424C689.972 267.448 688.596 268.632 687.764 269.976V303H677.396V255.576ZM731.015 303.96C725.575 303.96 720.903 302.84 716.999 300.6C713.159 298.36 710.247 295.352 708.263 291.576C706.343 287.8 705.383 283.576 705.383 278.904C705.383 274.488 706.279 270.456 708.071 266.808C709.927 263.096 712.583 260.152 716.039 257.976C719.559 255.8 723.719 254.712 728.519 254.712C734.791 254.712 739.783 256.568 743.495 260.28C747.207 263.928 749.063 268.824 749.063 274.968C749.063 276.632 748.871 278.424 748.487 280.344H715.655C716.295 285.656 718.055 289.496 720.935 291.864C723.879 294.232 727.591 295.416 732.071 295.416C737.127 295.416 741.767 294.328 745.991 292.152L746.951 300.312C741.831 302.744 736.519 303.96 731.015 303.96ZM738.791 273.528C738.791 270.52 737.927 268.056 736.199 266.136C734.471 264.216 731.879 263.256 728.423 263.256C721.959 263.256 717.895 266.68 716.231 273.528H738.791ZM800.969 231V303H791.753L791.177 298.488C787.657 302.136 783.049 303.96 777.353 303.96C773.129 303.96 769.353 302.872 766.025 300.696C762.697 298.52 760.105 295.544 758.249 291.768C756.457 287.992 755.561 283.864 755.561 279.384C755.561 274.968 756.425 270.872 758.153 267.096C759.945 263.32 762.473 260.312 765.737 258.072C769.065 255.832 772.937 254.712 777.353 254.712C782.985 254.712 787.529 256.408 790.985 259.8V231H800.969ZM778.985 295.416C782.697 295.416 785.737 294.04 788.105 291.288C790.537 288.472 791.753 284.504 791.753 279.384C791.753 274.456 790.537 270.552 788.105 267.672C785.673 264.728 782.633 263.256 778.985 263.256C774.953 263.256 771.753 264.76 769.385 267.768C767.017 270.712 765.833 274.584 765.833 279.384C765.833 283.992 767.017 287.832 769.385 290.904C771.753 293.912 774.953 295.416 778.985 295.416Z" fill="black"/>
</svg>
