<svg width="509" height="512" viewBox="0 0 509 512" fill="none" xmlns="http://www.w3.org/2000/svg">
<path d="M37.6069 296.96C28.8489 293.486 22.5964 285.62 21.1876 276.303L0.442758 137.799C-1.53512 124.647 6.54865 112.068 19.3338 108.403L81.1269 88.2759L76.4483 309.937C62.9853 307.344 49.9247 302.98 37.6069 296.96Z" fill="#227FDC"/>
<path d="M133.828 512C199.645 512 253 458.645 253 392.828C253 327.01 199.645 273.655 133.828 273.655C68.0105 273.655 14.6552 327.01 14.6552 392.828C14.6552 458.645 68.0105 512 133.828 512Z" fill="#95A5A5"/>
<path d="M244.172 347.807C244.172 369.788 245.232 376.32 241.083 384.618C237.589 392.009 231.287 397.696 223.577 400.415C215.868 403.134 207.392 402.659 200.034 399.095C189.317 393.964 182.464 383.171 182.379 371.288V388.414C182.582 403.244 172.389 416.197 157.927 419.487C148.746 421.48 139.157 419.175 131.886 413.227C124.614 407.278 120.453 398.337 120.586 388.943V331.652C120.707 327.497 117.913 323.821 113.877 322.825C68.5917 311.614 72.9172 312.761 71.0635 312.055C65.3298 310.106 60.2954 306.514 56.5862 301.727C85.7557 277.008 125.008 267.774 162.139 276.895C199.27 286.016 229.776 312.386 244.172 347.807Z" fill="#7F8C8D"/>
<path d="M111.759 476.69C126.385 476.69 138.241 464.833 138.241 450.207C138.241 435.581 126.385 423.724 111.759 423.724C97.1326 423.724 85.2759 435.581 85.2759 450.207C85.2759 464.833 97.1326 476.69 111.759 476.69Z" fill="#7F8C8D"/>
<path d="M244.172 269.241C244.172 363.079 245.32 361.931 241.083 370.759C237.605 378.165 231.31 383.872 223.599 386.609C215.888 389.345 207.402 388.882 200.034 385.324C189.317 380.193 182.464 369.4 182.379 357.517V374.29C182.582 389.12 172.389 402.073 157.927 405.363C148.807 407.342 139.282 405.08 132.025 399.212C124.768 393.345 120.561 384.505 120.586 375.172V317.793C120.707 313.638 117.913 309.961 113.877 308.966C69.1214 298.196 72.9172 299.255 71.0634 298.549C58.5129 294.21 50.0596 282.432 49.9655 269.153V172.668L189.265 162.781L236.316 248.673C241.386 254.323 244.185 261.65 244.172 269.241Z" fill="#D6D7D9"/>
<path d="M200.034 273.655V385.324C189.258 380.26 182.378 369.425 182.379 357.517C182.379 264.563 183.527 269.241 179.113 262.091C176.858 259.405 176.407 255.639 177.964 252.497C179.521 249.355 182.79 247.432 186.293 247.598C189.796 247.764 192.868 249.988 194.12 253.263C197.913 259.395 199.959 266.446 200.034 273.655Z" fill="#8C8C8C"/>
<path d="M173.552 187.586C194.561 233.931 176.023 240.552 184.498 258.825C195.532 283.012 250.881 285.308 235.08 204.094C232.167 188.91 226.87 167.106 214.6 156.601L173.552 187.586Z" fill="white"/>
<path d="M236.051 454.179C223.543 474.822 205.078 491.195 183.086 501.142C170.117 486.516 171.461 464.146 186.087 451.178C200.713 438.209 223.083 439.553 236.051 454.179Z" fill="#7F8C8D"/>
<path d="M76.4483 375.172C76.4312 389.577 68.6179 402.843 56.0288 409.843C43.4397 416.843 28.0475 416.48 15.8028 408.894C12.2984 383.893 16.9088 358.428 28.9559 336.243C40.6185 333.917 52.7097 336.939 61.9069 344.478C71.1042 352.017 76.44 363.28 76.4483 375.172Z" fill="#7F8C8D"/>
<path d="M53.8497 145.037C50.4069 150.775 50.4952 153.335 47.9352 168.96C42.195 203.36 59.56 237.481 90.749 253.087C148.128 281.688 147.687 282.483 155.897 282.483C165.464 282.475 174.283 277.307 178.967 268.964C183.651 260.622 183.47 250.401 178.495 242.229C173.199 233.401 166.578 231.812 144.686 220.778L114.495 205.683C106.931 201.917 101.618 194.767 100.194 186.439L53.8497 145.037Z" fill="white"/>
<path d="M41.1379 97.1034C41.1379 150.732 84.6126 194.207 138.241 194.207C191.87 194.207 235.345 150.732 235.345 97.1034C235.345 43.4747 191.87 0 138.241 0C84.6126 0 41.1379 43.4747 41.1379 97.1034Z" fill="#C7C7C7"/>
<path d="M223.074 144.331C186.705 167.106 131.886 162.604 102.931 135.062C60.2055 94.72 99.2234 35.3103 169.138 35.3103C188.123 35.0395 206.806 40.0848 223.074 49.8759C239.419 79.2396 239.419 114.967 223.074 144.331Z" fill="#1D3666"/>
<path d="M208.862 105.931C203.987 105.931 200.034 101.979 200.034 97.1034C200.034 70.6207 166.137 70.6207 164.724 70.6207C159.849 70.6207 155.897 66.6684 155.897 61.7931C155.897 56.9178 159.849 52.9655 164.724 52.9655C183.086 52.9655 217.69 62.2345 217.69 97.1034C217.69 101.979 213.737 105.931 208.862 105.931Z" fill="#F9EAB0"/>
<path d="M231.726 123.586C229.63 130.888 226.666 137.912 222.898 144.508C196.928 159.618 165.838 163.233 137.094 154.483C92.1614 140.888 73.0055 102.4 92.9559 71.3269C121.028 104.077 166.048 135.15 231.726 123.586Z" fill="black"/>
<path d="M482.517 376.232C478.996 376.244 475.804 374.162 474.396 370.935L421.43 250.703C420.371 248.32 420.724 257.501 420.724 140.182C420.724 135.307 424.676 131.354 429.552 131.354C434.427 131.354 438.379 135.307 438.379 140.182V245.319L490.639 363.873C491.832 366.607 491.564 369.759 489.925 372.252C488.287 374.745 485.5 376.242 482.517 376.232Z" fill="white"/>
<path d="M376.586 376.232C373.603 376.242 370.816 374.745 369.178 372.252C367.54 369.759 367.272 366.607 368.465 363.873L420.724 245.319V140.182C420.724 135.307 424.676 131.354 429.552 131.354C434.427 131.354 438.379 135.307 438.379 140.182C438.379 256.53 438.379 248.232 437.673 250.703L384.708 370.759C383.353 374.055 380.15 376.214 376.586 376.232Z" fill="white"/>
<path d="M182.379 317.793C199.417 298.637 224.134 271.625 241.171 256C287.516 213.098 366.17 152.894 459.83 132.414C468.849 129.887 474.325 120.758 472.308 111.612C470.291 102.466 461.483 96.4859 452.239 97.9862C371.29 115.641 275.687 166.312 185.91 261.208C184.662 262.343 183.483 263.552 182.379 264.828V317.793Z" fill="#A56A43"/>
<path d="M429.552 494.345C473.43 494.345 509 458.775 509 414.897C509 371.018 473.43 335.448 429.552 335.448C385.674 335.448 350.103 371.018 350.103 414.897C350.103 458.775 385.674 494.345 429.552 494.345Z" fill="#FFDC00"/>
<path d="M453.087 448.962C452.951 435.207 460.673 422.807 472.457 417.86C461.98 412.827 449.807 414.523 440.831 422.267C431.856 430.012 427.553 442.532 429.654 454.792C431.755 467.053 439.913 477.039 450.849 480.736C443.253 485.841 434.81 489.268 426 490.823C429.843 491.601 433.744 491.995 437.653 492C450.496 492.012 463.086 488.111 474 480.736C461.511 476.101 453.108 463.333 453.087 448.962Z" fill="#FEC108"/>
<path d="M459.729 341C461.043 347.085 459.301 353.398 455 358.129C470.517 373.289 479.256 393.416 479.433 414.397C490.382 414.253 500.878 418.473 508.299 426C508.826 422.492 509.056 418.951 508.988 415.41C509.055 383.865 489.959 355.02 459.729 341Z" fill="#FEC108"/>
<path d="M398.655 440.32C410.844 440.32 420.724 430.439 420.724 418.251C420.724 406.063 410.844 396.182 398.655 396.182C386.467 396.182 376.586 406.063 376.586 418.251C376.586 430.439 386.467 440.32 398.655 440.32Z" fill="#FF9801"/>
<path d="M508.294 425.048C505.214 448.831 491.556 469.951 471.13 482.516C457.163 477.814 447.586 464.933 447.105 450.204C446.624 435.475 455.34 421.996 468.97 416.393C482.6 410.79 498.276 414.24 508.294 425.048Z" fill="#FF9801"/>
<path d="M464.862 347.63C463.557 360.992 451.757 370.825 438.379 369.699C418.252 369.699 405.364 352.044 415.339 336.684C432.006 333.66 449.203 336.041 464.421 343.481C464.677 344.851 464.824 346.238 464.862 347.63Z" fill="#FF9801"/>
</svg>
