<?xml version="1.0" encoding="utf-8"?>
<!-- Generator: Adobe Illustrator 24.2.3, SVG Export Plug-In . SVG Version: 6.00 Build 0)  -->
<svg version="1.1" id="Layer_1" xmlns="http://www.w3.org/2000/svg" xmlns:xlink="http://www.w3.org/1999/xlink" x="0px" y="0px"
	 viewBox="0 0 595.28 841.89" style="enable-background:new 0 0 595.28 841.89;" xml:space="preserve">
<style type="text/css">
	.st0{fill:#384797;}
	.st1{fill:#9C4B97;}
	.st2{fill:#CD3333;}
	.st3{fill:#F49739;}
	.st4{fill:#E72168;}
</style>
<path class="st0" d="M418.98,212.92h-240c-61.86,0-112,50.14-112,112v176h464v-176C530.98,263.06,480.84,212.92,418.98,212.92z"/>
<g id="doopr">
	<path class="st0" d="M184.86,212.16L184.86,212.16c60.17,0.86,108.25,50.34,107.39,110.51l0,0l-2.56,179.02l0,0l-223.98-3.2l0,0
		l2.47-172.94C69.09,262.01,121.33,211.25,184.86,212.16z"/>
	<path class="st1" d="M210.98,324.92h-64c-4.42,0-8,3.58-8,8c0,4.42,3.58,8,8,8h64c4.42,0,8-3.58,8-8
		C218.98,328.5,215.4,324.92,210.98,324.92z"/>
</g>
<path class="st2" d="M274.98,548.92h64v88h-64V548.92z"/>
<path class="st0" d="M322.98,460.92h176c17.67,0,32,14.33,32,32v8l0,0h-240l0,0v-8C290.98,475.25,305.31,460.92,322.98,460.92z"/>
<path class="st3" d="M530.98,500.92h-464c-8.84,0-16,7.16-16,16l0,0c0,8.84,7.16,16,16,16h464c8.84,0,16-7.16,16-16l0,0
	C546.98,508.08,539.82,500.92,530.98,500.92z"/>
<path class="st2" d="M361.06,564.92H252.9c-6.07,0-11.62-3.44-14.32-8.88l-11.6-23.12h160l-11.6,23.12
	C372.68,561.48,367.14,564.92,361.06,564.92z"/>
<path class="st4" d="M538.98,404.92c4.42,0,8-3.58,8-8v-64c0-4.42-3.58-8-8-8h-176c-8.84,0-16,7.16-16,16l0,0c0,8.84,7.16,16,16,16
	h136c3.86-0.08,7.23,2.62,8,6.4l7.04,35.12c0.77,3.78,4.14,6.48,8,6.4L538.98,404.92z"/>
<path class="st3" d="M338.01,323.99c-9.37,9.37-9.37,24.57,0,33.94c9.37,9.37,24.57,9.37,33.94,0c9.37-9.37,9.37-24.57,0-33.94
	C362.57,314.61,347.38,314.61,338.01,323.99z"/>
<path class="st1" d="M450.98,444.92c-4.42,0-8,3.58-8,8v16c0,4.42,3.58,8,8,8s8-3.58,8-8v-16
	C458.98,448.5,455.4,444.92,450.98,444.92z M410.98,444.92c-4.42,0-8,3.58-8,8v16c0,4.42,3.58,8,8,8s8-3.58,8-8v-16
	C418.98,448.5,415.4,444.92,410.98,444.92z M490.98,444.92c-4.42,0-8,3.58-8,8v16c0,4.42,3.58,8,8,8s8-3.58,8-8v-16
	C498.98,448.5,495.4,444.92,490.98,444.92z M370.98,444.92c-4.42,0-8,3.58-8,8v16c0,4.42,3.58,8,8,8s8-3.58,8-8v-16
	C378.98,448.5,375.4,444.92,370.98,444.92z M330.98,444.92c-4.42,0-8,3.58-8,8v16c0,4.42,3.58,8,8,8s8-3.58,8-8v-16
	C338.98,448.5,335.4,444.92,330.98,444.92z"/>
<path class="st1" d="M554.98,396.92v-64c0-8.84-7.16-16-16-16l0,0c-4.22-63.13-56.73-112.14-120-112h-240
	c-66.27,0-120,53.73-120,120v169.44c-12.46,4.52-18.9,18.29-14.38,30.74c3.42,9.43,12.34,15.74,22.38,15.82h155.04l9.36,18.72
	c4.07,8.15,12.41,13.3,21.52,13.28h14.08v56c0,4.42,3.58,8,8,8c4.42,0,8-3.58,8-8v-56h48v56c0,4.42,3.58,8,8,8s8-3.58,8-8v-56h14.08
	c9.08-0.02,17.38-5.15,21.44-13.28l9.44-18.72h139.04c13.26-0.1,23.91-10.93,23.82-24.18c-0.08-10.03-6.38-18.95-15.82-22.38v-81.44
	C547.82,412.92,554.98,405.76,554.98,396.92z M282.98,492.92h-208v-168c0-57.44,46.56-104,104-104s104,46.56,104,104V492.92z
	 M368.26,552.52c-1.35,2.69-4.1,4.39-7.12,4.4H252.9c-3.02-0.01-5.77-1.71-7.12-4.4l-5.84-11.6h134.08L368.26,552.52z
	 M530.98,524.92h-464c-4.42,0-8-3.58-8-8c0-4.42,3.58-8,8-8h464c4.42,0,8,3.58,8,8C538.98,521.33,535.4,524.92,530.98,524.92z
	 M522.98,492.92h-224v-168c-0.06-42.98-23.1-82.66-60.4-104h180.4c54.46-0.16,99.81,41.7,104,96H376.1
	c-5.83-5.14-13.34-7.99-21.12-8c-17.67,0-32,14.33-32,32s14.33,32,32,32c7.78-0.01,15.29-2.86,21.12-8h122.88l7.04,35.12
	c1.51,7.6,8.25,13.03,16,12.88h0.96V492.92z M370.98,340.92c0.04,2.82-0.74,5.6-2.24,8c-0.66,1.21-1.5,2.31-2.48,3.28
	c-6.24,6.2-16.32,6.2-22.56,0c-1.74-1.81-3.02-4-3.76-6.4c-0.35-0.54-0.67-1.1-0.96-1.68c-0.42-2.09-0.42-4.23,0-6.32
	c0.16-0.54,0.34-1.08,0.56-1.6c0.74-2.43,2.06-4.66,3.84-6.48c6.24-6.2,16.32-6.2,22.56,0c0.98,0.97,1.82,2.07,2.48,3.28
	C370.02,335.33,370.91,338.09,370.98,340.92z M522.98,396.92h-1.44l-7.04-35.12c-1.47-7.42-7.95-12.8-15.52-12.88H385.94
	c1.38-5.24,1.38-10.76,0-16h153.04v64H522.98z"/>
<g>
</g>
<g>
</g>
<g>
</g>
<g>
</g>
<g>
</g>
<g>
</g>
</svg>
