<svg width="512" height="432" viewBox="0 0 512 432" fill="none" xmlns="http://www.w3.org/2000/svg">
<g id="Group 1">
<path id="body" d="M376 8H136C74.144 8 24 58.144 24 120V296H488V120C488 58.144 437.856 8 376 8Z" fill="#CED8ED"/>
<path id="front" d="M139.04 8C199.216 8 248 56.784 248 116.96V296H24V123.04C24 59.504 75.504 8 139.04 8Z" fill="#C2CDE7"/>
<path id="low stick" d="M232 344H296V432H232V344Z" fill="#C4939C"/>
<path id="Vector" d="M280 256H456C473.672 256 488 270.328 488 288V296H248V288C248 270.328 262.328 256 280 256Z" fill="#C2CDE7"/>
<path id="Vector_2" d="M488 296H24C15.16 296 8 303.16 8 312C8 320.84 15.16 328 24 328H488C496.84 328 504 320.84 504 312C504 303.16 496.84 296 488 296Z" fill="#F9DD8F"/>
<path id="Vector_3" d="M318.08 360H209.92C203.848 360 198.304 356.56 195.6 351.12L184 328H344L332.4 351.12C329.696 356.56 324.152 360 318.08 360Z" fill="#CDA1A7"/>
<path id="handle" d="M496 200C500.416 200 504 196.416 504 192V128C504 123.584 500.416 120 496 120H320C311.16 120 304 127.16 304 136C304 144.84 311.16 152 320 152H456C459.864 151.92 463.232 154.616 464 158.4L471.04 193.52C471.808 197.304 475.176 200 479.04 199.92L496 200Z" fill="#ED7899"/>
<path id="Vector_4" d="M295.021 119.07C290.52 123.571 287.992 129.675 287.992 136.04C287.992 142.406 290.521 148.51 295.022 153.011C299.523 157.512 305.627 160.04 311.992 160.04C318.358 160.04 324.462 157.511 328.963 153.01C333.464 148.509 335.992 142.405 335.992 136.04C335.992 129.674 333.463 123.57 328.962 119.069C324.461 114.568 318.357 112.04 311.992 112.04C305.626 112.04 299.522 114.569 295.021 119.07V119.07Z" fill="#F9DD8F"/>
<path id="Vector_5" d="M408 240C403.584 240 400 243.584 400 248V264C400 268.416 403.584 272 408 272C412.416 272 416 268.416 416 264V248C416 243.584 412.416 240 408 240ZM368 240C363.584 240 360 243.584 360 248V264C360 268.416 363.584 272 368 272C372.416 272 376 268.416 376 264V248C376 243.584 372.416 240 368 240ZM448 240C443.584 240 440 243.584 440 248V264C440 268.416 443.584 272 448 272C452.416 272 456 268.416 456 264V248C456 243.584 452.416 240 448 240ZM328 240C323.584 240 320 243.584 320 248V264C320 268.416 323.584 272 328 272C332.416 272 336 268.416 336 264V248C336 243.584 332.416 240 328 240ZM288 240C283.584 240 280 243.584 280 248V264C280 268.416 283.584 272 288 272C292.416 272 296 268.416 296 264V248C296 243.584 292.416 240 288 240ZM168 112H104C99.584 112 96 115.584 96 120C96 124.416 99.584 128 104 128H168C172.416 128 176 124.416 176 120C176 115.584 172.416 112 168 112Z" fill="#8D6C9F"/>
<path id="Vector_6" d="M512 192V128C512 119.16 504.84 112 496 112C491.784 48.872 439.272 -0.143996 376 3.65975e-06H136C69.728 3.65975e-06 16 53.728 16 120V289.44C3.544 293.96 -2.896 307.728 1.624 320.184C5.048 329.616 13.968 335.92 24 336H179.04L188.4 354.72C192.472 362.872 200.808 368.016 209.92 368H224V424C224 428.416 227.584 432 232 432C236.416 432 240 428.416 240 424V368H288V424C288 428.416 291.584 432 296 432C300.416 432 304 428.416 304 424V368H318.08C327.16 367.984 335.464 362.848 339.52 354.72L348.96 336H488C501.256 335.896 511.912 325.072 511.816 311.816C511.736 301.784 505.432 292.864 496 289.44V208C504.84 208 512 200.84 512 192ZM240 288H32V120C32 62.56 78.56 16 136 16C193.44 16 240 62.56 240 120V288ZM325.28 347.6C323.928 350.288 321.176 351.992 318.16 352H209.92C206.904 351.992 204.152 350.288 202.8 347.6L196.96 336H331.04L325.28 347.6ZM488 320H24C19.584 320 16 316.416 16 312C16 307.584 19.584 304 24 304H488C492.416 304 496 307.584 496 312C496 316.416 492.416 320 488 320ZM480 288H256V120C255.944 77.016 232.904 37.344 195.6 16H376C430.456 15.84 475.808 57.704 480 112H333.12C327.288 106.856 319.776 104.008 312 104C294.328 104 280 118.328 280 136C280 153.672 294.328 168 312 168C319.776 167.992 327.288 165.144 333.12 160H456L463.04 195.12C464.552 202.72 471.288 208.152 479.04 208H480V288ZM328 136C328.04 138.824 327.256 141.6 325.76 144C325.096 145.208 324.264 146.312 323.28 147.28C317.04 153.48 306.96 153.48 300.72 147.28C298.984 145.472 297.696 143.28 296.96 140.88C296.608 140.336 296.288 139.776 296 139.2C295.576 137.112 295.576 134.968 296 132.88C296.16 132.336 296.344 131.8 296.56 131.28C297.304 128.848 298.624 126.624 300.4 124.8C306.64 118.6 316.72 118.6 322.96 124.8C323.944 125.768 324.776 126.872 325.44 128.08C327.04 130.416 327.928 133.168 328 136ZM480 192H478.56L471.52 156.88C470.048 149.456 463.568 144.08 456 144H342.96C344.344 138.76 344.344 133.24 342.96 128H496V192H480Z" fill="#8D6C9F"/>
</g>
</svg>
