<svg width="512" height="433" viewBox="0 0 512 433" fill="none" xmlns="http://www.w3.org/2000/svg">
<path d="M375.98 8.92H135.98C74.12 8.92 23.98 59.06 23.98 120.92V296.92H487.98V120.92C487.98 59.06 437.84 8.92 375.98 8.92Z" fill="#384797"/>
<path d="M141.86 8.16001C202.03 9.02001 250.11 58.5 249.25 118.67L246.69 297.69L22.71 294.49L25.18 121.55C26.09 58.01 78.33 7.25001 141.86 8.16001Z" fill="#384797"/>
<path d="M167.98 120.92H103.98C99.56 120.92 95.98 124.5 95.98 128.92C95.98 133.34 99.56 136.92 103.98 136.92H167.98C172.4 136.92 175.98 133.34 175.98 128.92C175.98 124.5 172.4 120.92 167.98 120.92Z" fill="#9C4B97"/>
<path d="M231.98 344.92H295.98V432.92H231.98V344.92Z" fill="#CD3333"/>
<path d="M279.98 256.92H455.98C473.65 256.92 487.98 271.25 487.98 288.92V296.92H247.98V288.92C247.98 271.25 262.31 256.92 279.98 256.92Z" fill="#384797"/>
<path d="M487.98 296.92H23.98C15.14 296.92 7.98001 304.08 7.98001 312.92C7.98001 321.76 15.14 328.92 23.98 328.92H487.98C496.82 328.92 503.98 321.76 503.98 312.92C503.98 304.08 496.82 296.92 487.98 296.92Z" fill="#F49739"/>
<path d="M318.06 360.92H209.9C203.83 360.92 198.28 357.48 195.58 352.04L183.98 328.92H343.98L332.38 352.04C329.68 357.48 324.14 360.92 318.06 360.92Z" fill="#CD3333"/>
<path d="M495.98 200.92C500.4 200.92 503.98 197.34 503.98 192.92V128.92C503.98 124.5 500.4 120.92 495.98 120.92H319.98C311.14 120.92 303.98 128.08 303.98 136.92C303.98 145.76 311.14 152.92 319.98 152.92H455.98C459.84 152.84 463.21 155.54 463.98 159.32L471.02 194.44C471.79 198.22 475.16 200.92 479.02 200.84L495.98 200.92Z" fill="#E72168"/>
<path d="M295.01 119.99C285.64 129.36 285.64 144.56 295.01 153.93C304.38 163.3 319.58 163.3 328.95 153.93C338.32 144.56 338.32 129.36 328.95 119.99C319.57 110.61 304.38 110.61 295.01 119.99Z" fill="#F49739"/>
<path d="M407.98 240.92C403.56 240.92 399.98 244.5 399.98 248.92V264.92C399.98 269.34 403.56 272.92 407.98 272.92C412.4 272.92 415.98 269.34 415.98 264.92V248.92C415.98 244.5 412.4 240.92 407.98 240.92ZM367.98 240.92C363.56 240.92 359.98 244.5 359.98 248.92V264.92C359.98 269.34 363.56 272.92 367.98 272.92C372.4 272.92 375.98 269.34 375.98 264.92V248.92C375.98 244.5 372.4 240.92 367.98 240.92ZM447.98 240.92C443.56 240.92 439.98 244.5 439.98 248.92V264.92C439.98 269.34 443.56 272.92 447.98 272.92C452.4 272.92 455.98 269.34 455.98 264.92V248.92C455.98 244.5 452.4 240.92 447.98 240.92ZM327.98 240.92C323.56 240.92 319.98 244.5 319.98 248.92V264.92C319.98 269.34 323.56 272.92 327.98 272.92C332.4 272.92 335.98 269.34 335.98 264.92V248.92C335.98 244.5 332.4 240.92 327.98 240.92ZM287.98 240.92C283.56 240.92 279.98 244.5 279.98 248.92V264.92C279.98 269.34 283.56 272.92 287.98 272.92C292.4 272.92 295.98 269.34 295.98 264.92V248.92C295.98 244.5 292.4 240.92 287.98 240.92Z" fill="#9C4B97"/>
<path d="M511.98 192.92V128.92C511.98 120.08 504.82 112.92 495.98 112.92C491.76 49.79 439.25 0.779992 375.98 0.919992H135.98C69.71 0.919992 15.98 54.65 15.98 120.92V290.36C3.51999 294.88 -2.92001 308.65 1.59999 321.1C5.01999 330.53 13.94 336.84 23.98 336.92H179.02L188.38 355.64C192.45 363.79 200.79 368.94 209.9 368.92H223.98V424.92C223.98 429.34 227.56 432.92 231.98 432.92C236.4 432.92 239.98 429.34 239.98 424.92V368.92H287.98V424.92C287.98 429.34 291.56 432.92 295.98 432.92C300.4 432.92 303.98 429.34 303.98 424.92V368.92H318.06C327.14 368.9 335.44 363.77 339.5 355.64L348.94 336.92H487.98C501.24 336.82 511.89 325.99 511.8 312.74C511.72 302.71 505.42 293.79 495.98 290.36V208.92C504.82 208.92 511.98 201.76 511.98 192.92ZM239.98 288.92H31.98V120.92C31.98 63.48 78.54 16.92 135.98 16.92C193.42 16.92 239.98 63.48 239.98 120.92V288.92ZM325.26 348.52C323.91 351.21 321.16 352.91 318.14 352.92H209.9C206.88 352.91 204.13 351.21 202.78 348.52L196.94 336.92H331.02L325.26 348.52ZM487.98 320.92H23.98C19.56 320.92 15.98 317.34 15.98 312.92C15.98 308.5 19.56 304.92 23.98 304.92H487.98C492.4 304.92 495.98 308.5 495.98 312.92C495.98 317.33 492.4 320.92 487.98 320.92ZM479.98 288.92H255.98V120.92C255.92 77.94 232.88 38.26 195.58 16.92H375.98C430.44 16.76 475.79 58.62 479.98 112.92H333.1C327.27 107.78 319.76 104.93 311.98 104.92C294.31 104.92 279.98 119.25 279.98 136.92C279.98 154.59 294.31 168.92 311.98 168.92C319.76 168.91 327.27 166.06 333.1 160.92H455.98L463.02 196.04C464.53 203.64 471.27 209.07 479.02 208.92H479.98V288.92ZM327.98 136.92C328.02 139.74 327.24 142.52 325.74 144.92C325.08 146.13 324.24 147.23 323.26 148.2C317.02 154.4 306.94 154.4 300.7 148.2C298.96 146.39 297.68 144.2 296.94 141.8C296.59 141.26 296.27 140.7 295.98 140.12C295.56 138.03 295.56 135.89 295.98 133.8C296.14 133.26 296.32 132.72 296.54 132.2C297.28 129.77 298.6 127.54 300.38 125.72C306.62 119.52 316.7 119.52 322.94 125.72C323.92 126.69 324.76 127.79 325.42 129C327.02 131.33 327.91 134.09 327.98 136.92ZM479.98 192.92H478.54L471.5 157.8C470.03 150.38 463.55 145 455.98 144.92H342.94C344.32 139.68 344.32 134.16 342.94 128.92H495.98V192.92H479.98Z" fill="#9C4B97"/>
</svg>
