<?xml version="1.0" encoding="iso-8859-1"?>
<!-- Generator: Adobe Illustrator 19.0.0, SVG Export Plug-In . SVG Version: 6.00 Build 0)  -->
<svg version="1.1" id="Capa_1" xmlns="http://www.w3.org/2000/svg" xmlns:xlink="http://www.w3.org/1999/xlink" x="0px" y="0px"
	 viewBox="0 0 512.002 512.002" style="enable-background:new 0 0 512.002 512.002;" xml:space="preserve">
<g>
	<g transform="translate(1 1)">
		<path style="fill:#C52828;" d="M500.951,210.799c0.017,5.613-2.229,10.996-6.23,14.933l-14.933,14.933l-74.752,74.752
			L263.041,457.413c-57.824,59.041-152.523,60.148-211.712,2.475c-4.199-4.218-8.132-8.692-11.776-13.397
			c59.67,54.095,151.418,51.382,207.787-6.144l141.995-141.995l74.752-74.752l14.933-14.933c4.001-3.937,6.246-9.32,6.229-14.933
			c0.013-1.147-0.101-2.292-0.341-3.413C494.311,192.672,500.918,201.107,500.951,210.799L500.951,210.799z"/>
		<path style="fill:#F44335;" d="M485.249,193.733c0.017,5.613-2.229,10.996-6.229,14.933l-14.933,14.933l-74.752,74.752
			L247.34,440.346c-56.369,57.526-148.117,60.239-207.787,6.144C-5.464,387.347-0.495,304.183,51.244,250.821l0.085-0.085v-0.085
			l114.603-114.603L288.213,13.765c5.256-5.286,12.918-7.397,20.139-5.547c3.721,0.905,7.118,2.825,9.812,5.547
			c8.193,8.27,8.193,21.597,0,29.867L190.849,170.949c-4.843,4.786-7.041,11.636-5.887,18.347c0.708,4.362,2.768,8.391,5.887,11.52
			c3.947,3.987,9.324,6.23,14.933,6.23c5.61,0,10.987-2.243,14.933-6.23l44.885-44.8l19.883-19.968l4.948-4.949l9.985-9.984
			c5.227-5.274,12.857-7.385,20.052-5.547c3.753,0.887,7.183,2.809,9.899,5.547c8.193,8.27,8.193,21.597,0,29.867l-34.901,34.901
			l-24.917,24.917c-4.843,4.786-7.041,11.636-5.889,18.347c0.708,4.362,2.768,8.391,5.889,11.52
			c3.947,3.986,9.324,6.229,14.933,6.229c5.61,0,10.987-2.243,14.933-6.229l29.951-29.867l9.899-9.984l39.85-39.851
			c5.228-5.274,12.859-7.385,20.054-5.547c9.45,2.279,16.092,10.759,16.042,20.48c0.01,5.595-2.2,10.965-6.144,14.933
			l-74.752,74.752c-4.841,4.787-7.039,11.637-5.887,18.347c0.652,4.404,2.719,8.478,5.887,11.605c8.271,8.192,21.596,8.192,29.867,0
			l9.984-9.984l74.752-74.752l14.933-14.933c5.228-5.275,12.858-7.385,20.053-5.547
			C485.148,191.441,485.262,192.586,485.249,193.733z"/>
		<path style="fill:#F57C00;" d="M273.025,350.319c0.026,51.844-35.51,96.94-85.924,109.036
			c-50.414,12.096-102.543-11.965-126.044-58.177c-8.137-15.714-12.353-33.163-12.288-50.859
			c0-61.927,50.201-112.128,112.128-112.128S273.025,288.393,273.025,350.319L273.025,350.319z"/>
		<path style="fill:#FF9801;" d="M254.849,324.464c0.033,45.992-28.043,87.334-70.807,104.262
			c-42.763,16.928-91.529,6.005-122.985-27.547c-8.137-15.714-12.353-33.163-12.288-50.859
			c-0.008-46.001,28.086-87.339,70.861-104.264s91.547-6.003,123.017,27.55C250.717,289.34,254.901,306.78,254.849,324.464z"/>
		<g>
			<circle style="fill:#FF5722;" cx="148.182" cy="293.402" r="21.333"/>
			<circle style="fill:#FF5722;" cx="122.582" cy="378.736" r="29.867"/>
			<circle style="fill:#FF5722;" cx="216.449" cy="361.669" r="21.333"/>
		</g>
	</g>
	<g>
		<path d="M161.932,471.973c66.641-0.001,120.663-54.025,120.663-120.665c0-66.641-54.023-120.664-120.664-120.664
			c-66.641,0-120.664,54.022-120.665,120.663C41.341,417.917,95.321,471.897,161.932,471.973z M161.932,247.71
			c57.216,0.001,103.597,46.384,103.596,103.6s-46.384,103.597-103.6,103.596c-57.216-0.001-103.597-46.384-103.596-103.6
			C58.399,294.118,104.744,247.775,161.932,247.71z"/>
		<path d="M155.907,511.994c41.222-0.095,80.841-15.977,110.715-44.382c0.347-0.195,0.679-0.416,0.994-0.66l219.225-219.225
			l0.014-0.023l14.927-14.927c11.578-11.59,11.578-30.368,0-41.958c-11.734-11.225-30.225-11.225-41.958,0l-14.95,14.95
			l-74.733,74.733l-9.967,9.967c-4.997,4.74-12.83,4.739-17.825-0.004c-2.374-2.358-3.708-5.566-3.708-8.912
			c0-3.346,1.335-6.554,3.708-8.912l24.908-24.913l49.825-49.825c11.578-11.59,11.578-30.368,0-41.958
			c-11.734-11.225-30.224-11.225-41.958,0l-39.858,39.858l-39.858,39.854c-4.996,4.747-12.835,4.749-17.833,0.004
			c-4.908-4.928-4.908-12.897,0-17.825l24.896-24.899l0.021-0.014l24.909-24.912l0.108-0.113l9.858-9.854
			c11.567-11.596,11.567-30.366,0-41.962c-11.737-11.22-30.224-11.218-41.958,0.004l-9.875,9.871l-0.092,0.092l-24.917,24.912
			l-0.005,0.008l-44.836,44.834c-4.996,4.742-12.829,4.742-17.825,0c-4.908-4.93-4.908-12.899,0-17.829L325.166,50.665
			c11.578-11.59,11.578-30.368,0-41.958c-11.734-11.225-30.225-11.225-41.958,0L48.77,243.14l-0.012,0.009l-0.182,0.186
			l-2.293,2.293c-0.048,0.048-0.06,0.114-0.107,0.163l-0.126,0.129c-59.44,61.726-59.337,159.433,0.233,221.033
			C75.367,495.966,114.825,512.178,155.907,511.994z M58.391,257.715l2.467-2.525l0.009-0.012l112.077-112.076l0.006-0.004
			L295.274,20.773c4.981-4.779,12.844-4.779,17.825,0c4.911,4.927,4.911,12.898,0,17.825L185.79,165.906
			c-11.588,11.586-11.589,30.373-0.002,41.96c11.586,11.588,30.373,11.589,41.96,0.002l44.842-44.842l19.858-19.858l0.075-0.071
			l14.95-14.946c4.982-4.775,12.843-4.775,17.825,0c4.9,4.931,4.9,12.894,0,17.825l-19.933,19.929l-0.192,0.192l-0.044,0.044
			l-39.623,39.627c-11.587,11.589-11.585,30.376,0.004,41.963c11.589,11.587,30.376,11.585,41.963-0.004l29.892-29.892l9.967-9.967
			l39.858-39.858c4.981-4.779,12.844-4.779,17.825,0c4.911,4.927,4.911,12.898,0,17.825l-49.826,49.825l-24.908,24.909
			c-11.589,11.586-11.591,30.374-0.004,41.963c11.586,11.589,30.374,11.591,41.963,0.004l9.967-9.967l74.733-74.733l14.95-14.95
			c4.981-4.776,12.842-4.778,17.825-0.004c4.911,4.93,4.911,12.903,0,17.833l-89.684,89.683l-0.01,0.017l-141.969,141.97
			l-0.012,0.009c-54.502,55.722-143.816,56.837-199.692,2.492C5.281,399.868,5.3,312.71,58.391,257.715z"/>
		<path d="M164.707,62.015L45.241,172.948c-3.442,3.21-3.635,8.601-0.432,12.05c3.203,3.449,8.593,3.654,12.049,0.459
			L176.324,74.523c3.442-3.21,3.635-8.601,0.432-12.05S168.163,58.82,164.707,62.015z"/>
		<path d="M19.39,210.861c1.636,1.558,3.8,2.441,6.059,2.475c1.115-0.014,2.216-0.246,3.242-0.683
			c0.543-0.188,1.059-0.447,1.533-0.771c0.425-0.338,0.858-0.679,1.284-1.021c0.753-0.83,1.359-1.783,1.792-2.817
			c0.476-1.013,0.71-2.123,0.683-3.242c-0.013-0.573-0.071-1.145-0.175-1.708c-0.089-0.536-0.261-1.054-0.508-1.537
			c-0.189-0.542-0.446-1.057-0.767-1.533c-0.341-0.429-0.683-0.854-1.025-1.279c-0.425-0.341-0.858-0.683-1.283-1.025
			c-0.475-0.324-0.99-0.583-1.533-0.771c-3.186-1.251-6.809-0.552-9.3,1.796c-1.561,1.634-2.445,3.799-2.475,6.059
			c-0.031,1.119,0.203,2.23,0.683,3.242C18.031,209.078,18.637,210.031,19.39,210.861L19.39,210.861z"/>
		<path d="M185.299,2.727c-1.54-1.659-3.675-2.638-5.937-2.721s-4.464,0.735-6.122,2.275L53.774,113.215
			c-3.442,3.21-3.635,8.601-0.432,12.05c3.203,3.449,8.593,3.654,12.049,0.459L184.857,14.79
			C188.308,11.58,188.506,6.181,185.299,2.727z"/>
		<path d="M27.924,139.01c-2.462,2.441-3.201,6.129-1.872,9.331c1.329,3.202,4.464,5.281,7.931,5.261
			c3.873,0,7.262-2.603,8.263-6.345c1-3.742-0.639-7.688-3.995-9.621C34.894,135.704,30.658,136.267,27.924,139.01z"/>
		<path d="M471.907,360.681L352.441,471.615c-3.442,3.21-3.635,8.601-0.432,12.05c3.203,3.449,8.593,3.654,12.049,0.459
			L483.524,373.19c3.442-3.21,3.635-8.601,0.432-12.05C480.753,357.691,475.363,357.486,471.907,360.681L471.907,360.681z"/>
		<path d="M335.891,495.615c-0.51-0.258-1.059-0.43-1.625-0.508c-1.093-0.258-2.232-0.258-3.325,0
			c-0.534,0.091-1.051,0.263-1.533,0.508c-0.546,0.187-1.064,0.447-1.542,0.771l-1.275,1.025c-1.561,1.634-2.445,3.799-2.475,6.059
			c0.018,0.571,0.074,1.14,0.167,1.704c0.096,0.535,0.27,1.053,0.517,1.537c0.184,0.545,0.442,1.062,0.767,1.538
			c0.317,0.446,0.659,0.873,1.025,1.279c0.425,0.341,0.85,0.683,1.275,1.021c0.477,0.324,0.996,0.583,1.542,0.771
			c0.483,0.245,1,0.418,1.533,0.513c0.565,0.098,1.136,0.155,1.709,0.171c0.542-0.016,1.083-0.073,1.617-0.171
			c0.566-0.082,1.115-0.255,1.625-0.513c0.543-0.188,1.059-0.447,1.533-0.771c0.425-0.337,0.858-0.679,1.283-1.021
			c0.341-0.429,0.683-0.854,1.025-1.279c0.321-0.477,0.579-0.994,0.767-1.538c0.247-0.483,0.419-1.002,0.508-1.537
			c0.099-0.563,0.158-1.133,0.175-1.704c-0.033-2.259-0.917-4.422-2.475-6.059c-0.425-0.341-0.858-0.683-1.283-1.025
			C336.95,496.061,336.434,495.802,335.891,495.615L335.891,495.615z"/>
		<path d="M492.499,301.394c-1.539-1.66-3.675-2.639-5.937-2.723c-2.262-0.084-4.464,0.736-6.122,2.277L360.974,411.881
			c-3.442,3.21-3.635,8.601-0.432,12.05c3.203,3.449,8.593,3.654,12.049,0.459l119.467-110.933
			C495.508,310.247,495.706,304.847,492.499,301.394L492.499,301.394z"/>
		<path d="M342.799,452.098c0.566-0.082,1.115-0.255,1.625-0.513c0.543-0.188,1.059-0.447,1.533-0.771
			c0.449-0.313,0.878-0.654,1.284-1.021c0.771-0.816,1.379-1.772,1.792-2.817c0.911-2.067,0.911-4.421,0-6.487
			c-0.412-1.044-1.02-1.998-1.792-2.813c-0.425-0.341-0.858-0.683-1.283-1.025c-0.475-0.324-0.99-0.583-1.533-0.771
			c-0.51-0.258-1.059-0.43-1.625-0.508c-1.633-0.344-3.332-0.166-4.858,0.508c-1.045,0.413-2.002,1.022-2.817,1.795
			c-0.77,0.834-1.405,1.783-1.883,2.813c-0.789,2.091-0.789,4.397,0,6.487c0.479,1.031,1.114,1.981,1.883,2.817
			c0.817,0.771,1.773,1.379,2.817,1.792c1.026,0.437,2.127,0.669,3.242,0.683C341.725,452.253,342.265,452.196,342.799,452.098
			L342.799,452.098z"/>
		<path d="M415.482,11.036c-1.6-1.601-3.77-2.5-6.033-2.5s-4.434,0.899-6.033,2.5l-68.267,68.267
			c-2.178,2.151-3.037,5.304-2.251,8.262s3.097,5.269,6.055,6.055s6.111-0.073,8.262-2.251l68.267-68.267
			c1.601-1.6,2.5-3.77,2.5-6.033S417.083,12.636,415.482,11.036L415.482,11.036z"/>
		<path d="M383.849,128.002c2.264,0.003,4.435-0.897,6.033-2.5l102.4-102.4c3.281-3.341,3.256-8.701-0.054-12.012
			s-8.671-3.335-12.012-0.054l-102.4,102.4c-2.44,2.44-3.169,6.11-1.849,9.298C377.287,125.922,380.398,128.001,383.849,128.002z"/>
		<path d="M149.182,324.269c16.495,0,29.867-13.372,29.867-29.867s-13.372-29.867-29.867-29.867s-29.867,13.372-29.867,29.867
			C119.335,310.889,132.696,324.249,149.182,324.269z M149.182,281.602c7.069,0,12.8,5.731,12.8,12.8s-5.731,12.8-12.8,12.8
			c-7.069,0-12.8-5.731-12.8-12.8C136.39,287.336,142.116,281.61,149.182,281.602L149.182,281.602z"/>
		<path d="M123.582,418.135c21.208,0,38.4-17.192,38.4-38.4c0-21.208-17.192-38.4-38.4-38.4s-38.4,17.192-38.4,38.4
			C85.205,400.934,102.384,418.112,123.582,418.135L123.582,418.135z M123.582,358.402c11.782,0,21.333,9.551,21.333,21.333
			s-9.551,21.333-21.333,21.333s-21.333-9.551-21.333-21.333C102.261,367.959,111.805,358.415,123.582,358.402z"/>
		<path d="M217.449,392.535c16.495,0,29.867-13.372,29.867-29.867c0-16.495-13.372-29.867-29.867-29.867
			s-29.867,13.372-29.867,29.867C187.602,379.155,200.962,392.516,217.449,392.535z M217.449,349.869c7.069,0,12.8,5.731,12.8,12.8
			s-5.731,12.8-12.8,12.8s-12.8-5.731-12.8-12.8C204.657,355.603,210.383,349.877,217.449,349.869z"/>
	</g>
</g>
<g>
</g>
<g>
</g>
<g>
</g>
<g>
</g>
<g>
</g>
<g>
</g>
<g>
</g>
<g>
</g>
<g>
</g>
<g>
</g>
<g>
</g>
<g>
</g>
<g>
</g>
<g>
</g>
<g>
</g>
</svg>
