<?xml version="1.0" encoding="iso-8859-1"?>
<!-- Generator: Adobe Illustrator 19.0.0, SVG Export Plug-In . SVG Version: 6.00 Build 0)  -->
<svg version="1.1" id="Capa_1" xmlns="http://www.w3.org/2000/svg" xmlns:xlink="http://www.w3.org/1999/xlink" x="0px" y="0px"
	 viewBox="0 0 512.035 512.035" style="enable-background:new 0 0 512.035 512.035;" xml:space="preserve">
<g transform="translate(0 -1)">
	<g transform="translate(1 2)">
		<path style="fill:#FDD834;" d="M502.464,323.294l-0.768,4.437l-138.752,0.939c-0.8,0.031-1.602-0.026-2.389-0.171
			c-8.43-1.152-14.746-8.303-14.848-16.811l-1.28-132.181l4.352-1.28h0.085C348.864,178.227,502.464,161.161,502.464,323.294z"/>
		<path style="fill:#FFEB3A;" d="M476.864,323.294l-0.768,4.437l-115.541,0.768c-8.43-1.152-14.746-8.303-14.848-16.811
			l-1.28-132.181l4.352-1.28h0.085C392.555,181.385,476.864,203.23,476.864,323.294z"/>
		<g>
			<polygon style="fill:#607D8B;" points="391.531,434.227 417.131,434.227 16.064,435.422 16.064,435.337 			"/>
			<path style="fill:#607D8B;" d="M502.464,323.294v76.8c0.002,9.053-3.593,17.737-9.995,24.139s-15.085,9.997-24.139,9.995h-25.6
				c9.053,0.002,17.737-3.593,24.139-9.995s9.997-15.085,9.995-24.139v-76.8H502.464z"/>
		</g>
		<path style="fill:#CFD8DC;" d="M476.864,323.294v76.8c0.002,9.053-3.593,17.737-9.995,24.139s-15.085,9.997-24.139,9.995h-51.2
			l-375.467,1.109V203.827c-0.012-15.846,6.278-31.046,17.483-42.251c11.205-11.205,26.405-17.494,42.251-17.483h238.933
			c9.053-0.003,17.737,3.593,24.139,9.995c6.402,6.402,9.997,15.085,9.995,24.139v119.467c-0.009,6.792,2.685,13.309,7.488,18.112
			c4.803,4.803,11.32,7.497,18.112,7.488H476.864z"/>
		<g>
			<circle style="fill:#283593;" cx="75.798" cy="434.227" r="68.267"/>
			<circle style="fill:#283593;" cx="212.331" cy="434.227" r="68.267"/>
			<circle style="fill:#283593;" cx="348.864" cy="434.227" r="68.267"/>
		</g>
		<g>
			<ellipse style="fill:#3F51B5;" cx="62.998" cy="434.227" rx="55.467" ry="68.267"/>
			<ellipse style="fill:#3F51B5;" cx="199.531" cy="434.227" rx="55.467" ry="68.267"/>
			<ellipse style="fill:#3F51B5;" cx="336.064" cy="434.227" rx="55.467" ry="68.267"/>
		</g>
		<path style="fill:#F44335;" d="M115.945,263.39v0.085c-14.336,22.613-18.944,42.837-9.899,51.883
			c9.045,9.045,29.269,4.437,51.883-9.899h0.085l58.795-58.795v-0.085c14.336-22.613,18.944-42.837,9.899-51.883
			c-9.045-9.045-29.269-4.437-51.883,9.899h-0.085L115.945,263.39z"/>
		<path style="fill:#FEC108;" d="M186.731,86.002c-21.681,23.284-58.115,24.634-81.459,3.017
			c-21.617-23.344-20.267-59.778,3.017-81.459L186.731,86.002z"/>
		<circle style="fill:#00BCD4;" cx="166.379" cy="255.027" r="51.2"/>
	</g>
	<g>
		<path d="M102.398,427.694c-4.713,0-8.533,3.82-8.533,8.533c0,9.426-7.641,17.067-17.067,17.067s-17.067-7.641-17.067-17.067
			s7.641-17.067,17.067-17.067c4.713,0,8.533-3.82,8.533-8.533s-3.82-8.533-8.533-8.533c-18.851,0-34.133,15.282-34.133,34.133
			c0,18.851,15.282,34.133,34.133,34.133s34.133-15.282,34.133-34.133C110.931,431.515,107.111,427.694,102.398,427.694z"/>
		<path d="M225.398,412.094c-1.601,1.6-2.5,3.77-2.5,6.033s0.899,4.433,2.5,6.033c6.65,6.67,6.65,17.463,0,24.133
			c-6.758,6.433-17.375,6.433-24.133,0c-6.65-6.67-6.65-17.463,0-24.133c2.155-2.155,2.997-5.297,2.208-8.242
			s-3.089-5.244-6.033-6.033c-2.944-0.789-6.086,0.053-8.242,2.208c-13.32,13.327-13.316,34.928,0.008,48.25
			c13.325,13.322,34.925,13.322,48.25,0c13.325-13.322,13.328-34.923,0.008-48.25c-1.6-1.601-3.77-2.5-6.033-2.5
			C229.168,409.594,226.998,410.493,225.398,412.094L225.398,412.094z"/>
		<path d="M375.464,427.694c-4.713,0-8.533,3.82-8.533,8.533c0,9.426-7.641,17.067-17.067,17.067s-17.067-7.641-17.067-17.067
			s7.641-17.067,17.067-17.067c4.713,0,8.533-3.82,8.533-8.533s-3.82-8.533-8.533-8.533c-18.851,0-34.133,15.282-34.133,34.133
			c0,18.851,15.282,34.133,34.133,34.133c18.851,0,34.133-15.282,34.133-34.133C383.998,431.515,380.177,427.694,375.464,427.694z"
			/>
		<path d="M357.4,171.223c-4.254-19.618-21.595-33.626-41.669-33.662H119.464v-27.63c7.838,3.301,16.258,4.997,24.763,4.989
			c18.628-0.121,36.445-7.632,49.537-20.883c1.601-1.6,2.5-3.77,2.5-6.033c0-2.263-0.899-4.433-2.5-6.033l-33.148-33.148
			l33.157-33.231c2.169-2.155,3.019-5.307,2.229-8.26s-3.101-5.259-6.056-6.044s-6.105,0.072-8.256,2.246L148.545,36.75
			L115.323,3.528c-1.6-1.601-3.77-2.5-6.033-2.5c-2.263,0-4.433,0.899-6.033,2.5c-26.582,25.028-27.93,66.836-3.017,93.525
			c0.692,0.692,1.441,1.294,2.158,1.946v38.562h-25.6c-37.685,0.043-68.224,30.582-68.267,68.267v195.378
			c-19.362,37.693-4.501,83.945,33.192,103.307c37.693,19.362,83.945,4.501,103.307-33.192
			c13.146,25.61,39.514,41.715,68.301,41.715s55.155-16.104,68.301-41.715c15.455,30.128,48.833,46.563,82.137,40.443
			s58.658-33.348,62.392-67.003h43.17c23.553-0.028,42.639-19.114,42.667-42.667v-76.8c0-51.688-15.1-91.408-44.879-118.067
			C428.658,172.804,377.422,170.602,357.4,171.223z M109.752,22.09l65.45,65.45c-18.734,14.753-45.42,13.669-62.896-2.554
			C96.083,67.51,94.999,40.824,109.752,22.09L109.752,22.09z M455.735,219.944c24.372,21.815,37.332,54.446,38.885,96.817H375.464
			c-9.422-0.009-17.057-7.645-17.067-17.067V188.316C376.261,187.889,422.261,189.982,455.735,219.944L455.735,219.944z
			 M76.798,495.961c-24.16,0-45.941-14.554-55.186-36.874c-9.246-22.321-4.135-48.013,12.949-65.097s42.776-22.194,65.097-12.949
			c22.321,9.246,36.874,31.027,36.874,55.186C136.494,469.202,109.772,495.924,76.798,495.961L76.798,495.961z M255.569,478.465
			c-20.15,20.15-51.728,23.259-75.422,7.427c-23.694-15.832-32.904-46.196-21.999-72.524s38.889-41.285,66.838-35.725
			s48.078,30.088,48.078,58.584C273.108,452.078,266.808,467.287,255.569,478.465L255.569,478.465z M349.864,495.961
			c-24.16,0-45.941-14.554-55.186-36.874c-9.246-22.321-4.135-48.013,12.949-65.097s42.776-22.194,65.097-12.949
			c22.321,9.246,36.874,31.027,36.874,55.186C409.561,469.202,382.839,495.924,349.864,495.961L349.864,495.961z M494.931,402.094
			c-0.015,14.132-11.468,25.585-25.6,25.6h-43.17c-3.734-33.655-29.088-60.883-62.392-67.004s-66.682,10.315-82.137,40.444
			c-13.146-25.61-39.514-41.715-68.301-41.715s-55.155,16.104-68.301,41.715c-10.828-21.188-30.894-36.134-54.295-40.442
			c-23.401-4.308-47.474,2.513-65.137,18.456V205.827c0.031-28.264,22.936-51.169,51.2-51.2h213.333v145.067
			c0,4.713,3.82,8.533,8.533,8.533s8.533-3.821,8.533-8.533V154.627h8.533c14.132,0.015,25.585,11.468,25.6,25.6v119.467
			c0.022,18.842,15.291,34.112,34.133,34.133h119.467V402.094z"/>
		<path d="M395.044,226.315c14.008,3.171,27.029,9.718,37.929,19.071c9.447,8.698,16.538,19.647,20.612,31.825
			c1.018,2.877,3.495,4.991,6.496,5.545c3.001,0.554,6.07-0.537,8.048-2.861c1.978-2.324,2.565-5.527,1.539-8.401
			c-5.025-14.873-13.734-28.232-25.317-38.829c-12.958-11.207-28.462-19.072-45.158-22.908c-4.572-1.146-9.208,1.632-10.354,6.204
			S390.471,225.169,395.044,226.315L395.044,226.315z"/>
		<path d="M298.664,325.294c-4.713,0-8.533,3.821-8.533,8.533v8.533c0,4.713,3.82,8.533,8.533,8.533s8.533-3.82,8.533-8.533v-8.533
			C307.198,329.115,303.377,325.294,298.664,325.294z"/>
		<path d="M233.739,190.665c-11.588-11.592-33.24-8.927-59.622,7.036c-18.094-2.13-36.168,4.145-49.049,17.03
			c-12.881,12.885-19.151,30.96-17.015,49.054c-15.949,26.373-18.628,48.02-7.039,59.605c5.149,4.907,12.078,7.498,19.183,7.175
			c14.512-1.097,28.48-5.995,40.498-14.202c18.086,2.11,36.144-4.175,49.011-17.06c12.867-12.884,19.128-30.95,16.993-49.034
			C242.65,223.896,245.328,202.249,233.739,190.665z M113.081,311.323c-3.289-3.289-2.936-12.319,2.376-24.87
			c5.341,9.381,13.11,17.15,22.49,22.492C125.389,314.258,116.355,314.609,113.081,311.323z M167.377,299.694
			c-23.564,0-42.667-19.103-42.667-42.667s19.103-42.667,42.667-42.667s42.667,19.103,42.667,42.667
			C210.016,280.58,190.93,299.666,167.377,299.694z M196.8,205.106c12.549-5.313,21.578-5.666,24.872-2.374
			c3.289,3.289,2.936,12.319-2.376,24.87C213.954,218.219,206.183,210.448,196.8,205.106L196.8,205.106z"/>
	</g>
</g>
<g>
</g>
<g>
</g>
<g>
</g>
<g>
</g>
<g>
</g>
<g>
</g>
<g>
</g>
<g>
</g>
<g>
</g>
<g>
</g>
<g>
</g>
<g>
</g>
<g>
</g>
<g>
</g>
<g>
</g>
</svg>
