<svg width="185" height="298" viewBox="0 0 185 298" fill="none" xmlns="http://www.w3.org/2000/svg">
<path d="M92.43 100.26L75.38 93.95C69.19 91.66 66 84.72 68.29 78.53L93.44 10.55C95.73 4.36 102.67 1.17001 108.86 3.46001L125.91 9.77C132.1 12.06 135.29 19 133 25.19L107.85 93.17C105.55 99.36 98.62 102.55 92.43 100.26Z" fill="#754595" stroke="#951B81" stroke-width="4" stroke-miterlimit="10"/>
<path d="M30.61 292.01L11.09 285.68C4.81 283.65 1.33999 276.84 3.36999 270.56L25.72 201.6C27.75 195.32 34.56 191.85 40.84 193.88L60.36 200.21C66.64 202.24 70.11 209.05 68.08 215.33L45.73 284.29C43.69 290.58 36.88 294.05 30.61 292.01Z" fill="#754595" stroke="#951B81" stroke-width="4" stroke-miterlimit="10"/>
<path d="M107.32 95.89C116.51 71.65 125.69 47.42 134.88 23.18C140.1 24.79 146.95 27.36 154.46 31.52C154.46 31.52 164.89 37.03 172.51 44.2C188.57 59.31 184.12 117.1 164.21 177.84C161.93 184.78 149.19 222.7 120.54 262.71C106.71 282.02 96.38 291.75 81.96 294.91C64.95 298.64 49.8 291.57 42.48 287.42C51.29 262.7 60.11 237.99 68.92 213.27C72.39 215.38 79.03 218.66 86.86 217.59C96.82 216.22 102.89 208.61 109.95 199.75C118 189.65 121.78 180.26 124.3 173.86C127.27 166.3 131.12 156.28 132 142.72C132.77 130.81 133.67 115.21 123.25 104.58C117.98 99.18 111.61 96.93 107.32 95.89Z" fill="#754595" stroke="#951B81" stroke-width="4" stroke-miterlimit="10"/>
</svg>
