<svg width="245" height="210" viewBox="0 0 245 210" fill="none" xmlns="http://www.w3.org/2000/svg">
<g id="Group 1">
<g id="volume">
<path id="Vector" d="M212.87 75.47L221.33 83.9" stroke="#662483" stroke-width="7" stroke-miterlimit="10"/>
<path id="Vector_2" d="M224.95 63.24L233.38 68.71" stroke="#662483" stroke-width="7" stroke-miterlimit="10"/>
<path id="Vector_3" d="M233.38 48.75L242.42 54.63" stroke="#662483" stroke-width="7" stroke-miterlimit="10"/>
</g>
<g id="main body">
<path id="Vector_4" d="M27.86 110.89C25.39 120.18 23.11 130.63 21.38 142.12C19.55 154.27 18.66 165.5 18.33 175.55C18.56 178.64 19.59 186.85 25.82 194.61C32.88 203.41 42.07 205.93 44.94 206.6C66.68 207.19 88.97 207.49 111.77 207.48C136.15 207.46 159.94 207.07 183.11 206.37C186.71 205.46 192.71 203.45 198.71 198.69C206.72 192.34 210.24 184.65 211.64 180.99C211.33 168.78 210.23 154.78 207.7 139.46C205.16 124.04 201.68 110.36 198.02 98.63C194.22 93.3 189.38 87.31 183.33 81.19C177.77 75.57 172.31 71 167.39 67.32C150.76 64.79 131.54 63.06 110.21 63.24C97.77 63.35 86.14 64.1 75.43 65.23C59.58 80.46 43.72 95.68 27.86 110.89Z" fill="#D3A9B0" stroke="#662483" stroke-width="5" stroke-miterlimit="10"/>
<g id="body line">
<path id="Vector_5" d="M21.14 186.53H150.01" stroke="#662483" stroke-width="7" stroke-miterlimit="10"/>
<path id="Vector_6" d="M159.75 186.53H184.06" stroke="#662483" stroke-width="7" stroke-miterlimit="10"/>
</g>
<g id="dial">
<path id="Vector_7" d="M116 171.96C143.454 171.96 165.71 151.696 165.71 126.7C165.71 101.704 143.454 81.44 116 81.44C88.5459 81.44 66.29 101.704 66.29 126.7C66.29 151.696 88.5459 171.96 116 171.96Z" fill="#FFF8EF" stroke="#662483" stroke-width="7" stroke-miterlimit="10"/>
</g>
<g id="dial contents">
<path id="Vector_8" d="M116 133.07C119.518 133.07 122.37 130.218 122.37 126.7C122.37 123.182 119.518 120.33 116 120.33C112.482 120.33 109.63 123.182 109.63 126.7C109.63 130.218 112.482 133.07 116 133.07Z" fill="#662483" stroke="#662483" stroke-width="7" stroke-miterlimit="10"/>
<path id="Vector_9" d="M84.3 111.55L94.27 119.08" stroke="#662483" stroke-width="7" stroke-miterlimit="10"/>
<path id="Vector_10" d="M100.47 97.82L106.45 107.79" stroke="#662483" stroke-width="7" stroke-miterlimit="10"/>
<path id="Vector_11" d="M127.28 96.93L121.08 108.89" stroke="#662483" stroke-width="7" stroke-miterlimit="10"/>
<path id="Vector_12" d="M144.34 108.89L135.92 116.43" stroke="#662483" stroke-width="7" stroke-miterlimit="10"/>
<path id="Vector_13" d="M151.21 131.27H140.13" stroke="#662483" stroke-width="7" stroke-miterlimit="10"/>
<path id="Vector_14" d="M135.92 149.66L131.05 142.35" stroke="#662483" stroke-width="7" stroke-miterlimit="10"/>
<path id="Vector_15" d="M117.31 157.94V149.66" stroke="#662483" stroke-width="7" stroke-miterlimit="10"/>
<path id="Vector_16" d="M94.27 149.66L102.47 142.35" stroke="#662483" stroke-width="7" stroke-miterlimit="10"/>
<path id="Vector_17" d="M81.86 135.36L89.28 131.27" stroke="#662483" stroke-width="7" stroke-miterlimit="10"/>
</g>
</g>
<g id="Phone">
<path id="Vector_18" d="M26.15 106.3C31.47 104.75 37.51 102.6 43.94 99.57C53.15 95.23 60.58 90.31 66.29 85.9C64.99 83.08 63.46 78.94 62.81 73.75C62.01 67.38 62.86 62.11 63.68 58.78C74.58 53.6 87.87 48.22 103.39 43.81C119.16 39.32 133.52 36.88 145.67 35.57C146.36 39.25 147.54 43.73 149.61 48.59C152.69 55.82 156.61 61.22 159.75 64.86C165.86 66.6 174.89 68.4 185.84 67.9C194.64 67.5 201.96 65.73 207.32 63.99C211.08 58.06 214.84 52.13 218.6 46.2C215.54 40.1 209.36 29.78 197.99 20.6C184.95 10.07 171.69 6.39 164.79 4.98C150.9 2.95 100.2 -3.02 56.09 23.64C44.69 30.53 21.6 44.48 9.05 72.3C6.2 78.62 4.55 84.19 3.59 88.08C5.28 91.09 8.54 95.97 14.22 100.23C18.74 103.62 23.14 105.37 26.15 106.3Z" fill="#D3A9B0" stroke="#662483" stroke-width="5" stroke-miterlimit="10"/>
<g id="beiege phone">
<path id="Vector_19" d="M17.04 100.44C32.16 93.21 47.27 85.98 62.39 78.74L66.3 85.9C54.51 93.42 42.72 100.94 30.93 108.47C29.03 107.88 26.79 107.01 24.39 105.71C21.22 103.99 18.79 102.06 17.04 100.44Z" fill="#FFF8EF" stroke="#662483" stroke-width="7" stroke-miterlimit="10"/>
<path id="Vector_20" d="M156.07 55.61C175.01 53.32 193.94 51.04 212.88 48.75C209.97 53.62 207.07 58.49 204.16 63.36C200.86 65.22 195.59 67.62 188.76 68.43C176.35 69.9 166.78 65.21 163.13 63.16C160.77 60.65 158.42 58.13 156.07 55.61Z" fill="#FFF8EF" stroke="#662483" stroke-width="7" stroke-miterlimit="10"/>
</g>
</g>
</g>
</svg>
